<?xml version="1.0" encoding="utf-8"?>
<!-- Generator: Adobe Illustrator 16.0.0, SVG Export Plug-In . SVG Version: 6.00 Build 0)  -->
<!DOCTYPE svg PUBLIC "-//W3C//DTD SVG 1.1//EN" "http://www.w3.org/Graphics/SVG/1.1/DTD/svg11.dtd">
<svg version="1.1" id="_x23_Layer_1" xmlns="http://www.w3.org/2000/svg" xmlns:xlink="http://www.w3.org/1999/xlink" x="0px"
	 y="0px" width="522.851px" height="349px" viewBox="0 0 522.851 349" enable-background="new 0 0 522.851 349"
	 xml:space="preserve">
<g>
	<rect x="-0.5" y="-0.5" fill-rule="evenodd" clip-rule="evenodd" fill="#D93F34" width="523.851" height="350"/>
	<path fill-rule="evenodd" clip-rule="evenodd" fill="#292828" d="M224.603,116.713c0.297-10.404,0.632-20.808-5.313-25.416
		c-5.908-4.57-18.096-3.344-28.611-7.691c-10.478-4.347-19.321-14.269-25.081-19.656c-5.796-5.388-8.546-6.279-10.813-6.094
		c-2.303,0.148-4.125,1.375-4.681,4.793c-0.595,3.418,0.037,9.029,7.766,15.085c7.766,6.056,22.591,12.522,30.06,15.643
		c7.506,3.122,7.617,2.898,3.084,2.304c-4.571-0.631-13.822-1.635-21.18-4.718c-7.357-3.084-12.819-8.212-16.237-10.367
		c-3.418-2.192-4.793-1.338-5.686,0.037c-0.929,1.337-1.375,3.232-0.966,5.053c0.446,1.821,1.784,3.53,4.31,5.425
		c2.564,1.858,6.316,3.827,10.702,5.647c4.384,1.784,9.4,3.456,14.565,5.016c5.165,1.561,10.478,3.01,14.23,3.679
		c3.716,0.668,5.834,0.52,6.057,1.188c0.223,0.669-1.449,2.192-7.394,1.486c-5.945-0.706-16.126-3.642-23.26-6.243
		c-7.097-2.638-11.147-4.941-13.748-5.833c-2.602-0.892-3.753-0.372-4.534,0.668c-0.743,1.04-1.151,2.602-1.003,4.236
		c0.148,1.635,0.854,3.381,3.344,5.09c2.489,1.709,6.725,3.344,14.23,4.942c7.506,1.635,18.245,3.233,23.483,4.125
		c5.239,0.929,4.979,1.189,1.226,2.081c-3.753,0.892-10.924,2.453-17.761,1.672s-13.265-3.827-17.129-5.202
		c-3.865-1.338-5.128-1.003-5.908,0.224c-0.817,1.263-1.152,3.381-0.186,5.536c0.966,2.155,3.232,4.384,7.58,6.242
		c4.31,1.895,10.738,3.456,17.761,3.01c7.061-0.446,14.752-2.898,18.579-4.125c3.827-1.227,3.79-1.227,0.446,0.929
		c-3.381,2.193-10.032,6.54-15.903,8.174c-5.871,1.636-10.961,0.595-14.788-0.594c-3.828-1.151-6.392-2.489-8.398-3.01
		c-1.969-0.557-3.381-0.334-4.31,0.558c-0.892,0.929-1.338,2.452-1.04,4.087c0.297,1.635,1.3,3.306,4.421,5.499
		c3.121,2.192,8.323,4.905,13.896,4.793c5.573-0.111,11.444-3.047,17.055-6.019c5.573-2.936,10.886-5.908,13.599-7.209
		c2.75-1.263,2.936-0.892,1.078,0.855c-1.858,1.783-5.722,4.942-10.181,8.026c-4.458,3.084-9.475,6.094-14.491,7.394
		c-5.016,1.264-10.032,0.78-13.004,0.186c-2.973-0.594-3.902-1.3-5.239-1.449c-1.301-0.148-3.047,0.26-4.087,1.523
		c-1.077,1.263-1.449,3.381-0.148,5.61c1.3,2.23,4.31,4.608,7.319,5.723c3.01,1.151,6.02,1.077,10.07,0.074
		c4.087-0.966,9.215-2.861,15.309-6.279c6.131-3.381,13.265-8.36,16.795-10.702c3.53-2.341,3.493-2.118,0.074,1.784
		c-3.456,3.864-10.255,11.407-16.089,16.721c-5.871,5.313-10.775,8.435-14.268,9.92c-3.493,1.486-5.573,1.338-7.542,0.446
		c-2.007-0.892-3.902-2.527-5.017-3.641c-1.151-1.078-1.486-1.598-2.377-1.078c-0.892,0.521-2.304,2.081-3.381,3.939
		c-1.114,1.857-1.895,4.013-1.82,6.354c0.111,2.34,1.077,4.828,3.195,6.429c2.118,1.598,5.351,2.302,8.77,2.34
		c3.418,0.036,6.985-0.633,11.11-2.64c4.087-2.005,8.657-5.351,14.454-10.552c5.759-5.202,12.744-12.261,16.274-15.643
		c3.53-3.418,3.641-3.122,2.75-1.227c-0.892,1.858-2.75,5.351-5.425,8.992c-2.675,3.678-6.131,7.469-8.843,9.661
		c-2.712,2.193-4.645,2.749-6.168,3.604c-1.487,0.855-2.564,1.969-3.01,3.195c-0.445,1.227-0.297,2.565,0.298,3.753
		c0.595,1.188,1.598,2.305,3.046,2.75c1.449,0.445,3.344,0.261,5.351-0.336c2.006-0.555,4.162-1.484,6.168-3.269
		c2.043-1.82,3.938-4.458,6.428-8.175c2.49-3.752,5.611-8.62,7.32-11.035c1.709-2.415,1.969-2.415,1.969-1.672
		s-0.334,2.267-1.188,4.458c-0.855,2.193-2.23,5.054-3.716,7.283c-1.486,2.192-3.046,3.754-3.938,5.016
		c-0.855,1.227-1.041,2.194-0.781,3.011c0.223,0.817,0.892,1.523,1.747,1.784c0.854,0.259,1.932,0.075,3.27-0.596
		c1.3-0.669,2.824-1.782,5.127-4.384c2.34-2.639,5.425-6.726,7.134-8.546c1.709-1.858,2.043-1.413,1.598,0.482
		c-0.483,1.895-1.747,5.314-3.344,8.768c-1.598,3.457-3.567,6.987-6.316,10.331c-2.75,3.343-6.317,6.503-9.401,8.361
		c-3.121,1.855-5.759,2.414-6.8,3.047c-1.04,0.594-0.52,1.262,0.075,2.155c0.594,0.891,1.263,2.005,1.598,2.711
		c0.334,0.707,0.371,1.004-2.861,3.195s-9.735,6.28-14.231,8.732c-4.496,2.414-7.022,3.233-8.694,2.23
		c-1.672-0.968-2.453-3.754-3.716-4.831c-1.263-1.078-3.009-0.484-3.715-1.375s-0.372-3.308-1.598-4.867
		c-1.263-1.562-4.087-2.304-6.651-1.971c-2.564,0.335-4.904,1.748-5.982,3.604c-1.077,1.82-0.966,4.163-0.557,5.202
		c0.408,1.078,1.077,0.891,1.561,0.371c0.52-0.52,0.854-1.375,1.3-1.969c0.408-0.594,0.892-0.93,1.151-0.558
		c0.261,0.409,0.335,1.487,0.521,2.342c0.148,0.817,0.446,1.449,1.003,1.856c0.557,0.448,1.375,0.671,2.192,0.968
		c0.78,0.259,1.523,0.594,1.709,1.078c0.223,0.52-0.111,1.151-0.966,1.672c-0.817,0.48-2.155,0.816-3.344,0.854
		c-1.227,0-2.304-0.261-3.567-0.3c-1.301-0.035-2.824,0.224-3.976,0.855c-1.152,0.633-1.896,1.672-2.155,2.527
		c-0.26,0.854,0.037,1.562-0.186,2.229c-0.223,0.633-0.892,1.301-1.523,2.117c-0.594,0.816-1.115,1.82-1.115,3.121
		s0.521,2.862,1.003,3.494c0.483,0.669,0.892,0.371,1.115-0.148c0.223-0.521,0.26-1.265,0.372-1.971
		c0.111-0.669,0.297-1.263,0.594-1.782c0.298-0.522,0.669-0.968,1.004-1.227c0.297-0.297,0.558-0.445,1.449,0.371
		c0.929,0.781,2.527,2.489,3.939,2.638c1.412,0.112,2.638-1.375,3.493-2.23c0.892-0.853,1.412-1.039,2.044-1.149
		c0.631-0.112,1.375-0.148,1.3,0.816c-0.111,0.966-1.04,2.935-1.263,4.57c-0.224,1.636,0.334,2.898,0,3.938
		c-0.298,1.042-1.486,1.823-2.118,2.565s-0.669,1.449-0.632,2.229c0,0.743,0.149,1.56,0.483,2.453
		c0.372,0.891,0.966,1.856,1.709,2.934c0.706,1.078,1.598,2.191,2.824,2.602c1.227,0.445,2.787,0.112,3.158-0.223
		c0.372-0.371-0.409-0.781-0.966-1.227c-0.558-0.445-0.892-0.891-1.04-1.188c-0.187-0.336-0.149-0.448-0.075-0.671
		c0.112-0.223,0.298-0.521,0.669-0.704c0.335-0.188,0.855-0.262,1.524-0.707c0.632-0.445,1.412-1.265,1.895-1.969
		c0.521-0.706,0.781-1.301,1.115-2.007c0.334-0.668,0.78-1.413,1.078-2.117c0.26-0.707,0.371-1.375,0.482-2.008
		c0.111-0.632,0.224-1.265,0.148-2.043c-0.111-0.819-0.371-1.784-0.482-2.565c-0.111-0.78-0.111-1.374,1.561-2.117
		c1.672-0.742,4.979-1.672,6.651-2.081c1.672-0.407,1.746-0.259,1.932,0.855c0.223,1.077,0.594,3.159,1.524,4.311
		c0.966,1.152,2.452,1.411,3.195,2.638c0.706,1.226,0.669,3.418,1.041,4.866c0.371,1.488,1.151,2.194,2.118,2.453
		c0.966,0.261,2.081,0.074,2.824,0.074c0.706,0,1.04,0.187,1.264,0.558c0.186,0.41,0.26,1.04,0.297,1.56
		c0,0.483-0.037,0.93-0.111,1.71c-0.074,0.742-0.111,1.858,0.483,1.562c0.631-0.297,1.932-2.045,2.526-3.382
		c0.595-1.301,0.446-2.266,0.224-3.046c-0.261-0.817-0.595-1.488-0.781-1.82c-0.186-0.372-0.186-0.41,0.409-1.414
		c0.595-1.003,1.747-2.934,1.486-4.718c-0.297-1.82-2.043-3.456-3.456-4.237c-1.412-0.816-2.452-0.742-3.121-0.965
		c-0.669-0.223-1.004-0.743-1.301-1.56c-0.335-0.855-0.632-1.972-0.78-2.714c-0.149-0.706-0.149-1.039,3.195-2.897
		c3.344-1.82,9.996-5.164,13.414-6.762s3.604-1.449,4.458,0.223c0.817,1.708,2.303,4.941,3.53,6.203
		c1.189,1.265,2.081,0.484,3.901-1.152c1.783-1.633,4.496-4.198,7.283-7.652c2.824-3.456,5.722-7.842,8.063-11.666
		c2.304-3.866,4.013-7.136,5.09-8.92c1.078-1.82,1.523-2.079,2.601-1.856c1.04,0.259,2.75,1.004,3.084,3.566
		s-0.743,6.948-2.675,12.597c-1.932,5.647-4.682,12.596-8.695,16.759c-3.976,4.198-9.178,5.609-12.633,6.203
		c-3.418,0.594-5.091,0.335-6.131,0.187c-1.078-0.148-1.523-0.148-1.598,1.598s0.26,5.202,1.561,6.91
		c1.3,1.672,3.604,1.598,5.536,1.487c1.969-0.148,3.641-0.335,5.611-0.742c1.932-0.448,4.236-1.078,5.982-1.934
		c1.746-0.816,3.009-1.784,4.049-2.823c1.078-1.004,1.933-2.043,2.675-2.973c0.706-0.891,1.301-1.71,1.747-2.34
		c0.482-0.633,0.817-1.116,1.04-1.116c0.186-0.036,0.297,0.371,0.111,1.19c-0.186,0.816-0.631,1.969-2.006,4.16
		c-1.338,2.191-3.568,5.425-6.131,7.468c-2.564,2.043-5.462,2.937-7.32,3.344c-1.858,0.41-2.712,0.374-2.712,1.19
		c0.037,0.781,0.892,2.453,1.598,3.53c0.743,1.078,1.337,1.598,2.377,2.005c1.003,0.448,2.49,0.781,4.682,0.336
		c2.192-0.41,5.127-1.598,7.58-3.531c2.452-1.93,4.384-4.605,5.536-6.651c1.188-2.004,1.598-3.379,1.932-4.457
		c0.335-1.078,0.558-1.895,0.743-2.714c0.149-0.816,0.223-1.672,0.298-2.266c0.074-0.632,0.186-1.004,0.371-1.301
		c0.223-0.297,0.483-0.558,0.781-0.223c0.297,0.333,0.631,1.227,0.111,4.979c-0.483,3.789-1.784,10.402-4.719,14.119
		c-2.898,3.68-7.468,4.458-10.069,4.829c-2.601,0.409-3.27,0.483-3.753,0.78c-0.483,0.298-0.78,0.855-1.003,1.82
		c-0.223,0.968-0.372,2.343,0.26,3.754c0.632,1.448,2.044,2.972,3.716,3.976c1.635,1.004,3.567,1.523,5.945,1.265
		c2.377-0.297,5.239-1.375,7.543-3.011c2.303-1.672,4.013-3.863,5.202-6.058c1.189-2.191,1.784-4.383,2.304-6.612
		c0.52-2.23,0.966-4.534,1.449-6.503c0.482-1.933,1.04-3.53,1.449-4.683c0.445-1.149,0.743-1.856,1.04-2.005
		c0.297-0.148,0.632,0.259,0.446,4.051c-0.223,3.789-0.929,10.96-1.895,17.165c-1.003,6.168-2.229,11.408-2.787,14.269
		c-0.521,2.823-0.334,3.308,0.148,3.715c0.483,0.448,1.264,0.819,3.047,2.491c1.783,1.671,4.533,4.644,6.056,6.428
		c2.155,2.527,1.412,2.527,3.567,0c1.523-1.784,4.273-4.757,6.057-6.428c1.783-1.672,2.564-2.043,3.047-2.491
		c0.483-0.407,0.669-0.892,0.111-3.715c-0.52-2.86-1.746-8.101-2.75-14.269c-0.965-6.205-1.672-13.376-1.895-17.165
		c-0.186-3.792,0.148-4.199,0.445-4.051c0.299,0.148,0.596,0.855,1.041,2.005c0.408,1.152,0.967,2.75,1.449,4.683
		c0.484,1.969,0.93,4.272,1.449,6.503c0.521,2.229,1.115,4.421,2.304,6.612c1.152,2.194,2.897,4.386,5.202,6.058
		c2.303,1.636,5.163,2.714,7.542,3.011c2.378,0.259,4.312-0.261,5.944-1.265c1.675-1.004,3.085-2.527,3.718-3.976
		c0.632-1.411,0.481-2.786,0.259-3.754c-0.224-0.965-0.521-1.522-1.001-1.82c-0.484-0.297-1.152-0.371-3.754-0.78
		c-2.601-0.371-7.171-1.149-10.106-4.829c-2.899-3.717-4.199-10.33-4.72-14.119c-0.483-3.753-0.187-4.646,0.148-4.979
		c0.297-0.335,0.558-0.074,0.78,0.223c0.187,0.297,0.298,0.669,0.372,1.301c0.074,0.594,0.148,1.449,0.297,2.266
		c0.148,0.819,0.409,1.636,0.743,2.714s0.743,2.453,1.895,4.457c1.19,2.046,3.12,4.722,5.573,6.651
		c2.452,1.934,5.389,3.121,7.58,3.531c2.192,0.445,3.641,0.112,4.683-0.336c1.04-0.407,1.634-0.927,2.379-2.005
		c0.704-1.077,1.559-2.749,1.559-3.53c0.039-0.816-0.816-0.78-2.675-1.19c-1.856-0.407-4.754-1.301-7.319-3.344
		c-2.563-2.043-4.793-5.276-6.168-7.468c-1.339-2.191-1.784-3.344-1.969-4.16c-0.187-0.819-0.112-1.227,0.11-1.19
		c0.223,0,0.558,0.483,1.004,1.116c0.483,0.63,1.077,1.449,1.784,2.34c0.742,0.93,1.598,1.969,2.675,2.973
		c1.04,1.039,2.267,2.007,4.051,2.823c1.746,0.855,4.012,1.485,5.98,1.934c1.969,0.407,3.643,0.594,5.573,0.742
		c1.969,0.11,4.273,0.185,5.573-1.487c1.301-1.708,1.637-5.164,1.563-6.91s-0.521-1.746-1.598-1.598
		c-1.078,0.148-2.714,0.407-6.132-0.187c-3.456-0.594-8.658-2.005-12.632-6.203c-4.015-4.163-6.8-11.111-8.697-16.759
		c-1.931-5.648-3.009-10.034-2.675-12.597c0.299-2.563,2.045-3.308,3.085-3.566c1.077-0.223,1.523,0.036,2.601,1.856
		c1.078,1.784,2.786,5.054,5.09,8.92c2.343,3.824,5.24,8.21,8.064,11.666c2.785,3.454,5.499,6.02,7.281,7.652
		c1.82,1.637,2.714,2.417,3.901,1.152c1.227-1.262,2.714-4.495,3.531-6.203c0.816-1.672,1.003-1.82,4.459-0.223
		c3.418,1.598,10.069,4.941,13.413,6.762c3.344,1.858,3.344,2.191,3.195,2.897c-0.148,0.742-0.445,1.858-0.781,2.714
		c-0.297,0.816-0.63,1.337-1.301,1.56c-0.668,0.223-1.746,0.148-3.12,0.965c-1.411,0.781-3.157,2.417-3.457,4.237
		c-0.297,1.784,0.894,3.715,1.488,4.718c0.594,1.004,0.594,1.042,0.409,1.414c-0.187,0.332-0.558,1.003-0.78,1.82
		c-0.262,0.78-0.372,1.745,0.223,3.046c0.594,1.337,1.895,3.085,2.526,3.382c0.594,0.297,0.559-0.819,0.484-1.562
		c-0.074-0.78-0.113-1.227-0.113-1.71c0.039-0.52,0.113-1.149,0.297-1.56c0.223-0.371,0.521-0.558,1.265-0.558
		c0.743,0,1.856,0.187,2.824-0.074c0.965-0.259,1.746-0.965,2.117-2.453c0.371-1.448,0.333-3.641,1.04-4.866
		c0.742-1.227,2.229-1.485,3.159-2.638c0.965-1.151,1.336-3.233,1.559-4.311c0.188-1.114,0.262-1.263,1.933-0.855
		c1.672,0.409,4.98,1.339,6.651,2.081c1.672,0.743,1.672,1.337,1.563,2.117c-0.148,0.781-0.41,1.746-0.484,2.565
		c-0.074,0.778,0.036,1.411,0.148,2.043c0.11,0.633,0.223,1.301,0.484,2.008c0.297,0.704,0.704,1.449,1.077,2.117
		c0.333,0.706,0.595,1.301,1.075,2.007c0.522,0.704,1.301,1.523,1.934,1.969c0.668,0.445,1.19,0.52,1.523,0.707
		c0.371,0.184,0.558,0.481,0.668,0.704c0.074,0.223,0.074,0.335-0.074,0.671c-0.148,0.297-0.481,0.742-1.04,1.188
		c-0.558,0.445-1.336,0.855-0.965,1.227c0.371,0.335,1.931,0.668,3.157,0.223c1.226-0.41,2.081-1.523,2.823-2.602
		c0.745-1.077,1.339-2.043,1.672-2.934c0.374-0.894,0.484-1.71,0.522-2.453c0.036-0.78-0.038-1.487-0.633-2.229
		c-0.632-0.742-1.82-1.523-2.117-2.565c-0.335-1.039,0.185-2.302,0-3.938c-0.223-1.636-1.151-3.604-1.265-4.57
		c-0.109-0.965,0.668-0.929,1.301-0.816c0.633,0.11,1.152,0.297,2.043,1.149c0.855,0.855,2.081,2.343,3.495,2.23
		c1.41-0.148,3.008-1.856,3.938-2.638c0.891-0.816,1.151-0.668,1.448-0.371c0.298,0.259,0.707,0.704,1.004,1.227
		c0.297,0.52,0.484,1.113,0.594,1.782c0.113,0.706,0.113,1.449,0.336,1.971c0.223,0.52,0.668,0.817,1.151,0.148
		c0.481-0.632,1.004-2.193,1.004-3.494s-0.522-2.305-1.116-3.121c-0.632-0.816-1.301-1.484-1.523-2.117
		c-0.223-0.668,0.074-1.375-0.184-2.229c-0.262-0.855-1.042-1.895-2.156-2.527c-1.152-0.632-2.675-0.891-3.976-0.855
		c-1.301,0.039-2.379,0.3-3.566,0.3c-1.19-0.038-2.527-0.374-3.347-0.854c-0.854-0.521-1.188-1.152-1.003-1.672
		c0.225-0.484,0.968-0.819,1.748-1.078c0.817-0.297,1.634-0.52,2.191-0.968c0.559-0.407,0.855-1.039,1.004-1.856
		c0.185-0.854,0.259-1.933,0.52-2.342c0.262-0.372,0.743-0.036,1.152,0.558c0.407,0.594,0.781,1.449,1.262,1.969
		c0.521,0.52,1.19,0.707,1.598-0.371c0.371-1.039,0.522-3.382-0.556-5.202c-1.116-1.856-3.42-3.27-5.982-3.604
		c-2.602-0.333-5.425,0.409-6.651,1.971c-1.227,1.56-0.892,3.977-1.598,4.867c-0.707,0.891-2.453,0.297-3.715,1.375
		c-1.265,1.077-2.081,3.863-3.718,4.831c-1.672,1.003-4.198,0.184-8.694-2.23c-4.531-2.452-10.998-6.541-14.229-8.732
		c-3.233-2.191-3.197-2.488-2.862-3.195c0.336-0.706,0.966-1.82,1.563-2.711c0.594-0.894,1.151-1.562,0.109-2.155
		c-1.039-0.633-3.715-1.191-6.8-3.047c-3.082-1.858-6.651-5.019-9.4-8.361c-2.75-3.344-4.719-6.874-6.316-10.331
		c-1.598-3.453-2.859-6.873-3.344-8.768c-0.445-1.895-0.148-2.341,1.598-0.482c1.711,1.82,4.793,5.907,7.097,8.546
		c2.341,2.602,3.863,3.715,5.164,4.384c1.301,0.671,2.417,0.854,3.272,0.596c0.853-0.261,1.523-0.967,1.746-1.784
		c0.258-0.816,0.074-1.784-0.781-3.011c-0.891-1.262-2.491-2.823-3.94-5.016c-1.484-2.229-2.897-5.09-3.715-7.283
		c-0.854-2.192-1.188-3.715-1.188-4.458c-0.038-0.743,0.259-0.743,1.969,1.672c1.71,2.416,4.831,7.283,7.319,11.035
		c2.488,3.717,4.386,6.354,6.429,8.175c2.007,1.784,4.124,2.714,6.168,3.269c2.007,0.597,3.901,0.781,5.351,0.336
		s2.452-1.562,3.046-2.75c0.559-1.188,0.743-2.526,0.298-3.753c-0.446-1.227-1.523-2.34-3.009-3.195
		c-1.523-0.854-3.456-1.41-6.17-3.604c-2.711-2.192-6.167-5.983-8.843-9.661c-2.676-3.641-4.531-7.134-5.425-8.992
		c-0.892-1.895-0.817-2.192,2.749,1.227c3.531,3.381,10.518,10.441,16.275,15.643c5.796,5.201,10.366,8.547,14.455,10.552
		c4.086,2.007,7.69,2.676,11.108,2.64c3.42-0.038,6.651-0.742,8.769-2.34c2.119-1.601,3.085-4.089,3.197-6.429
		c0.074-2.342-0.706-4.497-1.822-6.354c-1.114-1.858-2.489-3.418-3.38-3.939c-0.894-0.52-1.265,0-2.378,1.078
		c-1.116,1.114-3.011,2.75-5.016,3.641c-1.972,0.892-4.051,1.04-7.545-0.446c-3.492-1.486-8.397-4.607-14.268-9.92
		c-5.832-5.314-12.671-12.856-16.088-16.721c-3.418-3.901-3.457-4.125,0.074-1.784c3.53,2.341,10.663,7.32,16.756,10.702
		c6.132,3.418,11.26,5.313,15.349,6.279c4.047,1.003,7.058,1.077,10.068-0.074c3.009-1.115,6.02-3.493,7.32-5.723
		c1.3-2.229,0.929-4.347-0.149-5.61c-1.041-1.264-2.787-1.672-4.088-1.523c-1.337,0.148-2.266,0.854-5.238,1.449
		c-2.973,0.595-7.99,1.078-13.006-0.186c-5.016-1.3-10.03-4.31-14.49-7.394s-8.323-6.243-10.182-8.026
		c-1.856-1.747-1.672-2.118,1.077-0.855c2.714,1.301,8.026,4.273,13.6,7.209c5.612,2.972,11.482,5.908,17.057,6.019
		c5.573,0.112,10.775-2.601,13.896-4.793c3.12-2.193,4.124-3.864,4.383-5.499c0.297-1.635-0.11-3.159-1.004-4.087
		c-0.927-0.892-2.34-1.115-4.347-0.558c-1.969,0.521-4.532,1.858-8.359,3.01c-3.827,1.189-8.917,2.23-14.787,0.594
		c-5.873-1.634-12.522-5.981-15.904-8.174c-3.344-2.155-3.382-2.155,0.445-0.929c3.828,1.226,11.519,3.678,18.579,4.125
		c7.023,0.446,13.451-1.115,17.761-3.01c4.347-1.858,6.612-4.087,7.58-6.242c0.966-2.155,0.633-4.273-0.187-5.536
		c-0.781-1.227-2.043-1.562-5.906-0.224c-3.866,1.375-10.33,4.422-17.13,5.202c-6.839,0.78-14.01-0.78-17.761-1.672
		c-3.753-0.892-4.014-1.151,1.188-2.081c5.238-0.892,16.014-2.489,23.521-4.125c7.506-1.598,11.74-3.232,14.231-4.942
		c2.488-1.709,3.195-3.456,3.344-5.09c0.148-1.634-0.261-3.196-1.042-4.236c-0.742-1.041-1.895-1.56-4.496-0.668
		c-2.601,0.892-6.651,3.195-13.748,5.833c-7.132,2.601-17.314,5.537-23.259,6.243c-5.944,0.706-7.616-0.817-7.433-1.486
		c0.224-0.669,2.379-0.521,6.094-1.188c3.753-0.669,9.068-2.119,14.231-3.679c5.164-1.561,10.144-3.232,14.565-5.016
		c4.386-1.821,8.139-3.79,10.701-5.647c2.527-1.895,3.866-3.604,4.312-5.425c0.407-1.821-0.038-3.715-0.968-5.053
		c-0.891-1.375-2.266-2.229-5.684-0.037c-3.418,2.155-8.917,7.282-16.275,10.367c-7.357,3.083-16.571,4.087-21.142,4.718
		c-4.569,0.595-4.421,0.818,3.083-2.304c7.47-3.121,22.296-9.586,30.062-15.643c7.729-6.057,8.358-11.667,7.765-15.085
		c-0.559-3.418-2.379-4.645-4.683-4.793c-2.266-0.186-5.016,0.706-10.812,6.094c-5.761,5.387-14.604,15.309-25.118,19.656
		c-10.479,4.347-22.665,3.122-28.574,7.691c-5.944,4.607-5.609,15.012-5.312,25.416c-0.298,0.037-0.595,0.037-0.93,0.074
		c-0.261-0.037-0.52-0.037-0.781-0.074c-0.184-0.148-0.371-0.298-0.558-0.409c-0.148-0.334-0.297-0.669-0.445-1.003
		c-0.595-0.743-1.188-1.486-1.634-2.006c-0.445-0.521-0.781-0.817-1.116-1.041c-0.297-0.26-0.63-0.408-1.113-0.668
		c-0.446-0.26-1.04-0.557-1.523-0.743c-0.484-0.186-0.892-0.223-1.339-0.297c-0.481-0.112-1.04-0.261-1.634-0.558
		c-0.594-0.26-1.227-0.669-1.636-1.077c-0.445-0.409-0.668-0.855-0.633-2.23c0.039-1.375,0.3-3.752,0.633-5.611
		c0.297-1.857,0.668-3.232,1.301-4.979c0.632-1.747,1.598-3.902,2.416-6.057c0.853-2.155,1.56-4.347,2.45-6.093
		c0.894-1.747,1.972-3.047,3.198-3.828s2.637-1.041,3.938-1.449c1.301-0.372,2.488-0.929,4.124-0.668
		c1.636,0.223,3.679,1.263,6.316,1.597c2.64,0.335,5.834-0.037,7.768-0.334c1.969-0.26,2.675-0.446,2.675-0.78
		c0.036-0.334-0.632-0.78-1.748-1.449c-0.743-0.483-1.672-1.041-2.34-1.784c0.187-0.26,0.297-0.594,0.409-0.892
		c0.556,0.148,1.152,0.334,1.746,0.52c4.457,1.337,9.476,2.898,12.818-1.709c0.297-0.409,0.223-1.003-0.223-1.338
		c-0.445-0.297-1.042-0.223-1.339,0.186c-2.563,3.53-6.91,2.193-10.737,1.041c-0.409-0.148-0.816-0.261-1.188-0.372
		c-0.039-0.223-0.074-0.595,0.074-1.263c0.185-0.817,1.41-1.561,2.266-1.709c1.113-0.223,1.672-0.521,2.934-0.595
		c0.633,0.186,1.004,0.372,1.265,0.446c0.41,0.111,0.633,0,0.743-0.186c0.112-0.149,0.112-0.372,0.038-0.818
		c-0.445-3.083-3.718-5.09-6.541-5.424c-1.004-0.112-1.931-0.186-2.602-0.297c-0.704-0.074-1.188-0.148-1.633-0.186
		c-0.484-0.037-0.93,0.037-1.488,0.111c-0.594,0.037-1.3,0.148-1.707,0.037c-0.445-0.111-0.597-0.446-0.819-0.854
		c-0.259-0.372-0.594-0.817-1.04-1.301c-0.445-0.483-1.003-0.966-1.71-1.337c-0.704-0.372-1.598-0.632-2.526-0.817
		c-0.966-0.186-1.969-0.298-2.75-0.335c-0.816,0-1.41,0.112-2.228,0.187c-0.78,0.074-1.82,0.148-2.565,0.334
		c-0.742,0.148-1.188,0.446-1.969,0.817c-0.78,0.372-1.895,0.855-2.563,1.337c-0.706,0.521-0.968,1.004-1.152,1.078
		c-0.187,0.074-2.601-1.375-4.607-1.672c-2.267-0.334-0.336,1.598,0.074,2.043c0.409,0.446,0.891,2.192,0.816,2.824
		c-0.036,0.595-0.333,1.412-1.114,2.378c-0.78,1.003-1.413,2.675-3.678,3.827c-2.305,1.115-5.945,2.378-6.243,2.824
		c-0.297,0.483,2.787,0.297,2.676,1.3c-0.111,1.041-3.27,2.973-5.573,5.091c-2.266,2.081-3.678,4.31-4.979,6.465
		c-1.301,2.118-2.49,4.162-3.309,5.611c-3.492,6.205-4.086,6.205-7.579,0c-0.818-1.449-2.007-3.493-3.307-5.611
		c-1.301-2.155-2.713-4.384-4.979-6.465c-2.304-2.118-5.462-4.05-5.574-5.091c-0.112-1.003,2.973-0.817,2.675-1.3
		c-0.334-0.445-3.938-1.709-6.242-2.824c-2.267-1.152-2.935-2.824-3.678-3.827c-0.78-0.966-1.077-1.784-1.151-2.378
		c-0.038-0.631,0.445-2.377,0.854-2.824c0.408-0.445,2.34-2.378,0.074-2.043c-2.007,0.297-4.422,1.747-4.608,1.672
		c-0.223-0.074-0.445-0.558-1.151-1.078c-0.669-0.482-1.784-0.966-2.564-1.337c-0.78-0.371-1.227-0.669-1.97-0.817
		c-0.743-0.186-1.784-0.26-2.601-0.334c-0.78-0.074-1.375-0.187-2.192-0.187c-0.78,0.037-1.821,0.149-2.75,0.335
		s-1.82,0.446-2.526,0.817c-0.707,0.372-1.264,0.854-1.709,1.337c-0.446,0.483-0.78,0.929-1.04,1.301
		c-0.261,0.408-0.409,0.743-0.818,0.854c-0.445,0.111-1.114,0-1.708-0.037c-0.558-0.074-1.004-0.148-1.486-0.111
		c-0.446,0.037-0.929,0.111-1.635,0.186c-0.669,0.111-1.598,0.186-2.601,0.297c-2.824,0.334-6.094,2.341-6.54,5.424
		c-0.074,0.446-0.074,0.669,0.037,0.818c0.111,0.186,0.335,0.297,0.743,0.186c0.261-0.074,0.632-0.261,1.264-0.446
		c1.226,0.074,1.821,0.372,2.935,0.595c0.818,0.148,2.081,0.892,2.267,1.709c0.148,0.668,0.111,1.041,0.074,1.263
		c-0.372,0.111-0.78,0.224-1.189,0.372c-3.827,1.152-8.211,2.489-10.738-1.041c-0.298-0.408-0.892-0.482-1.338-0.186
		c-0.446,0.335-0.52,0.929-0.223,1.338c3.307,4.607,8.36,3.046,12.819,1.709c0.595-0.186,1.189-0.372,1.746-0.52
		c0.074,0.297,0.223,0.632,0.409,0.892c-0.669,0.743-1.598,1.301-2.341,1.784c-1.115,0.668-1.784,1.114-1.747,1.449
		c0,0.334,0.706,0.52,2.638,0.78c1.969,0.297,5.165,0.669,7.803,0.334c2.601-0.334,4.682-1.375,6.316-1.597
		c1.635-0.26,2.824,0.297,4.125,0.668c1.301,0.409,2.712,0.669,3.939,1.449c1.226,0.78,2.266,2.081,3.158,3.828
		c0.93,1.746,1.635,3.938,2.49,6.093c0.817,2.155,1.784,4.31,2.415,6.057c0.632,1.747,1.003,3.121,1.301,4.979
		c0.297,1.858,0.594,4.236,0.631,5.611s-0.186,1.821-0.631,2.23c-0.409,0.408-1.04,0.817-1.635,1.077
		c-0.595,0.297-1.152,0.446-1.635,0.558c-0.483,0.074-0.855,0.111-1.338,0.297c-0.483,0.186-1.078,0.483-1.524,0.743
		c-0.482,0.26-0.817,0.409-1.151,0.668c-0.297,0.224-0.632,0.521-1.078,1.041c-0.445,0.52-1.04,1.263-1.635,2.006
		c-0.148,0.334-0.297,0.669-0.446,1.003c-0.186,0.111-0.371,0.261-0.594,0.409c-0.26,0.037-0.52,0.037-0.78,0.074
		C225.197,116.75,224.899,116.75,224.603,116.713L224.603,116.713z M300.997,64.434c0.371-0.297,1.301-0.892,1.782-0.966
		c0.929-0.149,1.19-0.409,1.784,0.223c1.152,1.189-0.371,1.598-0.409,1.747c-0.148,0.521-1.56,0.037-2.266,0.595
		C301.404,66.44,300.588,64.768,300.997,64.434L300.997,64.434z M221.853,64.434c-0.409-0.297-1.301-0.892-1.784-0.966
		c-0.929-0.149-1.188-0.409-1.783,0.223c-1.152,1.189,0.371,1.598,0.408,1.747c0.149,0.521,1.561,0.037,2.267,0.595
		C221.444,66.44,222.262,64.768,221.853,64.434L221.853,64.434z"/>
</g>
</svg>
