<svg
  xmlns:dc="http://purl.org/dc/elements/1.1/"
  xmlns:cc="http://creativecommons.org/ns#"
  xmlns:rdf="http://www.w3.org/1999/02/22-rdf-syntax-ns#"
  xmlns:svg="http://www.w3.org/2000/svg"
  xmlns="http://www.w3.org/2000/svg"
  xmlns:sodipodi="http://sodipodi.sourceforge.net/DTD/sodipodi-0.dtd"
  xmlns:inkscape="http://www.inkscape.org/namespaces/inkscape"
  width="1000"
  height="500"
  version="1.1"
  id="svg12"
  sodipodi:docname="Flag_of_Bosnia_and_Herzegovina_(1992–1998).svg"
  inkscape:version="0.92.3 (2405546, 2018-03-11)">
  <metadata
    id="metadata18">
    <rdf:RDF>
      <cc:Work
        rdf:about="">
        <dc:format>image/svg+xml</dc:format>
        <dc:type
          rdf:resource="http://purl.org/dc/dcmitype/StillImage" />
        <dc:title></dc:title>
      </cc:Work>
    </rdf:RDF>
  </metadata>
  <defs
    id="defs16" />
  <sodipodi:namedview
    pagecolor="#ffffff"
    bordercolor="#666666"
    borderopacity="1"
    objecttolerance="10"
    gridtolerance="10"
    guidetolerance="10"
    inkscape:pageopacity="0"
    inkscape:pageshadow="2"
    inkscape:window-width="1920"
    inkscape:window-height="991"
    id="namedview14"
    showgrid="false"
    inkscape:zoom="0.6675088"
    inkscape:cx="367.80165"
    inkscape:cy="302.01793"
    inkscape:window-x="-10"
    inkscape:window-y="-10"
    inkscape:window-maximized="1"
    inkscape:current-layer="svg12"
    borderlayer="true" />
  <g
    id="g836">
    <path
      id="path2"
      d="M0 0h1000v500H0z"
      fill="#fff" />
    <g
      transform="matrix(0.91704674,0,0,0.91420322,367.51988,63.989108)"
      id="g908">
      <path
        inkscape:connector-curvature="0"
        id="path1029"
        d="M 17.772472,31.646099 V 180.83774 c 0,111.68317 118.558808,189.06396 126.691088,193.77374 8.13229,-4.70978 126.6911,-82.09058 126.6911,-193.77374 V 31.646099 h -126.6911 z"
        style="fill:#003e9e;fill-opacity:1;stroke:none;stroke-width:8.72491074;stroke-linecap:butt;stroke-linejoin:miter;stroke-miterlimit:4;stroke-dasharray:none;stroke-opacity:1;paint-order:fill markers stroke" />
      <path
        style="fill:#ffffff;stroke-width:8.72627068"
        d="M 29.040006,42.9138 V 64.200667 C 92.977716,138.07767 220.85264,285.83212 220.85264,285.83212 c 5.70579,-7.86258 11.08033,-16.1996 15.89585,-24.9629 L 48.107873,42.9138 Z"
        id="path2031"
        inkscape:connector-curvature="0"
        sodipodi:nodetypes="cccccc" />
      <path
        style="opacity:1;fill:#eeca00;fill-opacity:1;stroke:none;stroke-width:0.13091671;stroke-miterlimit:4;stroke-dasharray:none"
        d="m 102.23758,205.65403 c -6.912862,6.18942 -10.214074,12.85277 -7.245249,21.01619 3.839587,10.66447 5.313349,15.2689 5.313919,23.75827 h -0.814262 c -0.17199,-9.33994 -4.640736,-16.5521 -9.85789,-18.42875 -0.717688,-0.2776 -1.501878,-0.42599 -2.324604,-0.4121 -1.810016,0.0305 -3.805009,0.84381 -5.682278,2.7819 -3.379557,3.48974 -4.364729,13.10232 5.557642,14.95044 -1.050278,-1.56688 -0.960664,-4.99745 1.139226,-6.20836 1.606449,-0.80571 3.421201,-0.4899 4.268861,0.20374 1.363861,0.82754 3.634793,4.43221 3.637392,7.11313 h -4.547664 c -1.223382,0 -2.207362,0.98435 -2.207362,2.20774 0,1.22337 0.98398,2.2096 2.207362,2.2096 h 7.700375 c -0.12983,2.71216 -0.83773,7.18764 -3.109319,8.18922 0.292668,0.94696 1.664324,2.87839 3.546919,2.74766 0.371662,2.04255 0.724222,3.66345 2.416932,5.51935 1.69271,-1.8559 2.04527,-3.47681 2.41693,-5.51935 1.8826,0.13072 3.25425,-1.8007 3.54691,-2.74766 -2.27159,-1.00158 -2.97949,-5.47706 -3.10932,-8.18922 h 7.70038 c 1.22338,0 2.20737,-0.98623 2.20737,-2.2096 0,-1.22339 -0.98399,-2.20774 -2.20737,-2.20774 h -4.54766 c 0.003,-2.68092 2.27353,-6.28559 3.63739,-7.11313 0.84766,-0.69364 2.66242,-1.00945 4.26886,-0.20374 2.09989,1.21091 2.1895,4.64148 1.13923,6.20836 9.92237,-1.84812 8.9372,-11.4607 5.55764,-14.95044 -1.87727,-1.93809 -3.87226,-2.7514 -5.68228,-2.7819 -0.82273,-0.0139 -1.60692,0.1345 -2.3246,0.4121 -5.21715,1.87665 -9.68591,9.08881 -9.8579,18.42875 h -0.81426 c 5.7e-4,-8.48937 1.47433,-13.0938 5.31392,-23.75827 2.96882,-8.16342 -0.33238,-14.82677 -7.24524,-21.01619 z"
        id="path950-0"
        inkscape:connector-curvature="0"
        sodipodi:nodetypes="cccccccccccssscccccccsssccccccccccc" />
      <path
        style="opacity:1;fill:#eeca00;fill-opacity:1;stroke:none;stroke-width:0.13091671;stroke-miterlimit:4;stroke-dasharray:none"
        d="m 144.46358,269.14332 c -6.91286,6.18942 -10.21407,12.85277 -7.24525,21.01619 3.83959,10.66447 5.31335,15.2689 5.31393,23.75827 h -0.81427 c -0.17198,-9.33994 -4.64073,-16.5521 -9.85789,-18.42875 -0.71769,-0.2776 -1.50188,-0.42599 -2.3246,-0.4121 -1.81002,0.0305 -3.80501,0.84381 -5.68228,2.7819 -3.37956,3.48974 -4.36473,13.10232 5.55764,14.95044 -1.05028,-1.56688 -0.96066,-4.99745 1.13923,-6.20836 1.60645,-0.80571 3.4212,-0.4899 4.26886,0.20374 1.36386,0.82754 3.63479,4.43221 3.63739,7.11313 h -4.54766 c -1.22339,0 -2.20737,0.98435 -2.20737,2.20774 0,1.22337 0.98398,2.2096 2.20737,2.2096 h 7.70038 c -0.12983,2.71216 -0.83774,7.18763 -3.10933,8.18922 0.29267,0.94695 1.66433,2.87839 3.54692,2.74765 0.37166,2.04256 0.72422,3.66346 2.41693,5.51936 1.69271,-1.8559 2.04528,-3.47681 2.41693,-5.51936 1.8826,0.13073 3.25425,-1.8007 3.54692,-2.74765 -2.27159,-1.00159 -2.97949,-5.47706 -3.10932,-8.18922 h 7.70038 c 1.22338,0 2.20736,-0.98623 2.20736,-2.2096 0,-1.22339 -0.98398,-2.20774 -2.20736,-2.20774 h -4.54767 c 0.003,-2.68092 2.27354,-6.28559 3.63739,-7.11313 0.84766,-0.69364 2.66243,-1.00945 4.26886,-0.20374 2.09989,1.21091 2.18951,4.64148 1.13923,6.20836 9.92237,-1.84812 8.93721,-11.4607 5.55764,-14.95044 -1.87727,-1.93809 -3.87226,-2.7514 -5.68227,-2.7819 -0.82273,-0.0139 -1.60692,0.1345 -2.32461,0.4121 -5.21715,1.87665 -9.6859,9.08881 -9.85789,18.42875 h -0.81426 c 5.7e-4,-8.48937 1.47433,-13.0938 5.31392,-23.75827 2.96882,-8.16342 -0.33239,-14.82677 -7.24525,-21.01619 z"
        id="path950-3"
        inkscape:connector-curvature="0"
        sodipodi:nodetypes="cccccccccccssscccccccsssccccccccccc" />
      <path
        style="opacity:1;fill:#eeca00;fill-opacity:1;stroke:none;stroke-width:0.13091671;stroke-miterlimit:4;stroke-dasharray:none"
        d="m 60.011576,142.16474 c -6.912863,6.18942 -10.214074,12.85277 -7.245249,21.01619 3.83959,10.66447 5.313349,15.2689 5.313921,23.75827 h -0.814262 c -0.171988,-9.33994 -4.640739,-16.5521 -9.857893,-18.42875 -0.717688,-0.2776 -1.501878,-0.42599 -2.324604,-0.4121 -1.810016,0.0305 -3.805009,0.84381 -5.682278,2.7819 -3.379557,3.48974 -4.364729,13.10232 5.557642,14.95044 -1.050278,-1.56688 -0.960663,-4.99745 1.139227,-6.20836 1.606448,-0.80571 3.4212,-0.4899 4.26886,0.20374 1.363861,0.82754 3.634794,4.43221 3.637393,7.11313 h -4.547664 c -1.223382,0 -2.207362,0.98435 -2.207362,2.20774 0,1.22337 0.98398,2.2096 2.207362,2.2096 h 7.70038 c -0.12983,2.71216 -0.837735,7.18763 -3.109324,8.18922 0.292667,0.94695 1.664323,2.87839 3.546918,2.74765 0.371656,2.04256 0.724221,3.66346 2.416933,5.51936 1.692707,-1.8559 2.045276,-3.47681 2.416928,-5.51936 1.8826,0.13073 3.254251,-1.8007 3.546918,-2.74765 -2.271589,-1.00159 -2.979494,-5.47706 -3.109324,-8.18922 h 7.70038 c 1.223381,0 2.207367,-0.98623 2.207367,-2.2096 0,-1.22339 -0.983986,-2.20774 -2.207367,-2.20774 h -4.547664 c 0.0026,-2.68092 2.273536,-6.28559 3.637393,-7.11313 0.84766,-0.69364 2.662422,-1.00945 4.26886,-0.20374 2.09989,1.21091 2.189505,4.64148 1.139227,6.20836 9.922371,-1.84812 8.937204,-11.4607 5.557642,-14.95044 -1.877269,-1.93809 -3.872262,-2.7514 -5.682273,-2.7819 -0.822731,-0.0139 -1.606921,0.1345 -2.324609,0.4121 -5.21715,1.87665 -9.685905,9.08881 -9.857893,18.42875 h -0.814262 c 5.72e-4,-8.48937 1.474331,-13.0938 5.313921,-23.75827 2.96882,-8.16342 -0.332386,-14.82677 -7.245244,-21.01619 z"
        id="path950"
        inkscape:connector-curvature="0"
        sodipodi:nodetypes="cccccccccccssscccccccsssccccccccccc" />
      <path
        style="opacity:1;fill:#eeca00;fill-opacity:1;stroke:none;stroke-width:0.13091671;stroke-miterlimit:4;stroke-dasharray:none"
        d="m 225.79021,142.16474 c -6.91287,6.18942 -10.21408,12.85277 -7.24525,21.01619 3.83959,10.66447 5.31335,15.2689 5.31392,23.75827 h -0.81426 c -0.17199,-9.33994 -4.64074,-16.5521 -9.8579,-18.42875 -0.71768,-0.2776 -1.50187,-0.42599 -2.3246,-0.4121 -1.81002,0.0305 -3.80501,0.84381 -5.68228,2.7819 -3.37955,3.48974 -4.36473,13.10232 5.55764,14.95044 -1.05027,-1.56688 -0.96066,-4.99745 1.13923,-6.20836 1.60645,-0.80571 3.4212,-0.4899 4.26886,0.20374 1.36386,0.82754 3.63479,4.43221 3.63739,7.11313 h -4.54766 c -1.22338,0 -2.20736,0.98435 -2.20736,2.20774 0,1.22336 0.98398,2.20959 2.20736,2.20959 h 7.70038 c -0.12983,2.71217 -0.83774,7.18764 -3.10932,8.18923 0.29266,0.94695 1.66432,2.87839 3.54691,2.74765 0.37166,2.04256 0.72422,3.66346 2.41694,5.51936 1.6927,-1.8559 2.04527,-3.47681 2.41692,-5.51936 1.88261,0.13073 3.25426,-1.8007 3.54692,-2.74765 -2.27159,-1.00159 -2.97949,-5.47706 -3.10932,-8.18923 h 7.70038 c 1.22338,0 2.20737,-0.98623 2.20737,-2.20959 0,-1.22339 -0.98399,-2.20774 -2.20737,-2.20774 h -4.54767 c 0.003,-2.68092 2.27354,-6.28559 3.6374,-7.11313 0.84766,-0.69364 2.66242,-1.00945 4.26886,-0.20374 2.09989,1.21091 2.1895,4.64148 1.13922,6.20836 9.92238,-1.84812 8.93721,-11.4607 5.55765,-14.95044 -1.87727,-1.93809 -3.87227,-2.7514 -5.68228,-2.7819 -0.82273,-0.0139 -1.60692,0.1345 -2.32461,0.4121 -5.21714,1.87665 -9.6859,9.08881 -9.85789,18.42875 h -0.81426 c 5.7e-4,-8.48937 1.47433,-13.0938 5.31392,-23.75827 2.96882,-8.16342 -0.33239,-14.82677 -7.24524,-21.01619 z"
        id="path950-6"
        inkscape:connector-curvature="0"
        sodipodi:nodetypes="cccccccccccssscccccccsssccccccccccc" />
      <path
        style="opacity:1;fill:#eeca00;fill-opacity:1;stroke:none;stroke-width:0.13091671;stroke-miterlimit:4;stroke-dasharray:none"
        d="m 225.79021,53.984902 c -6.91286,6.18942 -10.21407,12.852771 -7.24525,21.01619 3.83959,10.66447 5.31335,15.268901 5.31392,23.75827 h -0.81426 c -0.17199,-9.339939 -4.64074,-16.552099 -9.85789,-18.428749 -0.71769,-0.2776 -1.50188,-0.42599 -2.3246,-0.412101 -1.81002,0.0305 -3.80501,0.84381 -5.68228,2.781901 -3.37956,3.48974 -4.36473,13.102319 5.55764,14.950439 -1.05028,-1.56688 -0.96066,-4.99745 1.13923,-6.208359 1.60644,-0.80571 3.4212,-0.489901 4.26886,0.20374 1.36386,0.827539 3.63479,4.432209 3.63739,7.113129 h -4.54767 c -1.22338,0 -2.20736,0.98435 -2.20736,2.207738 0,1.22337 0.98398,2.2096 2.20736,2.2096 h 7.70038 c -0.12983,2.71216 -0.83773,7.18763 -3.10932,8.18922 0.29267,0.94695 1.66432,2.87839 3.54692,2.74765 0.37166,2.04256 0.72422,3.66346 2.41693,5.51936 1.69271,-1.8559 2.04528,-3.47681 2.41693,-5.51936 1.8826,0.13073 3.25425,-1.8007 3.54692,-2.74765 -2.27159,-1.00159 -2.9795,-5.47706 -3.10933,-8.18922 h 7.70038 c 1.22338,0 2.20737,-0.98623 2.20737,-2.2096 0,-1.223388 -0.98399,-2.207738 -2.20737,-2.207738 h -4.54766 c 0.003,-2.68092 2.27354,-6.28559 3.63739,-7.113129 0.84766,-0.693641 2.66242,-1.00945 4.26886,-0.20374 2.09989,1.210909 2.18951,4.641479 1.13923,6.208359 9.92237,-1.84812 8.9372,-11.460699 5.55764,-14.950439 -1.87727,-1.938091 -3.87226,-2.7514 -5.68227,-2.781901 -0.82273,-0.0139 -1.60692,0.134501 -2.32461,0.412101 -5.21715,1.87665 -9.68591,9.08881 -9.85789,18.428749 h -0.81427 c 5.8e-4,-8.489369 1.47434,-13.0938 5.31393,-23.75827 2.96882,-8.163419 -0.33239,-14.82677 -7.24525,-21.01619 z"
        id="path950-8"
        inkscape:connector-curvature="0"
        sodipodi:nodetypes="cccccccccccssscccccccsssccccccccccc" />
      <path
        sodipodi:nodetypes="cccccccccccssscccccccsssccccccccccc"
        inkscape:connector-curvature="0"
        id="path1014"
        d="m 149.95543,53.984902 c -6.91286,6.18942 -10.21407,12.852771 -7.24525,21.01619 3.83959,10.66447 5.31335,15.268901 5.31392,23.75827 h -0.81426 c -0.17199,-9.339939 -4.64074,-16.552099 -9.85789,-18.428749 -0.71769,-0.2776 -1.50188,-0.42599 -2.3246,-0.412101 -1.81002,0.0305 -3.80501,0.84381 -5.68228,2.781901 -3.37956,3.48974 -4.36473,13.102319 5.55764,14.950439 -1.05028,-1.56688 -0.96066,-4.99745 1.13923,-6.208359 1.60644,-0.80571 3.4212,-0.489901 4.26886,0.20374 1.36386,0.827539 3.63479,4.432209 3.63739,7.113129 h -4.54767 c -1.22338,0 -2.20736,0.98435 -2.20736,2.207738 0,1.22337 0.98398,2.2096 2.20736,2.2096 h 7.70044 c -0.12983,2.71216 -0.83779,7.18763 -3.10938,8.18922 0.29267,0.94695 1.66432,2.87839 3.54692,2.74765 0.37166,2.04256 0.72422,3.66346 2.41693,5.51936 1.69271,-1.8559 2.04528,-3.47681 2.41693,-5.51936 1.8826,0.13073 3.25425,-1.8007 3.54692,-2.74765 -2.27159,-1.00159 -2.9795,-5.47706 -3.10933,-8.18922 h 7.70038 c 1.22338,0 2.20737,-0.98623 2.20737,-2.2096 0,-1.223388 -0.98399,-2.207738 -2.20737,-2.207738 h -4.54766 c 0.003,-2.68092 2.27354,-6.28559 3.63739,-7.113129 0.84766,-0.693641 2.66242,-1.00945 4.26886,-0.20374 2.09989,1.210909 2.18951,4.64148 1.13923,6.208359 9.92237,-1.848119 8.9372,-11.460699 5.55764,-14.950439 -1.87727,-1.938091 -3.87226,-2.7514 -5.68227,-2.781901 -0.82273,-0.0139 -1.60692,0.134501 -2.32461,0.412101 -5.21715,1.87665 -9.68591,9.08881 -9.85789,18.428749 h -0.81427 c 5.8e-4,-8.489369 1.47434,-13.0938 5.31393,-23.75827 2.96882,-8.163419 -0.33239,-14.826769 -7.24525,-21.01619 z"
        style="opacity:1;fill:#eeca00;fill-opacity:1;stroke:none;stroke-width:0.13091671;stroke-miterlimit:4;stroke-dasharray:none" />
      <path
        style="color:#000000;font-style:normal;font-variant:normal;font-weight:normal;font-stretch:normal;font-size:medium;line-height:normal;font-family:sans-serif;font-variant-ligatures:normal;font-variant-position:normal;font-variant-caps:normal;font-variant-numeric:normal;font-variant-alternates:normal;font-feature-settings:normal;text-indent:0;text-align:start;text-decoration:none;text-decoration-line:none;text-decoration-style:solid;text-decoration-color:#000000;letter-spacing:normal;word-spacing:normal;text-transform:none;writing-mode:lr-tb;direction:ltr;text-orientation:mixed;dominant-baseline:auto;baseline-shift:baseline;text-anchor:start;white-space:normal;shape-padding:0;clip-rule:nonzero;display:inline;overflow:visible;visibility:visible;opacity:1;isolation:auto;mix-blend-mode:normal;color-interpolation:sRGB;color-interpolation-filters:linearRGB;solid-color:#000000;solid-opacity:1;vector-effect:none;fill:#eeca00;fill-opacity:1;fill-rule:nonzero;stroke:none;stroke-width:8.72491074;stroke-linecap:butt;stroke-linejoin:miter;stroke-miterlimit:4;stroke-dasharray:none;stroke-dashoffset:0;stroke-opacity:1;paint-order:fill markers stroke;color-rendering:auto;image-rendering:auto;shape-rendering:auto;text-rendering:auto;enable-background:accumulate"
        d="M 13.410156,27.283203 V 180.83789 c 0,57.38526 30.352522,105.57451 61.423828,139.92773 15.535654,17.17662 31.292616,30.93126 43.703126,40.7129 12.41051,9.78163 21.20209,15.43824 23.74023,16.9082 l 2.18555,1.26562 2.1875,-1.26562 c 2.53815,-1.46996 11.32972,-7.12657 23.74023,-16.9082 12.41052,-9.78164 28.16748,-23.53628 43.70313,-40.7129 31.07131,-34.35322 61.42383,-82.54247 61.42383,-139.92773 V 27.283203 Z m 8.72461,8.724609 H 266.79297 V 180.83789 c 0,54.29791 -28.92875,100.64077 -59.16992,134.07617 -15.12059,16.71771 -30.52635,30.1709 -42.63282,39.71289 -10.31568,8.13054 -17.40653,12.80403 -20.52734,14.77149 -3.12134,-1.96784 -10.2105,-6.64157 -20.52539,-14.77149 C 111.83103,345.08496 96.425271,331.63176 81.304688,314.91406 51.06352,281.47866 22.134766,235.1358 22.134766,180.83789 Z"
        id="path895"
        inkscape:connector-curvature="0"
        sodipodi:nodetypes="ccsscccsssccccssscsssc" />
    </g>
  </g>
</svg>
