<svg xmlns="http://www.w3.org/2000/svg" width="900" height="600"><defs><clipPath id="a"><path fill="#00f" fill-rule="evenodd" d="M0 0h720v480H0z"/></clipPath></defs><path d="M0 0h900L0 600h900z" fill="#ce1126"/><path d="M0 0v600L900 0v600z" fill="#1eb53a"/><path d="M0 0l720 480m0-480L0 480" clip-path="url(#a)" transform="scale(1.25)" stroke="#fff" stroke-width="60"/><circle cx="450" cy="300" r="170" fill="#fff"/><path d="M433.941 403.207c-1.81-2.928.524-5.802 4.71-5.802 5.556 0 9.393-9.51 9.393-23.285 0-10.581-.635-12.763-4.985-17.113-2.743-2.74-5.769-4.985-6.725-4.985-.958 0-3.457 3.882-5.555 8.625-3.137 7.09-4.295 8.227-6.512 6.387-1.483-1.232-2.697-4.56-2.697-7.4 0-5.152 6.819-17.172 10.4-18.334 1.04-.338 4.87 1.935 8.51 5.05 3.64 3.114 7.469 5.386 8.509 5.049 1.04-.338 2.156-3.755 2.48-7.594.533-6.329-.473-8.043-10.79-18.359-10.312-10.312-11.742-11.152-15.244-8.965-2.126 1.328-5.206 5.239-6.844 8.691-2.424 5.108-3.48 5.86-5.672 4.04-3.848-3.192-3.33-10.527 1.328-18.816 5.293-9.416 11.427-12.8 17.403-9.601 4.715 2.524 10.377 10.902 12.349 18.275 2.526 9.443 4.983 4.959 4.322-7.886-1.051-20.462-16.504-48.12-18.825-33.698-1.266 7.868-2.112 8.933-5.112 6.444-6.188-5.135-1.087-18.891 7.005-18.891 3.595 0 12.872 9.044 12.872 12.549 0 1.418.95 2.578 2.111 2.578 1.334 0 1.61-1.567.747-4.255-.752-2.34-1.804-10.211-2.339-17.491-.579-7.872-2.27-15.152-4.175-17.964l25.402-4.621c-15.288 13.056-14.182 10.255-14.182 35.909 0 12.83.786 23.812 1.746 24.406.961.594 3.689-1.696 6.063-5.089 5.841-8.349 17.116-18.657 19.535-17.862 3.383 1.113 3.423 21.292.056 27.805-3.226 6.238-7.95 6.717-6.949.705 2.042-12.265-.831-15.449-7.212-7.992-13.326 15.573-13.409 15.715-12.02 20.487.757 2.6 1.5 14.89 1.651 27.311.17 14.074 1.033 22.839 2.289 23.258 1.109.37 3.985-2.136 6.392-5.567 5.132-7.315 14.624-16.639 16.94-16.639 3.2 0 9.329 8.37 9.329 12.742 0 8.36-9.474 22.073-12.201 17.661-.655-1.06.155-4.53 1.8-7.711 2.839-5.488 2.512-9.455-.776-9.455-.824 0-3.984 2.34-7.022 5.2-3.037 2.861-8.742 7.621-12.678 10.578-5.992 4.503-7.062 6.34-6.577 11.285.559 5.697 2.238 7.355 15.953 15.76 2.8 1.717 3.056 2.67 1.23 4.577-1.869 1.95-3.721 1.941-9.744-.046-7.155-2.362-14.747-2.103-21.322.727-1.715.738-3.68.433-4.367-.677z" fill="#1eb53a"/><path d="M441.15 241.485c-4.787-7.487-8.834-20.23-7.883-24.825.48-2.315 2.135-3.481 4.587-3.232 3.16.32 3.707-.514 3.1-4.728-.486-3.365.627-6.574 3.249-9.372 6.085-6.492 7.765-5.745 16.73 7.432 6.233 9.163 7.41 13.704 4.088 15.758-1.134.7-.157 2.696 2.364 4.832l4.295 3.64-4.946 4.26c-12.079 10.403-14.19 11.803-17.934 11.895-2.424.059-5.402-2.145-7.65-5.66z" fill="#ce1126"/></svg>