<svg xmlns="http://www.w3.org/2000/svg" height="600" width="900"><g fill-rule="evenodd" stroke-width="1.333"><path d="M0 0h900v600H0z" fill="#0039a5"/><g fill="#f7d618"><path d="M532.606 399.142l-81.829-59.628-82.004 59.387 31.336-96.37-81.734-59.759 101.196.068 31.49-96.32 31.206 96.413 101.196.23-81.91 59.517zM97.897 578.407l-24.71-18.006-24.764 17.933 9.463-29.101-24.682-18.046 30.559.02 9.509-29.085 9.423 29.114 30.56.07-24.736 17.972zM97.897 482.12l-24.71-18.007-24.764 17.934 9.463-29.102L33.204 434.9l30.559.02 9.509-29.086 9.423 29.114 30.56.07-24.736 17.972zM97.897 387.634l-24.71-18.006-24.764 17.933 9.463-29.101-24.682-18.046 30.559.02 9.509-29.086 9.423 29.114 30.56.07-24.736 17.973zM97.897 291.345l-24.71-18.006-24.764 17.933 9.463-29.101-24.682-18.046 30.559.02 9.509-29.086 9.423 29.114 30.56.07-24.736 17.973zM97.897 194.335l-24.71-18.006-24.764 17.933 9.463-29.101-24.682-18.046 30.559.02 9.509-29.086 9.423 29.114 30.56.07-24.736 17.973zM97.897 97.325l-24.71-18.006-24.764 17.933 9.463-29.101-24.682-18.046 30.559.02 9.509-29.086 9.423 29.114 30.56.07-24.736 17.973z"/></g></g></svg>