<svg xmlns="http://www.w3.org/2000/svg" height="700" width="900" preserveAspectRatio="none"><path d="M0 583.333h900V116.667H0z" fill="#fcdd09"/><path d="M0 700h900V466.667H0z" fill="#078930"/><path d="M0 233.333h900V0H0z" fill="#da121a"/><path d="M429.486 311.227l-1.31.073c-1.764.097-3.223.412-4.503 1.002-1.28.59-2.38 1.454-3.425 2.65a23.284 23.284 0 0 0-2.965 4.35 29.204 29.204 0 0 0-2.14 5.246c-.575 1.894-1.01 3.934-1.306 6.111a53.942 53.942 0 0 0-.464 6.942c-.012 2.293.037 3.216.224 4.347.306 1.819.751 3.32 1.32 4.473.57 1.154 1.264 1.962 2.069 2.398.504.272.716.285 5.328.344 2.641.036 4.847.031 4.902-.01.054-.041.275-.589.489-1.213l.012-.002c.341-1.003.644-2.384.904-4.115.26-1.731.475-3.813.644-6.213.344-4.882.51-17.732.307-23.812l-.086-2.57zM476.837 310.581c-1.2.093-2.457.277-3.255.514-.238.07-.244.206-.166 3.474.1 4.267.455 8.08 1.058 11.389a41.441 41.441 0 0 0 1.088 4.582 26.53 26.53 0 0 0 1.453 3.799c.557 1.154 1.197 2.035 1.94 2.66a4.871 4.871 0 0 0 2.554 1.123c.788.102 1.665.016 2.29-.225v-.011c.512-.198 1.004-.592 1.433-1.131.429-.54.795-1.226 1.059-2.006.281-.832.47-1.623.587-2.557.119-.933.166-2.01.166-3.408 0-2.78-.24-4.784-.966-8.049-.387-1.741-.77-3.196-1.18-4.412-.41-1.216-.844-2.193-1.334-2.974-.49-.782-1.034-1.37-1.66-1.809-.626-.44-1.335-.732-2.154-.922-.566-.131-1.709-.13-2.909-.037z" fill="#fff"/><path d="M402.912 395.417c-2.222-.323-3.404-1.024-4.002-2.376-.276-.627-.256-2.975.037-4.348.825-3.847 3.284-8.535 7.202-13.691 1.815-2.392 3.478-4.332 12.147-14.16 4.314-4.881 7.783-8.922 7.783-8.97-.257-.263-5.728.437-10.62 1.37-4.035.76-5.837.987-8.51 1.072-5.565.178-8.875-1.37-10.62-4.946-1.07-2.168-1.426-4.332-1.307-7.92.184-5.593 1.508-10.264 4.196-14.79 4.396-7.403 11.564-12.996 20.075-15.582 3.358-1.016 6.82-1.541 11.638-1.744 1.642-.071 3.19-.16 3.44-.197.765-.113 15.638-1.6 17.383-1.744 4.05-.325 7.855-.408 14.475-.32l6.928.091-.081.96-.08.96.375-.086c2.071-.475 5.837-1.6 9.528-2.845 6.329-2.133 10.62-2.133 14.256.037 2.135 1.261 4.382 3.911 5.783 6.837 1.599 3.346 2.172 6.385 2.045 10.846-.142 5.027-1.144 8.534-3.22 11.282-1.616 2.152-3.612 3.394-6.764 4.219-1.952.512-3.719.717-7.346.853-3.909.145-5.296.33-7.856 1.056-4.633 1.31-7.71 1.923-9.528 1.907-3.872-.01-7.2-1.542-9.236-4.268-.704-.938-1.657-2.78-2.02-3.895-.63-1.957-1.286-6.158-1.898-12.139-.454-4.429-.692-6.142-1.062-7.613-.543-2.168-1.145-3.427-2.083-4.332-.695-.674-1.143-.874-2.142-.946-2.046-.147-3.338 1.26-3.727 4.04-.089.635-.141 4.252-.142 9.78-.004 13.803-.43 19.918-1.763 25.265-1.014 4.073-1.559 5.091-5 9.407-9.892 12.381-13.457 16.893-15.711 20.444-4.738 6.999-5.565 9.795-3.534 11.945.626.664.643.704.605 1.37l-.04.691-3.633.619c-8.51 1.456-14.184 2.101-15.857 1.826zm24.803-47.478c.684-2.005 1.211-5.528 1.55-10.328.345-4.882.51-17.732.306-23.813l-.086-2.57-1.309.072c-3.527.194-5.837 1.261-7.928 3.653-4.503 5.188-6.82 12.85-6.875 22.648-.012 2.293.036 3.217.224 4.348.612 3.637 1.78 5.997 3.389 6.87.504.272.716.285 5.328.344 2.641.035 4.847.031 4.902-.01.054-.04.275-.589.489-1.213zm56.08-10.054c1.026-.394 1.963-1.576 2.491-3.135.563-1.664.755-3.169.755-5.965 0-2.78-.24-4.784-.966-8.05-1.546-6.966-3.052-9.358-6.33-10.118-1.13-.262-4.568.005-6.164.478-.237.07-.244.207-.166 3.475.2 8.534 1.423 15.242 3.6 19.77 1.114 2.309 2.558 3.523 4.495 3.782.788.102 1.665.016 2.289-.224z" fill="#da121a"/></svg>