<svg xmlns="http://www.w3.org/2000/svg" width="1000" height="600" xmlns:v="https://vecta.io/nano"><style><![CDATA[.D{stroke-miterlimit:10}.E{stroke:#312e2a}.F{stroke-width:.321}.G{fill:none}.H{fill:#b1132f}.I{fill:#003383}.J{fill:#c29b00}.K{stroke:#36783b}.L{stroke:#000}.M{fill:#8d5a22}.N{stroke-width:.352}.O{stroke-width:.35}.P{stroke:#8d5a22}.Q{fill:#00369c}.R{fill:#369443}.S{stroke:#003383}.T{stroke:#b1132f}.U{fill:#826b2e}.V{stroke-width:.322}.W{fill:#1a1a1a}.X{stroke-width:.215}.Y{fill:#3f3f3f}.Z{fill:#d21034}.a{fill:#7f7f7f}.b{fill:#312e2a}.c{stroke-width:.363}.d{stroke-width:.431}.e{stroke-width:.405}.f{stroke-width:.565}.g{stroke-width:.347}.h{stroke-width:.344}.i{stroke-width:.317}.j{stroke-width:.336}.k{stroke-width:.333}.l{stroke-width:.277}.m{stroke-width:.402}]]></style><path d="M0 0h1000v600H0z" class="Z"/><path d="M0 0h1000v300H0z" class="Q"/><g transform="matrix(.724638 0 0 .724638 137.681168 88.016502)"><path d="M327.5 116.604h345V468.47h-345z" fill="#fff"/><g transform="matrix(1.504592 0 0 1.504592 330.81178 133.5)"><g transform="matrix(.457409 -.889625 .889625 .457409 -517.57346 -25.489878)" class="J L"><path d="M101.683 536.949h3.113v47.729h-3.113z" stroke-width=".5"/><use href="#B" class="f"/></g><g transform="matrix(-.457409 -.889625 -.889625 .457409 742.5816 -26.387053)" class="J L"><path d="M101.683 536.949h3.113v47.729h-3.113z" stroke-width=".5"/><use href="#B" class="f"/></g><g class="D"><g class="S"><path d="M41.162 122.024s4.731 18.53 11.835 30.768c0 0-11.688-9.236-11.835-30.768z" class="I O"/><path d="M24.167 104.258s-8.836 91.972 77.501 76.47l.122-7.651 2.166-11.419z" class="N Q"/></g><path d="M54.602 128.093s-3.721 9.668 2.374 23.787c0 0 8.78 28.141 44.795 22.425l3.337-11.3z" class="H N T"/></g><path d="M21.692 103.785s-4.495 8.168-2.448 15.32c0 0-2.623-1.358-3.796-2.592 0 0-1.544 1.946-2.442 2.69 0 0-1.361-9.319 4.851-13.22 0 0-4.984 1.088-10.382 9.828 0 0-.472-.572-1.027-2.697 0 0-1.932.135-3.136.579 0 0 2.149-6.987 10.697-8.616 0 0 3.017-.84 4.371-1.303 0 0 .909.17 1.637-1.207z" class="H"/><path d="M20.847 103.171s1.082.989-2.991 2.811c0 0-4.984 1.088-10.382 9.828 0 0-.472-.572-1.027-2.697 0 0-1.932.135-3.136.579 0 0 2.149-6.987 10.697-8.616 0 0 3.017-.84 4.371-1.303 0 0 .909.17 1.637-1.207z" class="I"/><path d="M21.585 100.034l87.422 63.5-2.175 2.994-87.422-63.5z" class="D E N U"/><g transform="matrix(.954648 -.298837 .298837 .954648 -510.88587 -81.685749)" class="D E F"><path d="M534.546 383.533l-9.906-29.468-1.435.439 9.086 29.719z" fill="#fff"/><g fill="#5a3819"><path d="M534.546 386.39l-10.725-32.074-1.435.438 9.954 32.931z"/><path d="M528.981 367.781s.581-.226.789.384l.297.875s.243.437-.364.623l-2.421.74s-.412.119-.559-.361l-.3-.98s-.133-.458.309-.593l2.248-.687z"/></g><g class="a"><path d="M522.887 351.621l-1.63-5.377.413-.126 1.653 5.371.179-.055.407 1.332-.794.243-.407-1.332z"/><path d="M522.552 352.538l.583 1.909c.839-.05 1.435-.439 1.435-.439l.979-2.632c.247-.573.056-1.152.056-1.152l-.149-.466-5.242-14.03 3.756 14.484.223.73s.321.91-.29 1.181c0 0-.464.247-1.351.413z"/></g></g><g transform="matrix(.970896 .240866 -.240866 .970896 -318.06424 -375.19619)" class="D E F"><path d="M536.353 383.497l9.906-29.468 1.435.439-9.086 29.719z" fill="#fff"/><g fill="#5a3819"><path d="M537.172 383.748l9.906-29.468 1.435.438-9.086 29.719z"/><path d="M541.918 367.744s-.581-.226-.789.384l-.297.875s-.243.437.364.623l2.421.74s.412.119.559-.361l.3-.98s.133-.458-.309-.593l-2.248-.687z"/></g><g class="a"><path d="M548.011 351.585l1.63-5.377-.413-.126-1.652 5.371-.179-.055-.407 1.332.794.243.407-1.332z"/><path d="M548.347 352.501l-.583 1.909c-.839-.05-1.435-.439-1.435-.439l-.979-2.632c-.247-.573-.056-1.152-.056-1.152l.149-.466 5.242-14.03-3.756 14.484-.223.73s-.321.91.29 1.181c0 0 .464.247 1.351.413z"/></g></g><g class="D"><g class="E N"><path d="M12.749 101.69l6.594-.862-1.313-6.408L2.13 88.421z" class="J"/><path d="M2.13 88.421l17.213 12.407" class="G"/></g><g class="g E"><path d="M21.113 97.873s-1.236-.898-2.194.221l-2.35 3.249s-1.039 1.178.404 2.227c0 0 1.682 1.521 2.608.233 0 0 1.235-1.962 2.59-3.564 0 0 1.137-1.116-1.058-2.366z" class="H"/><path d="M21.578 98.17c.717.557-1.22 2.01-1.22 2.01-1.571 1.106-2.296 2.412-2.296 2.412s-.661 1.298-.856 1.164c-.42-.29-1.549-.972-.637-2.412s.66-.806 2.129-2.92c0 0 .915-1.779 2.88-.254z" class="I"/></g><path d="M19.528 105.413s-1.492 2.581-2.01 4.193m-.58-4.408s-1.929.289-3.521 1.243" class="G N E"/><g class="O"><path d="M40.007 87.104s-20.757 99.391 66.144 95.324l-.101-18.065-3.491-18.017z" class="Q S"/><path d="M66.847 114.481s-4.91 9.024-.745 23.696c0 0 11.844 38.655 39.042 32.752l4.123-18.976z" class="H T"/></g></g><path d="M37.634 86.319s-5.478 7.45-4.39 14.747c0 0-2.403-1.675-3.397-3.04 0 0-1.77 1.713-2.749 2.329 0 0-.132-9.339 6.481-12.371 0 0-5.042.424-11.48 8.32 0 0-.39-.623-.661-2.785 0 0-1.917-.118-3.159.163 0 0 3.018-6.592 11.633-7.087 0 0 3.076-.435 4.467-.715 0 0 .872.285 1.766-.975z" class="H"/><path d="M36.883 85.606s.936 1.112-3.305 2.377c0 0-5.042.424-11.48 8.32 0 0-.39-.623-.661-2.785 0 0-1.917-.118-3.159.163 0 0 3.018-6.592 11.633-7.087 0 0 3.076-.435 4.467-.715 0 0 .872.285 1.766-.975z" class="I"/><g class="D"><g class="E O"><path d="M107.809 153.819l2.527-2.662-72.319-68.542-2.527 2.663z" class="U"/><path d="M29.112 83.101l6.595.006-.461-6.471-14.859-7.957z" class="J"/><path d="M20.388 68.679l15.32 14.428" class="G"/></g><g class="h E"><path d="M37.83 80.43s-1.099-1.043-2.186-.066l-2.731 2.89s-1.174 1.024.109 2.242c0 0 1.457 1.714 2.534.567 0 0 1.468-1.769 3.008-3.17 0 0 1.263-.95-.734-2.464z" class="H"/><path d="M38.249 80.783c.633.641-1.46 1.818-1.46 1.818-1.688.885-2.569 2.074-2.569 2.074s-.818 1.191-.992 1.034c-.375-.339-1.397-1.156-.314-2.454s.753-.707 2.472-2.595c0 0 1.13-1.631 2.864.123z" class="I"/></g><path d="M35.296 87.639s-1.802 2.345-2.519 3.863m0-4.41s-1.934.035-3.623.767" class="G O E"/><g class="V"><path d="M58.496 76.648s-30.866 88.16 48.882 94.885l2.077-16.489-1.02-16.852z" class="Q S"/><path d="M79.688 104.84s-5.562 7.641-3.525 21.523c0 0 6.161 36.678 31.677 34.561l-.482-24.303z" class="H T"/></g></g><path d="M56.425 75.647s-5.891 6.137-5.775 12.923c0 0-1.991-1.817-2.734-3.181 0 0-1.821 1.35-2.787 1.794 0 0 1.001-8.534 7.397-10.505 0 0-4.65-.218-11.47 6.21 0 0-.281-.616-.268-2.619 0 0-1.735-.338-2.901-.23 0 0 3.544-5.65 11.461-5.067 0 0 2.858-.028 4.16-.116 0 0 .761.365 1.728-.677z" class="H"/><path d="M55.826 74.906s.72 1.127-3.3 1.771c0 0-4.65-.218-11.47 6.21 0 0-.281-.616-.268-2.619 0 0-1.735-.338-2.901-.23 0 0 3.544-5.65 11.461-5.067 0 0 2.858-.028 4.16-.116 0 0 .761.365 1.728-.677z" class="I"/><g class="D"><g class="E"><g class="V"><path d="M112.33 140.371L57.218 72.314l-2.624 2.125 55.111 68.057 2.624-2.125" class="U"/><path d="M49.039 71.688l6.015.798.357-5.957-12.597-9.042z" class="J"/><path d="M42.814 57.487l12.24 14.999" class="G"/></g><g class="i"><path d="M57.311 70.3s-.877-1.083-1.986-.323l-2.838 2.308s-1.194.793-.17 2.058c0 0 1.123 1.738 2.243.822 0 0 1.552-1.438 3.124-2.53 0 0 1.266-.714-.374-2.335z" class="H"/><path d="M57.651 70.671c.5.66-1.55 1.483-1.55 1.483-1.645.604-2.593 1.583-2.593 1.583s-.889.988-1.029.823c-.301-.354-1.136-1.222.008-2.276s.772-.554 2.566-2.07c0 0 1.226-1.352 2.597.457z" class="I"/></g><path d="M54.134 76.571s-1.925 1.922-2.761 3.221m.53-4.023s-1.768-.201-3.397.264" class="G V"/></g><g class="S"><path d="M183.888 121.899s-4.731 18.53-11.835 30.768c0 0 11.688-9.236 11.835-30.768z" class="I O"/><path d="M200.882 104.132s8.836 91.972-77.501 76.47l-.122-7.651-2.166-11.419z" class="N Q"/></g><path d="M170.448 127.968s3.721 9.668-2.374 23.787c0 0-8.78 28.141-44.795 22.425l-3.337-11.3z" class="H N T"/></g><path d="M203.358 103.66s4.495 8.168 2.448 15.32c0 0 2.623-1.358 3.796-2.592 0 0 1.544 1.946 2.442 2.69 0 0 1.361-9.319-4.851-13.22 0 0 4.984 1.088 10.382 9.828 0 0 .472-.572 1.027-2.697 0 0 1.932.135 3.136.579 0 0-2.149-6.987-10.697-8.616 0 0-3.017-.84-4.371-1.303 0 0-.909.17-1.637-1.207z" class="H"/><path d="M204.202 103.046s-1.082.989 2.991 2.811c0 0 4.984 1.088 10.382 9.828 0 0 .472-.572 1.027-2.697 0 0 1.932.135 3.136.579 0 0-2.149-6.987-10.697-8.616 0 0-3.017-.84-4.371-1.303 0 0-.909.17-1.637-1.207z" class="I"/><g class="D"><g class="E N"><path d="M203.465 99.908l-87.422 63.5 2.175 2.994 87.422-63.5z" class="U"/><path d="M212.301 101.565l-6.594-.862 1.313-6.408 15.901-5.999z" class="J"/><path d="M222.92 88.296l-17.213 12.407" class="G"/></g><g class="g E"><path d="M203.937 97.748s1.236-.898 2.194.221l2.35 3.249s1.039 1.178-.404 2.227c0 0-1.682 1.521-2.608.233 0 0-1.235-1.962-2.59-3.564 0 0-1.137-1.116 1.058-2.366z" class="H"/><path d="M203.471 98.045c-.717.557 1.22 2.01 1.22 2.01 1.571 1.106 2.296 2.412 2.296 2.412s.661 1.298.856 1.164c.42-.29 1.549-.972.637-2.412s-.66-.806-2.129-2.92c0 0-.915-1.779-2.88-.254z" class="I"/></g><path d="M205.521 105.288s1.493 2.581 2.01 4.193m.58-4.408s1.929.289 3.521 1.243" class="G N E"/><g class="O"><path d="M185.042 86.978s20.757 99.391-66.144 95.324l.101-18.065 3.491-18.017z" class="Q S"/><path d="M158.202 114.355s4.91 9.024.745 23.696c0 0-11.844 38.655-39.042 32.752l-4.123-18.976z" class="H T"/></g></g><path d="M187.415 86.193s5.478 7.45 4.39 14.747c0 0 2.403-1.675 3.397-3.04 0 0 1.77 1.713 2.749 2.329 0 0 .132-9.339-6.481-12.371 0 0 5.042.424 11.48 8.32 0 0 .39-.623.661-2.785 0 0 1.917-.118 3.159.163 0 0-3.018-6.592-11.633-7.087 0 0-3.076-.435-4.467-.715 0 0-.872.285-1.766-.975z" class="H"/><path d="M188.166 85.481s-.936 1.112 3.305 2.377c0 0 5.042.424 11.48 8.32 0 0 .39-.623.661-2.785 0 0 1.917-.118 3.159.163 0 0-3.018-6.592-11.633-7.087 0 0-3.076-.435-4.467-.715 0 0-.872.285-1.766-.975z" class="I"/><g class="D"><g class="E O"><path d="M117.24 153.694l-2.527-2.662 72.319-68.542 2.527 2.663z" class="U"/><path d="M195.938 82.976l-6.595.006.461-6.471 14.859-7.957z" class="J"/><path d="M204.662 68.554l-15.32 14.428" class="G"/></g><g class="h E"><path d="M187.219 80.305s1.099-1.043 2.186-.066l2.731 2.89s1.174 1.024-.109 2.242c0 0-1.457 1.714-2.534.567 0 0-1.468-1.769-3.008-3.17 0 0-1.263-.95.734-2.464z" class="H"/><path d="M186.8 80.657c-.633.641 1.46 1.818 1.46 1.818 1.688.885 2.57 2.074 2.57 2.074s.818 1.191.992 1.034c.375-.339 1.397-1.156.314-2.454s-.753-.707-2.472-2.595c0 0-1.13-1.631-2.864.123z" class="I"/></g><path d="M189.753 87.514s1.802 2.345 2.519 3.863m0-4.41s1.934.035 3.623.767" class="G O E"/><g class="V"><path d="M166.554 76.522s30.867 88.16-48.882 94.885l-2.077-16.489 1.02-16.852z" class="Q S"/><path d="M145.361 104.715s5.562 7.641 3.525 21.523c0 0-6.161 36.678-31.677 34.561l.482-24.303z" class="H T"/></g></g><path d="M168.624 75.521s5.891 6.137 5.775 12.923c0 0 1.991-1.817 2.733-3.181 0 0 1.821 1.35 2.787 1.794 0 0-1.001-8.534-7.397-10.505 0 0 4.65-.218 11.47 6.21 0 0 .281-.616.268-2.619 0 0 1.735-.338 2.901-.23 0 0-3.544-5.65-11.461-5.067 0 0-2.858-.028-4.16-.116 0 0-.761.365-1.728-.677z" class="H"/><path d="M169.224 74.781s-.72 1.127 3.3 1.771c0 0 4.65-.218 11.47 6.21 0 0 .281-.616.268-2.619 0 0 1.735-.338 2.901-.23 0 0-3.544-5.65-11.461-5.067 0 0-2.858-.028-4.16-.116 0 0-.761.365-1.728-.677z" class="I"/><g class="D E"><g class="V"><path d="M112.72 140.246l55.111-68.057 2.624 2.125-55.111 68.057-2.624-2.125" class="U"/><path d="M176.011 71.563l-6.015.798-.357-5.957 12.597-9.042z" class="J"/><path d="M182.236 57.362l-12.24 14.999" class="G"/></g><g class="i"><path d="M167.738 70.174s.877-1.083 1.986-.323l2.838 2.308s1.194.793.17 2.058c0 0-1.123 1.738-2.243.822 0 0-1.552-1.438-3.124-2.53 0 0-1.266-.714.374-2.335z" class="H"/><path d="M167.398 70.546c-.5.66 1.55 1.483 1.55 1.483 1.645.604 2.593 1.583 2.593 1.583s.889.988 1.029.823c.301-.354 1.136-1.222-.008-2.276s-.772-.554-2.566-2.07c0 0-1.226-1.352-2.597.457z" class="I"/></g><path d="M170.915 76.445s1.925 1.922 2.761 3.221m-.529-4.022s1.768-.201 3.397.264" class="G V"/></g><path d="M11.71 189.056s.025 1.434 13.889 2.791 17.403 12.084 26.022 11.869 13.91 3.43 26.377 7.329 23.245 17.349 77.268-2.612c0 0 12.158-13.612 36.988-16.934 0 0 32.432 12.779 16.677-.531 0 0 8.293-17.674-42.956-31.699l-100.516-.964c0 0-17.492-3.709-53.749 30.751z" class="R"/><g transform="matrix(2.957868 0 0 2.957868 -178.08929 -298.55741)"><g class="L Z"><path d="M78.826 167.348l-18.226.015 3.762-2.587-3.312-2.454 17.569.363c.567 1.463.637 3.109.207 4.664zm37.613.638l18.226.015-3.762-2.587 3.312-2.454-17.569.363c-.567 1.463-.637 3.109-.207 4.664z" stroke-width=".243"/><g stroke-width=".254"><path d="M78.614 163.605c-10.284 1.752-5.445 4.467-.091 4.737.03 0 .415-2.156.455-2.277.237-.71.28-2.569-.364-2.46zm38.125.455c10.284 1.752 5.445 4.467.091 4.737-.03 0-.415-2.156-.455-2.277-.237-.71-.28-2.569.364-2.46z"/><path d="M72.511 165.882c20.709 7.196 38.138 5.283 50.466.638l1.093 4.737c-14.97 5.466-35.223 6.194-52.015 0z"/></g></g><path d="M73.908 163.035l.404.135-.883 2.648 1.455.485-.113.34-1.86-.62zm2.564.834l-.349 1.118-.342-.107.349-1.118zm.681.217l.412.118-.526 1.84q-.139.487-.024.752.116.264.511.377.394.113.631-.05.238-.165.377-.651l.526-1.84.412.118-.541 1.891q-.169.592-.55.811-.379.219-.951.055-.574-.164-.782-.551-.206-.386-.036-.978zm2.983.84l.557.138.723 2.894.633-2.558.401.099-.757 3.058-.557-.138-.723-2.894-.633 2.558-.401-.099zm3.062.735l.416.091-.676 3.077-.416-.091zm2.361.782q-.456-.087-.79.202-.332.289-.444.876-.111.585.091.975.205.391.661.478.456.087.786-.202.332-.289.444-.873.112-.587-.091-.978-.2-.391-.656-.478zm.065-.34q.651.124.957.636.307.51.167 1.243-.14.732-.613 1.095-.473.361-1.124.237-.653-.125-.962-.635-.307-.51-.167-1.243.14-.734.613-1.095.475-.363 1.128-.238zm1.951.414l.568.084.994 2.813.388-2.607.409.061-.464 3.116-.568-.084-.994-2.813-.388 2.607-.409-.061zm4.406.589l1.802.175-.035.357-1.378-.133-.09.924 1.243.12-.035.357-1.243-.12-.145 1.498-.424-.041zm3.001.673l-.677 1.528 1.156.074zm-.213-.434l.482.031.998 3.22-.442-.028-.235-.825-1.417-.09-.338.788-.449-.029zm2.051.107l.426.015-.112 3.148-.426-.015zm.754.038l2.665.024-.003.359-1.118-.01-.025 2.792-.428-.004.025-2.792-1.118-.01zm4.277-.02l.426-.02.128 2.789 1.532-.07.016.358-1.958.09zm3.466.211l-.443 1.611 1.154-.098zm-.275-.398l.481-.041 1.463 3.037-.442.037-.354-.781-1.415.12-.218.83-.448.038zm3.312-.349l1.792-.261.052.355-1.37.199.134.919 1.236-.18.052.355-1.236.18.216 1.489-.422.061zm3.632-.298q-.456.087-.661.478-.203.391-.091.978.111.585.444.873.334.289.79.202.456-.087.657-.477.203-.391.091-.975-.112-.587-.444-.876-.33-.289-.786-.202zm-.065-.34q.651-.124 1.124.239.473.361.613 1.095.139.732-.167 1.243-.307.51-.958.634-.653.124-1.128-.236-.473-.361-.613-1.095-.14-.734.167-1.243.308-.512.961-.637zm3.788.942q.144.013.305.131.163.117.352.345l.622.736-.445.107-.581-.692q-.226-.271-.394-.337-.166-.066-.412-.007l-.451.108.311 1.295-.414.1-.736-3.063.936-.225q.525-.126.837.031.311.157.418.601.07.289-.02.513-.088.223-.326.358zm-1.347-1.037l.261 1.087.521-.125q.3-.072.418-.246.12-.176.056-.445-.064-.269-.251-.367-.185-.101-.484-.029zm4.407-1.293l.125.432q-.262-.133-.525-.16-.261-.028-.524.048-.519.15-.703.548-.184.396-.011.996.173.598.54.837.367.237.886.087.264-.076.469-.239.208-.163.359-.416l.124.428q-.173.208-.393.351-.218.142-.486.219-.687.198-1.204-.107-.517-.308-.727-1.035-.211-.73.063-1.264.274-.536.961-.734.272-.078.532-.075.262.001.514.084zm.419-.394l1.886-.641.115.34-1.483.503.3.883 1.421-.482.115.34-1.421.482.367 1.081 1.519-.516.115.34-1.922.653z" transform="rotate(359.465 546.02 149.443)" fill="#c70"/></g><g transform="matrix(1.000328 0 0 1.000328 -250.04086 -69.430411)" class="D"><g class="K R F"><path d="M358.504 129.27s-.161-5.465-5.706-10.77c0 0 .804 2.09.804 4.26 0 0-2.17-6.992-6.671-10.046 0 0 1.688 3.054 2.09 5.063 0 0-3.054-5.867-6.43-7.555 0 0 .723 1.527.804 3.134 0 0-2.572-4.983-7.876-7.394 0 0 1.849 2.813 1.929 4.019 0 0-4.179-6.912-7.876-7.796 0 0 3.536 4.099 3.938 6.751 0 0-4.26-6.43-9.002-8.6 0 0 3.858 3.777 5.385 7.876 0 0-4.903-7.796-11.975-7.233 0 0 6.189 2.492 8.519 6.59 0 0-4.019-4.983-13.181-3.858 0 0 5.626 1.125 7.314 3.215 0 0-11.172-4.179-14.869-.08 0 0 7.073-1.286 9.082.884 0 0-9.725-1.045-13.502 3.054 0 0 6.43-1.447 9.002-1.366 0 0-6.832 1.125-8.6 7.394 0 0 5.626-4.903 11.895-6.43 0 0-7.716 3.938-7.957 8.198 0 0 8.841-7.073 11.734-8.359 0 0-6.108 3.536-6.269 8.841 0 0 5.787-6.108 9.323-7.635 0 0-5.706 4.581-6.108 8.359 0 0 7.635-7.073 11.172-7.716 0 0-6.832 3.938-7.716 8.037 0 0 8.037-6.751 10.127-6.43 0 0-4.26 2.572-5.063 5.787 0 0 4.662-4.26 8.841-4.662 0 0-2.733 1.366-3.376 4.099 0 0 5.304-4.099 9.484-3.536 0 0-3.697 1.286-5.144 4.099 0 0 5.224-2.009 7.314-1.286 0 0-2.411 1.688-3.054 3.536 0 0 5.706-2.331 7.957-2.09 0 0-3.777 2.17-4.903 3.858 0 0 4.581-1.607 7.716-.964 0 0-3.858 2.492-4.742 4.179 0 0 7.394-2.331 8.921-1.688 0 0-3.536 2.009-4.501 3.295 0 0 6.108-1.607 9.725 1.849z"/><path d="M358.505 171.901s.698-11.829 0-18.251l3.317.321v20.06l-2.053.739z"/><path d="M365.493 169.036s-.255-10.281 0-16.623c0 0-5.081-2.032-4.948 23.988l1.276 3.295z"/><path d="M356.768 165.934s2.224 16.039 2.197 22.075l2.394 5.144s3.553-18.218-4.591-27.219z"/><path d="M367.913 164.005s-7.93 4.715-8.144 27.005l2.142 9.41 2.725-8.767s-1.01-19.932 3.277-27.648z"/><path d="M358.965 206.226c2.654-9.645-3.483-23.575-3.483-23.575s7.287 4.072 8.573 21.004l-2.436 7.716z"/><path d="M367.913 181.579s-8.088 12.645-6.294 33.22l4.433-1.286.444-10.888c0 0-.512-15.045 1.417-21.046z"/><path d="M357.735 239.661s1.607-34.077-4.019-40.507c0 0 8.894 1.768 10.18 20.253v19.343z"/><path d="M367.852 238.615s.555-34.218 3.087-40.936c0 0-9.655 3-8.814 42.061zm-4.944-100.893s.299-4.586-.777-7.694"/><path d="M327.803 145.613s3.295-4.903 6.349-5.304c0 0-4.179 6.832-5.947 9.002 0 0 4.34-1.366 6.349-5.063 0 0-3.376 7.475-2.974 9.403 0 0 3.295-3.134 4.42-7.233 0 0-.08 4.023-.402 6.231 0 0 2.893-4.624 4.019-7.838 0 0-.402 4.133 0 6.125 0 0 1.607-6.266 3.376-8.647 0 0-1.045 8.791-1.929 10.8 0 0 2.25-1.849 2.893-6.51 0 0 .723-4.179 2.009-5.385 0 0-1.607 6.751-1.607 8.198 0 0 2.331-1.929 4.34-8.439 0 0-1.447 4.983 0 7.475 0 0 1.045-6.108 2.974-8.117 0 0 0 1.366 1.125 3.536 0 0 .321-4.223 1.286-5.889 0 0 .402 3.176 1.045 4.332 0 0 .482-3.988 1.366-5.756 0 0 .241 2.17 1.125 3.617 0 0 .273-3.529 1.398-6.744l-.514-4.133s-2.736.912-3.899.028c0 0 .363 1.366.604 1.768 0 0-2.491-1.125-3.536-1.125a7.79 7.79 0 0 0 1.045 1.849s-1.768-.884-4.34-.804c0 0 1.607 1.045 1.849 1.527 0 0-3.054-1.447-6.349-1.366 0 0 1.206 1.206 1.688 2.492 0 0-2.572-1.607-5.867-.804 0 0 1.768 1.366 1.849 2.17 0 0-4.26-.563-7.073 0 0 0 3.215.804 5.626 2.411 0 0-12.377-3.617-13.261 2.893 0 0 2.893-2.893 5.706-1.607 0 0-5.143 2.411-4.742 6.912zm38.934-15.084s1.527-3.536 3.456-5.224c0 0-.241.964 0 2.612 0 0 2.331-4.862 6.269-6.148 0 0-2.572 3.295-3.134 5.465 0 0 3.215-4.742 6.189-4.742 0 0-2.733 2.411-2.893 3.657 0 0 3.536-4.3 8.278-4.38 0 0-2.331 1.366-3.376 3.134 0 0 5.546-4.42 11.091-3.134 0 0-3.376.804-4.742 2.733 0 0 5.465-3.121 12.056-2.967 0 0-4.983 1.199-7.394 3.53 0 0 9.725-3.858 13.824-.321 0 0-4.42-.804-5.546.643 0 0 6.269.884 8.519 3.697 0 0-5.706-.482-7.957-1.607 0 0 3.295 4.099 4.983 5.706 0 0-4.26-1.206-8.117-4.662 0 0 2.733 4.26 3.938 5.546l-7.876-5.867s5.144 7.233 6.51 8.037c0 0-8.278-4.662-10.529-7.716 0 0 3.215 4.099 3.777 8.278 0 0-4.822-6.751-9.725-9.002 0 0 5.304 3.938 4.42 8.6 0 0-4.42-6.912-8.841-7.555 0 0 4.179 2.09 4.26 5.787 0 0-3.134-3.937-7.876-5.465 0 0 3.697 2.33 3.456 4.982 0 0-2.572-3.617-5.947-3.938 0 0 2.652 1.286 2.893 4.099 0 0-3.215-3.134-4.822-3.376 0 0 .964 2.652 2.25 3.938 0 0-5.465-1.527-7.394-2.813zm-3.772-1.499s-.402-12.056-3.215-14.628c0 0 .241 2.009-.964 3.617 0 0 .804-6.59-2.331-9.323 0 0 .08 2.25-1.125 3.376 0 0 .964-6.832-1.286-9.002 0 0 0 4.179-1.366 5.787 0 0 .643-6.832-1.768-9.243 0 0 .241 2.411-.804 4.822 0 0 .402-4.903-2.25-7.555 0 0 .723 2.331 0 4.983 0 0-.321-6.992-4.34-9.002 0 0 1.849 2.974 1.286 5.385 0 0-2.572-7.475-6.51-7.876 0 0 2.009 2.331 2.411 4.662 0 0-6.269-6.269-10.85-5.546 0 0 4.42 2.492 6.189 5.144 0 0-9.966-3.617-11.734 3.777 0 0 5.706-4.501 11.332-1.607 0 0-8.921-.643-8.76 6.992 0 0 5.304-6.751 12.699-4.019 0 0-10.368-.321-4.742 7.876 0 0 .08-9.886 9.484-3.536 0 0-8.76-1.907-6.671 5.115 0 0 3.456-6.401 11.493.592 0 0-8.519-4.581-7.957 1.768 0 0 3.617-3.697 10.207 2.331 0 0-5.947-3.858-8.278.964 0 0 6.59-1.929 10.207 3.617 0 0-6.028-1.206-8.037 1.045 0 0 7.635-.723 10.368 2.893 0 0-5.144-2.411-7.957-.321 0 0 6.671.723 10.127 2.893 0 0-3.134-.482-4.742.563 0 0 6.59.884 8.117 4.179z"/></g><g class="j K"><path d="M336.67 138.93s7.531.295 11.978-3.295c0 0 4.768-4.19 11.608-4.342" class="G"/><path d="M397.995 146.614s-3.622-5.002-6.827-5.31c0 0 4.616 6.985 6.542 9.188 0 0-4.584-1.269-6.818-5.059 0 0 3.799 7.686 3.45 9.716 0 0-3.557-3.155-4.882-7.396 0 0 .231 4.2.647 6.495 0 0-3.192-4.725-4.484-8.043 0 0 .571 4.303.223 6.399 0 0-1.908-6.488-3.842-8.911 0 0 1.412 9.146 2.409 11.213 0 0-2.419-1.849-3.26-6.696 0 0-.908-4.34-2.296-5.553 0 0 1.926 6.995 1.978 8.506 0 0-2.506-1.93-4.842-8.659 0 0 1.693 5.153.273 7.809 0 0-1.315-6.344-3.403-8.372 0 0 .05 1.427-1.046 3.736 0 0-.49-4.4-1.558-6.106 0 0-.304 3.333-.934 4.564 0 0-.649-4.149-1.638-5.964 0 0-.173 2.276-1.044 3.82 0 0-.946-4.35-2.239-7.668l.482-2.447s3.328-.365 4.512-1.331c0 0-.33 1.441-.567 1.869 0 0 2.562-1.266 3.654-1.305 0 0-.642.863-1.024 1.969 0 0 1.815-.988 4.505-.998 0 0-1.641 1.15-1.876 1.663 0 0 3.138-1.623 6.584-1.659 0 0-1.216 1.304-1.672 2.665 0 0 2.628-1.773 6.1-1.054 0 0-1.797 1.492-1.852 2.335 0 0 4.43-.743 7.389-.258 0 0-3.33.957-5.79 2.724 0 0 12.799-4.23 13.96 2.539 0 0-3.128-2.917-6.02-1.471 0 0 5.462 2.332 5.206 7.049z" class="R"/></g><g class="F"><path d="M318.404 108.381s29.13 1.44 39.309 21.372m-21.672-35.122s21.156 13.75 25.73 34.887" class="G K"/><path d="M360.304 90.887h2.813v41.15h-2.813z" class="E M"/><g class="K R"><path d="M356.998 128.055s-2.159-6.064-6.124-8.1c0 0 2.909 3.84 2.668 5.488 0 0-2.331-4.862-6.269-6.148 0 0 2.572 3.295 3.134 5.465 0 0-3.215-4.742-6.189-4.742 0 0 2.733 2.411 2.893 3.657 0 0-3.536-4.3-8.278-4.38 0 0 2.331 1.366 3.376 3.134 0 0-5.546-4.42-11.091-3.134 0 0 3.376.804 4.742 2.733 0 0-5.465-3.121-12.056-2.967 0 0 4.983 1.199 7.394 3.53 0 0-9.725-3.858-13.824-.321 0 0 4.42-.804 5.546.643 0 0-6.269.884-8.519 3.697 0 0 5.706-.482 7.957-1.607 0 0-3.295 4.099-4.983 5.706 0 0 4.26-1.206 8.117-4.662 0 0-2.733 4.26-3.938 5.546l7.876-5.867s-5.144 7.233-6.51 8.037c0 0 8.278-4.662 10.529-7.716 0 0-3.215 4.099-3.777 8.278 0 0 4.822-6.751 9.725-9.002 0 0-5.304 3.938-4.42 8.6 0 0 4.42-6.912 8.841-7.555 0 0-4.179 2.09-4.26 5.787 0 0 3.134-3.937 7.876-5.465 0 0-3.697 2.33-3.456 4.982 0 0 2.572-3.617 5.947-3.938 0 0-2.652 1.286-2.893 4.099 0 0 3.215-3.134 4.822-3.376 0 0-.964 2.652-2.25 3.938 0 0 7.405-1.811 9.334-3.097z"/><path d="M326.838 123.598s20.446-.027 29.287 4.608"/></g><path d="M397.596 125.902s-23.254-.697-31.505 4.644" class="G K"/></g><path d="M364.743 132.598c6.841.152 11.608 4.342 11.608 4.342 4.447 3.59 11.978 3.295 11.978 3.295" class="G K j"/><g class="F K"><path d="M364.242 130.546s1.42-5.67 7.235-10.676c0 0-.912 2.045-1.026 4.212 0 0 2.533-6.869 7.187-9.683 0 0-1.845 2.962-2.352 4.947 0 0 3.357-5.699 6.816-7.208 0 0-.802 1.487-.967 3.088 0 0 2.829-4.842 8.252-6.972 0 0-1.993 2.712-2.137 3.912 0 0 4.535-6.684 8.274-7.373 0 0-3.746 3.908-4.286 6.536 0 0 4.59-6.198 9.439-8.117 0 0-4.05 3.57-5.79 7.584 0 0 5.304-7.529 12.337-6.597 0 0-6.31 2.164-8.853 6.136 0 0 4.274-4.766 13.365-3.163 0 0-5.677.829-7.472 2.828 0 0 11.375-3.589 14.853.698 0 0-6.996-1.654-9.116.408 0 0 9.766-.534 13.324 3.757 0 0-6.345-1.781-8.918-1.836 0 0 6.763 1.481 8.201 7.834 0 0-5.362-5.19-11.542-7.043 0 0 7.499 4.337 7.517 8.603 0 0-8.459-7.526-11.281-8.961 0 0 5.915 3.851 5.798 9.157 0 0-5.459-6.403-8.911-8.113 0 0 5.459 4.873 5.662 8.667 0 0-7.255-7.463-10.752-8.29 0 0 6.616 4.29 7.285 8.43 0 0-7.673-7.163-9.776-6.951 0 0 4.119 2.791 4.753 6.044 0 0-4.432-4.498-8.585-5.118 0 0 2.657 1.507 3.156 4.27 0 0-5.083-4.371-9.286-4.028 0 0 3.625 1.478 4.922 4.363 0 0-5.112-2.28-7.236-1.667 0 0 2.32 1.812 2.865 3.691 0 0-5.576-2.626-7.837-2.503 0 0 3.659 2.365 4.694 4.109 0 0-4.491-1.845-7.655-1.367 0 0 3.722 2.69 4.517 4.422 0 0-7.262-2.715-8.821-2.152 0 0 3.426 2.192 4.322 3.526 0 0-6.016-1.925-9.808 1.337z" class="R"/><path d="M405.848 110.933s-22.699-1.232-40.246 19.307" class="G"/><path d="M362.072 131.284s.682-14.579 3.495-17.151c0 0-.241 2.009.964 3.617 0 0-.804-6.59 2.331-9.323 0 0-.08 2.25 1.125 3.376 0 0-.964-6.832 1.286-9.002 0 0 0 4.179 1.366 5.787 0 0-.643-6.832 1.768-9.243 0 0-.241 2.411.804 4.822 0 0-.402-4.903 2.25-7.555 0 0-.723 2.331 0 4.983 0 0 .321-6.992 4.34-9.002 0 0-1.849 2.974-1.286 5.385 0 0 2.572-7.475 6.51-7.876 0 0-2.009 2.331-2.411 4.662 0 0 6.269-6.269 10.85-5.546 0 0-4.42 2.492-6.189 5.144 0 0 9.966-3.617 11.734 3.777 0 0-5.706-4.501-11.332-1.607 0 0 8.921-.643 8.76 6.992 0 0-5.304-6.751-12.699-4.019 0 0 10.368-.321 4.742 7.876 0 0-.08-9.886-9.484-3.536 0 0 8.76-1.907 6.671 5.115 0 0-3.456-6.401-11.493.592 0 0 8.519-4.581 7.957 1.768 0 0-3.617-3.697-10.207 2.331 0 0 5.947-3.858 8.278.964 0 0-6.59-1.929-10.207 3.617 0 0 6.028-1.206 8.037 1.045 0 0-7.635-.723-10.368 2.893 0 0 5.144-2.411 7.957-.321 0 0-6.671.723-10.127 2.893 0 0 3.134-.482 4.742.563 0 0-7.247 1.554-8.774 4.849z" class="R"/></g><path d="M389.276 94.362s-17.506 8.849-27.176 36.407" stroke-width=".331" class="G K"/><g class="F"><path d="M362.131 129.499s3.237-6.751 7.738-2.331c0 0-3.697-.63-6.028 2.699 0 0 6.751-1.815 7.475 2.445 0 0-4.34-2.17-6.349 0 0 0 4.903.804 7.233 2.893 0 0-5.559-.884-6.597 0 0 0 6.678 2.733 5.231 7.394 0 0-.665-2.813-3.668-4.662 0 0 3.427 4.019 3.106 9.002 0 0-1.701-5.465-4.668-7.153 0 0 4.186 4.822 3.623 9.645 0 0-1.527-5.291-4.099-7.387 0 0 5.17 7.87 2.786 12.612 0 0-.938-6.108-3.67-10.127 0 0 1.849 5.068 1.849 7.356 0 0 .589 4.699 1.822 5.825 0 0-4.313.804-4.715-8.68 0 0 .908 11.573-.47 14.547 0 0-3.146-1.471-1.7-18.083 0 0-1.021 12.538-.485 14.467 0 0-6.829-4.179.163-20.093 0 0-5.385 5.998-4.501 11.237 0 0-4.559-4.771 2.491-13.911 0 0-4.903 2.915-5.546 10.149 0 0-4.822-4.501 5.063-11.815 0 0-5.063 2.813-6.751 5.385 0 0-.723-4.42 6.832-8.117 0 0-4.618-.482-6.85 2.25 0 0-.192-5.036 7.574-4.34 0 0-.563-2.492-7.073-2.974 0 0 5.421-3.134 10.185 1.768z" class="K R"/><g class="E"><path d="M354.517 83.841s-3.322 3.029-.536 5.319 10.595 5.933 11.62 6.04 3.704 0 3.597-6.644-.997-15.967-6.661-17.896-8.021-1.179-10.378 1.286-2.181 6.537 5.554 4.286c0 .001.126 4.073-3.196 7.609z" class="Z"/><g class="G"><path d="M351.444 72.869s-.034 2.614 1.68 2.507 2.963-.192 4.589-2.507m5.233 5.615s-2.358-2.25-5.232-2.25c0 0 1.519-1.157 1.84-3.365"/><path d="M361.822 75.379s-1.341-.539-4.108.854"/></g><path d="M354.517 83.841s-3.322 3.029-.536 5.319 10.595 5.933 11.62 6.04c.592.062 2.338.003 3.031-2.18 0 0-1.417.398-3.701-2.582-1.864-2.432-4.852-4.643-6.428-4.991 0 0-2.593-.643-3.986-1.607z" class="Z"/><path d="M363.479 91.329s-3.898-2.652-5.224-4.219-1.94-2.31-2.613-2.65m-2.773 2.248s.484-1.607 2.412.723 4.292 5.409 7.306 6.589m1.334-7.432s3.531 1.165 5.181 4.3m-2.047-9.123s1.971 2.979 2.047 4.403" class="G"/></g></g></g><g transform="matrix(1.000328 0 0 1.000328 35.200594 -322.60605)"><g class="D E F M"><use href="#C"/><use href="#D"/></g><g transform="translate(-443.388 146.067)"><g class="J"><use href="#E" class="D F P"/><use href="#F"/><g class="D F P"><use href="#G"/><use href="#H"/><use href="#I"/></g><circle cx="470.976" cy="380.447" r="2.734" transform="rotate(353.241)" class="F P"/></g><g class="D E M"><use href="#J" class="F"/><use href="#K" class="F"/><use href="#L" class="F"/><use href="#M" class="F"/><use href="#N" class="k"/><use href="#O" class="F"/></g><g transform="rotate(359.908)" class="E F"><circle cx="480.641" cy="339.204" r="5.468" class="M"/><circle cx="480.641" cy="339.204" r="2.734" fill="#8d5a32"/></g><path d="M438.928 318.444l.012 3.85" class="D J P l"/></g></g><g transform="matrix(-1.000328 0 0 1.000328 190.95345 -322.60605)"><g class="D E F M"><use href="#C"/><use href="#D"/></g><g transform="translate(-443.388 146.067)"><g class="J"><use href="#E" class="D F P"/><use href="#F"/><g class="D F P"><use href="#G"/><use href="#H"/><use href="#I"/></g><circle cx="470.976" cy="380.447" r="2.734" transform="rotate(353.241)" class="F P"/></g><g class="D E M"><use href="#J" class="F"/><use href="#K" class="F"/><use href="#L" class="F"/><use href="#M" class="F"/><use href="#N" class="k"/><use href="#O" class="F"/></g><g transform="rotate(359.908)" class="E F"><circle cx="480.641" cy="339.204" r="5.468" class="M"/><circle cx="480.641" cy="339.204" r="2.734" fill="#8d5a32"/></g><path d="M438.928 318.444l.012 3.85" class="D J P l"/></g></g><g class="D F"><g class="E"><path d="M83.179 140.013s.03 1.145-.762 1.062l-5.428-.572s1.152-.161 1.942-1.012 4.247.522 4.247.522z" class="b"/><path d="M79.925 129.208s-3.318-5.528-3.479-8.047 2.402-2.86 3.072-.528.945 6.604.863 8.604-.456-.029-.456-.029z" class="H"/><path d="M89.384 141.52s.054-7.021.536-9.215c0 0 .11-2.523-10.182-3.109 0 0 .534 8.74-.806 10.294 0 0 7.611.681 10.452 2.029z" class="b"/></g><g fill="#f6e200" stroke="#826b2e"><path d="M79.825 131.474l-.088-2.278c10.292.586 10.182 3.109 10.182 3.109-.082.372-.151.883-.21 1.475 0 0-2.898-2.292-9.884-2.306zm9.594 7.988l-.035 2.058c-2.841-1.348-10.452-2.029-10.452-2.029.322-.374.536-1.163.675-2.147 0 0 8.829.695 9.812 2.117z"/><path d="M79.66 136.922s2.943.422 3.452-1.005c.271-.76-.536-1.019-.965-.558 0 0-.787.749-.734 0 0 0 0-.118.218-.115 0 0 .191-.02.151-.191s-.221-.173-.432-.177a1.56 1.56 0 0 0-.633.117s-.402.121-.06-.432-.352-.342.01-.482.392.16.533.573c0 0 .068.348.352-.09.462-.714.372-2.513-.271-1.809 0 0-.101.131.02.241 0 0 .241.322-.302.06 0 0-.16-.019-.302-.131-.061-.048.04-.09.06-.111s.281-.382-.281-.432c0 0-.352-.05-.332.312 0 0 .05.302-.302.301.001 0 .028 2.141-.181 3.93z"/></g><path d="M86.355 133.193s-.402 2.693.804 4.683c0 0 .134.234.362.127 0 0 .215-.067.147-.295 0 0-.671-1.31-.75-4.395 0 0 .014-.322-.228-.375 0 0-.255-.067-.335.255z" fill="#fff" stroke="#fff"/><path d="M136.151 142.541s1.155-2.078.807-5.019c0 0-1.42-4.482 2.57-6.412 0 0 5.524-2.72 8.552 5.722 0 0 1.018 3.555 2.867 4.149 0 0-6.297 1.036-8.709-3.459 0 0-.193 4.056-6.086 5.019z" class="E b"/></g><path d="M148.271 140.501s.626.297.8-.132c0 0 .217-.464-.248-.643 0 0-1.762-.697-2.734-2.996 0 0-.194-2.056-2.968-5.004 0 0-.376-.456-.777-.067 0 0-.281.266.094.737s2.345 2.104 2.854 4.677c0 0 .282 2.224 2.979 3.428zm-10.375.538s-.187.224 0 .461c0 0 .268.193.643 0 0 0 2.676-1.622 2.305-3.398h-1.018s.312 1.383-1.93 2.937z" fill="#fff"/><g fill="#f6e200" stroke="#826b2e" class="D F"><path d="M136.917 140.041s2.451-2.183 11.658-1.879l-.763-2.033s-3.029-.008-5.066.12c0 0-.778-3.106-2.654-5.344 0 0-.623.115-1.584.837 0 0 1.692 2.624 2.014 4.875 0 0-1.691.194-3.525 1.317 0 0 .13 1.099-.08 2.108z"/><path d="M142.647 130.801s.139-2.827 3.656-3.571c0 0-2.579-3.135-6.776-.945 0 0-3.937 1.97-2.342 7.118 0 0 1.343-3.233 5.462-2.603z"/></g><g transform="matrix(-1.262042 0 0 1.262043 640.69284 -123.52954)"><circle cx="440.74" cy="238.394" r="3.053" class="L W X"/><use href="#P"/><circle cx="441.365" cy="237.472" r=".844" class="Y"/><circle cx="437.68" cy="243.766" r="3.053" class="L W X"/><use href="#P" x="-3.061" y="5.371"/><circle cx="438.304" cy="242.844" r=".844" class="Y"/><circle cx="443.793" cy="243.766" r="3.053" class="L W X"/><use href="#P" x="3.052" y="5.371"/><circle cx="444.417" cy="242.844" r=".844" class="Y"/><circle cx="434.623" cy="249.214" r="3.053" class="L W X"/><use href="#P" x="-6.117" y="10.819"/><circle cx="435.248" cy="248.292" r=".844" class="Y"/><circle cx="440.736" cy="249.214" r="3.053" class="L W X"/><use href="#P" x="-0.004" y="10.819"/><circle cx="441.361" cy="248.292" r=".844" class="Y"/><circle cx="446.842" cy="249.168" r="3.053" class="L W X"/><use href="#P" x="6.102" y="10.773"/><circle cx="447.466" cy="248.245" r=".844" class="Y"/></g><g class="D"><g class="a"><g class="c"><path d="M125.636 154.763c-.589 2.199-2.849 3.504-5.048 2.915s-3.504-2.849-2.915-5.048 2.849-3.504 5.048-2.915 3.504 2.849 2.915 5.048zm-3.315-3.555c-1.374-.368-2.787.448-3.155 1.822s.448 2.787 1.822 3.155 2.787-.448 3.155-1.822-.448-2.787-1.822-3.155z" stroke="#555"/><path d="M142.993 179.15s7.46 2.123 11.89 6.195c0 0-1.65-12.109-10.884-18.847 0 0 1.493 5.669-1.005 12.652z" stroke="#545454"/></g><path d="M124.584 156.204l18.576 32.825-2.478 1.402-18.576-32.825s-1.144-1.749.186-2.569c0 0 1.31-.778 2.293 1.166z" stroke="#555" stroke-width=".38"/><g stroke="#545454" class="c"><path d="M146.221 197.076s2.725-15.328 2.702-19.223c0 0 .091-3.12-1.002-3.298 0 0-.932-.254-1.353 1.757 0 0-1.06 5.714-3.804 10.601l-1.924 1.445s-3.69 2.502-12.071-.599l-.784 2.926c0 0 6.003 3.114 18.236 6.39z"/><path d="M129.461 197.354s-.623-8.447 3.104-11.589c0 0-8.905-1.883-12.843-5.447 0 0-.501 8.898 9.739 17.035z"/></g></g><g class="E M"><path d="M120.937 164.995c5.392-1.937 11.048-6.001 11.048-6.001.355-.261.399-.986.399-.986.158-2.107-1.928-3.264-1.928-3.264-.608-.349-1.162-.092-1.162-.092-7.118 2.683-11.026 5.851-11.026 5.851s-.962.679-.598 1.65a6.27 6.27 0 0 0 1.39 2.339s.677.934 1.877.503z" stroke-width=".362"/><path d="M121.019 164.966c-1.031.555-1.959-.473-1.959-.473-.908-.916-1.33-2.163-1.33-2.163-.422-.924.29-1.6.29-1.6s.642-.69 1.538.275c0 0 .935.921 1.553 2.42 0 0 .449 1.249-.092 1.54z" class="c"/></g><g class="m"><path d="M126.659 193.957c.077-1.545-3.289-2.418-14.758-2.417-7.033 0-13.78.174-13.78 2.417 0 4.562 28.228 6.241 28.538 0z" class="L M"/><path d="M99.084 175.77h26.441v21.877H99.084z" class="E a"/></g><g class="G d E"><path d="M121.056 178.488l-3.249 18.861m-5.07-18.502l-5.936 18.501m-2.59-18.729l-5.127 16.393m7.718 2.337l-2.59-18.861"/><path d="M112.606 178.978l5.201 18.37m2.987-18.86l4.731 16.558"/></g><g class="L M"><g class="m"><path d="M98.212 171.14s1.275 3.22 14.093 3.287c0 0 10.804.405 14.16-3.287 0 0 2.953-3.723-14.126-4.141 0 0-15.533 0-14.127 4.141z"/><path d="M101.43 172.424s.978 2.47 10.808 2.521c0 0 8.287.31 10.86-2.521 0 0 2.265-2.855-10.834-3.176 0 0-11.913 0-10.834 3.176z"/></g><path d="M98.122 171.14s1.288 3.22 14.235 3.287c0 0 10.914.405 14.303-3.287v4.329c-3.389 3.692-14.303 3.287-14.303 3.287-12.947-.067-14.235-3.287-14.235-3.287z" class="e"/><path d="M98.122 193.957s1.288 3.617 14.235 3.692c0 0 10.914.455 14.303-3.692v4.862c-3.389 4.147-14.303 3.692-14.303 3.692-12.947-.075-14.235-3.692-14.235-3.692z" stroke-width=".428"/><path d="M106.802 197.349v4.911" class="d"/><path d="M113.512 178.77v-4.329" class="e"/><path d="M117.808 197.349v4.911" class="d"/><path d="M103.111 177.934v-4.329m8.455 5.165v-4.329m8.456 3.914v-4.329m-15.032 4.329v-4.329m16.71 3.908v-4.329" class="e"/></g></g></g></g><defs ><path id="B" d="M106.271 535.757c-.147 4.979-1.32 6.125-2.948 6.125s-2.948-.856-2.948-6.125c-.147-5.995 1.32-6.125 2.948-6.125s2.801.856 2.948 6.125z"/><path id="C" d="M85.642 496.606c-.11-2.918-3.524-3.875-3.524-3.875l-26.357-5.048c-1.638-.409-2.365-1.582-2.365-1.582l-8.027-11.451-5.033-.629c-.764 2.239-2.649 2.197-2.649 2.197-3.419.344-3.834-2.98-3.834-2.98l-6.707-.696.3 7.206 5.02-.19 16.554 16.312c1.469 1.633 2.795 1.478 2.795 1.478l33.917 1.612z"/><path id="D" d="M84.37 497.572c.298-2.895-2.344-3.491-2.344-3.491l-26.404-4.874c-2.31-.429-3.244-1.768-3.244-1.768l-8.168-11.679-2.802-.333c-1.462 2.366-3.806 2.283-3.806 2.283-4.374-.043-4.743-3.465-4.743-3.465l-4.402-.447.18 4.765 5.038-.168 16.856 16.504c.83.781 2.359.803 2.359.803z"/><path id="E" d="M504.328 316.651l-65.402.845.026 8.414 65.167 2.637s6.38.107 6.299-6.034c0 0 .196-5.635-6.09-5.861z"/><path id="F" d="M508.791 323.352s-.718 2.135-4.931 2.095l-64.912-1.048.005 1.51 65.167 2.637c0 0 4.558.215 4.672-5.194z"/><path id="G" d="M453.289 316.825l-.019 9.905s.012 1.568-1.696 1.439c0 0-1.637.102-1.575-1.516l.143-9.882s.087-1.139 1.536-1.135c0 0 1.423-.194 1.611 1.189z"/><path id="H" d="M444.467 316.938l-.018 9.513s.012 1.506-1.629 1.382c0 0-1.572.098-1.513-1.457l.137-9.491s.083-1.094 1.475-1.09c0 0 1.366-.186 1.547 1.143z"/><path id="I" d="M506.363 316.632l-.023 11.773s.015 1.864-2.016 1.71c0 0-1.945.121-1.872-1.802l.17-11.745s.103-1.354 1.826-1.349c0 0 1.691-.231 1.915 1.413z"/><path id="J" d="M467.514 337.543l27.339-.044.003 1.822-27.339.044z"/><path id="K" d="M491.51 347.437l-1.287 1.291-19.362-19.3 1.287-1.291z"/><path id="L" d="M490.19 328.107l1.291 1.287-19.3 19.362-1.291-1.287z"/><path id="M" d="M480.252 324.764l1.823-.003.044 27.339-1.822.003z"/><path id="N" d="M462.048 338.463a19.14 19.14 0 0 0 19.168 19.107 19.14 19.14 0 0 0 19.107-19.168 19.14 19.14 0 0 0-19.168-19.107 19.14 19.14 0 0 0-19.107 19.168zm19.116-13.244c7.298-.012 13.223 5.895 13.235 13.192s-5.895 13.223-13.192 13.235-13.223-5.894-13.235-13.192 5.895-13.223 13.192-13.235z"/><path id="O" d="M474.079 327.835a12.83 12.83 0 0 0-3.515 3.527l-3.793-2.525c-1.241 1.86-2.131 3.973-2.577 6.246l4.471.882c-.158.805-.24 1.637-.239 2.489s.086 1.684.247 2.489l-4.468.896a17.22 17.22 0 0 0 2.597 6.238l3.785-2.538a12.83 12.83 0 0 0 3.526 3.515l-2.526 3.793c1.86 1.241 3.974 2.131 6.247 2.577l.882-4.471a12.82 12.82 0 0 0 2.489.239 12.79 12.79 0 0 0 2.488-.246l.896 4.468a17.21 17.21 0 0 0 6.238-2.597l-2.537-3.785c1.39-.934 2.586-2.134 3.515-3.527l3.793 2.526c1.241-1.86 2.131-3.974 2.577-6.247l-4.471-.882c.158-.805.24-1.638.239-2.489s-.086-1.684-.247-2.489l4.468-.896a17.22 17.22 0 0 0-2.597-6.238l-3.785 2.538c-.924-1.375-2.108-2.56-3.481-3.485l2.541-3.782a17.22 17.22 0 0 0-6.305-2.617l-.882 4.471a12.81 12.81 0 0 0-2.491-.239 12.79 12.79 0 0 0-2.488.246l-.896-4.468c-2.272.453-4.383 1.351-6.24 2.598l2.538 3.785m7.075-8.54a19.14 19.14 0 0 1 19.168 19.107 19.14 19.14 0 0 1-19.107 19.168 19.14 19.14 0 0 1-19.168-19.107 19.14 19.14 0 0 1 19.106-19.168z"/><path id="P" d="M443.2 240.071s-.737 1.031-2.334.808c-.843-.118-2.087-.795-1.725-2.484 0 0-.576.725-1.276.808 0 0 .325 1.686 2.185 2.248.813.246 2.037.048 3.15-1.379z"/></defs></svg>