<?xml version="1.0" encoding="UTF-8" standalone="no"?>
<svg
   xmlns:dc="http://purl.org/dc/elements/1.1/"
   xmlns:cc="http://creativecommons.org/ns#"
   xmlns:rdf="http://www.w3.org/1999/02/22-rdf-syntax-ns#"
   xmlns:svg="http://www.w3.org/2000/svg"
   xmlns="http://www.w3.org/2000/svg"
   xmlns:sodipodi="http://sodipodi.sourceforge.net/DTD/sodipodi-0.dtd"
   xmlns:inkscape="http://www.inkscape.org/namespaces/inkscape"
   width="900"
   height="600"
   viewBox="0 0 30 20"
   version="1.1"
   id="svg6"
   sodipodi:docname="Flag_of_Mongolia_1924_(alternative).svg"
   inkscape:version="0.92.3 (2405546, 2018-03-11)">
  <metadata
     id="metadata12">
    <rdf:RDF>
      <cc:Work
         rdf:about="">
        <dc:format>image/svg+xml</dc:format>
        <dc:type
           rdf:resource="http://purl.org/dc/dcmitype/StillImage" />
      </cc:Work>
    </rdf:RDF>
  </metadata>
  <defs
     id="defs10" />
  <sodipodi:namedview
     pagecolor="#ffffff"
     bordercolor="#666666"
     borderopacity="1"
     objecttolerance="10"
     gridtolerance="10"
     guidetolerance="10"
     inkscape:pageopacity="0"
     inkscape:pageshadow="2"
     inkscape:window-width="1920"
     inkscape:window-height="1017"
     id="namedview8"
     showgrid="false"
     inkscape:zoom="0.91138208"
     inkscape:cx="486.18557"
     inkscape:cy="284.8871"
     inkscape:window-x="-4"
     inkscape:window-y="-4"
     inkscape:window-maximized="1"
     inkscape:current-layer="svg6" />
  <rect
     width="30"
     height="20"
     fill="#da251d"
     id="rect2"
     style="fill:#dc171c;fill-opacity:1" />
  <g
     id="g950"
     transform="matrix(0.05049824,0,0,0.05049824,-0.10442598,-5.1053288)">
    <g
       id="g830"
       transform="matrix(1.26388,0,0,1.26388,175.214,83.695)"
       style="fill:#ffd42a">
      <path
         id="path824"
         d="m 98.274,155.531 c -13.275,0 -24.053,10.779 -24.053,24.053 0,9.952 6.053,18.493 14.677,22.148 a 13.434,13.434 0 0 1 -4.09,-9.67 c 0,-7.414 6,-13.435 13.407,-13.467 h 0.059 c 6.362,-0.032 11.517,-5.206 11.517,-11.576 0,-5.73 -4.174,-10.491 -9.642,-11.414 a 24.196,24.196 0 0 0 -1.875,-0.074 z m 9.405,1.905 a 13.431,13.431 0 0 1 4.002,9.583 c 0,7.413 -6.001,13.434 -13.407,13.466 h -0.06 c -6.362,0.032 -11.516,5.206 -11.516,11.576 0,6.096 4.723,11.099 10.705,11.547 0.289,0.01 0.58,0.015 0.87,0.015 13.275,0 24.054,-10.764 24.054,-24.039 0,-9.94 -6.04,-18.486 -14.648,-22.148 z m -9.405,7.583 a 2,2 0 1 1 0,4 2,2 0 0 1 0,-4 z m 0,25.042 a 2,2 0 0 1 2,2 2,2 0 0 1 -2,2 2,2 0 0 1 -2,-2 2,2 0 0 1 2,-2 z m 28.863,-68.211 h 17 v 115.455 h -17 z m -52.917,0 h 48.107 L 98.274,136.28 M 74.22,222.872 h 48.107 L 98.274,237.304 M 52.41,121.85 h 17 v 115.455 h -17 z"
         inkscape:connector-curvature="0" />
      <circle
         id="circle826"
         cy="87.607002"
         cx="98.274002"
         r="15" />
      <path
         id="path828"
         d="M 66.108,88.93 A 32.5,32.5 0 0 0 98.273,117.045 32.5,32.5 0 0 0 130.431,88.978 36.5,36.5 0 0 1 98.273,108.24 36.5,36.5 0 0 1 66.108,88.93 Z m 8.113,50.973 h 48.106 v 12 H 74.221 Z m 0,67.348 h 48.106 v 12 H 74.221 Z M 97.818,37.627 c 0.022,1.002 0.303,2.221 0.067,3.006 -1.123,2.145 -3.392,4.255 -3.475,6.08 -0.095,2.89 1.28,4.578 1.67,6.215 0.869,4.324 -3.027,4.23 -2.772,0.668 0.187,-1.106 -0.318,-3.107 -1.404,-4.009 -0.618,0.69 -0.418,1.233 -0.6,1.77 -1.024,2.804 -3.132,4.439 -2.568,7.71 2.863,13.307 18.557,8.914 19.135,0.473 0.313,-3.258 -1.512,-4.41 -2.268,-6.615 -0.331,-0.98 -0.579,-1.547 -0.567,-2.551 -0.027,-1.154 0.287,-2.286 0.094,-3.26 -0.094,-0.476 -0.806,-0.827 -0.95,-1.604 -0.637,0.664 -0.373,1.462 -0.467,2.218 -0.244,0.984 -0.973,1.378 -1.075,2.457 -0.067,1.043 0.339,1.449 0.319,2.315 -0.106,1.398 -2.209,1.024 -2.551,0.047 -0.284,-0.957 -0.32,-2.067 0,-3.402 0.425,-2.016 1.568,-4.082 1.275,-6.047 -0.307,-1.588 -1.619,-4.061 -3.863,-5.471 z"
         inkscape:connector-curvature="0" />
    </g>
    <path
       id="path832"
       d="m 299.42,392.314 c -2.296,4.495 -18.281,8.765 -19.175,13.975 -14.77,-13.752 -26.396,-4.613 -32.38,-8.32 -0.835,1.925 -0.65,2.251 -0.452,3.811 -5.954,-5.42 -17.084,1.855 -23.984,1.098 -0.346,3.417 -0.678,6.911 0.703,9.05 -11.233,-2.285 -12.796,5.698 -23.366,4.633 -0.828,14.266 9.815,23.883 27.24,25.18 -3.31,5.613 -4.618,12.647 -3.648,21.518 7.744,-6.077 17.101,-1.166 23.055,-6.587 -0.915,4.068 0.197,8.853 1.689,11.823 3.701,-8.05 24.345,-7.178 29.979,-17.228 4.722,8.638 16.818,11.302 20.34,17.481 3.52,-6.179 15.617,-8.843 20.34,-17.481 5.633,10.05 26.277,9.177 29.979,17.228 1.491,-2.97 2.603,-7.755 1.689,-11.823 5.953,5.42 15.31,0.51 23.054,6.587 0.97,-8.871 -0.338,-15.905 -3.648,-21.518 17.425,-1.297 28.069,-10.914 27.24,-25.18 -10.57,1.065 -12.133,-6.918 -23.366,-4.634 1.38,-2.138 1.05,-5.632 0.703,-9.049 -6.9,0.757 -18.03,-6.518 -23.983,-1.098 0.198,-1.56 0.382,-1.886 -0.453,-3.81 -5.984,3.706 -17.61,-5.433 -32.38,8.32 -0.894,-5.211 -16.879,-9.48 -19.175,-13.976 z"
       inkscape:connector-curvature="0"
       style="fill:#c9a200;fill-opacity:1" />
    <path
       id="path834"
       d="m 319.787,409.314 c 13.233,-12.58 19.372,-5.525 28.847,-8.013 -3.472,17.288 -21.7,28.057 -32.25,27.3 7.305,-3.005 14.968,-6.548 17.795,-16.361 -5.892,11.286 -14.65,11.883 -20.542,14.869 4.26,-4.678 7.265,-10.848 6.15,-17.795 z m -4.06,22.214 c 5.395,7.21 5.654,12.27 4.54,16.615 9.103,11.326 19.222,7.663 28.505,15.227 1.39,-9.76 -1.458,-23.522 -16.429,-31.61 l -7.6,0.084 c 7.93,4.18 14.844,11.345 16.862,18.152 -3.769,-6.614 -18.586,-18.244 -25.878,-18.468 z"
       inkscape:connector-curvature="0"
       style="fill:#ffd42a;fill-opacity:1" />
    <path
       id="path836"
       d="m 332.765,427.2 c 5.996,1.111 22.464,-7.658 28.882,-14.78 -1.633,5.265 -10.317,12.598 -21.112,15.793 l 12.414,-0.845 c 8.304,-5.954 21.928,-12.414 20.099,-21.534 -7.6,-0.197 -14.399,-6.222 -22.802,-0.592 -2.24,11.106 -12.387,18.03 -17.48,21.957 z m 24.997,0.421 c 5.677,-1.973 15.286,-12.751 15.286,-12.751 6.81,-3.772 12.156,2.698 22.638,4.24 0.358,12.848 -14.213,21.038 -26.216,19.852 -2.542,-2.531 -5.233,-5.481 -9.596,-7.625 7.185,0.14 18.223,-2.02 23.677,-6.599 -5.83,1.13 -15.869,3.992 -25.789,2.883 z m -20.08,3.7 c 6.953,5.194 12.832,12.726 13.662,21.804 6.623,5.827 14.978,3.115 20.944,5.658 0.461,-9.716 -6.303,-25.881 -23.935,-27.954 8.047,4.203 15.557,11.69 15.96,18.939 -6.21,-10.01 -17.137,-18.409 -26.63,-18.447 z M 299.42,395.938 c -8.122,7.484 -29.68,9.893 -10.394,31.768 -4.009,-8.622 -2.19,-16.4 10.395,-22.572 12.585,6.173 14.403,13.95 10.394,22.572 19.287,-21.875 -2.272,-24.284 -10.394,-31.768 z"
       inkscape:connector-curvature="0"
       style="fill:#ffd42a;fill-opacity:1" />
    <path
       id="path838"
       d="m 299.42,408.494 c -10.331,4.314 -10.736,10.193 -7.573,19.285 1.719,-0.42 6.258,-0.368 7.574,-0.377 1.316,0.01 5.854,-0.042 7.573,0.377 3.163,-9.092 2.758,-14.971 -7.573,-19.285 z m -7.719,23.397 c -6.855,13.299 4.736,17.245 7.72,18.873 2.983,-1.628 14.575,-5.574 7.72,-18.873 -5.43,-0.621 -10.54,-0.542 -15.44,0 z"
       inkscape:connector-curvature="0"
       style="fill:#ffd42a;fill-opacity:1" />
    <path
       id="path840"
       d="m 287.441,431.76 c -16.843,19.183 4.348,25.391 11.98,32.79 7.631,-7.399 28.822,-13.607 11.979,-32.79 3.77,10.85 -2.672,17.401 -11.98,22.16 -9.307,-4.759 -15.748,-11.31 -11.979,-22.16 z m -8.387,-22.446 c -13.233,-12.58 -19.372,-5.525 -28.847,-8.013 3.473,17.288 21.701,28.057 32.25,27.3 -7.304,-3.005 -14.968,-6.548 -17.794,-16.361 5.891,11.286 14.65,11.883 20.541,14.869 -4.26,-4.678 -7.265,-10.848 -6.15,-17.795 z"
       inkscape:connector-curvature="0"
       style="fill:#ffd42a;fill-opacity:1" />
    <path
       id="path842"
       d="m 283.114,431.528 c -5.394,7.21 -5.654,12.27 -4.54,16.615 -9.103,11.326 -19.222,7.663 -28.504,15.227 -1.391,-9.76 1.457,-23.522 16.428,-31.61 l 7.6,0.084 c -7.93,4.18 -14.844,11.345 -16.862,18.152 3.77,-6.614 18.586,-18.244 25.878,-18.468 z M 266.076,427.2 c -5.996,1.111 -22.464,-7.658 -28.882,-14.78 1.633,5.265 10.317,12.598 21.113,15.793 l -12.414,-0.845 c -8.305,-5.954 -21.93,-12.414 -20.1,-21.534 7.601,-0.197 14.4,-6.222 22.802,-0.592 2.241,11.106 12.388,18.03 17.48,21.957 z m -24.997,0.421 c -5.677,-1.973 -15.285,-12.751 -15.285,-12.751 -6.81,-3.772 -12.157,2.698 -22.639,4.24 -0.358,12.848 14.213,21.038 26.216,19.852 2.542,-2.531 5.233,-5.481 9.597,-7.625 -7.186,0.14 -18.224,-2.02 -23.678,-6.599 5.83,1.13 15.869,3.992 25.789,2.883 z"
       inkscape:connector-curvature="0"
       style="fill:#ffd42a;fill-opacity:1" />
    <path
       id="path844"
       d="m 261.16,431.321 c -6.954,5.194 -12.833,12.726 -13.663,21.804 -6.623,5.827 -14.977,3.115 -20.943,5.658 -0.462,-9.716 6.302,-25.881 23.935,-27.954 -8.048,4.203 -15.558,11.69 -15.961,18.939 6.21,-10.01 17.137,-18.409 26.631,-18.447 z"
       inkscape:connector-curvature="0"
       style="fill:#ffd42a;fill-opacity:1" />
    <g
       id="g870"
       word-spacing="0"
       letter-spacing="0"
       font-size="24"
       font-weight="400"
       style="font-weight:400;font-size:24px;line-height:1.25;font-family:MongolianScript;-inkscape-font-specification:'MongolianScript, Normal';font-variant-ligatures:normal;font-variant-caps:normal;font-variant-numeric:normal;font-feature-settings:normal;text-align:start;letter-spacing:0;word-spacing:0;writing-mode:tb-rl;fill:#ffffff;stroke-width:1.85699999"
       aria-label="ᠮᠣᠩᠭᠣᠯ ᠠᠷᠠᠳ ᠤᠯᠤᠰ" />
    <g
       id="g900"
       word-spacing="0"
       letter-spacing="0"
       font-size="24"
       font-weight="400"
       style="font-weight:400;font-size:24px;line-height:1.25;font-family:MongolianScript;-inkscape-font-specification:'MongolianScript, Normal';font-variant-ligatures:normal;font-variant-caps:normal;font-variant-numeric:normal;font-feature-settings:normal;text-align:start;letter-spacing:0;word-spacing:0;writing-mode:tb-rl;fill:#ffffff;stroke-width:1.44000006"
       aria-label="ᠪᠦᢉᠦᠳᠡ ᠨᠠᠶᠢᠷᠠᠮᠳᠠᠬᠤ" />
  </g>
</svg>
