<svg xmlns="http://www.w3.org/2000/svg" viewBox="0 0 1199.9997 1600"><polygon points="1200 452.067 0 0 0 904.134 1200 452.067" style="fill:#087c35"/><polygon points="1200 1147.933 0 695.866 0 1600 1200 1147.933" style="fill:#087c35"/><polygon points="1043.65 452.067 62.552 82.465 62.552 821.668 1043.65 452.067" style="fill:#e52320"/><polygon points="1043.65 1147.933 62.552 778.332 62.552 1517.535 1043.65 1147.933" style="fill:#e52320"/><path d="M417.3532,510.5231c-.11,5.48-19.18,12.22-92.93,19.09-.33.03-.67.06-1,.09-.33-.03-.67-.06-1-.09-73.74-6.87-92.81-13.61-92.93-19.09-.16-7.63,36.59-9.49,58.07-40.17a75.9517,75.9517,0,0,0,10.04-20.36h51.65a76.1774,76.1774,0,0,0,10.03,20.36C380.7733,501.0331,417.5233,502.8931,417.3532,510.5231Z" style="fill:#fff;fill-rule:evenodd"/><path d="M519.041,453.1838l23.7216-18.79-21.9339-21.1021,19.9475-23.2229-14.8637-9.5832C493.5436,456.3144,415.0865,509.82,323.4233,509.82s-170.12-53.5053-202.4893-129.3344L106.07,390.0685l19.9475,23.2229-21.9339,21.1021,23.7216,18.79-17.78,25.1332,26.6385,13.6787-12.9846,28.2559,28.5924,8.0727-7.7192,30.3574,29.5129,2.1749L171.89,592.2182l29.3669-3.8014,3.448,31.2324,28.1593-9.64,8.9463,29.9744,25.934-15.131,14.1213,27.6329L304.6374,632.41l18.7859,24.2928L342.2091,632.41l22.7715,20.0747,14.1213-27.6329,25.934,15.131,8.9463-29.9744,28.1593,9.64,3.448-31.2324,29.3669,3.8014-2.1749-31.3616,29.5129-2.1749-7.7192-30.3574,28.5924-8.0727L510.183,491.9957l26.6385-13.6787Z" style="fill:#fff"/><path d="M242.1347,423.0179a123.5643,123.5643,0,0,0,29.2166,47.1873v.056c29.0522,26.1159,75.041,26.1159,104.0932,0,14.6623-14.5549,24.6727-32.6514,30.7989-51.6936.5737-2.8939,3.561-4.3236,5.5535-6.3132,10.7254-9.9969,12.8343-26.8739,4.79-38.8862-1.0955-1.8234-3.0686-3.4047-2.9568-5.6638,0-15.3154.0822-30.6584-.0213-45.9635-.44-18.4789-6.104-37.7-19.9987-51.3835-11.2178-11.0563-26.6209-17.6365-42.5118-20.4564a151.1282,151.1282,0,0,0-60.9781,1.3264c-17.2359,4.0558-33.4289,13.4662-43.4412,27.4208-8.8659,12.13-12.75,26.8592-13.406,41.3727-.2457,15.5842-.0564,31.207-.1072,46.83.3815,3.1273-2.4636,5.2435-3.7485,7.8326-7.5773,12.8168-4.2417,30.2785,7.9339,39.6C240.4378,416.2706,241.0115,419.894,242.1347,423.0179Z" style="fill:#fff;stroke:#e52621;stroke-miterlimit:10;stroke-width:5px"/><path d="M310.4442,394.9948l-7.0157,2.8063c3.667,7.3339,11.7452,10.5235,19.644,10.5235s16.6785-3.19,20.3455-10.5235l-7.0157-2.8063c-1.8311,3.6621-7.4836,5.6126-13.33,5.6126S312.2753,398.6569,310.4442,394.9948Z" style="fill:#e52621;fill-rule:evenodd"/><path d="M300.0567,349.68c0,6.4525-6.1538,11.6832-13.7451,11.6832s-13.745-5.2307-13.745-11.6832,6.1538-11.6833,13.745-11.6833,13.7451,5.2309,13.7451,11.6833Z" style="fill:#e52621;fill-rule:evenodd"/><path d="M374.28,349.68c0,6.4525-6.1538,11.6832-13.7452,11.6832S346.79,356.1323,346.79,349.68s6.1538-11.6833,13.7449-11.6833S374.28,343.2274,374.28,349.68Z" style="fill:#e52621;fill-rule:evenodd"/><path d="M298.8683,272.9218l-5.6125,4.9109c5.4487,5.4487,11.7513,5.4435,16.8376,5.6126.0676.0022-.0673.7,0,.7016.0181.253.2933,1.17.7016,3.5078.4874,2.79,1.1115,6.6182,1.4031,10.5236.5832,7.8107.8079,16.8014,2.1047,22.45l.7016,2.8062h17.5393l.7015-3.5078c1.2094-5.708,1.4831-13.9527,2.1047-21.7486.3108-3.898.2149-7.76.7016-10.5236a10.3575,10.3575,0,0,1,1.4031-3.5078c-.0112-.027.0784-.78,0-.7016,5.068-.1774,10.72-.1953,16.1361-5.6126l-4.911-4.9109c-4.5908,4.5908-8.5334,4.2094-14.0313,4.2094h-1.4032l-1.4031,1.4031c-2.4406,2.4406-2.2355,4.4766-2.8063,7.7173s-1.0853,7.2385-1.4031,11.2251c-.5519,6.9207-1.3965,13.5316-2.1047,18.2408H322.02c-.71-4.5208-1.5868-11.3048-2.1047-18.2408a102.2221,102.2221,0,0,0-1.4031-10.5236c-.5741-3.2864-.3655-5.9779-2.8063-8.4188l-1.4032-1.4031H312.9C307.4017,277.1312,303.4592,277.5126,298.8683,272.9218Z" style="fill:#e52621;fill-rule:evenodd"/><path d="M254.4988,347.9089c14.7856-11.4871,30.0453-21.9348,50.2776-21.4814l-6.704-12.1945c-20.9035-.3911-36.8075,10.21-43.98,25.4575C252.2479,343.6117,253,344.3825,254.4988,347.9089Z" style="fill:#e52621;fill-rule:evenodd"/><path d="M392.3477,347.9089c-14.7856-11.4872-30.0453-21.9348-50.2775-21.4814l6.7039-12.1945c20.9035-.3911,36.8075,10.21,43.98,25.4575C394.5986,343.6117,393.8468,344.3825,392.3477,347.9089Z" style="fill:#e52621;fill-rule:evenodd"/><path d="M303.7848,439.263c4.3641,0,6.9205,3.23,13.0923,3.23h13.0923c6.1718,0,8.7282-3.23,13.0923-3.23,0-3.23-4.3641-6.46-8.7282-6.46H312.513C308.1489,432.8026,303.7848,436.0328,303.7848,439.263Z" style="fill:#e52621;fill-rule:evenodd"/><path d="M276.1762,339.57c-6.0928,1.4153-11.1234,3.5455-16.1361,4.911l2.1047,7.0157c5.97-1.6263,11.1892-4.4635,16.1361-5.6126s9.2576-.9069,14.733,2.8063l3.5078-5.6125A24.9333,24.9333,0,0,0,276.1762,339.57Z" style="fill:#e52621;fill-rule:evenodd"/><path d="M370.1865,339.57a23.3974,23.3974,0,0,0-19.644,3.5079l3.5079,5.6125c5.4754-3.7134,9.786-3.9553,14.7329-2.8063s10.166,3.9862,16.1361,5.6126l2.1047-7.0157C382.0115,343.1155,376.2793,340.9853,370.1865,339.57Z" style="fill:#e52621;fill-rule:evenodd"/><path d="M328.92,527.91v.18c-.33-.03-.67-.06-1-.09C328.25,527.97,328.59,527.94,328.92,527.91Z" style="fill:#1d1d1b;fill-rule:evenodd"/><path d="M327.92,528c-.33.03-.67.06-1,.09v-.18C327.25,527.94,327.59,527.97,327.92,528Z" style="fill:#1d1d1b;fill-rule:evenodd"/><polygon points="323.423 949.807 344.296 928.842 360.825 953.378 385.288 936.743 396.875 963.963 424.044 952.258 430.27 981.18 459.164 974.828 459.803 1004.405 489.377 1003.636 484.407 1032.8 513.592 1037.642 503.193 1065.338 530.934 1075.616 515.482 1100.843 540.776 1116.185 520.829 1138.032 542.763 1157.884 519.041 1175.562 536.821 1199.206 510.183 1212.074 523.168 1238.656 494.575 1246.251 502.294 1274.81 472.781 1276.856 474.956 1306.359 445.59 1302.783 442.142 1332.165 413.982 1323.096 405.036 1351.295 379.102 1337.06 364.981 1363.056 342.209 1344.17 323.423 1367.024 304.637 1344.17 281.866 1363.056 267.745 1337.06 241.811 1351.295 232.864 1323.096 204.705 1332.165 201.257 1302.783 171.89 1306.359 174.065 1276.856 144.552 1274.81 152.271 1246.251 123.679 1238.656 136.663 1212.074 110.025 1199.206 127.806 1175.562 104.084 1157.884 126.018 1138.032 106.07 1116.185 131.365 1100.843 115.912 1075.616 143.653 1065.338 133.254 1037.642 162.439 1032.8 157.47 1003.636 187.043 1004.405 187.683 974.828 216.577 981.18 222.802 952.258 249.972 963.963 261.558 936.743 286.022 953.378 302.55 928.842 323.423 949.807" style="fill:#fff"/><path d="M242.1347,1202.3119a123.5658,123.5658,0,0,0,29.2166,47.1873v.0559c29.0522,26.116,75.041,26.116,104.0932,0,14.6623-14.5548,24.6727-32.6513,30.7989-51.6935.5737-2.8939,3.561-4.3237,5.5535-6.3132,10.7254-9.997,12.8343-26.8739,4.79-38.8863-1.0955-1.8233-3.0686-3.4046-2.9568-5.6638,0-15.3154.0822-30.6584-.0213-45.9634-.44-18.4789-6.104-37.7-19.9987-51.3835-11.2178-11.0563-26.6209-17.6366-42.5118-20.4564a151.1282,151.1282,0,0,0-60.9781,1.3264c-17.2359,4.0558-33.4289,13.4662-43.4412,27.4207-8.8659,12.13-12.75,26.8593-13.406,41.3728-.2457,15.5841-.0564,31.207-.1072,46.83.3815,3.1273-2.4636,5.2435-3.7485,7.8325-7.5773,12.8168-4.2417,30.2785,7.9339,39.6C240.4378,1195.5645,241.0115,1199.188,242.1347,1202.3119Z" style="fill:none;stroke:#e52621;stroke-miterlimit:10;stroke-width:5px"/><path d="M301.2849,1206.5685l6.5207-2.15h34.6319l4.6342,1.9022c0,1.8714-7.7025,1.8405-12.2585,3.7119h-22.78C306.78,1208.25,301.2849,1208.44,301.2849,1206.5685Z" style="fill:#e52621;fill-rule:evenodd"/><path d="M310.3248,1159.8026c-1.4408,1.3526-3.8638.8407-5.8136,1.1627.1119-.2692-.327.3249-.5814.5814-.5089.5131-1.6275,1.0967-2.9068,2.3254a14.041,14.041,0,0,0-3.4882,5.2323,12.185,12.185,0,0,0,0,8.1391c2.51,3.48,6.2594,5.7451,10.4645,7.5577a41.0166,41.0166,0,0,0,13.3714,1.1627,51.3026,51.3026,0,0,0,12.79-2.3254c3.7516-1.1826,7.0551-2.483,8.72-5.8136l-5.8136-2.3255a21.64,21.64,0,0,1-4.6509,2.3255,45.0644,45.0644,0,0,1-11.0459,1.744,37.5642,37.5642,0,0,1-11.6273-1.1627c-3.2071-.9243-5.05-2.4658-5.8136-4.0695-.3314-1.2174-.8464-2.1756-.5814-2.9068a9.9369,9.9369,0,0,1,2.3255-2.9069c.9278-.891,1.8362-1.8272,2.9068-2.9068.5353-.54,1.32-.7253,1.7441-1.7441A5.6814,5.6814,0,0,0,310.3248,1159.8026Z" style="fill:#e52621;fill-rule:evenodd"/><path d="M296.831,1132.1472c0,5.3469-5.7722,9.6814-12.8926,9.6814s-12.8924-4.3345-12.8924-9.6814,5.7721-9.6815,12.8924-9.6815,12.8926,4.3346,12.8926,9.6815Z" style="fill:#e52621;fill-rule:evenodd"/><path d="M375.8,1132.1472c0,5.3469-5.7721,9.6814-12.8926,9.6814s-12.8924-4.3345-12.8924-9.6814,5.7722-9.6815,12.8924-9.6815S375.8,1126.8,375.8,1132.1472Z" style="fill:#e52621;fill-rule:evenodd"/><path d="M302.4942,1069.6913l-4.07,4.07c4.4882,4.4882,9.1717,4.5036,13.3714,4.6509.06.0021-.06.5795,0,.5813a7.9227,7.9227,0,0,1,1.1627,2.9069c.4039,2.3121.34,5.4842.5814,8.72.4832,6.4725.6694,13.9228,1.7441,18.6036l.5813,2.3255H330.4l.5814-2.9068c1.0021-4.73,1.229-11.5622,1.7441-18.0223.2575-3.23.7594-6.4308,1.1627-8.72.3378-1.9184.6114-2.7486.5813-2.9069-.0058-.03.07-.6516,0-.5813,4.2149-.1395,9.4376-.1358,13.9528-4.6509l-4.651-4.07c-3.8043,3.8043-7.0713,3.4882-11.6272,3.4882H330.981l-1.1628,1.1627c-2.0224,2.0225-1.8525,3.71-2.3254,6.395s-.8993,5.9983-1.1627,9.3018c-.4573,5.7349-1.1572,11.2131-1.7441,15.1155h-2.9068c-.5883-3.7462-1.315-9.3678-1.7441-15.1155-.2472-3.3109-.1057-5.9971-.5814-8.72s-.8842-4.9537-2.9068-6.9764l-1.1627-1.1627h-1.1628C309.5654,1073.18,306.2984,1073.4956,302.4942,1069.6913Z" style="fill:#e52621;fill-rule:evenodd"/><path d="M246.1455,1114.9016c20.0342-3.9189,37.109-6.7164,58.8192-.4l-.5453-13.7269c-22.4563-6.4523-41-1.292-55.9814,6.2347-4.0882,2.0538-2.74,4.12-2.2925,7.8926Z" style="fill:#e52621;fill-rule:evenodd"/><path d="M400.701,1114.9016c-20.0342-3.9189-37.109-6.7164-58.8193-.4l.5454-13.7269c22.4563-6.4523,41-1.292,55.9814,6.2347,4.0881,2.0538,2.74,4.12,2.2925,7.8926Z" style="fill:#e52621;fill-rule:evenodd"/><path d="M269.7242,1121.7868c-6.7713.959-13.106,3.0313-19.185,4.0695l.5814,5.8136c13.3343-2.2774,24.5048-7.3923,37.7886-1.744l2.3255-5.8137C283.357,1120.7626,276.4956,1120.8279,269.7242,1121.7868Z" style="fill:#e52621;fill-rule:evenodd"/><path d="M377.2764,1121.7868c-6.7714-.9589-13.6328-1.0242-21.5105,2.3254l2.3255,5.8137c13.2838-5.6483,23.8729-.5334,37.2072,1.744l1.1628-5.8136C390.3824,1124.8181,384.0477,1122.7457,377.2764,1121.7868Z" style="fill:#e52621;fill-rule:evenodd"/></svg>