<?xml version="1.0" encoding="UTF-8"?>
<!-- Created with Grafika (https://www.grafika.cc/) -->
<svg xmlns="http://www.w3.org/2000/svg" xmlns:svg="http://www.w3.org/2000/svg" xmlns:xlink="http://www.w3.org/1999/xlink" width="2048" height="1105.92" viewBox="0 0 1000 540" preserveAspectRatio="xMidYMid meet">
	<g transform="matrix(1, 0, 0, 1, 500, 236.10498046875)">
		<g transform="matrix(1, 0, 0, 1, -500, -236.10498046875)">
			<path d="M0,0 L1000,0 L1000,540 L0,540 L0,0 Z" fill-rule="evenodd" style="fill:#FFFFFF;" />
			<path d="M0,360 L1000,360 L1000,540 L0,540 L0,360 Z" fill-rule="evenodd" style="fill:#0038A8;" />
			<path d="M0,0 L1000,0 L1000,180 L0,180 L0,0 Z" fill-rule="evenodd" style="fill:#CE1126;" />
			<path d="M558.84,270 C558.7,302.39 532.4,328.58 500,328.58 C467.6,328.58 441.3,302.39 441.16,270 C441.06,248.92 452.26,229.39 470.5,218.82 C488.75,208.25 511.25,208.25 529.5,218.82 C547.74,229.39 558.94,248.92 558.84,270 L558.84,270 Z" fill-rule="evenodd" style="fill:#FFFFFF;stroke:#000000;stroke-linecap:butt;stroke-linejoin:miter;stroke-miterlimit:4;stroke-width:3;" />
			<path d="M516.73,268.17 C516.69,277.38 509.21,284.83 500,284.83 C490.79,284.83 483.31,277.38 483.27,268.17 C483.24,262.18 486.43,256.63 491.61,253.62 C496.8,250.62 503.2,250.62 508.39,253.62 C513.57,256.63 516.76,262.18 516.73,268.17 L516.73,268.17 Z" fill-rule="evenodd" style="fill:#0038A8;" />
			<path d="M508.53,279.02 L499.93,273.08 L491.33,279.02 L494.55,269.51 L487.02,263.56 L496.7,263.56 L499.93,254.05 L503.16,263.56 L512.84,263.56 L505.31,269.51 L508.53,279.02 Z" fill-rule="evenodd" style="fill:#FFCE00;" />
			<path d="M536.38,269.74 C536.38,290.62 520.94,304.06 500.06,304.06 C479.17,304.06 463.86,290.06 463.86,269.17 C463.86,248.28 479.11,234.19 500,234.19 C520.89,234.19 536.38,249.11 536.38,270 L536.38,269.74 ZM550.45,270 C550.45,297.85 527.85,320.45 500,320.45 C472.15,320.45 449.55,297.85 449.55,270 C449.55,242.15 472.15,219.55 500,219.55 C527.85,219.55 550.45,242.15 550.45,270 L550.45,270 Z" fill-rule="evenodd" style="fill:#CE1126;stroke:#CE1126;stroke-linecap:butt;stroke-linejoin:miter;stroke-miterlimit:4;stroke-width:0.24;" />
		</g>
		<g transform="matrix(1, 0, 0, 1, -0.925751805305481, 36.1153564453125)">
			<g transform="matrix(1, 0, 0, 1, -35.83728790283203, -274.1628112792969)">
				<path d="M22.21,245.5 C22.06,245.7 21.84,245.77 21.56,245.72 C21.68,244.19 21.72,242.67 21.67,241.14 C21.09,241.47 20.62,241.9 20.25,242.45 C19.54,242.87 18.89,243.38 18.29,243.97 C18.59,243.34 19.03,242.8 19.6,242.34 C20.25,241.83 20.91,241.32 21.56,240.81 C21.77,240.71 21.98,240.67 22.21,240.7 C22.11,242.05 21.96,243.4 21.78,244.74 C21.8,245.1 21.95,245.36 22.21,245.5 L22.21,245.5 Z" fill-rule="evenodd" style="fill:#616963;" />
			</g>
			<g transform="matrix(1, 0, 0, 1, -35.83728790283203, -274.1628112792969)">
				<path d="M20.25,242.45 C20.61,242.4 20.94,242.47 21.23,242.67 C21.19,243.38 21.15,244.11 21.12,244.85 C21.07,245.93 20.74,246.95 20.14,247.9 C19.05,249.51 17.85,251.03 16.55,252.47 C15.97,252.98 15.38,253.49 14.8,254 C14.51,254 14.22,254 13.93,254 C13.89,252.84 13.93,251.67 14.04,250.51 C16,247.72 18.07,245.03 20.25,242.45 L20.25,242.45 Z" fill-rule="evenodd" style="fill:#006700;" />
			</g>
			<g transform="matrix(1, 0, 0, 1, -35.83728790283203, -274.1628112792969)">
				<path d="M50.99,243.76 C51.01,244.17 50.9,244.24 50.66,243.97 C50.51,244.34 50.51,244.7 50.66,245.06 C51.19,246.11 51.73,247.13 52.29,248.12 C52.29,248.33 52.29,248.55 52.29,248.77 C51.69,248.5 51.11,248.18 50.55,247.79 C50.27,247.68 49.98,247.64 49.68,247.68 C49.64,247.97 49.71,248.22 49.9,248.44 C50.53,248.69 51.12,249.01 51.64,249.42 C51.92,249.92 52.28,250.35 52.73,250.73 C52.97,250.97 52.97,251.19 52.73,251.38 C51.93,251.13 51.2,250.76 50.55,250.29 C49.58,249.77 48.56,249.3 47.5,248.88 C47.26,248.71 47.26,248.53 47.5,248.33 C47.82,248.35 48.04,248.21 48.15,247.9 C47.72,247.02 47.21,246.18 46.63,245.39 C47.63,245.51 48.61,245.76 49.57,246.15 C49.78,245.06 50.04,243.97 50.33,242.88 C50.56,243.18 50.77,243.47 50.99,243.76 L50.99,243.76 Z" fill-rule="evenodd" style="fill:#006600;" />
			</g>
			<g transform="matrix(1, 0, 0, 1, -35.83728790283203, -274.1628112792969)">
				<path d="M51.2,244.19 C52.33,245.2 53.31,246.36 54.15,247.68 C54.33,248.25 54.44,248.83 54.47,249.42 C54.52,249.68 54.45,249.9 54.26,250.08 C52.95,248.26 51.93,246.3 51.2,244.19 L51.2,244.19 Z" fill-rule="evenodd" style="fill:#006700;" />
			</g>
			<g transform="matrix(1, 0, 0, 1, -35.83728790283203, -274.1628112792969)">
				<path d="M28.1,245.06 C27.96,244.8 27.7,244.65 27.34,244.63 C25.93,244.9 24.51,245.11 23.09,245.28 C24.9,244.58 26.79,244.36 28.75,244.63 C28.64,244.94 28.43,245.08 28.1,245.06 L28.1,245.06 Z" fill-rule="evenodd" style="fill:#676C69;" />
			</g>
			<g transform="matrix(1, 0, 0, 1, -35.83728790283203, -274.1628112792969)">
				<path d="M54.91,249.42 C54.76,249.42 54.62,249.42 54.47,249.42 C54.44,248.83 54.33,248.25 54.15,247.68 C53.31,246.36 52.33,245.2 51.2,244.19 C51.24,243.98 51.17,243.83 50.99,243.76 C50.77,243.47 50.56,243.18 50.33,242.88 C50.04,243.97 49.78,245.06 49.57,246.15 C48.61,245.76 47.63,245.51 46.63,245.39 C47.21,246.18 47.72,247.02 48.15,247.9 C48.04,248.21 47.82,248.35 47.5,248.33 C47.79,248.03 47.71,247.81 47.28,247.68 C46.68,246.53 46.03,245.41 45.32,244.3 C46.63,244.55 47.94,244.88 49.24,245.28 C49.3,243.87 49.51,242.49 49.9,241.14 C51.12,242.98 52.46,244.72 53.93,246.37 C54.57,247.29 54.9,248.31 54.91,249.42 L54.91,249.42 Z" fill-rule="evenodd" style="fill:#161F18;" />
			</g>
			<g transform="matrix(1, 0, 0, 1, -35.83728790283203, -274.1628112792969)">
				<path d="M18.29,243.97 C18.16,244.46 17.87,244.83 17.42,245.06 C17.54,244.57 17.84,244.21 18.29,243.97 L18.29,243.97 Z" fill-rule="evenodd" style="fill:#66746E;" />
			</g>
			<g transform="matrix(1, 0, 0, 1, -35.83728790283203, -274.1628112792969)">
				<path d="M22.21,245.5 C22.45,245.3 22.74,245.22 23.09,245.28 C24.51,245.11 25.93,244.9 27.34,244.63 C27.7,244.65 27.96,244.8 28.1,245.06 C28.1,245.21 28.03,245.28 27.88,245.28 C27.65,245.29 27.43,245.36 27.23,245.5 C26.92,245.08 26.56,245.08 26.14,245.5 C24.79,245.51 23.49,245.73 22.21,246.15 C21.25,246.25 20.89,245.81 21.12,244.85 C21.15,244.11 21.19,243.38 21.23,242.67 C20.94,242.47 20.61,242.4 20.25,242.45 C20.62,241.9 21.09,241.47 21.67,241.14 C21.72,242.67 21.68,244.19 21.56,245.72 C21.84,245.77 22.06,245.7 22.21,245.5 L22.21,245.5 Z" fill-rule="evenodd" style="fill:#0F1C14;" />
			</g>
			<g transform="matrix(1, 0, 0, 1, -35.83728790283203, -274.1628112792969)">
				<path d="M26.14,245.5 C26.14,245.72 26.14,245.94 26.14,246.15 C25.23,246.57 24.43,247.15 23.74,247.9 C22.94,248.48 22.29,249.2 21.78,250.08 C20.87,250.78 19.85,251.07 18.73,250.95 C19.22,249.99 19.83,249.11 20.58,248.33 C20.86,247.85 21.08,247.34 21.23,246.81 C21.54,246.53 21.87,246.31 22.21,246.15 C23.49,245.73 24.79,245.51 26.14,245.5 L26.14,245.5 Z" fill-rule="evenodd" style="fill:#006700;" />
			</g>
			<g transform="matrix(1, 0, 0, 1, -35.83728790283203, -274.1628112792969)">
				<path d="M17.42,245.06 C17.29,245.55 17,245.92 16.55,246.15 C16.67,245.66 16.96,245.3 17.42,245.06 L17.42,245.06 Z" fill-rule="evenodd" style="fill:#686F6C;" />
			</g>
			<g transform="matrix(1, 0, 0, 1, -35.83728790283203, -274.1628112792969)">
				<path d="M16.55,246.15 C16.42,246.64 16.13,247.01 15.67,247.24 C15.8,246.75 16.09,246.39 16.55,246.15 L16.55,246.15 Z" fill-rule="evenodd" style="fill:#67716A;" />
			</g>
			<g transform="matrix(1, 0, 0, 1, -35.83728790283203, -274.1628112792969)">
				<path d="M15.67,247.24 C15.55,247.73 15.26,248.1 14.8,248.33 C14.93,247.84 15.22,247.48 15.67,247.24 L15.67,247.24 Z" fill-rule="evenodd" style="fill:#59655C;" />
			</g>
			<g transform="matrix(1, 0, 0, 1, -35.83728790283203, -274.1628112792969)">
				<path d="M27.88,245.28 C26.69,246.62 25.31,247.71 23.74,248.55 C23.99,248.3 23.99,248.08 23.74,247.9 C24.43,247.15 25.23,246.57 26.14,246.15 C26.14,245.94 26.14,245.72 26.14,245.5 C26.56,245.08 26.92,245.08 27.23,245.5 C27.43,245.36 27.65,245.29 27.88,245.28 L27.88,245.28 Z" fill-rule="evenodd" style="fill:#2B3731;" />
			</g>
			<g transform="matrix(1, 0, 0, 1, -35.83728790283203, -274.1628112792969)">
				<path d="M55.78,249.64 C55.14,249.08 55.03,248.43 55.45,247.68 C56.88,246.47 57.94,246.76 58.62,248.55 C58.4,249.5 57.82,250.08 56.87,250.29 C56.41,250.2 56.05,249.98 55.78,249.64 L55.78,249.64 Z" fill-rule="evenodd" style="fill:#583030;" />
			</g>
			<g transform="matrix(1, 0, 0, 1, -35.83728790283203, -274.1628112792969)">
				<path d="M55.78,249.64 C55.19,247.94 55.77,247.18 57.53,247.35 C58.4,248.15 58.4,248.95 57.53,249.75 C56.93,249.88 56.35,249.84 55.78,249.64 L55.78,249.64 Z" fill-rule="evenodd" style="fill:#CE0820;" />
			</g>
			<g transform="matrix(1, 0, 0, 1, -35.83728790283203, -274.1628112792969)">
				<path d="M13.5,247.68 C13.2,247.9 12.91,248.11 12.62,248.33 C12.67,247.65 12.96,247.43 13.5,247.68 L13.5,247.68 Z" fill-rule="evenodd" style="fill:#5F585A;" />
			</g>
			<g transform="matrix(1, 0, 0, 1, -35.83728790283203, -274.1628112792969)">
				<path d="M20.25,242.45 C18.07,245.03 16,247.72 14.04,250.51 C13.93,251.67 13.89,252.84 13.93,254 C14.22,254 14.51,254 14.8,254 C14.9,253.99 14.97,254.02 15.02,254.11 C14.54,254.55 14.11,255.02 13.71,255.53 C13.5,254.74 13.42,253.94 13.5,253.13 C13.39,251.88 13.2,250.64 12.95,249.42 C10.61,252.84 9.26,256.62 8.92,260.76 C8.68,260.75 8.46,260.67 8.26,260.54 C8.01,259.7 7.65,258.9 7.17,258.14 C7.01,257.88 6.82,257.88 6.63,258.14 C5.73,264.17 6.05,270.13 7.61,276.02 C7.86,276.16 8.08,276.34 8.26,276.56 C8.55,276.68 8.7,276.57 8.7,276.23 C8.88,275.84 8.99,275.41 9.03,274.93 C9.26,276.01 9.33,277.1 9.24,278.2 C9.1,278.03 8.92,277.96 8.7,277.98 C7.46,276.77 6.33,275.46 5.32,274.05 C5.19,273.69 5.08,273.33 4.99,272.96 C5.07,272.78 5.21,272.71 5.43,272.75 C5.69,272.97 5.83,273.26 5.87,273.62 C5.85,273.94 5.99,274.16 6.3,274.27 C6.49,272.7 6.35,271.17 5.87,269.69 C5.72,266.94 5.64,264.18 5.65,261.41 C6.05,259.72 6.27,257.98 6.3,256.18 C6.45,255.98 6.59,255.77 6.74,255.53 C6.92,255.93 7.14,256.29 7.39,256.62 C7.39,257.48 7.68,258.2 8.26,258.8 C8.44,258.7 8.51,258.55 8.48,258.36 C8.42,258.01 8.5,257.72 8.7,257.49 C9.01,257.05 9.16,256.54 9.14,255.96 C9.65,254.77 10.09,253.53 10.44,252.26 C10.49,251.92 10.64,251.63 10.88,251.38 C11.19,251.28 11.33,251.06 11.32,250.73 C11.28,250.51 11.35,250.37 11.53,250.29 C12.07,249.94 12.36,249.43 12.41,248.77 C12.37,248.55 12.44,248.41 12.62,248.33 C12.91,248.12 13.2,247.9 13.5,247.68 C13.53,248.19 13.61,248.7 13.71,249.2 C14.34,249.23 14.7,248.94 14.8,248.33 C15.26,248.1 15.55,247.73 15.67,247.24 C16.13,247.01 16.42,246.64 16.55,246.15 C17,245.92 17.29,245.55 17.42,245.06 C17.87,244.83 18.16,244.46 18.29,243.97 C18.89,243.38 19.54,242.87 20.25,242.45 L20.25,242.45 Z" fill-rule="evenodd" style="fill:#0A1B0F;" />
			</g>
			<g transform="matrix(1, 0, 0, 1, -35.83728790283203, -274.1628112792969)">
				<path d="M13.5,247.68 C13.73,248.07 13.92,248.5 14.04,248.99 C14.27,248.72 14.52,248.51 14.8,248.33 C14.7,248.94 14.34,249.23 13.71,249.2 C13.61,248.7 13.53,248.19 13.5,247.68 L13.5,247.68 Z" fill-rule="evenodd" style="fill:#777974;" />
			</g>
			<g transform="matrix(1, 0, 0, 1, -35.83728790283203, -274.1628112792969)">
				<path d="M50.99,243.76 C51.17,243.83 51.24,243.98 51.2,244.19 C51.93,246.3 52.95,248.26 54.26,250.08 C54.45,249.9 54.52,249.68 54.47,249.42 C54.62,249.42 54.76,249.42 54.91,249.42 C54.99,250.06 55.13,250.68 55.35,251.28 C56.07,251.46 56.8,251.64 57.53,251.82 C57.73,251.8 57.91,251.72 58.07,251.6 C58.49,250.55 58.96,249.54 59.49,248.55 C60.1,250.57 60.86,252.53 61.78,254.44 C61.84,255.31 61.95,256.19 62.1,257.05 C61.87,258.06 61.84,259.08 61.99,260.1 C62.81,261.22 63.57,261.22 64.28,260.1 C64.5,260.01 64.5,259.86 64.28,259.67 C65.17,259.43 65.53,258.85 65.37,257.92 C65.45,257.92 65.52,257.92 65.59,257.92 C65.68,258.15 65.82,258.18 66.03,258.03 C66.29,257.68 66.58,257.35 66.9,257.05 C67.21,259.81 67.32,262.57 67.23,265.33 C66.9,266.31 66.32,267.11 65.48,267.73 C65.02,268.43 64.62,269.16 64.28,269.91 C64.4,270.62 64.54,271.31 64.72,271.98 C65.34,271.98 65.85,271.73 66.24,271.22 C66.43,271.15 66.5,271 66.46,270.78 C66.61,270.78 66.75,270.78 66.9,270.78 C66.9,270.93 66.9,271.07 66.9,271.22 C66.59,271.88 66.63,272.53 67.01,273.18 C67.76,272.39 68.59,271.74 69.51,271.22 C69.51,271.95 69.51,272.67 69.51,273.4 C69.3,274.63 68.97,275.87 68.53,277.11 C68.26,277.85 67.78,278.44 67.12,278.85 C67.12,278.7 67.12,278.56 67.12,278.41 C68.38,276.65 68.89,274.69 68.64,272.53 C67.91,272.98 67.25,273.49 66.68,274.05 C66.46,274.09 66.32,274.02 66.24,273.84 C66.41,271.81 65.9,271.59 64.72,273.18 C64.47,273.43 64.25,273.43 64.06,273.18 C63.76,272.42 63.33,272.28 62.76,272.75 C62.61,272.63 62.5,272.49 62.43,272.31 C62.21,272.49 61.96,272.57 61.67,272.53 C61.67,272.75 61.67,272.96 61.67,273.18 C61.22,273.14 60.78,273.03 60.36,272.85 C59.95,272.16 59.41,271.61 58.72,271.22 C58.27,272.6 58.16,273.98 58.4,275.36 C58.38,275.48 58.31,275.55 58.18,275.58 C58.03,275.34 57.89,275.12 57.74,274.93 C57.61,272.96 57.9,271.07 58.62,269.26 C58.79,269.36 58.86,269.5 58.83,269.69 C58.94,270.02 59.09,270.31 59.27,270.57 C59.61,271.27 60.12,271.85 60.8,272.31 C61.15,272.13 61.29,271.84 61.23,271.44 C61.43,271.28 61.5,271.07 61.45,270.78 C61.45,270.64 61.52,270.57 61.67,270.57 C61.74,270.57 61.81,270.57 61.89,270.57 C62.14,270.92 62.39,271.29 62.65,271.66 C63.66,270.51 63.62,269.42 62.54,268.39 C62.23,268.18 61.87,268.11 61.45,268.17 C61.01,268.17 60.58,268.17 60.14,268.17 C60,268.1 59.85,268.02 59.71,267.95 C58.91,267.61 58.15,267.17 57.42,266.64 C56.73,265.05 56.41,263.38 56.44,261.63 C56.51,261.63 56.58,261.63 56.65,261.63 C57.15,262 57.73,262.15 58.4,262.07 C58.36,262.28 58.43,262.43 58.62,262.5 C58.97,262.62 59.33,262.69 59.71,262.72 C59.86,262 59.9,261.27 59.81,260.54 C59.74,260.47 59.67,260.39 59.6,260.32 C59.46,260.68 59.35,261.05 59.27,261.41 C59.2,261.41 59.12,261.41 59.05,261.41 C59.05,260.98 59.05,260.54 59.05,260.1 C59.05,259.96 59.05,259.81 59.05,259.67 C60.03,259.92 60.11,259.78 59.27,259.23 C59.63,258.97 59.99,258.75 60.36,258.58 C60.36,258.21 60.36,257.85 60.36,257.49 C60.33,255.55 60.04,255.4 59.49,257.05 C59.35,256.48 59.13,255.98 58.83,255.53 C58.62,254.12 57.93,253.03 56.76,252.26 C56.65,252.33 56.54,252.4 56.44,252.47 C57.54,253.37 58.19,254.53 58.4,255.96 C57.64,255.77 57.16,255.26 56.98,254.44 C56.61,254.25 56.36,253.96 56.22,253.56 C56.04,253.37 55.82,253.3 55.56,253.35 C55.62,253.92 55.77,254.46 56,254.98 C55.59,255.29 55.16,255.55 54.69,255.74 C54.41,255.67 54.23,255.52 54.15,255.31 C53.85,255.49 53.6,255.56 53.38,255.53 C54.04,256.61 54.91,257.48 56,258.14 C56.34,258.4 56.71,258.62 57.09,258.8 C56.87,258.87 56.73,259.01 56.65,259.23 C54.55,258.15 52.95,256.55 51.86,254.44 C52.25,254.41 52.61,254.48 52.95,254.65 C53.68,254.68 54.41,254.75 55.13,254.87 C55.27,253.92 54.91,253.27 54.04,252.91 C53.73,253.02 53.58,253.24 53.6,253.56 C53.53,253.56 53.46,253.56 53.38,253.56 C53.4,251.69 52.6,251.18 50.99,252.04 C50.55,252.04 50.11,252.04 49.68,252.04 C48.76,252.15 47.96,251.9 47.28,251.28 C46.1,250.35 45.23,249.23 44.67,247.9 C45.55,247.94 46.42,247.87 47.28,247.68 C47.71,247.81 47.79,248.03 47.5,248.33 C47.13,248.42 46.77,248.53 46.41,248.66 C47,248.73 47.14,248.99 46.84,249.42 C46.75,249.58 46.61,249.69 46.41,249.75 C47.18,250.45 48.02,251.07 48.92,251.6 C49.51,251.53 50.13,251.49 50.77,251.49 C50.48,251.13 50.11,250.88 49.68,250.73 C49.83,250.37 50.12,250.22 50.55,250.29 C51.2,250.76 51.93,251.13 52.73,251.38 C52.97,251.19 52.97,250.97 52.73,250.73 C52.28,250.35 51.92,249.92 51.64,249.42 C51.79,249.06 52.08,248.91 52.51,248.99 C52.57,248.64 52.5,248.35 52.29,248.11 C51.73,247.13 51.19,246.11 50.66,245.06 C50.51,244.7 50.51,244.34 50.66,243.97 C50.9,244.24 51.01,244.17 50.99,243.76 L50.99,243.76 ZM59.71,270.57 C59.97,270.9 60.34,271.12 60.8,271.22 C61.11,270.9 61.26,270.97 61.23,271.44 C61.29,271.84 61.15,272.13 60.8,272.31 C60.12,271.85 59.61,271.27 59.27,270.57 C59.36,270.35 59.51,270.35 59.71,270.57 L59.71,270.57 Z" fill-rule="evenodd" style="fill:#0F140F;" />
			</g>
			<g transform="matrix(1, 0, 0, 1, -35.83728790283203, -274.1628112792969)">
				<path d="M52.29,248.11 C52.5,248.35 52.57,248.64 52.51,248.99 C52.08,248.91 51.79,249.06 51.64,249.42 C51.12,249.01 50.53,248.69 49.9,248.44 C49.71,248.22 49.64,247.97 49.68,247.68 C49.98,247.64 50.27,247.68 50.55,247.79 C51.11,248.18 51.69,248.5 52.29,248.77 C52.29,248.55 52.29,248.33 52.29,248.11 L52.29,248.11 Z" fill-rule="evenodd" style="fill:#042401;" />
			</g>
			<g transform="matrix(1, 0, 0, 1, -35.83728790283203, -274.1628112792969)">
				<path d="M23.3,248.99 C23.32,249.32 23.17,249.54 22.87,249.64 C22.85,249.31 23,249.09 23.3,248.99 L23.3,248.99 Z" fill-rule="evenodd" style="fill:#8B928D;" />
			</g>
			<g transform="matrix(1, 0, 0, 1, -35.83728790283203, -274.1628112792969)">
				<path d="M13.5,253.13 C13.16,254.68 13.02,256.28 13.06,257.92 C12.88,258.39 12.77,258.9 12.73,259.45 C11.85,260.77 11.09,262.15 10.44,263.59 C10.23,263.57 10.04,263.65 9.9,263.81 C9.57,262.77 9.24,261.75 8.92,260.76 C9.26,256.62 10.61,252.84 12.95,249.42 C13.2,250.64 13.39,251.88 13.5,253.13 L13.5,253.13 Z" fill-rule="evenodd" style="fill:#006700;" />
			</g>
			<g transform="matrix(1, 0, 0, 1, -35.83728790283203, -274.1628112792969)">
				<path d="M26.79,250.51 C26.9,250.07 26.94,249.64 26.9,249.2 C26.66,249.54 26.33,249.69 25.92,249.64 C26.25,249.24 26.69,249.02 27.23,248.99 C27.3,249.58 27.15,250.09 26.79,250.51 L26.79,250.51 Z" fill-rule="evenodd" style="fill:#7E7A7D;" />
			</g>
			<g transform="matrix(1, 0, 0, 1, -35.83728790283203, -274.1628112792969)">
				<path d="M46.84,249.42 C47.77,249.92 48.71,250.36 49.68,250.73 C50.11,250.88 50.48,251.13 50.77,251.49 C50.13,251.49 49.51,251.53 48.92,251.6 C48.02,251.07 47.18,250.45 46.41,249.75 C46.61,249.69 46.75,249.58 46.84,249.42 L46.84,249.42 Z" fill-rule="evenodd" style="fill:#006700;" />
			</g>
			<g transform="matrix(1, 0, 0, 1, -35.83728790283203, -274.1628112792969)">
				<path d="M26.79,250.51 C26.44,251.51 25.78,252.24 24.83,252.69 C24.99,252.43 25.06,252.14 25.05,251.82 C25.34,251.86 25.59,251.78 25.81,251.6 C25.98,251.19 25.94,250.83 25.7,250.51 C25.71,250.39 25.79,250.32 25.92,250.29 C26.39,251.08 26.61,250.93 26.57,249.86 C25.64,250.03 24.69,250.1 23.74,250.08 C24.43,249.9 25.16,249.75 25.92,249.64 C26.33,249.69 26.66,249.54 26.9,249.2 C26.94,249.64 26.9,250.07 26.79,250.51 L26.79,250.51 Z" fill-rule="evenodd" style="fill:#434745;" />
			</g>
			<g transform="matrix(1, 0, 0, 1, -35.83728790283203, -274.1628112792969)">
				<path d="M12.41,248.77 C12.36,249.43 12.07,249.94 11.53,250.29 C11.74,249.73 12.03,249.22 12.41,248.77 L12.41,248.77 Z" fill-rule="evenodd" style="fill:#5C5F5B;" />
			</g>
			<g transform="matrix(1, 0, 0, 1, -35.83728790283203, -274.1628112792969)">
				<path d="M47.5,248.33 C47.26,248.53 47.26,248.71 47.5,248.88 C48.56,249.3 49.58,249.77 50.55,250.29 C50.12,250.22 49.83,250.37 49.68,250.73 C48.71,250.36 47.77,249.92 46.84,249.42 C47.14,248.99 47,248.73 46.41,248.66 C46.77,248.53 47.13,248.42 47.5,248.33 L47.5,248.33 Z" fill-rule="evenodd" style="fill:#021A00;" />
			</g>
			<g transform="matrix(1, 0, 0, 1, -35.83728790283203, -274.1628112792969)">
				<path d="M23.74,247.9 C23.99,248.08 23.99,248.3 23.74,248.55 C23.67,248.77 23.52,248.91 23.3,248.99 C23,249.09 22.85,249.31 22.87,249.64 C22.87,249.79 22.8,249.86 22.65,249.86 C22.45,250.01 22.38,250.23 22.43,250.51 C22.93,250.49 23.37,250.35 23.74,250.08 C24.69,250.1 25.64,250.03 26.57,249.86 C26.61,250.93 26.39,251.08 25.92,250.29 C25.79,250.32 25.71,250.39 25.7,250.51 C24.97,250.48 24.24,250.51 23.52,250.62 C23.4,250.71 23.33,250.81 23.3,250.95 C23.23,250.95 23.16,250.95 23.09,250.95 C22.56,251.02 22.05,250.94 21.56,250.73 C21.7,250.53 21.77,250.31 21.78,250.08 C22.29,249.2 22.94,248.48 23.74,247.9 L23.74,247.9 Z" fill-rule="evenodd" style="fill:#101B15;" />
			</g>
			<g transform="matrix(1, 0, 0, 1, -35.83728790283203, -274.1628112792969)">
				<path d="M22.65,249.86 C22.96,250.07 23.32,250.14 23.74,250.08 C23.37,250.35 22.93,250.49 22.43,250.51 C22.38,250.23 22.45,250.01 22.65,249.86 L22.65,249.86 Z" fill-rule="evenodd" style="fill:#656963;" />
			</g>
			<g transform="matrix(1, 0, 0, 1, -35.83728790283203, -274.1628112792969)">
				<path d="M14.37,258.36 C14.09,258.1 13.94,257.74 13.93,257.27 C13.88,256.34 14.17,255.54 14.8,254.87 C17.16,253.05 19.71,251.81 22.43,251.17 C22.71,251.22 22.93,251.15 23.09,250.95 C23.16,250.95 23.23,250.95 23.3,250.95 C23.81,250.8 24.32,250.77 24.83,250.84 C25.21,251.05 25.29,251.3 25.05,251.6 C23.84,252.42 22.57,253.07 21.23,253.56 C21.03,253.31 20.85,253.35 20.69,253.67 C20.76,253.75 20.83,253.82 20.91,253.89 C18.45,255.01 16.27,256.5 14.37,258.36 L14.37,258.36 Z" fill-rule="evenodd" style="fill:#006600;" />
			</g>
			<g transform="matrix(1, 0, 0, 1, -35.83728790283203, -274.1628112792969)">
				<path d="M59.49,250.95 C60.24,251.99 60.86,253.15 61.34,254.44 C61.52,255.82 61.48,257.2 61.23,258.58 C60.76,256.06 60.18,253.52 59.49,250.95 L59.49,250.95 Z" fill-rule="evenodd" style="fill:#006700;" />
			</g>
			<g transform="matrix(1, 0, 0, 1, -35.83728790283203, -274.1628112792969)">
				<path d="M11.32,250.73 C11.33,251.06 11.19,251.28 10.88,251.38 C10.86,251.05 11.01,250.83 11.32,250.73 L11.32,250.73 Z" fill-rule="evenodd" style="fill:#8A8784;" />
			</g>
			<g transform="matrix(1, 0, 0, 1, -35.83728790283203, -274.1628112792969)">
				<path d="M21.12,244.85 C20.89,245.81 21.25,246.25 22.21,246.15 C21.87,246.31 21.54,246.53 21.23,246.81 C21.08,247.34 20.86,247.85 20.58,248.33 C19.83,249.11 19.22,249.99 18.73,250.95 C19.85,251.07 20.87,250.78 21.78,250.08 C21.77,250.31 21.7,250.53 21.56,250.73 C22.05,250.94 22.56,251.02 23.09,250.95 C22.93,251.15 22.71,251.22 22.43,251.17 C20.44,251.24 18.62,251.82 16.98,252.91 C16.72,252.86 16.57,252.71 16.55,252.47 C17.85,251.03 19.05,249.51 20.14,247.9 C20.74,246.95 21.07,245.93 21.12,244.85 L21.12,244.85 Z" fill-rule="evenodd" style="fill:#021E0B;" />
			</g>
			<g transform="matrix(1, 0, 0, 1, -35.83728790283203, -274.1628112792969)">
				<path d="M53.38,253.56 C52.7,254.25 51.9,254.39 50.99,254 C50.72,253.34 50.72,252.68 50.99,252.04 C52.6,251.18 53.4,251.69 53.38,253.56 L53.38,253.56 Z" fill-rule="evenodd" style="fill:#CD0820;" />
			</g>
			<g transform="matrix(1, 0, 0, 1, -35.83728790283203, -274.1628112792969)">
				<path d="M25.7,250.51 C25.94,250.83 25.98,251.19 25.81,251.6 C25.59,251.78 25.34,251.86 25.05,251.82 C25.06,252.14 24.99,252.43 24.83,252.69 C24.83,252.84 24.76,252.91 24.61,252.91 C23.85,253.11 23.2,253.47 22.65,254 C22.17,253.92 21.81,254.06 21.56,254.44 C21.05,254.84 20.47,255.13 19.82,255.31 C19.84,255.12 19.77,254.97 19.6,254.87 C17.83,256.04 16.09,257.2 14.37,258.36 C16.27,256.5 18.45,255.01 20.91,253.89 C20.83,253.82 20.76,253.75 20.69,253.67 C20.85,253.35 21.03,253.31 21.23,253.56 C22.57,253.07 23.84,252.42 25.05,251.6 C25.29,251.3 25.21,251.05 24.83,250.84 C24.32,250.77 23.81,250.8 23.3,250.95 C23.33,250.81 23.4,250.71 23.52,250.62 C24.24,250.51 24.97,250.48 25.7,250.51 L25.7,250.51 Z" fill-rule="evenodd" style="fill:#0D281A;" />
			</g>
			<g transform="matrix(1, 0, 0, 1, -35.83728790283203, -274.1628112792969)">
				<path d="M58.83,255.53 C58.83,256.3 59.09,256.95 59.6,257.49 C59.82,257.24 59.97,256.95 60.03,256.62 C60.08,256.96 60.19,257.25 60.36,257.49 C60.36,257.85 60.36,258.21 60.36,258.58 C59.99,258.61 59.63,258.58 59.27,258.47 C58.12,257.78 56.96,257.17 55.78,256.62 C55.79,257.18 56.01,257.65 56.44,258.03 C56.31,258.13 56.16,258.17 56,258.14 C54.91,257.48 54.04,256.61 53.38,255.53 C53.6,255.56 53.85,255.49 54.15,255.31 C54.23,255.52 54.41,255.67 54.69,255.74 C55.16,255.55 55.59,255.29 56,254.98 C55.77,254.46 55.62,253.92 55.56,253.35 C55.82,253.3 56.04,253.37 56.22,253.56 C56.36,253.96 56.61,254.25 56.98,254.44 C57.16,255.26 57.64,255.77 58.4,255.96 C58.19,254.53 57.54,253.37 56.44,252.47 C56.54,252.4 56.65,252.33 56.76,252.26 C57.93,253.03 58.62,254.12 58.83,255.53 L58.83,255.53 Z" fill-rule="evenodd" style="fill:#006600;" />
			</g>
			<g transform="matrix(1, 0, 0, 1, -35.83728790283203, -274.1628112792969)">
				<path d="M24.61,252.91 C24.07,253.44 23.41,253.8 22.65,254 C23.2,253.47 23.85,253.11 24.61,252.91 L24.61,252.91 Z" fill-rule="evenodd" style="fill:#858B89;" />
			</g>
			<g transform="matrix(1, 0, 0, 1, -35.83728790283203, -274.1628112792969)">
				<path d="M49.68,252.04 C50.11,252.04 50.55,252.04 50.99,252.04 C50.72,252.68 50.72,253.34 50.99,254 C50.49,253.59 50.34,253.08 50.55,252.47 C50.23,252.33 49.94,252.18 49.68,252.04 L49.68,252.04 Z" fill-rule="evenodd" style="fill:#583335;" />
			</g>
			<g transform="matrix(1, 0, 0, 1, -35.83728790283203, -274.1628112792969)">
				<path d="M10.44,252.26 C10.09,253.53 9.65,254.77 9.14,255.96 C9.32,254.62 9.75,253.38 10.44,252.26 L10.44,252.26 Z" fill-rule="evenodd" style="fill:#636E66;" />
			</g>
			<g transform="matrix(1, 0, 0, 1, -35.83728790283203, -274.1628112792969)">
				<path d="M22.65,254 C22.34,254.23 21.97,254.37 21.56,254.44 C21.81,254.06 22.17,253.92 22.65,254 L22.65,254 Z" fill-rule="evenodd" style="fill:#818982;" />
			</g>
			<g transform="matrix(1, 0, 0, 1, -35.83728790283203, -274.1628112792969)">
				<path d="M53.38,253.56 C53.46,253.56 53.53,253.56 53.6,253.56 C53.29,253.87 53.07,254.24 52.95,254.65 C52.61,254.48 52.25,254.41 51.86,254.44 C51.45,254.5 51.16,254.35 50.99,254 C51.9,254.39 52.7,254.25 53.38,253.56 L53.38,253.56 Z" fill-rule="evenodd" style="fill:#502A2A;" />
			</g>
			<g transform="matrix(1, 0, 0, 1, -35.83728790283203, -274.1628112792969)">
				<path d="M7.39,256.62 C7.14,256.29 6.92,255.93 6.74,255.53 C6.59,255.77 6.45,255.98 6.3,256.18 C6.3,255 6.63,254.85 7.28,255.74 C7.39,256.03 7.43,256.32 7.39,256.62 L7.39,256.62 Z" fill-rule="evenodd" style="fill:#61575C;" />
			</g>
			<g transform="matrix(1, 0, 0, 1, -35.83728790283203, -274.1628112792969)">
				<path d="M19.82,255.31 C19.71,255.61 19.5,255.76 19.16,255.74 C19.27,255.44 19.48,255.29 19.82,255.31 L19.82,255.31 Z" fill-rule="evenodd" style="fill:#8A908E;" />
			</g>
			<g transform="matrix(1, 0, 0, 1, -35.83728790283203, -274.1628112792969)">
				<path d="M20.03,257.05 C20.08,256.72 20.22,256.42 20.47,256.18 C20.4,256.11 20.32,256.03 20.25,255.96 C19.38,256.29 18.51,256.55 17.64,256.73 C18.08,256.28 18.59,255.96 19.16,255.74 C19.21,255.87 19.32,255.95 19.49,255.96 C21.44,255.23 21.62,255.6 20.03,257.05 L20.03,257.05 Z" fill-rule="evenodd" style="fill:#6A706C;" />
			</g>
			<g transform="matrix(1, 0, 0, 1, -35.83728790283203, -274.1628112792969)">
				<path d="M58.83,255.53 C59.13,255.98 59.35,256.48 59.49,257.05 C60.04,255.4 60.33,255.55 60.36,257.49 C60.19,257.25 60.08,256.96 60.03,256.62 C59.97,256.95 59.82,257.24 59.6,257.49 C59.09,256.95 58.83,256.3 58.83,255.53 L58.83,255.53 Z" fill-rule="evenodd" style="fill:#012700;" />
			</g>
			<g transform="matrix(1, 0, 0, 1, -35.83728790283203, -274.1628112792969)">
				<path d="M65.37,257.92 C65.53,258.85 65.17,259.43 64.28,259.67 C63.02,259.6 62.55,258.95 62.87,257.71 C63.8,256.79 64.63,256.86 65.37,257.92 L65.37,257.92 Z" fill-rule="evenodd" style="fill:#CE0820;" />
			</g>
			<g transform="matrix(1, 0, 0, 1, -35.83728790283203, -274.1628112792969)">
				<path d="M7.39,256.62 C7.65,257.28 8.01,257.86 8.48,258.36 C8.51,258.55 8.44,258.7 8.26,258.8 C7.68,258.2 7.39,257.48 7.39,256.62 L7.39,256.62 Z" fill-rule="evenodd" style="fill:#626561;" />
			</g>
			<g transform="matrix(1, 0, 0, 1, -35.83728790283203, -274.1628112792969)">
				<path d="M9.14,255.96 C9.16,256.54 9.01,257.05 8.7,257.49 C8.68,256.91 8.83,256.4 9.14,255.96 L9.14,255.96 Z" fill-rule="evenodd" style="fill:#6B736E;" />
			</g>
			<g transform="matrix(1, 0, 0, 1, -35.83728790283203, -274.1628112792969)">
				<path d="M22.43,251.17 C19.71,251.81 17.16,253.05 14.8,254.87 C14.17,255.54 13.88,256.34 13.93,257.27 C13.94,257.74 14.09,258.1 14.37,258.36 C14.2,258.55 13.98,258.7 13.71,258.8 C13.59,258.4 13.37,258.11 13.06,257.92 C13.02,256.28 13.16,254.68 13.5,253.13 C13.42,253.94 13.5,254.74 13.71,255.53 C14.11,255.02 14.54,254.55 15.02,254.11 C14.97,254.02 14.9,253.99 14.8,254 C15.38,253.49 15.97,252.98 16.55,252.47 C16.57,252.71 16.72,252.86 16.98,252.91 C18.62,251.82 20.44,251.24 22.43,251.17 L22.43,251.17 Z" fill-rule="evenodd" style="fill:#032B14;" />
			</g>
			<g transform="matrix(1, 0, 0, 1, -35.83728790283203, -274.1628112792969)">
				<path d="M12.19,266.64 C11.58,267.14 11.07,267.72 10.66,268.39 C10.34,267.98 10.19,267.51 10.23,266.97 C10.29,266.35 10.36,265.73 10.44,265.12 C11.19,263.45 12.1,261.85 13.17,260.32 C14.48,259.36 15.82,258.49 17.2,257.71 C18.33,257.3 18.58,257.66 17.96,258.8 C16.38,261.11 14.64,263.29 12.73,265.33 C12.49,265.75 12.31,266.19 12.19,266.64 L12.19,266.64 Z" fill-rule="evenodd" style="fill:#006700;" />
			</g>
			<g transform="matrix(1, 0, 0, 1, -35.83728790283203, -274.1628112792969)">
				<path d="M60.36,258.58 C59.99,258.75 59.63,258.97 59.27,259.23 C60.11,259.78 60.03,259.92 59.05,259.67 C58.95,259.46 58.81,259.28 58.62,259.12 C58.06,259.08 57.55,258.97 57.09,258.8 C56.71,258.62 56.34,258.4 56,258.14 C56.16,258.17 56.31,258.13 56.44,258.03 C56.01,257.65 55.79,257.18 55.78,256.62 C56.96,257.17 58.12,257.78 59.27,258.47 C59.63,258.58 59.99,258.61 60.36,258.58 L60.36,258.58 Z" fill-rule="evenodd" style="fill:#081D07;" />
			</g>
			<g transform="matrix(1, 0, 0, 1, -35.83728790283203, -274.1628112792969)">
				<path d="M65.59,257.92 C65.52,257.92 65.45,257.92 65.37,257.92 C64.63,256.86 63.8,256.79 62.87,257.71 C62.55,258.95 63.02,259.6 64.28,259.67 C64.5,259.86 64.5,260.01 64.28,260.1 C62.68,259.85 62.14,258.98 62.65,257.49 C63.83,256.32 64.81,256.46 65.59,257.92 L65.59,257.92 Z" fill-rule="evenodd" style="fill:#60302E;" />
			</g>
			<g transform="matrix(1, 0, 0, 1, -35.83728790283203, -274.1628112792969)">
				<path d="M8.26,260.54 C9.23,263.96 9.7,267.45 9.68,271 C9.12,271.78 8.65,272.62 8.26,273.51 C8.66,274.36 8.8,275.27 8.7,276.23 C8.7,276.57 8.55,276.68 8.26,276.56 C8.08,276.34 7.86,276.16 7.61,276.02 C6.05,270.13 5.73,264.17 6.63,258.14 C6.82,257.88 7.01,257.88 7.17,258.14 C7.65,258.9 8.01,259.7 8.26,260.54 L8.26,260.54 Z" fill-rule="evenodd" style="fill:#006700;" />
			</g>
			<g transform="matrix(1, 0, 0, 1, -35.83728790283203, -274.1628112792969)">
				<path d="M19.6,257.71 C19.39,258.33 19.03,258.84 18.51,259.23 C18.71,258.61 19.08,258.1 19.6,257.71 L19.6,257.71 Z" fill-rule="evenodd" style="fill:#808382;" />
			</g>
			<g transform="matrix(1, 0, 0, 1, -35.83728790283203, -274.1628112792969)">
				<path d="M6.3,256.18 C6.27,257.98 6.05,259.72 5.65,261.41 C5.69,259.62 5.91,257.87 6.3,256.18 L6.3,256.18 Z" fill-rule="evenodd" style="fill:#5E6A63;" />
			</g>
			<g transform="matrix(1, 0, 0, 1, -35.83728790283203, -274.1628112792969)">
				<path d="M66.03,258.8 C66.3,259.06 66.45,259.42 66.46,259.89 C66.7,261.41 66.81,262.93 66.79,264.46 C66.73,265 66.58,265.51 66.35,265.99 C65.62,266.9 64.86,267.77 64.06,268.6 C63.71,268.19 63.63,267.76 63.85,267.3 C63.24,265.94 62.69,264.56 62.21,263.16 C62.26,262.41 62.26,261.68 62.21,260.98 C62.58,261.15 62.77,261.44 62.76,261.85 C63.06,261.88 63.35,261.85 63.63,261.74 C64.4,260.72 65.2,259.74 66.03,258.8 L66.03,258.8 Z" fill-rule="evenodd" style="fill:#006600;" />
			</g>
			<g transform="matrix(1, 0, 0, 1, -35.83728790283203, -274.1628112792969)">
				<path d="M57.09,258.8 C57.55,258.97 58.06,259.08 58.62,259.12 C58.81,259.28 58.95,259.46 59.05,259.67 C59.05,259.81 59.05,259.96 59.05,260.1 C58.22,259.24 57.38,259.24 56.54,260.1 C56.39,260.63 56.43,261.14 56.65,261.63 C56.58,261.63 56.51,261.63 56.44,261.63 C56.25,261.38 56.11,261.09 56,260.76 C56.18,260.22 56.4,259.71 56.65,259.23 C56.73,259.01 56.87,258.87 57.09,258.8 L57.09,258.8 Z" fill-rule="evenodd" style="fill:#351110;" />
			</g>
			<g transform="matrix(1, 0, 0, 1, -35.83728790283203, -274.1628112792969)">
				<path d="M18.51,259.23 C18.46,259.65 18.24,259.94 17.85,260.1 C17.91,259.69 18.12,259.4 18.51,259.23 L18.51,259.23 Z" fill-rule="evenodd" style="fill:#7A8781;" />
			</g>
			<g transform="matrix(1, 0, 0, 1, -35.83728790283203, -274.1628112792969)">
				<path d="M59.05,260.1 C59.05,260.54 59.05,260.98 59.05,261.41 C58.76,261.56 58.54,261.77 58.4,262.07 C57.73,262.15 57.15,262 56.65,261.63 C56.43,261.14 56.39,260.63 56.54,260.1 C57.38,259.24 58.22,259.24 59.05,260.1 L59.05,260.1 Z" fill-rule="evenodd" style="fill:#CE0820;" />
			</g>
			<g transform="matrix(1, 0, 0, 1, -35.83728790283203, -274.1628112792969)">
				<path d="M19.82,255.31 C19.48,255.29 19.27,255.44 19.16,255.74 C18.59,255.96 18.08,256.28 17.64,256.72 C18.51,256.55 19.38,256.29 20.25,255.96 C20.32,256.03 20.4,256.11 20.47,256.18 C20.22,256.42 20.08,256.72 20.03,257.05 C20.05,257.38 19.9,257.6 19.6,257.71 C19.08,258.1 18.71,258.61 18.51,259.23 C18.12,259.4 17.91,259.69 17.85,260.1 C17.55,260.21 17.4,260.42 17.42,260.76 C17.18,261.17 16.89,261.53 16.55,261.85 C16.09,262.08 15.8,262.45 15.67,262.94 C15.47,263.51 15.11,263.94 14.58,264.25 C14.14,264.55 13.92,264.99 13.93,265.55 C13.66,266.19 13.22,266.7 12.62,267.08 C12.36,267.02 12.21,266.88 12.19,266.64 C12.31,266.19 12.49,265.75 12.73,265.33 C14.64,263.29 16.38,261.11 17.96,258.8 C18.58,257.66 18.33,257.3 17.2,257.71 C15.77,258.2 14.46,258.93 13.28,259.89 C13.06,259.25 12.99,258.59 13.06,257.92 C13.37,258.11 13.59,258.4 13.71,258.8 C13.98,258.7 14.2,258.55 14.37,258.36 C16.09,257.2 17.83,256.04 19.6,254.87 C19.77,254.97 19.84,255.12 19.82,255.31 L19.82,255.31 Z" fill-rule="evenodd" style="fill:#112118;" />
			</g>
			<g transform="matrix(1, 0, 0, 1, -35.83728790283203, -274.1628112792969)">
				<path d="M17.85,260.1 C17.87,260.44 17.73,260.65 17.42,260.76 C17.4,260.42 17.55,260.21 17.85,260.1 L17.85,260.1 Z" fill-rule="evenodd" style="fill:#898F8B;" />
			</g>
			<g transform="matrix(1, 0, 0, 1, -35.83728790283203, -274.1628112792969)">
				<path d="M61.45,265.55 C61.06,264.97 60.92,264.32 61.01,263.59 C60.9,263.08 60.76,262.57 60.58,262.07 C60.73,261.57 60.84,261.06 60.9,260.54 C61.29,262.54 61.84,264.5 62.54,266.42 C62.1,266.37 61.74,266.08 61.45,265.55 L61.45,265.55 Z" fill-rule="evenodd" style="fill:#006700;" />
			</g>
			<g transform="matrix(1, 0, 0, 1, -35.83728790283203, -274.1628112792969)">
				<path d="M17.2,257.71 C15.82,258.49 14.48,259.36 13.17,260.32 C12.1,261.85 11.19,263.45 10.44,265.12 C10.64,264.57 10.64,264.06 10.44,263.59 C11.09,262.15 11.85,260.77 12.73,259.45 C12.77,258.9 12.88,258.39 13.06,257.92 C12.99,258.59 13.06,259.25 13.28,259.89 C14.46,258.93 15.77,258.2 17.2,257.71 L17.2,257.71 Z" fill-rule="evenodd" style="fill:#012811;" />
			</g>
			<g transform="matrix(1, 0, 0, 1, -35.83728790283203, -274.1628112792969)">
				<path d="M59.05,261.41 C59.12,261.41 59.2,261.41 59.27,261.41 C58.96,261.72 58.74,262.08 58.62,262.5 C58.43,262.43 58.36,262.28 58.4,262.07 C58.54,261.77 58.76,261.56 59.05,261.41 L59.05,261.41 Z" fill-rule="evenodd" style="fill:#785957;" />
			</g>
			<g transform="matrix(1, 0, 0, 1, -35.83728790283203, -274.1628112792969)">
				<path d="M16.55,261.85 C16.42,262.34 16.13,262.7 15.67,262.94 C15.8,262.45 16.09,262.08 16.55,261.85 L16.55,261.85 Z" fill-rule="evenodd" style="fill:#7D8180;" />
			</g>
			<g transform="matrix(1, 0, 0, 1, -35.83728790283203, -274.1628112792969)">
				<path d="M17.42,262.28 C17.76,262.35 17.9,262.57 17.85,262.94 C17.81,263.53 17.59,264.04 17.2,264.46 C17.14,263.96 17.22,263.49 17.42,263.05 C16.97,263.15 16.54,263.33 16.11,263.59 C16.47,263.08 16.91,262.65 17.42,262.28 L17.42,262.28 Z" fill-rule="evenodd" style="fill:#38393A;" />
			</g>
			<g transform="matrix(1, 0, 0, 1, -35.83728790283203, -274.1628112792969)">
				<path d="M17.42,262.28 C17.57,262.09 17.79,262.01 18.07,262.07 C18.13,262.41 18.06,262.7 17.85,262.94 C17.9,262.57 17.76,262.35 17.42,262.28 L17.42,262.28 Z" fill-rule="evenodd" style="fill:#7F7F80;" />
			</g>
			<g transform="matrix(1, 0, 0, 1, -35.83728790283203, -274.1628112792969)">
				<path d="M60.14,263.59 C60.14,264.36 60.25,265.09 60.47,265.77 C59.85,264.9 59.01,264.39 57.96,264.24 C57.98,264.81 58.23,265.24 58.72,265.55 C58.8,265.48 58.87,265.41 58.94,265.33 C59.23,265.87 59.63,266.31 60.14,266.64 C60.3,266.91 60.38,267.2 60.36,267.51 C57.73,266.8 56.72,265.13 57.31,262.5 C58.24,262.91 59.18,263.27 60.14,263.59 L60.14,263.59 Z" fill-rule="evenodd" style="fill:#006600;" />
			</g>
			<g transform="matrix(1, 0, 0, 1, -35.83728790283203, -274.1628112792969)">
				<path d="M5.65,261.41 C5.64,264.18 5.72,266.94 5.87,269.69 C5.54,268.07 5.4,266.4 5.43,264.68 C5.43,263.55 5.5,262.46 5.65,261.41 L5.65,261.41 Z" fill-rule="evenodd" style="fill:#777C73;" />
			</g>
			<g transform="matrix(1, 0, 0, 1, -35.83728790283203, -274.1628112792969)">
				<path d="M16.33,264.9 C15.53,266.83 14.62,268.72 13.6,270.57 C13.03,271.9 12.64,273.28 12.41,274.71 C12.34,276.43 12.23,278.17 12.08,279.94 C12.01,280.01 11.93,280.08 11.86,280.16 C11.13,279.43 10.41,278.7 9.68,277.98 C9.39,276.24 9.25,274.5 9.24,272.75 C9.77,272.05 10.25,271.32 10.66,270.57 C11.33,269.9 11.91,269.18 12.41,268.39 C13.52,266.95 14.68,265.68 15.89,264.57 C16.18,264.46 16.32,264.57 16.33,264.9 L16.33,264.9 Z" fill-rule="evenodd" style="fill:#006700;" />
			</g>
			<g transform="matrix(1, 0, 0, 1, -35.83728790283203, -274.1628112792969)">
				<path d="M60.14,263.59 C60.43,263.88 60.72,263.88 61.01,263.59 C60.92,264.32 61.06,264.97 61.45,265.55 C60.98,265.79 60.69,266.19 60.58,266.75 C61.22,267.23 61.15,267.48 60.36,267.51 C60.38,267.2 60.3,266.91 60.14,266.64 C59.63,266.31 59.23,265.87 58.94,265.33 C58.87,265.41 58.8,265.48 58.72,265.55 C58.23,265.24 57.98,264.81 57.96,264.25 C59.01,264.39 59.85,264.9 60.47,265.77 C60.25,265.09 60.14,264.36 60.14,263.59 L60.14,263.59 Z" fill-rule="evenodd" style="fill:#061903;" />
			</g>
			<g transform="matrix(1, 0, 0, 1, -35.83728790283203, -274.1628112792969)">
				<path d="M17.2,264.46 C16.89,265.55 16.45,266.57 15.89,267.51 C16.12,266.39 16.56,265.38 17.2,264.46 L17.2,264.46 Z" fill-rule="evenodd" style="fill:#767975;" />
			</g>
			<g transform="matrix(1, 0, 0, 1, -35.83728790283203, -274.1628112792969)">
				<path d="M12.41,268.39 C11.91,269.18 11.33,269.9 10.66,270.57 C10.44,270.57 10.23,270.57 10.01,270.57 C10.01,269.98 10.01,269.4 10.01,268.82 C10.93,268.81 11.52,268.33 11.75,267.41 C11.96,267.3 12.18,267.26 12.41,267.3 C12.41,267.66 12.41,268.02 12.41,268.39 L12.41,268.39 Z" fill-rule="evenodd" style="fill:#001006;" />
			</g>
			<g transform="matrix(1, 0, 0, 1, -35.83728790283203, -274.1628112792969)">
				<path d="M60.14,268.17 C60.58,268.17 61.01,268.17 61.45,268.17 C62.21,268.91 62.29,269.71 61.67,270.57 C61.52,270.57 61.45,270.64 61.45,270.78 C60.85,270.81 60.27,270.73 59.71,270.57 C59.74,270.35 59.67,270.2 59.49,270.13 C59.36,269.34 59.58,268.69 60.14,268.17 L60.14,268.17 Z" fill-rule="evenodd" style="fill:#CE0820;" />
			</g>
			<g transform="matrix(1, 0, 0, 1, -35.83728790283203, -274.1628112792969)">
				<path d="M59.71,267.95 C59.85,268.02 60,268.1 60.14,268.17 C59.58,268.69 59.36,269.34 59.49,270.13 C59.28,269.9 59.21,269.61 59.27,269.26 C59.31,268.78 59.46,268.35 59.71,267.95 L59.71,267.95 Z" fill-rule="evenodd" style="fill:#561819;" />
			</g>
			<g transform="matrix(1, 0, 0, 1, -35.83728790283203, -274.1628112792969)">
				<path d="M17.2,264.46 C16.56,265.38 16.12,266.39 15.89,267.51 C15.86,267.87 15.71,268.17 15.46,268.39 C14.57,269.73 13.91,271.18 13.5,272.75 C13.5,272.82 13.5,272.89 13.5,272.96 C12.98,273.82 12.76,274.76 12.84,275.8 C13.15,276.48 13.12,277.14 12.73,277.76 C12.43,276.77 12.32,275.75 12.41,274.71 C12.64,273.28 13.03,271.9 13.6,270.57 C14.62,268.72 15.53,266.83 16.33,264.9 C16.52,264.73 16.67,264.52 16.76,264.25 C16.44,264.11 16.22,263.89 16.11,263.59 C16.54,263.33 16.97,263.15 17.42,263.05 C17.22,263.49 17.14,263.96 17.2,264.46 L17.2,264.46 Z" fill-rule="evenodd" style="fill:#0C1810;" />
			</g>
			<g transform="matrix(1, 0, 0, 1, -35.83728790283203, -274.1628112792969)">
				<path d="M16.33,269.04 C16.69,268.78 16.98,268.89 17.2,269.37 C17.06,270.08 16.92,270.77 16.76,271.44 C16.89,270.53 16.75,269.73 16.33,269.04 L16.33,269.04 Z" fill-rule="evenodd" style="fill:#777979;" />
			</g>
			<g transform="matrix(1, 0, 0, 1, -35.83728790283203, -274.1628112792969)">
				<path d="M61.45,268.17 C61.87,268.11 62.23,268.18 62.54,268.39 C62.38,268.36 62.23,268.39 62.1,268.5 C62.68,269.26 62.61,269.95 61.89,270.57 C61.81,270.57 61.74,270.57 61.67,270.57 C62.29,269.71 62.21,268.91 61.45,268.17 L61.45,268.17 Z" fill-rule="evenodd" style="fill:#543030;" />
			</g>
			<g transform="matrix(1, 0, 0, 1, -35.83728790283203, -274.1628112792969)">
				<path d="M16.33,269.04 C16.37,269.82 16.08,270.4 15.46,270.78 C15.64,270.13 15.93,269.55 16.33,269.04 L16.33,269.04 Z" fill-rule="evenodd" style="fill:#454544;" />
			</g>
			<g transform="matrix(1, 0, 0, 1, -35.83728790283203, -274.1628112792969)">
				<path d="M59.27,269.26 C59.21,269.61 59.28,269.9 59.49,270.13 C59.67,270.2 59.74,270.35 59.71,270.57 C59.51,270.35 59.36,270.35 59.27,270.57 C59.09,270.31 58.94,270.02 58.83,269.69 C58.98,269.55 59.12,269.4 59.27,269.26 L59.27,269.26 Z" fill-rule="evenodd" style="fill:#9D8280;" />
			</g>
			<g transform="matrix(1, 0, 0, 1, -35.83728790283203, -274.1628112792969)">
				<path d="M66.9,271.22 C66.9,271.07 66.9,270.93 66.9,270.78 C68.16,270.72 68.64,270.06 68.32,268.82 C67.52,267.95 66.72,267.95 65.92,268.82 C65.68,269.61 65.87,270.26 66.46,270.78 C66.5,271 66.43,271.15 66.24,271.22 C65.87,270.7 65.58,270.11 65.37,269.48 C65.75,268.03 66.62,267.56 67.99,268.06 C69.15,269 69.15,269.95 67.99,270.89 C67.63,271.03 67.26,271.13 66.9,271.22 L66.9,271.22 Z" fill-rule="evenodd" style="fill:#5F3838;" />
			</g>
			<g transform="matrix(1, 0, 0, 1, -35.83728790283203, -274.1628112792969)">
				<path d="M66.9,270.78 C66.75,270.78 66.61,270.78 66.46,270.78 C65.87,270.26 65.68,269.61 65.92,268.82 C66.72,267.95 67.52,267.95 68.32,268.82 C68.64,270.06 68.16,270.72 66.9,270.78 L66.9,270.78 Z" fill-rule="evenodd" style="fill:#CE0820;" />
			</g>
			<g transform="matrix(1, 0, 0, 1, -35.83728790283203, -274.1628112792969)">
				<path d="M59.71,270.57 C60.27,270.73 60.85,270.81 61.45,270.78 C61.5,271.07 61.43,271.28 61.23,271.44 C61.26,270.97 61.11,270.9 60.8,271.22 C60.34,271.12 59.97,270.9 59.71,270.57 L59.71,270.57 Z" fill-rule="evenodd" style="fill:#4A2F2E;" />
			</g>
			<g transform="matrix(1, 0, 0, 1, -35.83728790283203, -274.1628112792969)">
				<path d="M3.9,269.69 C3.77,269.67 3.66,269.6 3.58,269.48 C3.44,271.51 3.48,273.55 3.69,275.58 C3.36,274.36 3.22,273.09 3.25,271.77 C3.29,270.93 3.32,270.09 3.36,269.26 C3.71,269.06 3.9,269.2 3.9,269.69 L3.9,269.69 Z" fill-rule="evenodd" style="fill:#80817E;" />
			</g>
			<g transform="matrix(1, 0, 0, 1, -35.83728790283203, -274.1628112792969)">
				<path d="M15.46,270.78 C15.3,271.32 15.08,271.83 14.8,272.31 C14.66,272.38 14.51,272.46 14.37,272.53 C14.56,271.83 14.92,271.25 15.46,270.78 L15.46,270.78 Z" fill-rule="evenodd" style="fill:#757C77;" />
			</g>
			<g transform="matrix(1, 0, 0, 1, -35.83728790283203, -274.1628112792969)">
				<path d="M64.06,273.18 C63.93,273.27 63.86,273.42 63.85,273.62 C64.08,274.7 64.19,275.79 64.17,276.89 C63.7,278.42 63.08,279.88 62.32,281.25 C62.18,281.31 62.03,281.39 61.89,281.46 C61.21,280.79 60.63,280.07 60.14,279.29 C59.6,278.43 59.16,277.52 58.83,276.56 C58.89,276.27 59.03,276.05 59.27,275.91 C58.91,275.8 58.62,275.62 58.4,275.36 C58.16,273.98 58.27,272.6 58.72,271.22 C59.41,271.61 59.95,272.16 60.36,272.85 C60.78,273.03 61.22,273.14 61.67,273.18 C61.67,272.96 61.67,272.75 61.67,272.53 C61.96,272.57 62.21,272.49 62.43,272.31 C62.5,272.49 62.61,272.63 62.76,272.75 C63.33,272.28 63.76,272.42 64.06,273.18 L64.06,273.18 Z" fill-rule="evenodd" style="fill:#006600;" />
			</g>
			<g transform="matrix(1, 0, 0, 1, -35.83728790283203, -274.1628112792969)">
				<path d="M15.46,268.39 C14.92,269.9 14.26,271.36 13.5,272.75 C13.91,271.18 14.57,269.73 15.46,268.39 L15.46,268.39 Z" fill-rule="evenodd" style="fill:#747F78;" />
			</g>
			<g transform="matrix(1, 0, 0, 1, -35.83728790283203, -274.1628112792969)">
				<path d="M4.99,272.96 C5.08,273.33 5.19,273.69 5.32,274.05 C6.33,275.46 7.46,276.77 8.7,277.98 C9.94,279.07 11.1,280.24 12.19,281.46 C12.78,283.01 13.43,284.54 14.15,286.04 C13.96,286.28 13.74,286.31 13.5,286.15 C12.16,285.34 10.78,284.65 9.35,284.08 C7.58,281.84 6.01,279.44 4.67,276.89 C4.13,275.23 3.98,273.56 4.23,271.87 C4.49,272.25 4.74,272.62 4.99,272.96 L4.99,272.96 Z" fill-rule="evenodd" style="fill:#006700;" />
			</g>
			<g transform="matrix(1, 0, 0, 1, -35.83728790283203, -274.1628112792969)">
				<path d="M5.87,269.69 C6.35,271.17 6.49,272.7 6.3,274.27 C5.99,274.16 5.85,273.94 5.87,273.62 C6.2,273.91 6.34,273.81 6.3,273.29 C6.03,272.11 5.88,270.91 5.87,269.69 L5.87,269.69 Z" fill-rule="evenodd" style="fill:#777B76;" />
			</g>
			<g transform="matrix(1, 0, 0, 1, -35.83728790283203, -274.1628112792969)">
				<path d="M18.51,285.17 C18.31,286.31 18.09,287.43 17.85,288.55 C15.94,288.38 14.88,287.32 14.69,285.39 C13.48,283.36 12.9,281.18 12.95,278.85 C13.25,276.49 14.01,274.31 15.24,272.31 C15.38,272.24 15.53,272.17 15.67,272.09 C15.49,276.06 16.1,279.91 17.53,283.64 C17.75,284.24 18.08,284.75 18.51,285.17 L18.51,285.17 Z" fill-rule="evenodd" style="fill:#006700;" />
			</g>
			<g transform="matrix(1, 0, 0, 1, -35.83728790283203, -274.1628112792969)">
				<path d="M66.24,273.84 C66.06,275.04 65.88,276.27 65.7,277.54 C65.25,278.15 64.92,278.8 64.72,279.5 C65.03,279.52 65.32,279.45 65.59,279.29 C65.8,279.39 65.8,279.53 65.59,279.72 C65.31,279.89 65.05,280.11 64.83,280.37 C64.6,280.15 64.34,280.12 64.06,280.27 C64.58,280.53 64.51,280.71 63.85,280.81 C63.7,280.77 63.56,280.74 63.41,280.7 C63.7,280.52 63.84,280.27 63.85,279.94 C64.32,279.3 64.64,278.57 64.83,277.76 C64.99,276.22 64.96,274.7 64.72,273.18 C65.9,271.59 66.41,271.81 66.24,273.84 L66.24,273.84 Z" fill-rule="evenodd" style="fill:#006700;" />
			</g>
			<g transform="matrix(1, 0, 0, 1, -35.83728790283203, -274.1628112792969)">
				<path d="M67.12,278.41 C66.96,278.32 66.85,278.18 66.79,277.98 C66.64,278.27 66.5,278.56 66.35,278.85 C66.2,279.06 66.02,279.09 65.81,278.96 C66.12,278.35 66.41,277.74 66.68,277.11 C66.55,276.16 66.55,275.14 66.68,274.05 C67.25,273.49 67.91,272.98 68.64,272.53 C68.89,274.69 68.38,276.65 67.12,278.41 L67.12,278.41 Z" fill-rule="evenodd" style="fill:#006600;" />
			</g>
			<g transform="matrix(1, 0, 0, 1, -35.83728790283203, -274.1628112792969)">
				<path d="M64.06,273.18 C64.25,273.43 64.47,273.43 64.72,273.18 C64.96,274.7 64.99,276.22 64.83,277.76 C64.64,278.57 64.32,279.3 63.85,279.94 C63.2,280.22 62.69,280.66 62.32,281.25 C63.08,279.88 63.7,278.42 64.17,276.89 C64.19,275.79 64.08,274.7 63.85,273.62 C63.86,273.42 63.93,273.27 64.06,273.18 L64.06,273.18 Z" fill-rule="evenodd" style="fill:#021401;" />
			</g>
			<g transform="matrix(1, 0, 0, 1, -35.83728790283203, -274.1628112792969)">
				<path d="M3.9,269.69 C4.52,270.64 5.03,271.66 5.43,272.75 C5.21,272.71 5.07,272.78 4.99,272.96 C4.74,272.62 4.49,272.25 4.23,271.87 C3.98,273.56 4.13,275.23 4.67,276.89 C6.01,279.44 7.58,281.84 9.35,284.08 C9.38,284.21 9.45,284.32 9.57,284.41 C9.3,284.46 9.08,284.57 8.92,284.73 C8.45,285.88 8.41,287.04 8.81,288.22 C9.36,289.32 9.9,290.41 10.44,291.49 C10.46,291.59 10.42,291.66 10.33,291.71 C10.11,291.25 9.78,290.88 9.35,290.62 C9.17,290.55 9.1,290.4 9.14,290.18 C8.88,289.39 8.52,288.66 8.05,288 C7.73,286.8 7.8,285.64 8.26,284.52 C8.59,283.95 8.45,283.52 7.83,283.21 C7.39,282.77 7.02,282.26 6.74,281.68 C6.75,281.35 6.61,281.13 6.3,281.03 C6.32,280.7 6.17,280.48 5.87,280.37 C5.19,279.54 4.68,278.59 4.34,277.54 C4.29,276.88 4.07,276.3 3.69,275.8 C3.69,275.72 3.69,275.65 3.69,275.58 C3.48,273.55 3.44,271.51 3.58,269.48 C3.66,269.6 3.77,269.67 3.9,269.69 L3.9,269.69 Z" fill-rule="evenodd" style="fill:#17261C;" />
			</g>
			<g transform="matrix(1, 0, 0, 1, -35.83728790283203, -274.1628112792969)">
				<path d="M57.74,274.93 C57.89,275.12 58.03,275.34 58.18,275.58 C58.31,275.55 58.38,275.48 58.4,275.36 C58.62,275.62 58.91,275.8 59.27,275.91 C59.03,276.05 58.89,276.27 58.83,276.56 C59.16,277.52 59.6,278.43 60.14,279.29 C59.96,279.36 59.89,279.5 59.92,279.72 C59.71,279.43 59.49,279.43 59.27,279.72 C59.31,279.07 59.17,278.49 58.83,277.98 C58.21,277.06 57.85,276.04 57.74,274.93 L57.74,274.93 Z" fill-rule="evenodd" style="fill:#182917;" />
			</g>
			<g transform="matrix(1, 0, 0, 1, -35.83728790283203, -274.1628112792969)">
				<path d="M16.76,271.66 C16.55,273.91 16.55,276.16 16.76,278.41 C16.43,277.38 16.28,276.29 16.33,275.14 C16.29,273.93 16.43,272.76 16.76,271.66 L16.76,271.66 Z" fill-rule="evenodd" style="fill:#6D7972;" />
			</g>
			<g transform="matrix(1, 0, 0, 1, -35.83728790283203, -274.1628112792969)">
				<path d="M3.69,275.8 C4.07,276.3 4.29,276.88 4.34,277.54 C3.96,277.04 3.74,276.46 3.69,275.8 L3.69,275.8 Z" fill-rule="evenodd" style="fill:#637166;" />
			</g>
			<g transform="matrix(1, 0, 0, 1, -35.83728790283203, -274.1628112792969)">
				<path d="M58.83,277.98 C59.17,278.49 59.31,279.07 59.27,279.72 C59.28,280.04 59.21,280.33 59.05,280.59 C58.91,280.59 58.76,280.59 58.62,280.59 C59.46,278.93 58.96,278.17 57.09,278.3 C56.56,278.63 56.34,279.11 56.44,279.72 C56.24,279.55 56.09,279.33 56,279.07 C56.74,277.95 57.68,277.59 58.83,277.98 L58.83,277.98 Z" fill-rule="evenodd" style="fill:#522A28;" />
			</g>
			<g transform="matrix(1, 0, 0, 1, -35.83728790283203, -274.1628112792969)">
				<path d="M58.62,280.59 C58.42,280.73 58.2,280.8 57.96,280.81 C57.32,280.89 56.81,280.67 56.44,280.16 C56.44,280.01 56.44,279.87 56.44,279.72 C56.34,279.11 56.56,278.63 57.09,278.3 C58.96,278.17 59.46,278.93 58.62,280.59 L58.62,280.59 Z" fill-rule="evenodd" style="fill:#CE0820;" />
			</g>
			<g transform="matrix(1, 0, 0, 1, -35.83728790283203, -274.1628112792969)">
				<path d="M66.24,273.84 C66.32,274.02 66.46,274.09 66.68,274.05 C66.55,275.14 66.55,276.16 66.68,277.11 C66.41,277.74 66.12,278.35 65.81,278.96 C66.02,279.09 66.2,279.06 66.35,278.85 C66.5,278.56 66.64,278.27 66.79,277.98 C66.85,278.18 66.96,278.32 67.12,278.41 C67.12,278.56 67.12,278.7 67.12,278.85 C66.75,279.36 66.32,279.79 65.81,280.16 C65.85,279.94 65.77,279.8 65.59,279.72 C65.8,279.53 65.8,279.39 65.59,279.29 C65.32,279.45 65.03,279.52 64.72,279.5 C64.92,278.8 65.25,278.15 65.7,277.54 C65.88,276.27 66.06,275.04 66.24,273.84 L66.24,273.84 Z" fill-rule="evenodd" style="fill:#0A1A0B;" />
			</g>
			<g transform="matrix(1, 0, 0, 1, -35.83728790283203, -274.1628112792969)">
				<path d="M16.98,279.5 C17.29,279.94 17.44,280.45 17.42,281.03 C17.11,280.59 16.96,280.08 16.98,279.5 L16.98,279.5 Z" fill-rule="evenodd" style="fill:#6C726E;" />
			</g>
			<g transform="matrix(1, 0, 0, 1, -35.83728790283203, -274.1628112792969)">
				<path d="M5.87,280.37 C6.17,280.48 6.32,280.7 6.3,281.03 C6,280.93 5.85,280.71 5.87,280.37 L5.87,280.37 Z" fill-rule="evenodd" style="fill:#828D87;" />
			</g>
			<g transform="matrix(1, 0, 0, 1, -35.83728790283203, -274.1628112792969)">
				<path d="M65.15,280.59 C65.3,280.74 65.45,280.88 65.59,281.03 C65.31,281.08 65.09,281.01 64.94,280.81 C64.94,280.67 65.01,280.59 65.15,280.59 L65.15,280.59 Z" fill-rule="evenodd" style="fill:#9FA0A1;" />
			</g>
			<g transform="matrix(1, 0, 0, 1, -35.83728790283203, -274.1628112792969)">
				<path d="M6.3,281.03 C6.61,281.13 6.75,281.35 6.74,281.68 C6.43,281.58 6.29,281.36 6.3,281.03 L6.3,281.03 Z" fill-rule="evenodd" style="fill:#8E8C89;" />
			</g>
			<g transform="matrix(1, 0, 0, 1, -35.83728790283203, -274.1628112792969)">
				<path d="M64.94,280.81 C65.09,281.01 65.31,281.08 65.59,281.03 C66.88,281.37 67.28,282.17 66.79,283.43 C66,284.35 65.09,284.5 64.06,283.86 C64.06,283.72 63.99,283.64 63.85,283.64 C63.66,282.95 63.59,282.3 63.63,281.68 C64,281.31 64.44,281.02 64.94,280.81 L64.94,280.81 Z" fill-rule="evenodd" style="fill:#592F2E;" />
			</g>
			<g transform="matrix(1, 0, 0, 1, -35.83728790283203, -274.1628112792969)">
				<path d="M64.72,281.25 C66.75,281.28 67.19,282.12 66.03,283.75 C64.46,284.08 63.85,283.46 64.17,281.9 C64.4,281.71 64.58,281.49 64.72,281.25 L64.72,281.25 Z" fill-rule="evenodd" style="fill:#CE0820;" />
			</g>
			<g transform="matrix(1, 0, 0, 1, -35.83728790283203, -274.1628112792969)">
				<path d="M7.83,283.21 C8.45,283.52 8.59,283.95 8.26,284.52 C8.22,284.04 8.07,283.6 7.83,283.21 L7.83,283.21 Z" fill-rule="evenodd" style="fill:#626E65;" />
			</g>
			<g transform="matrix(1, 0, 0, 1, -35.83728790283203, -274.1628112792969)">
				<path d="M8.26,260.54 C8.46,260.67 8.68,260.75 8.92,260.76 C9.24,261.75 9.57,262.77 9.9,263.81 C10.04,263.65 10.23,263.57 10.44,263.59 C10.64,264.06 10.64,264.57 10.44,265.12 C10.36,265.73 10.29,266.35 10.23,266.97 C10.19,267.51 10.34,267.98 10.66,268.39 C11.07,267.72 11.58,267.14 12.19,266.64 C12.21,266.88 12.36,267.02 12.62,267.08 C13.22,266.7 13.66,266.19 13.93,265.55 C14.44,265.27 14.87,264.9 15.24,264.46 C15.46,264.1 15.75,263.81 16.11,263.59 C16.22,263.89 16.44,264.11 16.76,264.24 C16.67,264.52 16.52,264.73 16.33,264.9 C16.32,264.57 16.18,264.46 15.89,264.57 C14.68,265.68 13.52,266.95 12.41,268.39 C12.41,268.02 12.41,267.66 12.41,267.3 C12.18,267.26 11.96,267.3 11.75,267.41 C11.52,268.33 10.93,268.81 10.01,268.82 C10.01,269.4 10.01,269.98 10.01,270.57 C10.23,270.57 10.44,270.57 10.66,270.57 C10.25,271.32 9.77,272.05 9.24,272.75 C9.25,274.5 9.39,276.24 9.68,277.98 C10.41,278.7 11.13,279.43 11.86,280.16 C11.93,280.08 12.01,280.01 12.08,279.94 C12.23,278.17 12.34,276.43 12.41,274.71 C12.32,275.75 12.43,276.77 12.73,277.76 C13.12,277.14 13.15,276.48 12.84,275.8 C13.3,275.06 13.66,274.26 13.93,273.4 C13.97,273.04 14.11,272.75 14.37,272.53 C14.51,272.46 14.66,272.38 14.8,272.31 C14.95,272.31 15.09,272.31 15.24,272.31 C14.01,274.31 13.25,276.49 12.95,278.85 C12.9,281.18 13.48,283.36 14.69,285.39 C14.88,287.32 15.94,288.38 17.85,288.55 C18.09,287.43 18.31,286.31 18.51,285.17 C18.64,285.48 18.86,285.69 19.16,285.82 C18.8,287.18 18.65,288.56 18.73,289.97 C18.55,289.35 18.44,288.7 18.4,288 C18.31,288.6 17.99,289 17.42,289.2 C17.61,289.36 17.76,289.54 17.85,289.75 C15.44,288.32 13.04,286.83 10.66,285.28 C10.13,284.93 9.55,284.75 8.92,284.73 C9.08,284.57 9.3,284.46 9.57,284.41 C9.45,284.32 9.38,284.21 9.35,284.08 C10.78,284.65 12.16,285.34 13.5,286.15 C13.74,286.31 13.96,286.28 14.15,286.04 C13.43,284.54 12.78,283.01 12.19,281.46 C11.1,280.24 9.94,279.07 8.7,277.98 C8.92,277.96 9.1,278.03 9.24,278.2 C9.33,277.1 9.26,276.01 9.03,274.93 C8.99,275.41 8.88,275.84 8.7,276.23 C8.8,275.27 8.66,274.36 8.26,273.51 C8.65,272.62 9.12,271.78 9.68,271 C9.7,267.45 9.23,263.96 8.26,260.54 L8.26,260.54 Z" fill-rule="evenodd" style="fill:#031F0E;" />
			</g>
			<g transform="matrix(1, 0, 0, 1, -35.83728790283203, -274.1628112792969)">
				<path d="M13.5,272.96 C13.41,273.51 13.56,273.65 13.93,273.4 C13.66,274.26 13.3,275.06 12.84,275.8 C12.76,274.76 12.98,273.82 13.5,272.96 L13.5,272.96 Z" fill-rule="evenodd" style="fill:#75877B;" />
			</g>
			<g transform="matrix(1, 0, 0, 1, -35.83728790283203, -274.1628112792969)">
				<path d="M14.58,264.25 C14.56,264.41 14.59,264.55 14.69,264.68 C14.84,264.52 15.02,264.44 15.24,264.46 C14.87,264.9 14.44,265.27 13.93,265.55 C13.92,264.99 14.14,264.55 14.58,264.25 L14.58,264.25 Z" fill-rule="evenodd" style="fill:#94958F;" />
			</g>
			<g transform="matrix(1, 0, 0, 1, -35.83728790283203, -274.1628112792969)">
				<path d="M17.42,281.03 C17.8,281.85 18.13,282.73 18.4,283.64 C18.91,284.34 19.49,284.34 20.14,283.64 C20.43,283.77 20.68,283.92 20.91,284.08 C20.19,284.02 19.54,284.16 18.94,284.52 C18.8,284.44 18.65,284.37 18.51,284.3 C17.93,283.28 17.56,282.19 17.42,281.03 L17.42,281.03 Z" fill-rule="evenodd" style="fill:#626A65;" />
			</g>
			<g transform="matrix(1, 0, 0, 1, -35.83728790283203, -274.1628112792969)">
				<path d="M29.84,294.76 C30.02,295.04 30.23,295.3 30.5,295.52 C31.62,296.12 32.71,296.78 33.77,297.49 C34.06,297.63 34.06,297.78 33.77,297.92 C33.56,298.03 33.34,298.06 33.11,298.03 C31.8,298.01 30.49,297.94 29.19,297.81 C28.19,297.5 27.18,297.36 26.14,297.38 C25.9,297.17 25.61,297.1 25.27,297.16 C24.4,296.95 23.53,296.92 22.65,297.05 C22.05,297.79 22.12,298.48 22.87,299.12 C21.8,299.22 20.78,298.96 19.82,298.36 C18.36,297.34 16.98,296.21 15.67,294.98 C15.45,294.56 15.42,294.12 15.57,293.67 C16.58,291.73 18.14,291.18 20.25,292.04 C22.2,293.04 24.09,294.13 25.92,295.31 C26.41,295.56 26.92,295.63 27.45,295.52 C24.56,293.62 21.66,291.77 18.73,289.97 C18.65,288.56 18.8,287.18 19.16,285.82 C19.54,284.4 20.34,284.15 21.56,285.06 C22.71,286.15 23.88,287.24 25.05,288.33 C24.88,288.54 24.66,288.65 24.39,288.66 C23.76,288.53 23.11,288.53 22.43,288.66 C22.41,289.18 22.63,289.58 23.09,289.86 C25.32,291.54 27.57,293.18 29.84,294.76 L29.84,294.76 Z" fill-rule="evenodd" style="fill:#006600;" />
			</g>
			<g transform="matrix(1, 0, 0, 1, -35.83728790283203, -274.1628112792969)">
				<path d="M8.92,284.73 C9.55,284.75 10.13,284.93 10.66,285.28 C13.04,286.83 15.44,288.32 17.85,289.75 C18.1,290.1 18.39,290.43 18.73,290.73 C17.51,290.94 16.45,291.49 15.57,292.36 C14.09,291.43 12.67,290.41 11.32,289.31 C10.97,289.1 10.6,289.06 10.23,289.2 C10.71,289.76 11.25,290.23 11.86,290.62 C12.04,291.43 12,292.23 11.75,293.02 C11.58,292.74 11.36,292.52 11.1,292.36 C11.05,291.95 10.83,291.66 10.44,291.49 C9.9,290.41 9.36,289.32 8.81,288.22 C8.41,287.04 8.45,285.88 8.92,284.73 L8.92,284.73 Z" fill-rule="evenodd" style="fill:#006700;" />
			</g>
			<g transform="matrix(1, 0, 0, 1, -35.83728790283203, -274.1628112792969)">
				<path d="M21.78,284.52 C22.42,284.8 22.93,285.23 23.3,285.82 C22.66,285.54 22.15,285.1 21.78,284.52 L21.78,284.52 Z" fill-rule="evenodd" style="fill:#5B655E;" />
			</g>
			<g transform="matrix(1, 0, 0, 1, -35.83728790283203, -274.1628112792969)">
				<path d="M48.37,290.84 C46.64,292.13 44.97,293.51 43.36,294.98 C43,295.25 42.78,295.14 42.7,294.65 C43.43,292.8 44.3,291.02 45.32,289.31 C46.28,288.27 47.45,287.62 48.81,287.35 C49.07,287.19 49.36,287.12 49.68,287.13 C49.24,288.37 48.8,289.61 48.37,290.84 L48.37,290.84 Z" fill-rule="evenodd" style="fill:#006700;" />
			</g>
			<g transform="matrix(1, 0, 0, 1, -35.83728790283203, -274.1628112792969)">
				<path d="M24.83,287.35 C25.3,287.4 25.67,287.62 25.92,288 C25.45,287.95 25.08,287.73 24.83,287.35 L24.83,287.35 Z" fill-rule="evenodd" style="fill:#6D7C71;" />
			</g>
			<g transform="matrix(1, 0, 0, 1, -35.83728790283203, -274.1628112792969)">
				<path d="M56,279.07 C56.09,279.33 56.24,279.55 56.44,279.72 C56.44,279.87 56.44,280.01 56.44,280.16 C56.51,280.45 56.58,280.74 56.65,281.03 C57.29,282.99 57.73,282.99 57.96,281.03 C57.96,280.96 57.96,280.88 57.96,280.81 C58.2,280.8 58.42,280.73 58.62,280.59 C58.76,280.59 58.91,280.59 59.05,280.59 C59.08,281.47 59.16,282.34 59.27,283.21 C59.5,283.24 59.72,283.2 59.92,283.1 C60.47,282.76 60.9,282.32 61.23,281.79 C60.76,281.11 60.33,280.42 59.92,279.72 C59.89,279.5 59.96,279.36 60.14,279.29 C60.63,280.07 61.21,280.79 61.89,281.46 C62.03,281.39 62.18,281.31 62.32,281.25 C62.69,280.66 63.2,280.22 63.85,279.94 C63.84,280.27 63.7,280.52 63.41,280.7 C63.56,280.74 63.7,280.77 63.85,280.81 C64.51,280.71 64.58,280.53 64.06,280.27 C64.34,280.12 64.6,280.15 64.83,280.38 C65.05,280.11 65.31,279.89 65.59,279.72 C65.77,279.8 65.85,279.94 65.81,280.16 C65.64,280.35 65.42,280.5 65.15,280.59 C65.01,280.59 64.94,280.67 64.94,280.81 C64.44,281.02 64,281.31 63.63,281.68 C62.64,282.09 62.06,282.82 61.89,283.86 C62.55,283.86 63.2,283.79 63.85,283.64 C63.99,283.64 64.06,283.72 64.06,283.86 C63.65,284.2 63.44,284.64 63.41,285.17 C64.56,285.06 65.69,284.84 66.79,284.52 C66.9,284.63 67.01,284.73 67.12,284.84 C64.5,289.64 60.43,291.82 54.91,291.38 C54.26,292.57 53.42,293.63 52.4,294.54 C52.25,294.82 52.29,295.08 52.51,295.31 C53.93,295.59 55.31,295.92 56.65,296.29 C56.51,296.29 56.44,296.36 56.44,296.5 C55.71,297.01 54.98,297.52 54.26,298.03 C54.18,297.89 54.11,297.74 54.04,297.59 C54.47,297.23 54.9,296.87 55.35,296.5 C53.95,296.2 52.64,295.91 51.42,295.63 C51.61,295.05 51.72,294.47 51.75,293.89 C51.5,294.28 51.25,294.64 50.99,294.98 C50.82,295.36 50.53,295.58 50.11,295.63 C49.9,295.67 49.75,295.6 49.68,295.42 C50.28,294.56 51.01,293.79 51.86,293.13 C51.74,292.98 51.6,292.87 51.42,292.8 C51.05,293.1 50.69,293.39 50.33,293.67 C50.04,293.67 49.9,293.53 49.9,293.24 C50.93,292.32 52.09,291.55 53.38,290.95 C51.98,291.21 50.6,291.61 49.24,292.15 C49.04,292.14 48.9,292.06 48.81,291.93 C48.59,291.6 48.44,291.23 48.37,290.84 C48.8,289.61 49.24,288.37 49.68,287.13 C49.36,287.12 49.07,287.19 48.81,287.35 C48.54,287.19 48.25,287.12 47.93,287.13 C48.87,286.71 49.86,286.35 50.88,286.04 C51.22,286.34 51.19,286.63 50.77,286.91 C50.77,287.06 50.77,287.2 50.77,287.35 C50.27,288.01 50.2,288.74 50.55,289.53 C50.26,289.32 50.04,289.03 49.9,288.66 C49.38,289.6 49.35,290.54 49.79,291.49 C51,290.91 52.28,290.47 53.6,290.18 C53.67,289.89 53.75,289.6 53.82,289.31 C53.44,287.29 53.33,285.26 53.49,283.21 C53.83,282.04 54.33,280.95 55.02,279.94 C55.21,279.47 55.54,279.18 56,279.07 L56,279.07 ZM56.65,281.03 C57.14,281.13 57.58,281.13 57.96,281.03 C57.73,282.99 57.29,282.99 56.65,281.03 L56.65,281.03 ZM59.92,279.72 C60.33,280.42 60.76,281.11 61.23,281.79 C60.9,282.32 60.47,282.76 59.92,283.1 C59.72,283.2 59.5,283.24 59.27,283.21 C59.16,282.34 59.08,281.47 59.05,280.59 C59.21,280.33 59.28,280.04 59.27,279.72 C59.49,279.43 59.71,279.43 59.92,279.72 L59.92,279.72 Z" fill-rule="evenodd" style="fill:#121713;" />
			</g>
			<g transform="matrix(1, 0, 0, 1, -35.83728790283203, -274.1628112792969)">
				<path d="M50.55,289.53 C50.2,288.74 50.27,288.01 50.77,287.35 C51.96,286.82 52.69,287.18 52.95,288.44 C52.62,289.73 51.82,290.09 50.55,289.53 L50.55,289.53 Z" fill-rule="evenodd" style="fill:#CD0820;" />
			</g>
			<g transform="matrix(1, 0, 0, 1, -35.83728790283203, -274.1628112792969)">
				<path d="M61.89,284.52 C62.18,284.48 62.48,284.52 62.76,284.63 C62.47,284.99 62.18,285.35 61.89,285.72 C61.99,285.75 62.1,285.79 62.21,285.82 C62.75,285.73 63.26,285.73 63.74,285.82 C64.4,285.41 65.09,285.33 65.81,285.61 C63.8,289.15 60.75,290.75 56.65,290.4 C57.73,289.88 58.71,289.23 59.6,288.44 C60.5,287.21 61.27,285.9 61.89,284.52 L61.89,284.52 Z" fill-rule="evenodd" style="fill:#006700;" />
			</g>
			<g transform="matrix(1, 0, 0, 1, -35.83728790283203, -274.1628112792969)">
				<path d="M56.44,280.16 C56.81,280.67 57.32,280.89 57.96,280.81 C57.96,280.88 57.96,280.96 57.96,281.03 C57.58,281.13 57.14,281.13 56.65,281.03 C56.58,280.74 56.51,280.45 56.44,280.16 L56.44,280.16 Z" fill-rule="evenodd" style="fill:#5D2728;" />
			</g>
			<g transform="matrix(1, 0, 0, 1, -35.83728790283203, -274.1628112792969)">
				<path d="M55.56,280.16 C56.16,281.15 56.6,282.24 56.87,283.43 C57.5,283.24 58,282.88 58.4,282.34 C58.9,283.27 58.94,284.21 58.51,285.17 C57.79,286.25 56.99,287.27 56.11,288.22 C55.95,288.47 55.98,288.69 56.22,288.88 C57.8,287.45 59.08,285.78 60.03,283.86 C60.27,283.53 60.6,283.38 61.01,283.43 C61.01,283.21 61.01,282.99 61.01,282.77 C61.24,282.74 61.46,282.78 61.67,282.88 C60.91,284.65 60,286.36 58.94,288 C58.11,288.62 57.28,289.24 56.44,289.86 C55.81,289.74 55.19,289.78 54.58,289.97 C54.38,289.4 54.24,288.82 54.15,288.22 C53.82,286.28 53.82,284.39 54.15,282.55 C54.51,281.68 54.98,280.89 55.56,280.16 L55.56,280.16 Z" fill-rule="evenodd" style="fill:#006700;" />
			</g>
			<g transform="matrix(1, 0, 0, 1, -35.83728790283203, -274.1628112792969)">
				<path d="M8.05,288 C8.52,288.66 8.88,289.39 9.14,290.18 C8.55,289.58 8.18,288.86 8.05,288 L8.05,288 Z" fill-rule="evenodd" style="fill:#6A746B;" />
			</g>
			<g transform="matrix(1, 0, 0, 1, -35.83728790283203, -274.1628112792969)">
				<path d="M16.33,269.04 C16.75,269.73 16.89,270.53 16.76,271.44 C16.76,271.51 16.76,271.58 16.76,271.66 C16.43,272.76 16.29,273.93 16.33,275.14 C16.28,276.29 16.43,277.38 16.76,278.41 C16.97,278.72 17.04,279.09 16.98,279.5 C16.96,280.08 17.11,280.59 17.42,281.03 C17.56,282.19 17.93,283.28 18.51,284.3 C18.65,284.37 18.8,284.44 18.94,284.52 C19.54,284.16 20.19,284.02 20.91,284.08 C21.27,284.12 21.56,284.26 21.78,284.52 C22.15,285.1 22.66,285.54 23.3,285.82 C23.89,286.26 24.39,286.77 24.83,287.35 C25.08,287.73 25.45,287.95 25.92,288 C26.47,288.24 26.97,288.53 27.45,288.88 C27.51,289.02 27.58,289.16 27.66,289.31 C27.17,289.52 26.67,289.6 26.14,289.53 C25.92,289.53 25.7,289.53 25.48,289.53 C25.46,289.4 25.39,289.29 25.27,289.2 C24.69,289.09 24.11,289.06 23.52,289.09 C23.52,289.67 23.81,289.96 24.39,289.97 C24.92,290.23 25.35,290.59 25.7,291.06 C25.8,291.36 26.02,291.51 26.36,291.49 C26.99,291.77 27.5,292.21 27.88,292.8 C27.98,293.11 28.2,293.25 28.54,293.24 C28.76,293.68 29.12,293.97 29.63,294.11 C29.76,294.3 29.83,294.52 29.84,294.76 C27.57,293.18 25.32,291.54 23.09,289.86 C22.63,289.58 22.41,289.18 22.43,288.66 C23.11,288.53 23.76,288.53 24.39,288.66 C24.66,288.65 24.88,288.54 25.05,288.33 C23.88,287.24 22.71,286.15 21.56,285.06 C20.34,284.15 19.54,284.4 19.16,285.82 C18.86,285.69 18.64,285.48 18.51,285.17 C18.08,284.75 17.75,284.24 17.53,283.64 C16.1,279.91 15.49,276.06 15.67,272.09 C15.53,272.17 15.38,272.24 15.24,272.31 C15.09,272.31 14.95,272.31 14.8,272.31 C15.08,271.83 15.3,271.32 15.46,270.78 C16.08,270.4 16.37,269.82 16.33,269.04 L16.33,269.04 Z" fill-rule="evenodd" style="fill:#141F18;" />
			</g>
			<g transform="matrix(1, 0, 0, 1, -35.83728790283203, -274.1628112792969)">
				<path d="M25.48,289.53 C24.97,289.45 24.46,289.42 23.96,289.42 C24.15,289.58 24.29,289.76 24.39,289.97 C23.81,289.96 23.52,289.67 23.52,289.09 C24.11,289.06 24.69,289.09 25.27,289.2 C25.39,289.29 25.46,289.4 25.48,289.53 L25.48,289.53 Z" fill-rule="evenodd" style="fill:#5E625D;" />
			</g>
			<g transform="matrix(1, 0, 0, 1, -35.83728790283203, -274.1628112792969)">
				<path d="M27.45,288.88 C28.23,289.02 28.38,289.35 27.88,289.86 C27.27,289.86 26.69,289.75 26.14,289.53 C26.67,289.6 27.17,289.52 27.66,289.31 C27.58,289.16 27.51,289.02 27.45,288.88 L27.45,288.88 Z" fill-rule="evenodd" style="fill:#676564;" />
			</g>
			<g transform="matrix(1, 0, 0, 1, -35.83728790283203, -274.1628112792969)">
				<path d="M50.55,289.53 C51.82,290.09 52.62,289.73 52.95,288.44 C52.69,287.18 51.96,286.82 50.77,287.35 C50.77,287.2 50.77,287.06 50.77,286.91 C52.14,286.53 53.01,287.04 53.38,288.44 C53.17,289.38 52.58,289.97 51.64,290.18 C51.18,290.08 50.82,289.87 50.55,289.53 L50.55,289.53 Z" fill-rule="evenodd" style="fill:#593738;" />
			</g>
			<g transform="matrix(1, 0, 0, 1, -35.83728790283203, -274.1628112792969)">
				<path d="M49.9,293.24 C47.98,293.88 46.31,294.93 44.88,296.4 C43.52,296.83 43.23,296.39 44.01,295.09 C45.65,294.07 47.25,293.01 48.81,291.93 C48.9,292.06 49.04,292.14 49.24,292.15 C50.6,291.61 51.98,291.21 53.38,290.95 C52.09,291.55 50.93,292.32 49.9,293.24 L49.9,293.24 Z" fill-rule="evenodd" style="fill:#006700;" />
			</g>
			<g transform="matrix(1, 0, 0, 1, -35.83728790283203, -274.1628112792969)">
				<path d="M25.7,291.06 C26.03,291.04 26.25,291.19 26.36,291.49 C26.02,291.51 25.8,291.36 25.7,291.06 L25.7,291.06 Z" fill-rule="evenodd" style="fill:#959892;" />
			</g>
			<g transform="matrix(1, 0, 0, 1, -35.83728790283203, -274.1628112792969)">
				<path d="M9.35,290.62 C9.78,290.88 10.11,291.25 10.33,291.71 C10.42,291.66 10.46,291.59 10.44,291.49 C10.83,291.66 11.05,291.95 11.1,292.36 C10.9,292.52 10.83,292.74 10.88,293.02 C10.29,292.28 9.78,291.48 9.35,290.62 L9.35,290.62 Z" fill-rule="evenodd" style="fill:#3F5143;" />
			</g>
			<g transform="matrix(1, 0, 0, 1, -35.83728790283203, -274.1628112792969)">
				<path d="M53.6,291.27 C53.86,291.23 54.08,291.3 54.26,291.49 C53.37,292.63 53.15,292.56 53.6,291.27 L53.6,291.27 Z" fill-rule="evenodd" style="fill:#082A12;" />
			</g>
			<g transform="matrix(1, 0, 0, 1, -35.83728790283203, -274.1628112792969)">
				<path d="M13.28,291.49 C12.95,291.47 12.73,291.62 12.62,291.93 C12.8,292.96 12.73,294.05 12.41,295.2 C12.27,295.17 12.2,295.1 12.19,294.98 C12.4,293.79 12.48,292.55 12.41,291.27 C12.75,291.22 13.04,291.29 13.28,291.49 L13.28,291.49 Z" fill-rule="evenodd" style="fill:#636D68;" />
			</g>
			<g transform="matrix(1, 0, 0, 1, -35.83728790283203, -274.1628112792969)">
				<path d="M27.88,292.8 C28.21,292.78 28.43,292.93 28.54,293.24 C28.2,293.25 27.98,293.11 27.88,292.8 L27.88,292.8 Z" fill-rule="evenodd" style="fill:#8A8585;" />
			</g>
			<g transform="matrix(1, 0, 0, 1, -35.83728790283203, -274.1628112792969)">
				<path d="M49.68,295.42 C48.7,296.06 47.68,296.68 46.63,297.27 C46.13,297.41 45.66,297.59 45.21,297.81 C45.1,297.7 44.99,297.59 44.88,297.49 C45.82,296.77 46.69,295.97 47.5,295.09 C48.47,294.63 49.41,294.16 50.33,293.67 C50.69,293.39 51.05,293.1 51.42,292.8 C51.6,292.87 51.74,292.98 51.86,293.13 C51.01,293.79 50.28,294.56 49.68,295.42 L49.68,295.42 Z" fill-rule="evenodd" style="fill:#006700;" />
			</g>
			<g transform="matrix(1, 0, 0, 1, -35.83728790283203, -274.1628112792969)">
				<path d="M10.88,293.02 C11.19,293.12 11.33,293.34 11.32,293.67 C11.01,293.57 10.86,293.35 10.88,293.02 L10.88,293.02 Z" fill-rule="evenodd" style="fill:#83817D;" />
			</g>
			<g transform="matrix(1, 0, 0, 1, -35.83728790283203, -274.1628112792969)">
				<path d="M28.54,293.24 C29.03,293.37 29.39,293.66 29.63,294.11 C29.12,293.97 28.76,293.68 28.54,293.24 L28.54,293.24 Z" fill-rule="evenodd" style="fill:#5C635E;" />
			</g>
			<g transform="matrix(1, 0, 0, 1, -35.83728790283203, -274.1628112792969)">
				<path d="M18.73,289.97 C21.66,291.77 24.56,293.62 27.45,295.52 C26.92,295.63 26.41,295.56 25.92,295.31 C24.09,294.13 22.2,293.04 20.25,292.04 C18.14,291.18 16.58,291.73 15.57,293.67 C15.42,294.12 15.45,294.56 15.67,294.98 C16.98,296.21 18.36,297.34 19.82,298.36 C20.78,298.96 21.8,299.22 22.87,299.12 C22.12,298.48 22.05,297.79 22.65,297.05 C23.53,296.92 24.4,296.95 25.27,297.16 C24.88,297.37 24.44,297.44 23.96,297.38 C23.53,297.32 23.13,297.4 22.76,297.59 C22.6,298.12 22.78,298.49 23.3,298.68 C23.41,298.99 23.62,299.14 23.96,299.12 C24.37,299.17 24.66,299.38 24.83,299.77 C24.27,299.99 23.68,300.06 23.09,299.99 C22.21,299.77 21.34,299.55 20.47,299.34 C19.42,299.01 18.55,298.43 17.85,297.59 C17.62,297.14 17.25,296.85 16.76,296.72 C16.53,296.27 16.16,295.98 15.67,295.85 C15.29,295.68 15.07,295.39 15.02,294.98 C15.01,294.35 15.08,293.73 15.24,293.13 C15.2,292.83 15.05,292.64 14.8,292.58 C14.18,292.38 13.67,292.01 13.28,291.49 C13.04,291.29 12.75,291.22 12.41,291.27 C12.48,292.55 12.4,293.79 12.19,294.98 C12.16,294.35 11.87,293.92 11.32,293.67 C11.33,293.34 11.19,293.12 10.88,293.02 C10.83,292.74 10.9,292.52 11.1,292.36 C11.36,292.52 11.58,292.74 11.75,293.02 C12,292.23 12.04,291.43 11.86,290.62 C11.25,290.23 10.71,289.76 10.23,289.2 C10.6,289.06 10.97,289.1 11.32,289.31 C12.67,290.41 14.09,291.43 15.57,292.36 C16.45,291.49 17.5,290.94 18.73,290.73 C18.39,290.43 18.1,290.1 17.85,289.75 C17.76,289.54 17.61,289.36 17.42,289.2 C17.99,289 18.31,288.6 18.4,288 C18.44,288.7 18.55,289.35 18.73,289.97 L18.73,289.97 Z" fill-rule="evenodd" style="fill:#0C1E13;" />
			</g>
			<g transform="matrix(1, 0, 0, 1, -35.83728790283203, -274.1628112792969)">
				<path d="M14.8,292.58 C15.05,292.64 15.2,292.83 15.24,293.13 C15.08,293.73 15.01,294.35 15.02,294.98 C14.46,294.36 14.46,293.7 15.02,293.02 C14.94,292.87 14.87,292.72 14.8,292.58 L14.8,292.58 Z" fill-rule="evenodd" style="fill:#5F6E66;" />
			</g>
			<g transform="matrix(1, 0, 0, 1, -35.83728790283203, -274.1628112792969)">
				<path d="M11.32,293.67 C11.87,293.92 12.16,294.35 12.19,294.98 C11.79,294.62 11.5,294.18 11.32,293.67 L11.32,293.67 Z" fill-rule="evenodd" style="fill:#595E57;" />
			</g>
			<g transform="matrix(1, 0, 0, 1, -35.83728790283203, -274.1628112792969)">
				<path d="M55.78,291.93 C57.38,292.18 57.93,293.05 57.42,294.54 C55.99,295.75 54.94,295.46 54.26,293.67 C54.47,292.8 54.98,292.22 55.78,291.93 L55.78,291.93 Z" fill-rule="evenodd" style="fill:#5B3333;" />
			</g>
			<g transform="matrix(1, 0, 0, 1, -35.83728790283203, -274.1628112792969)">
				<path d="M55.35,292.36 C57.38,292.4 57.81,293.23 56.65,294.87 C54.6,294.9 54.17,294.07 55.35,292.36 L55.35,292.36 Z" fill-rule="evenodd" style="fill:#CE0820;" />
			</g>
			<g transform="matrix(1, 0, 0, 1, -35.83728790283203, -274.1628112792969)">
				<path d="M29.63,294.11 C30.14,294.29 30.57,294.58 30.93,294.98 C30.58,294.86 30.22,294.79 29.84,294.76 C29.83,294.52 29.76,294.3 29.63,294.11 L29.63,294.11 Z" fill-rule="evenodd" style="fill:#58625E;" />
			</g>
			<g transform="matrix(1, 0, 0, 1, -35.83728790283203, -274.1628112792969)">
				<path d="M51.42,295.63 C51.28,295.42 51.13,295.2 50.99,294.98 C51.25,294.64 51.5,294.28 51.75,293.89 C51.72,294.47 51.61,295.05 51.42,295.63 L51.42,295.63 Z" fill-rule="evenodd" style="fill:#02290A;" />
			</g>
			<g transform="matrix(1, 0, 0, 1, -35.83728790283203, -274.1628112792969)">
				<path d="M50.99,294.98 C51.13,295.2 51.28,295.42 51.42,295.63 C52.64,295.91 53.95,296.2 55.35,296.5 C54.9,296.87 54.47,297.23 54.04,297.59 C52.01,298.57 49.86,299.23 47.61,299.56 C46.92,299.47 46.37,299.14 45.97,298.58 C47.51,297.8 48.89,296.82 50.11,295.63 C50.53,295.58 50.82,295.36 50.99,294.98 L50.99,294.98 Z" fill-rule="evenodd" style="fill:#006600;" />
			</g>
			<g transform="matrix(1, 0, 0, 1, -35.83728790283203, -274.1628112792969)">
				<path d="M30.93,294.98 C31.45,295.23 31.95,295.45 32.46,295.63 C32.09,295.67 31.73,295.63 31.37,295.52 C31.1,295.43 30.95,295.25 30.93,294.98 L30.93,294.98 Z" fill-rule="evenodd" style="fill:#6A6C67;" />
			</g>
			<g transform="matrix(1, 0, 0, 1, -35.83728790283203, -274.1628112792969)">
				<path d="M38.78,297.16 C39,297.52 39.29,297.81 39.65,298.03 C39.18,298.34 38.63,298.49 38.02,298.47 C36.09,298.33 34.46,297.57 33.11,296.18 C33.84,295.97 34.56,295.79 35.29,295.63 C36.55,295.96 37.72,296.47 38.78,297.16 L38.78,297.16 Z" fill-rule="evenodd" style="fill:#006700;" />
			</g>
			<g transform="matrix(1, 0, 0, 1, -35.83728790283203, -274.1628112792969)">
				<path d="M15.67,295.85 C16.16,295.98 16.53,296.27 16.76,296.72 C16.27,296.6 15.91,296.31 15.67,295.85 L15.67,295.85 Z" fill-rule="evenodd" style="fill:#6D766F;" />
			</g>
			<g transform="matrix(1, 0, 0, 1, -35.83728790283203, -274.1628112792969)">
				<path d="M39,296.07 C39.36,296.07 39.72,296.07 40.09,296.07 C40.82,296.03 41.54,296.07 42.27,296.18 C43.87,297.68 45.54,299.09 47.28,300.43 C47.53,300.79 47.82,301.11 48.15,301.41 C46.95,302.46 45.65,302.61 44.23,301.85 C43.41,301.08 42.61,300.32 41.83,299.56 C41.47,298.76 40.89,298.18 40.09,297.81 C39.61,297.3 39.25,296.72 39,296.07 L39,296.07 Z" fill-rule="evenodd" style="fill:#006600;" />
			</g>
			<g transform="matrix(1, 0, 0, 1, -35.83728790283203, -274.1628112792969)">
				<path d="M56.65,296.29 C56.88,296.41 56.85,296.56 56.54,296.72 C56.46,296.67 56.42,296.6 56.44,296.5 C56.44,296.36 56.51,296.29 56.65,296.29 L56.65,296.29 Z" fill-rule="evenodd" style="fill:#AEAEAA;" />
			</g>
			<g transform="matrix(1, 0, 0, 1, -35.83728790283203, -274.1628112792969)">
				<path d="M16.76,296.72 C17.25,296.85 17.62,297.14 17.85,297.59 C17.36,297.47 17,297.18 16.76,296.72 L16.76,296.72 Z" fill-rule="evenodd" style="fill:#636764;" />
			</g>
			<g transform="matrix(1, 0, 0, 1, -35.83728790283203, -274.1628112792969)">
				<path d="M39,296.07 C39.25,296.72 39.61,297.3 40.09,297.81 C39.87,297.78 39.73,297.85 39.65,298.03 C39.29,297.81 39,297.52 38.78,297.16 C38.9,297.15 38.97,297.07 39,296.94 C38.83,296.68 38.61,296.46 38.34,296.29 C38.52,296.09 38.74,296.02 39,296.07 L39,296.07 Z" fill-rule="evenodd" style="fill:#032A08;" />
			</g>
			<g transform="matrix(1, 0, 0, 1, -35.83728790283203, -274.1628112792969)">
				<path d="M25.27,297.16 C25.61,297.1 25.9,297.17 26.14,297.38 C25.57,297.43 25.57,297.53 26.14,297.7 C26.76,297.74 27.34,297.85 27.88,298.03 C26.96,298.15 26.01,298.08 25.05,297.81 C24.68,297.67 24.32,297.52 23.96,297.38 C24.44,297.44 24.88,297.37 25.27,297.16 L25.27,297.16 Z" fill-rule="evenodd" style="fill:#2A3D30;" />
			</g>
			<g transform="matrix(1, 0, 0, 1, -35.83728790283203, -274.1628112792969)">
				<path d="M23.96,297.38 C24.32,297.52 24.68,297.67 25.05,297.81 C24.45,297.86 23.87,297.79 23.3,297.59 C23.13,297.66 22.98,297.77 22.87,297.92 C23.16,298.1 23.3,298.35 23.3,298.68 C22.78,298.49 22.6,298.12 22.76,297.59 C23.13,297.4 23.53,297.32 23.96,297.38 L23.96,297.38 Z" fill-rule="evenodd" style="fill:#6B7D75;" />
			</g>
			<g transform="matrix(1, 0, 0, 1, -35.83728790283203, -274.1628112792969)">
				<path d="M47.93,287.13 C48.25,287.12 48.54,287.19 48.81,287.35 C47.45,287.62 46.28,288.27 45.32,289.31 C44.3,291.02 43.43,292.8 42.7,294.65 C42.78,295.14 43,295.25 43.36,294.98 C44.97,293.51 46.64,292.13 48.37,290.84 C48.44,291.23 48.59,291.6 48.81,291.93 C47.25,293.01 45.65,294.07 44.01,295.09 C43.23,296.39 43.52,296.83 44.88,296.4 C46.31,294.93 47.98,293.88 49.9,293.24 C49.9,293.53 50.04,293.67 50.33,293.67 C49.41,294.16 48.47,294.63 47.5,295.09 C46.69,295.97 45.82,296.77 44.88,297.49 C44.99,297.59 45.1,297.7 45.21,297.81 C45.66,297.59 46.13,297.41 46.63,297.27 C47.68,296.68 48.7,296.06 49.68,295.42 C49.75,295.6 49.9,295.67 50.11,295.63 C48.89,296.82 47.51,297.8 45.97,298.58 C46.37,299.14 46.92,299.47 47.61,299.56 C49.86,299.23 52.01,298.57 54.04,297.59 C54.11,297.74 54.18,297.89 54.26,298.03 C52.31,299.19 50.21,299.84 47.93,299.99 C47.66,300.05 47.44,300.2 47.28,300.43 C45.54,299.09 43.87,297.68 42.27,296.18 C41.54,296.07 40.82,296.03 40.09,296.07 C40.31,295.92 40.52,295.78 40.74,295.63 C41.1,295.68 41.43,295.61 41.72,295.42 C42.55,292.56 43.97,290.05 45.97,287.9 C46.59,287.52 47.24,287.26 47.93,287.13 L47.93,287.13 Z" fill-rule="evenodd" style="fill:#0B1A0B;" />
			</g>
			<g transform="matrix(1, 0, 0, 1, -35.83728790283203, -274.1628112792969)">
				<path d="M23.3,298.68 C23.64,298.67 23.85,298.81 23.96,299.12 C23.62,299.14 23.41,298.99 23.3,298.68 L23.3,298.68 Z" fill-rule="evenodd" style="fill:#7F8485;" />
			</g>
			<g transform="matrix(1, 0, 0, 1, -35.83728790283203, -274.1628112792969)">
				<path d="M20.47,299.34 C21.34,299.55 22.21,299.77 23.09,299.99 C23.03,300.12 22.93,300.2 22.76,300.21 C21.92,300.06 21.15,299.77 20.47,299.34 L20.47,299.34 Z" fill-rule="evenodd" style="fill:#666F69;" />
			</g>
			<g transform="matrix(1, 0, 0, 1, -35.83728790283203, -274.1628112792969)">
				<path d="M29.84,294.76 C30.22,294.79 30.58,294.86 30.93,294.98 C30.95,295.25 31.1,295.43 31.37,295.52 C31.73,295.63 32.09,295.67 32.46,295.63 C34.05,295.07 35.65,295.07 37.25,295.63 C38.4,295.46 39.56,295.46 40.74,295.63 C40.52,295.78 40.31,295.92 40.09,296.07 C39.72,296.07 39.36,296.07 39,296.07 C38.74,296.02 38.52,296.09 38.34,296.29 C38.61,296.46 38.83,296.68 39,296.94 C38.97,297.07 38.9,297.15 38.78,297.16 C37.72,296.47 36.55,295.96 35.29,295.63 C34.56,295.79 33.84,295.97 33.11,296.18 C34.46,297.57 36.09,298.33 38.02,298.47 C38.63,298.49 39.18,298.34 39.65,298.03 C39.73,297.85 39.87,297.78 40.09,297.81 C40.89,298.18 41.47,298.76 41.83,299.56 C41.69,299.56 41.54,299.56 41.4,299.56 C41.04,299.27 40.67,298.98 40.31,298.68 C38.69,299.29 37.09,299.25 35.51,298.58 C34.93,298.43 34.35,298.43 33.77,298.58 C32.63,299.91 31.39,301.15 30.06,302.28 C28.37,302.89 26.85,302.6 25.48,301.41 C26.47,300.53 27.49,299.7 28.54,298.9 C28.85,298.27 28.63,297.98 27.88,298.03 C27.34,297.85 26.76,297.74 26.14,297.7 C25.57,297.53 25.57,297.43 26.14,297.38 C27.18,297.36 28.19,297.5 29.19,297.81 C30.02,298.06 30.89,298.24 31.8,298.36 C31.04,298.4 30.31,298.51 29.63,298.68 C28.57,299.54 27.56,300.45 26.57,301.41 C27.91,302.17 29.21,302.13 30.5,301.3 C31.34,300.47 32,299.67 32.46,298.9 C32.7,298.71 32.7,298.53 32.46,298.36 C32.73,298.31 32.95,298.2 33.11,298.03 C33.34,298.06 33.56,298.03 33.77,297.92 C34.06,297.78 34.06,297.63 33.77,297.49 C32.71,296.78 31.62,296.12 30.5,295.52 C30.23,295.3 30.02,295.04 29.84,294.76 L29.84,294.76 Z" fill-rule="evenodd" style="fill:#162018;" />
			</g>
			<g transform="matrix(1, 0, 0, 1, -35.83728790283203, -274.1628112792969)">
				<path d="M29.19,297.81 C30.49,297.94 31.8,298.01 33.11,298.03 C32.95,298.2 32.73,298.31 32.46,298.36 C32.7,298.53 32.7,298.71 32.46,298.9 C31.52,298.73 30.58,298.66 29.63,298.68 C30.31,298.51 31.04,298.4 31.8,298.36 C30.89,298.24 30.02,298.06 29.19,297.81 L29.19,297.81 Z" fill-rule="evenodd" style="fill:#012A03;" />
			</g>
			<g transform="matrix(1, 0, 0, 1, -35.83728790283203, -274.1628112792969)">
				<path d="M29.63,298.68 C30.58,298.66 31.52,298.73 32.46,298.9 C32,299.67 31.34,300.47 30.5,301.3 C29.21,302.13 27.91,302.17 26.57,301.41 C27.56,300.45 28.57,299.54 29.63,298.68 L29.63,298.68 Z" fill-rule="evenodd" style="fill:#006700;" />
			</g>
			<g transform="matrix(1, 0, 0, 1, -35.83728790283203, -274.1628112792969)">
				<path d="M41.4,299.56 C41.54,299.56 41.69,299.56 41.83,299.56 C42.61,300.32 43.41,301.08 44.23,301.85 C45.65,302.61 46.95,302.46 48.15,301.41 C47.82,301.11 47.53,300.79 47.28,300.43 C47.44,300.2 47.66,300.05 47.93,299.99 C48.12,300.59 48.52,301.02 49.13,301.3 C49.28,301.45 49.28,301.59 49.13,301.74 C47.28,303.09 45.43,303.13 43.58,301.85 C42.8,301.11 42.08,300.35 41.4,299.56 L41.4,299.56 Z" fill-rule="evenodd" style="fill:#193121;" />
			</g>
		</g>
		<g transform="matrix(1, 0, 0, 1, -0.07017850875854492, 29.42979621887207)">
			<g transform="matrix(1, 0, 0, 1, -46.88165283203125, -43.49982452392578)">
				<path d="M62.01,-1.67 C62.3,-1.53 62.3,-1.53 62.01,-1.67 L62.01,-1.67 Z" fill-rule="evenodd" opacity="0.02" style="fill:#BE807F;" />
			</g>
			<g transform="matrix(1, 0, 0, 1, -46.88165283203125, -43.49982452392578)">
				<path d="M45.27,-0.6 C47.42,-0.63 49.57,-0.6 51.71,-0.49 C52.36,-0.15 52.51,0.35 52.14,1.01 C50.49,1.05 48.84,1.16 47.2,1.34 C47.01,1.96 46.94,2.61 46.99,3.27 C48.49,3.36 49.99,3.46 51.5,3.59 C51.78,4.09 51.78,4.59 51.5,5.09 C49.99,4.98 48.48,5.01 46.99,5.2 C46.75,6.05 46.75,6.91 46.99,7.77 C48.71,7.8 50.42,7.88 52.14,7.99 C52.2,8.55 52.12,9.09 51.92,9.6 C49.58,9.64 47.26,9.54 44.95,9.27 C44.78,5.96 44.88,2.67 45.27,-0.6 L45.27,-0.6 Z" fill-rule="evenodd" style="fill:#FEE700;" />
			</g>
			<g transform="matrix(1, 0, 0, 1, -46.88165283203125, -43.49982452392578)">
				<path d="M38.62,0.05 C40.23,0.19 41.41,0.98 42.16,2.41 C42.94,4.29 43.09,6.22 42.59,8.2 C41.96,8.97 41.21,9.58 40.34,10.03 C38.95,10.36 37.55,10.68 36.15,10.99 C35.8,10.92 35.58,10.71 35.51,10.35 C35.02,7.41 34.48,4.47 33.9,1.55 C33.92,1.14 34.13,0.89 34.54,0.8 C35.93,0.5 37.28,0.25 38.62,0.05 L38.62,0.05 ZM37.12,1.98 C38.13,1.85 39.06,2.03 39.91,2.52 C40.92,4.23 41.17,5.98 40.66,7.77 C39.87,8.36 38.97,8.72 37.98,8.85 C37.4,8.73 37.07,8.37 37.01,7.77 C36.77,6.08 36.45,4.39 36.05,2.73 C36.08,2.56 36.15,2.42 36.26,2.3 C36.59,2.26 36.88,2.15 37.12,1.98 L37.12,1.98 Z" fill-rule="evenodd" style="fill:#FEE700;" />
			</g>
			<g transform="matrix(1, 0, 0, 1, -46.88165283203125, -43.49982452392578)">
				<path d="M55.79,0.26 C56.51,0.27 57.09,0.55 57.5,1.12 C56.68,3.64 56.11,6.21 55.79,8.85 C57.15,9.22 58.51,9.61 59.86,10.03 C60.06,10.46 60.13,10.93 60.08,11.42 C59.43,11.46 58.79,11.42 58.15,11.31 C56.66,10.84 55.16,10.41 53.64,10.03 C53.5,9.81 53.35,9.6 53.21,9.38 C54.09,6.35 54.95,3.31 55.79,0.26 L55.79,0.26 Z" fill-rule="evenodd" style="fill:#FEE700;" />
			</g>
			<g transform="matrix(1, 0, 0, 1, -46.88165283203125, -43.49982452392578)">
				<path d="M67.8,4.34 C69.64,5.24 71.32,6.39 72.85,7.77 C73.62,10.32 72.73,11.89 70.16,12.49 C68.88,12.17 67.66,11.67 66.52,10.99 C65.67,11.73 65.03,12.62 64.58,13.67 C63.81,13.74 63.24,13.41 62.87,12.71 C64.46,9.87 66.11,7.08 67.8,4.34 L67.8,4.34 ZM68.45,7.13 C70.24,7.24 71.06,8.17 70.91,9.92 C70.6,10.27 70.21,10.49 69.73,10.56 C68.94,10.29 68.19,9.93 67.48,9.49 C67.34,9.27 67.34,9.06 67.48,8.85 C67.77,8.24 68.09,7.67 68.45,7.13 L68.45,7.13 Z" fill-rule="evenodd" style="fill:#FEE700;" />
			</g>
			<g transform="matrix(1, 0, 0, 1, -46.88165283203125, -43.49982452392578)">
				<path d="M24.46,4.98 C24.85,4.98 25.2,5.09 25.53,5.31 C28.07,7.36 30.5,9.5 32.83,11.74 C32.48,12.23 32.02,12.55 31.43,12.71 C30.77,12.25 30.09,11.82 29.39,11.42 C28.44,11.83 27.51,12.3 26.6,12.82 C26.29,13.09 26.14,13.45 26.18,13.89 C26.74,15.52 26.21,16.27 24.57,16.14 C23.95,12.8 23.53,9.43 23.28,6.06 C23.65,5.65 24.04,5.29 24.46,4.98 L24.46,4.98 ZM25.32,7.99 C26.36,8.46 27.22,9.17 27.89,10.13 C27.34,10.66 26.7,11.01 25.96,11.21 C25.49,10.2 25.28,9.13 25.32,7.99 L25.32,7.99 Z" fill-rule="evenodd" style="fill:#FEE700;" />
			</g>
			<g transform="matrix(1, 0, 0, 1, -46.88165283203125, -43.49982452392578)">
				<path d="M17.16,10.78 C17.91,10.79 18.62,10.94 19.31,11.21 C19.34,12.6 18.7,13.1 17.38,12.71 C15.93,12.9 15.22,13.72 15.23,15.18 C15.2,15.85 15.37,16.46 15.77,17 C16.54,18.06 17.54,18.78 18.77,19.15 C20.75,18.74 21.43,17.56 20.81,15.6 C21.15,14.69 21.76,14.44 22.63,14.85 C23.49,18.21 22.2,20.29 18.77,21.08 C15.5,20.45 13.6,18.48 13.09,15.18 C13.54,12.83 14.9,11.36 17.16,10.78 L17.16,10.78 Z" fill-rule="evenodd" style="fill:#FEE700;" />
			</g>
			<g transform="matrix(1, 0, 0, 1, -46.88165283203125, -43.49982452392578)">
				<path d="M43.34,11.42 C43.5,11.19 43.72,11.15 43.98,11.31 C43.78,11.42 43.57,11.45 43.34,11.42 L43.34,11.42 Z" fill-rule="evenodd" opacity="0.53" style="fill:#E3716D;" />
			</g>
			<g transform="matrix(1, 0, 0, 1, -46.88165283203125, -43.49982452392578)">
				<path d="M44.63,11.42 C45.3,11.18 46.02,11.14 46.77,11.31 C46.06,11.42 45.35,11.46 44.63,11.42 L44.63,11.42 Z" fill-rule="evenodd" opacity="0.31" style="fill:#ED807D;" />
			</g>
			<g transform="matrix(1, 0, 0, 1, -46.88165283203125, -43.49982452392578)">
				<path d="M77.46,11.42 C78.49,11.53 79.14,12.1 79.39,13.14 C78.17,16.38 76.92,19.6 75.63,22.79 C74.07,22 73.82,20.89 74.88,19.47 C74.08,18.41 73.15,17.45 72.09,16.57 C71.45,16.86 70.81,17.14 70.16,17.43 C69.54,17.16 69.04,16.73 68.66,16.14 C71.58,14.5 74.51,12.93 77.46,11.42 L77.46,11.42 ZM76.39,14.21 C76.61,14.18 76.83,14.21 77.03,14.32 C76.72,15.4 76.22,16.36 75.53,17.21 C74.87,16.85 74.37,16.35 74.03,15.71 C74.72,15.05 75.5,14.55 76.39,14.21 L76.39,14.21 Z" fill-rule="evenodd" style="fill:#FEE700;" />
			</g>
			<g transform="matrix(1, 0, 0, 1, -46.88165283203125, -43.49982452392578)">
				<path d="M38.62,12.28 C38.71,12.06 38.85,12.02 39.05,12.17 C38.92,12.27 38.78,12.31 38.62,12.28 L38.62,12.28 Z" fill-rule="evenodd" opacity="0.06" style="fill:#DE7A7D;" />
			</g>
			<g transform="matrix(1, 0, 0, 1, -46.88165283203125, -43.49982452392578)">
				<path d="M38.62,12.28 C38.38,12.51 38.1,12.55 37.76,12.39 C38.04,12.28 38.33,12.25 38.62,12.28 L38.62,12.28 Z" fill-rule="evenodd" opacity="0.04" style="fill:#F8CAC7;" />
			</g>
			<g transform="matrix(1, 0, 0, 1, -46.88165283203125, -43.49982452392578)">
				<path d="M60.94,14 C61.22,14.14 61.22,14.14 60.94,14 L60.94,14 Z" fill-rule="evenodd" opacity="0.25" style="fill:#E2746F;" />
			</g>
			<g transform="matrix(1, 0, 0, 1, -46.88165283203125, -43.49982452392578)">
				<path d="M61.37,14.21 C61.65,14.35 61.65,14.35 61.37,14.21 L61.37,14.21 Z" fill-rule="evenodd" opacity="0.17" style="fill:#E76E67;" />
			</g>
			<g transform="matrix(1, 0, 0, 1, -46.88165283203125, -43.49982452392578)">
				<path d="M30.47,15.07 C30.75,15.21 30.75,15.21 30.47,15.07 L30.47,15.07 Z" fill-rule="evenodd" opacity="0.25" style="fill:#E67873;" />
			</g>
			<g transform="matrix(1, 0, 0, 1, -46.88165283203125, -43.49982452392578)">
				<path d="M16.3,24.94 C16.32,24.73 16.25,24.55 16.09,24.4 C13.6,22.7 11.24,20.84 9.01,18.82 C9.32,18.3 9.72,17.83 10.19,17.43 C12.77,19.26 15.27,21.19 17.7,23.22 C17.61,24.07 17.15,24.64 16.3,24.94 L16.3,24.94 Z" fill-rule="evenodd" style="fill:#FEE700;" />
			</g>
			<g transform="matrix(1, 0, 0, 1, -46.88165283203125, -43.49982452392578)">
				<path d="M83.9,18.07 C84.22,18.07 84.47,18.22 84.65,18.5 C85.25,19.72 85.97,20.86 86.79,21.93 C88.02,23.88 87.63,25.42 85.61,26.55 C84.82,26.62 84.07,26.66 83.36,26.66 C83.18,26.33 82.93,26.22 82.61,26.33 C82.06,27.46 81.67,28.64 81.43,29.87 C81.04,30.89 80.54,30.96 79.93,30.09 C79.75,29.68 79.65,29.25 79.6,28.8 C80.17,27.24 80.67,25.66 81.11,24.08 C80.83,23.37 80.33,23.12 79.6,23.33 C78.79,23.86 77.96,24.4 77.14,24.94 C76.3,24.5 76.05,23.86 76.39,23.01 C78.86,21.31 81.37,19.66 83.9,18.07 L83.9,18.07 ZM83.47,20.65 C84.49,21.32 85.21,22.25 85.61,23.44 C85.4,24.12 84.97,24.62 84.33,24.94 C83.04,24.27 82.25,23.31 81.96,22.04 C82.44,21.53 82.94,21.06 83.47,20.65 L83.47,20.65 Z" fill-rule="evenodd" style="fill:#FEE700;" />
			</g>
			<g transform="matrix(1, 0, 0, 1, -46.88165283203125, -43.49982452392578)">
				<path d="M67.8,18.29 C68.02,18.03 68.23,18.06 68.45,18.39 C68.22,18.5 68,18.46 67.8,18.29 L67.8,18.29 Z" fill-rule="evenodd" opacity="0.47" style="fill:#FEFDFD;" />
			</g>
			<g transform="matrix(1, 0, 0, 1, -46.88165283203125, -43.49982452392578)">
				<path d="M16.3,24.94 C15.94,25.86 15.54,26.79 15.12,27.73 C14.43,28.77 13.78,29.84 13.19,30.95 C13.07,31.06 12.93,31.13 12.76,31.16 C10.58,29.84 8.4,28.52 6.22,27.19 C4.48,26.49 4.34,25.59 5.79,24.51 C7.96,25.83 10.14,27.11 12.33,28.37 C13.36,27.32 14.19,26.11 14.8,24.72 C14.95,24.65 15.09,24.58 15.23,24.51 C15.59,24.66 15.95,24.8 16.3,24.94 L16.3,24.94 Z" fill-rule="evenodd" style="fill:#FEE700;" />
			</g>
			<g transform="matrix(1, 0, 0, 1, -46.88165283203125, -43.49982452392578)">
				<path d="M3.86,30.3 C5.32,30.14 6.39,30.71 7.08,32.02 C8.56,30.97 9.96,31.12 11.26,32.45 C11.5,32.93 11.68,33.43 11.8,33.95 C11.27,35.97 10.7,37.97 10.08,39.96 C9.28,39.95 8.5,39.84 7.72,39.64 C5.54,38.77 3.32,37.98 1.07,37.28 C0.93,37.13 0.78,36.99 0.64,36.85 C1.13,34.89 1.81,33 2.68,31.16 C3,30.74 3.39,30.45 3.86,30.3 L3.86,30.3 ZM4.29,32.23 C5.28,32.19 5.71,32.66 5.58,33.63 C5.56,34.44 5.34,35.19 4.93,35.88 C4.34,36.15 3.77,36.12 3.22,35.78 C3.09,35.58 3.02,35.37 3,35.13 C3.27,34.32 3.52,33.49 3.75,32.66 C3.97,32.54 4.14,32.4 4.29,32.23 L4.29,32.23 ZM7.94,33.31 C8.75,33.15 9.39,33.41 9.87,34.06 C9.72,34.9 9.54,35.79 9.33,36.74 C9.23,37.17 8.98,37.45 8.58,37.6 C8,37.44 7.43,37.26 6.86,37.06 C6.77,35.7 7.12,34.45 7.94,33.31 L7.94,33.31 Z" fill-rule="evenodd" style="fill:#FEE700;" />
			</g>
			<g transform="matrix(1, 0, 0, 1, -46.88165283203125, -43.49982452392578)">
				<path d="M81.54,30.52 C84.61,30.6 87.69,30.71 90.76,30.84 C91.5,31.41 91.75,32.16 91.51,33.09 C88.98,35.36 86.4,37.58 83.79,39.74 C83.51,39.22 83.26,38.68 83.04,38.14 C83.54,37.42 84.11,36.78 84.75,36.2 C84.4,34.82 83.8,33.57 82.93,32.45 C82.84,32.55 82.73,32.62 82.61,32.66 C80.96,32.51 80.6,31.8 81.54,30.52 L81.54,30.52 ZM85.61,32.66 C86.62,32.59 87.63,32.67 88.62,32.88 C87.98,33.87 87.13,34.52 86.04,34.81 C85.92,34.17 85.7,33.56 85.4,32.99 C85.52,32.9 85.59,32.8 85.61,32.66 L85.61,32.66 Z" fill-rule="evenodd" style="fill:#FEE700;" />
			</g>
			<g transform="matrix(1, 0, 0, 1, -46.88165283203125, -43.49982452392578)">
				<path d="M87.76,39.74 C91.72,39.22 93.87,40.94 94.2,44.89 C94.25,46.38 93.68,47.56 92.48,48.43 C92.13,48.54 91.77,48.58 91.41,48.54 C90.94,47.47 91.19,46.61 92.16,45.97 C92.62,42.57 91.15,41.25 87.76,42 C86.42,42.34 85.7,43.2 85.61,44.57 C85.79,45.25 85.97,45.93 86.15,46.61 C86.83,47.5 87.44,47.47 87.97,46.5 C87.56,45.62 87.81,45.01 88.72,44.68 C88.91,44.73 89.09,44.8 89.26,44.89 C89.55,46.17 89.66,47.46 89.58,48.76 C89.35,48.91 89.1,49.01 88.83,49.08 C87.76,49.22 86.69,49.22 85.61,49.08 C83.49,46.4 83.42,43.68 85.4,40.92 C86.2,40.52 86.99,40.13 87.76,39.74 L87.76,39.74 Z" fill-rule="evenodd" style="fill:#FEE700;" />
			</g>
			<g transform="matrix(1, 0, 0, 1, -46.88165283203125, -43.49982452392578)">
				<path d="M-0,41.03 C2.67,41.03 5.32,41.28 7.94,41.78 C9.24,42.54 9.82,43.68 9.65,45.22 C9.83,47.12 9.08,48.52 7.4,49.4 C4.89,49.39 2.36,49.21 -0.22,48.86 C-0.5,48.29 -0.5,47.72 -0.22,47.15 C2.21,47.19 4.64,47.19 7.08,47.15 C7.79,46.76 8.08,46.15 7.94,45.32 C8.14,44.41 7.78,43.88 6.86,43.71 C4.56,43.45 2.28,43.16 -0,42.86 C-0.17,42.27 -0.17,41.66 -0,41.03 L-0,41.03 Z" fill-rule="evenodd" style="fill:#FEE700;" />
			</g>
			<g transform="matrix(1, 0, 0, 1, -46.88165283203125, -43.49982452392578)">
				<path d="M11.15,45.32 C11.44,45.47 11.44,45.47 11.15,45.32 L11.15,45.32 Z" fill-rule="evenodd" opacity="0.02" style="fill:#BE807F;" />
			</g>
			<g transform="matrix(1, 0, 0, 1, -46.88165283203125, -43.49982452392578)">
				<path d="M85.83,51.33 C88.49,51.64 91.14,52.07 93.77,52.62 C94.21,54.25 93.64,54.86 92.05,54.44 C90.35,54.03 88.64,53.71 86.9,53.48 C85.64,53.56 84.99,54.24 84.97,55.52 C85.06,56.08 85.27,56.58 85.61,57.02 C87.83,57.54 90.04,58.04 92.26,58.52 C92.52,58.61 92.73,58.75 92.91,58.95 C92.77,59.38 92.62,59.81 92.48,60.24 C91.84,60.38 91.19,60.38 90.55,60.24 C88.8,59.83 87.05,59.43 85.29,59.06 C83.89,58.51 83.21,57.47 83.25,55.95 C83.26,53.88 84.12,52.34 85.83,51.33 L85.83,51.33 Z" fill-rule="evenodd" style="fill:#FEE700;" />
			</g>
			<g transform="matrix(1, 0, 0, 1, -46.88165283203125, -43.49982452392578)">
				<path d="M2.36,51.98 C3.73,51.75 4.84,52.18 5.68,53.26 C6.16,54.42 6.55,55.6 6.86,56.8 C8,56.66 9.14,56.59 10.3,56.59 C10.5,57.17 10.57,57.78 10.51,58.41 C7.37,59.02 4.22,59.56 1.07,60.02 C0.63,58.32 0.27,56.6 -0,54.87 C0.2,53.42 0.99,52.45 2.36,51.98 L2.36,51.98 ZM2.57,54.12 C3.91,53.92 4.66,54.49 4.82,55.84 C4.99,56.4 4.95,56.93 4.72,57.45 C3.89,57.74 3.07,57.77 2.25,57.55 C1.72,56.33 1.83,55.18 2.57,54.12 L2.57,54.12 Z" fill-rule="evenodd" style="fill:#FEE700;" />
			</g>
			<g transform="matrix(1, 0, 0, 1, -46.88165283203125, -43.49982452392578)">
				<path d="M10.08,59.49 C10.56,59.42 10.95,59.56 11.26,59.91 C11.98,61.63 12.69,63.35 13.41,65.06 C13.62,65.48 13.69,65.91 13.62,66.35 C10.87,67.78 8.04,69.07 5.15,70.21 C5,70.14 4.86,70.07 4.72,70 C4.17,68.61 3.56,67.26 2.89,65.92 C2.58,65.14 2.37,64.35 2.25,63.56 C2.75,63 3.25,62.93 3.75,63.35 C4.14,64.44 4.57,65.51 5.04,66.57 C5.75,67.91 6.58,67.94 7.51,66.67 C6.89,65.33 6.32,63.97 5.79,62.6 C6.16,61.91 6.69,61.73 7.4,62.06 C7.97,63.41 8.57,64.73 9.22,66.03 C9.89,65.91 10.53,65.66 11.15,65.28 C11.39,65.02 11.43,64.73 11.26,64.42 C10.8,63.25 10.3,62.11 9.76,60.99 C9.59,60.41 9.69,59.91 10.08,59.49 L10.08,59.49 Z" fill-rule="evenodd" style="fill:#FEE700;" />
			</g>
			<g transform="matrix(1, 0, 0, 1, -46.88165283203125, -43.49982452392578)">
				<path d="M82.82,59.49 C83.05,59.45 83.26,59.49 83.47,59.59 C85.57,61.98 87.76,64.3 90.01,66.57 C90.04,67.4 89.79,68.15 89.26,68.82 C86.29,68.77 83.32,68.6 80.36,68.28 C78.67,68.3 78.49,67.69 79.82,66.46 C80.62,66.42 81.4,66.31 82.18,66.14 C82.57,65.35 82.97,64.56 83.36,63.78 C83.5,63.35 83.5,62.92 83.36,62.49 C82.03,61.67 81.85,60.67 82.82,59.49 L82.82,59.49 ZM84.75,64.42 C85.79,64.88 86.65,65.6 87.33,66.57 C86.34,66.82 85.33,66.85 84.33,66.67 C84.2,66.48 84.13,66.27 84.11,66.03 C84.35,65.51 84.56,64.97 84.75,64.42 L84.75,64.42 Z" fill-rule="evenodd" style="fill:#FEE700;" />
			</g>
			<g transform="matrix(1, 0, 0, 1, -46.88165283203125, -43.49982452392578)">
				<path d="M77.03,65.92 C77.32,66.07 77.32,66.07 77.03,65.92 L77.03,65.92 Z" fill-rule="evenodd" opacity="0.06" style="fill:#ED6665;" />
			</g>
			<g transform="matrix(1, 0, 0, 1, -46.88165283203125, -43.49982452392578)">
				<path d="M13.73,67.21 C14.68,67.37 15.18,67.94 15.23,68.93 C14.78,70.31 14.35,71.71 13.94,73.11 C14.02,73.79 14.34,74.33 14.91,74.72 C15.97,73.96 17,73.17 18.02,72.36 C19.14,72.99 19.28,73.74 18.45,74.61 C16.12,76.37 13.8,78.12 11.48,79.87 C10.06,78.32 8.84,76.61 7.83,74.72 C7.61,72.65 8.54,71.43 10.62,71.07 C11.19,71.2 11.72,71.41 12.23,71.72 C12.7,70.2 13.2,68.7 13.73,67.21 L13.73,67.21 ZM10.73,73 C11.98,73.5 12.84,74.4 13.3,75.69 C12.6,77.18 11.7,77.35 10.62,76.22 C10.33,75.79 10.05,75.36 9.76,74.94 C9.52,73.98 9.85,73.33 10.73,73 L10.73,73 Z" fill-rule="evenodd" style="fill:#FEE700;" />
			</g>
			<g transform="matrix(1, 0, 0, 1, -46.88165283203125, -43.49982452392578)">
				<path d="M77.46,69.79 C78.67,70.53 79.89,71.29 81.11,72.04 C83.16,72.17 85.2,72.35 87.22,72.57 C87.37,72.79 87.37,73 87.22,73.22 C86.89,73.75 86.46,74.18 85.93,74.51 C84.95,74.32 83.95,74.18 82.93,74.08 C82.56,74.07 82.24,74.17 81.97,74.4 C82.49,75.64 82.99,76.89 83.47,78.15 C83.29,78.83 82.93,79.41 82.39,79.87 C81.97,79.45 81.65,78.95 81.43,78.37 C80.82,76.88 80.25,75.38 79.71,73.86 C78.7,73.11 77.7,72.33 76.71,71.5 C76.66,70.81 76.91,70.24 77.46,69.79 L77.46,69.79 Z" fill-rule="evenodd" style="fill:#FEE700;" />
			</g>
		</g>
	</g>
</svg>