<svg xmlns="http://www.w3.org/2000/svg" version="1" width="900" height="600"><path fill="#e20212" d="M0 0h300v600H0z"/><path fill="#f9d302" d="M300 0h600v600H300z"/><path fill="#319000" d="M600 0h300v600H600z"/><path d="M552.013 469.998H507.09l-67.385-147.133h-48.667v147.133h-43.051V130.002h93.59c29.948 0 54.282 7.953 73 23.86 18.718 14.58 28.077 39.102 28.077 73.566 0 26.51-6.24 47.056-18.718 61.636-12.479 14.581-26.83 23.86-43.051 27.836l71.128 153.098m-52.41-242.57c0-18.557-5.616-33.138-16.847-43.742-9.983-10.604-26.829-15.906-50.538-15.907h-41.18v117.309h52.41c14.975 0 28.077-3.977 39.308-11.93 11.231-9.278 16.846-24.522 16.847-45.73" style="line-height:125%;text-align:start" font-weight="400" font-size="246.933" font-family="SimHei"/></svg>
