<svg height="500" width="1000" xmlns="http://www.w3.org/2000/svg"><title>Flag of Saint Helena (1874–1985)</title><path d="m0 0h999.99996v499.99998h-999.99996z" fill="#012169"/><path d="m0-.000008h500v250h-500z" fill="#006" fill-rule="evenodd"/><g transform="translate(0 -.000064)"><path d="m0 0h500v250h-500z" fill="#012169" fill-rule="evenodd"/><g transform="matrix(8.333338 0 0 8.333343 0 -.000226)"><path d="m0 0v3.3541l53.2918 26.6459h6.7082v-3.3541l-53.2918-26.6459zm60 0v3.35405l-53.2918 26.64595h-6.7082v-3.3542l53.2918-26.6458z" fill="#fff"/><path d="m25 0v30h10v-30zm-25 10v10h60v-10z" fill="#fff"/><g fill="#c8102e"><path d="m0 12v6h60v-6zm27-12v30h6v-30z"/><path d="m0 30 20-10h4.4721l-19.99996 10zm0-30 20 10h-4.4721l-15.5279-7.76393zm35.5279 10 20-10h4.4721l-20 10zm24.4721 20-20-10h4.4721l15.5279 7.7639z"/></g></g></g><g transform="matrix(1.16025041 0 0 1.16025041 544.102953 -258.045982)"><g transform="matrix(3.7284705 0 0 3.8276429 -1221.704187 -2081.118544)"><path d="m397.00177 639.99186c1.95367 29.57747 2.44284 35.35543-21.23108 42.17814-21.142-8.381-25.58536 1.29409-23.63169-41.399l22.43139-3.50615z" fill="#8fc5ff"/><path d="m375.904 683.079c15.84965-2.63028 24.68482-12.34986 21.59954-16.36372-.516.02-4.39654.24872-4.86354.21672-.52-.034-20.271-2.018-22.61-2.876-2.035-.746-9.799.634-13.423 1.929-10.61672 5.47371 3.10467 12.97614 19.297 17.094z" fill="#366cc9"/><path d="m354.86335 673.34357c.323-.105 7.20565-.46957 7.44865-.42557.286.052.338.078.442-.234s.338-.234.52-.078.649.078.831-.182c.182-.259.234-.233.416-.052.182.182.26.13.442.078.182-.051.494-.259.65-.545s.389-.39.519-.234.26.234.442.208.234.156.208.389c-.026.234.078.286.52-.077.39.389.519.233.519-.182 0-.416-.103-1.949-.259-2.157s-.312-.806-.338-1.274c-.049-.883-.052-.935-1.118-1.481 0-.312-.078-.442-.831-.39.026-.104-.104-.416-.26-.546s-.182-.182-.104-.545c.312.026.65-.026.832-.286.181-.26.779-.208 1.143-.052s.832.182 1.533.078c.26-.208.702-.442 1.17-.702.467-.26.597-.364.623-.728.067-.933-.26-2.001-.52-2.494-.259-.494-.337-1.118-.701-1.898-.396-.849-.39-1.065-.832-1.585-.121-.143-.26-.26-.286-.545-.026-.286-.13-.676-.441-.962-.786-.721-1.092-3.041-1.404-4.756-.179-.983-.052-3.3-.467-3.664-.702-.572-1.04-.468-1.508-.65-.338-.468-.493-1.403-.805-2.235-.494.078-.832.598-1.17.78s-.39.182-.39.65c0 .467-.26 1.117-.727 1.845-.468.727-1.248.52-1.897 1.611-1.43-1.741-1.456-2.235-1.56-2.729-.104-.493-.338-.597-1.143-1.299 0-.208-.104-1.039-.026-1.507-.598-.494-1.04-.416-1.325-.052-.286.364-.494.909-.936 1.117-.265.337-1.064 1.187-1.718 2.199.595 9.044-3.62965 18.41157 2.50735 25.59157z" fill="#5d3100"/><g fill="#cf6200"><path d="m353.424 647.892c.26.416.728 1.131.78 1.52.182-.377.325-.545.364-.779s.312-.689.208-.936-.182-.442.104-.26c.285.182.23.497.168.962-.168 1.273-.701 1.533-.779 2.391.767 1.806.195 2.456 1.026 4.223.13.078.477-.061.581-.035.441-.312.771-.199 1.394-.069.624.13.962.571.962.961s0 .494.13.728.39.598.338.858c-.052.259.052.415.13.545s-.026.416-.104.598-.052.416.26.806c.312.389 1.039 2.027 1.039 2.988 0 .962.052 1.404.442 1.585.39.182.52.338.468.754s.182 2.573.234 2.911.182.26.338.442c.155.181.259.389.779.389s1.022-.069 1.36-.017c.468.65.754 1.533.858 2.079s.095 1.291.277 1.291.364.026.312-.65-.104-.78-.338-1.117c-.234-.338-.364-.494-.234-.702s.156-.546.104-.806-.13-.649.312-.13c.442.52.572.65.702.832s.181.52.156.832c-.026.311.025.441.207.285.182-.155.416.104.312.442s.026.546.338.65.442.182.52.416.338.337.338-.13c0-.468-.182-1.456-.312-1.767-.13-.312-.234-.988-.26-1.378s-.104-.493-.286-.571-.338-.208-.364-.39-.182-.247-.299-.247-.22-.091-.285-.221-.13-.143-.26-.156-.338.065-.403-.143-.156-.507-.286-.676-.247-.221-.26-.805c-.013-.585-.026-.663-.208-.871s-.494-.753-.624-.987c-.129-.234-.259-.468-.259.026 0 .493 0 .753.311.935.312.182.39.182.26.442s0 .442.052.624.156.364 0 .545c-.156.182-.312.13-.286-.155.026-.286-.078-.624-.207-.858-.13-.234-.234-.39-.39-.26s-.286-.026-.182-.13.078-.182 0-.26-.104-.156.026-.312.13-.234.052-.597c-.078-.364-.65-2.183-.91-2.599s-.234-.728.104-.312.624.78.65 1.117c.026.338.104.546.208.676s.182.078.234-.208.26-.182-.104-.727c-.364-.546-1.04-1.456-1.3-3.093s-.364-2.729-.624-3.17c-.259-.442-.337-.546-.363-.962s0-.832-.182-1.143c-.182-.312-.312-.364-.338.104-.026.467.026 1.507.156 1.689s.052.649.026.909-.435.517.416 1.04c.338.208.285.494.234.676-.052.181-.104.155-.286-.13-.182-.286-.364-.52-.546-.676s-.208-.26-.182-.624.104-.624 0-.753c-.104-.13-.156-.026-.208.181-.052.208-.104.78-.208.936s-.156.052-.234-.286.026-.857.208-1.455.286-1.222.13-2.001c-.156-.78-.078-1.014-.676-1.663-.597-.65-1.273-1.274-1.559-2.079-.286-.806-.338-1.508-.65-1.872-.311-.363-.753-.831-1.039-.961 0-.624 0-.91 0-1.195 0-.286-.13-.468-.468-.416s-.546.338-.753.727c-.208.39-.364.208-.65.884s-.702 1.013-.702 1.741z"/><path d="m355.295 655.506c.208.13.407.217.719.061s.685-.606 1.101-.164c.415.441.649 1.169.649 1.741 0 .571 0 1.637.65 2.235.65.597.987 1.221 1.013 2.001.026.779.312 1.975.39 2.287.078.311.26.675.468.883s.364.806.39 1.429c.026.624-.078 1.066 0 1.378s0 .572-.234.416-.286-.234-.416-.494-.286-.208-.156.182.52.753.858.753.442.052.65.26c.207.208.233.312.597.312s.416 0 .754.104.338.052.52 0 .363.104.493.442.442 1.273.442 1.533 0 .52.182.78.13.52-.078.364-.208-.104-.364-.078-.26-.052-.467-.182c-.208-.13-.078-.104-.286-.416s-.338-.416-.338-.182-.026.52-.182.39-.234-.13-.364 0-.182.234-.338-.026-.338-.26-.494-.312-.156-.052-.233-.286c-.078-.234-.312-.286-.52-.286s-.312-.104-.338-.26c-.026-.155-.156-.259-.26-.337s-.052-.26-.078-.442-.182-.104-.286-.156-.182-.026-.182-.286-.104-.338-.182-.52c-.077-.182 0-.364.052-.571.052-.208.026-.338-.129-.52-.156-.182-.026-.364-.442-.728s-.624-.052-.754-.909c-.13-.858-.39-2.625-.624-2.911s-.389-.494-.623-.572-.39-.026-.416-.52c-.026-.493-.182-1.117-.494-1.429s-.442-.416-.598-.546-.208-.364 0-.805c.208-.442.13-1.04.104-1.326-.026-.285-.104-.649-.052-.961s.026-.702-.052-.91-.182-.26-.052-.416z"/><path d="m361.558 648.117c-.352.453-.727.832-1.212 1.178-.485.347-1.109.624-.763 1.213.347.589.624.659.693 1.109.07.45.174.832.52.936.347.103.485.034.485.762s0 1.005.312 1.282.277.554.416 1.213c.138.658.138 2.079.554 3.049s1.352 2.807 1.248 3.188-.243.658.173 1.108c.416.451.693 1.109.728 1.49.034.382.104.52.519.382.416-.139.624-.278.763-.451.138-.173.415-.138.797.069.381.208.97.416 1.316.208.347-.208.52-.519.832-.519.485-.347.658-1.075.762-1.282.104-.208.035-.208-.173-.416s-.104-.555-.139-.901c-.034-.347-.173-.866-.589-1.629-.415-.762-.658-1.698-.935-1.94-.277-.243-.416-.832-.451-1.109-.034-.277-.346-.52-.554-.728-.208-.207-.416-.519-.658-1.732-.243-1.213-.416-2.079-.416-2.287s-.035-.243-.243-.312-.312-.416-.242-.589c.069-.173-.07-.346-.139-.554s0-.589.139-.797c.138-.208.104-.797-.035-1.282s-.277-.901-.832-.971c-.554-.069-.658-.207-.866-.658-.208-.45-.416-1.247-.485-1.421-.069-.173-.173-.208-.589.139-.416.346-.554.461-.554 1.109 0 .416.069.554.207.797.139.242.174.312.278.97s.693 1.698-.07 2.287c-.762.589-.658.728-.623 1.143.034.416-.208.693-.347.104-.138-.589 0-.935.416-1.212.416-.278.797-.624.52-1.005-.278-.381-.381-1.282-.416-1.698s-.104-.555-.347-.243z"/></g><g fill="#00b800"><path d="m355.385 656.952c-.019.282.044.592.066.841.026.286.104.884-.104 1.326-.208.441-.156.675 0 .805.009.007.017.014.025.021.424-.142.479-.615.365-.844-.121-.242-.086-.537.052-.779.139-.243.139-.381.018-.555-.122-.173-.122-.173.017-.658.122-.427-.186-.424-.439-.157z"/><path d="m359.817 663.667c-.078-.312-.364-1.508-.39-2.287-.026-.78-.363-1.404-1.013-2.001-.507-.467-.618-1.217-.642-1.796-.381-.233-.542-.127-.51.306.034.467.502.693.433 1.368-.069.676-.069.503.26.832s.45.641.277.78c-.173.138-.191.381.052.467.242.087.26.347.225.589-.035.243.191.295.329.468.139.173.156.589.018.832-.139.242-.156.623.086.416.243-.208.347-.018.537.311.165.284.303.195.482.109-.062-.131-.112-.267-.144-.394z"/><path d="m363.196 669.722c-.156.312-.338.208-.494.052s-.338-.156-.26-.442.052-.338-.156-.494c-.024-.018-.048-.034-.072-.05-.065-.002-.141-.002-.24-.002-.364 0-.39-.104-.597-.312-.047-.046-.088-.084-.128-.116-.004.05-.002.116-.002.194 0 .286 0 .234-.286.312s-.234-.286-.286-.52c-.014-.06-.03-.104-.045-.14-.313-.06-.643-.39-.761-.743-.13-.39.026-.442.156-.182s.182.338.416.494.312-.104.234-.416c-.025-.1-.031-.216-.028-.345-.056-.101-.132-.183-.232-.227-.416-.182-.286-.234-.26-.572.026-.337-.052-.337-.312-.156-.26.182-.286-.026-.286-.545 0-.52-.338-.52-.415-.156-.078.364-.208.13-.364-.39s-.364-.65-.39-.156c-.022.418-.138.518-.41.286.048.302.09.584.124.806.13.857.338.545.754.909s.286.546.442.728c.155.182.181.312.129.52-.052.207-.129.389-.052.571.078.182.182.26.182.52s.078.234.182.286c.065.032.149.014.21.04.067-.088.128-.196.206-.274.312-.312.78.026.936.416s.337.494.571.182.156-.26.416.026.364.234.364.234.26-.104.442.052.286.13.623-.364c.338-.494-.155-.338-.311-.026z"/><path d="m364.123 655.463c.103-.762.034-1.524.346-1.802.312-.277.693-.831.658.347-.034 1.178-.069 1.109-.311 1.386-.243.277-.451.346-.208.797.242.45.277.485.242 1.178-.034.693-.034.97.243 1.317.277.346.346.381.416.762.069.381.311.901.623 1.178s.659 1.074.693 1.629c.035.554.52.693.97 1.074.451.381-.103.658-.45.485-.346-.173-.208 0-.416.242-.208.243-.277.278-.45-.138s-.763-.693-1.04-.797-.519-.555-.762-1.005c-.208-.387-.62-.67-.996-.699.104.292.16.521.13.63-.104.381-.243.658.173 1.108.416.451.693 1.109.728 1.49.034.382.104.52.519.382.416-.139.624-.278.763-.451.138-.173.415-.138.797.069.381.208.97.416 1.316.208.347-.208.52-.519.832-.519.485-.347.658-1.075.762-1.282.104-.208.035-.208-.173-.416s-.104-.555-.139-.901c-.034-.347-.173-.866-.589-1.629-.415-.762-.658-1.698-.935-1.94-.277-.243-.416-.832-.451-1.109-.034-.277-.346-.52-.554-.728-.208-.207-.416-.519-.658-1.732-.19-.948-.337-1.683-.392-2.059-.249.397-.419.494-.509.222-.104-.311-.243-.485-.381-.277-.139.208-.174-.173-.174-.346 0-.174-.034-.208-.208-.208-.173 0-.034-.277-.104-.797-.069-.52-.173-.589-.242.035-.069.623-.416 1.004-.277 1.143.138.139.069.416-.07.832-.138.415-.069.658.035.935s-.069.797-.139 1.248c-.069.45.278.9.382.138z"/><path d="m357.79 649.235c-.257.019-.433.244-.286 1.031.092.487-.277.381-.415.138-.139-.242-.243-.762-.52-1.213-.278-.45-.139.312-.173.728-.035.416.242.416.485.762.242.347.034.486-.243.486s-.138.554-.069.935-.069.451-.278.139c-.207-.312-.069-.797-.034-1.386.034-.589.069-.451-.312-.589-.381-.139-.312-.208-.173-.555.138-.346.277-.52.104-.693-.174-.173-.139-.277.138-.312.277-.034.174-.242.416-.312.243-.069.347.035.381-.415.029-.376.155-.607.437-.493.17.579.391 1.48.542 1.749z"/><path d="m361.281 653.315c0 .728 0 1.005.312 1.282s.277.554.416 1.213c.138.658.138 2.079.554 3.049.124.289.295.656.47 1.038.23-.181.43-.492.501-.657.103-.243-.208-.728-.451-1.143-.242-.416.035-.555.277-1.075.243-.519-.034-.554-.415-.693-.382-.138-.382-.485-.59-1.039s-.173-.797-.034-1.109c.138-.312.034-.554-.243-.624-.277-.069-.208-.277-.104-.623.104-.347.173-.416-.242-.312-.315.078-.391.137-.485.251.023.1.034.239.034.442z"/></g><path d="m365.266 654.77c-.038.416-.035.624-.139.762-.103.139-.034.347.07.555s.173.485.069.866.069.693.277.797.312 0 .243.485c-.07.485.208 1.005.45 1.213.243.208.416.554.381.762-.034.208.174.416.416.52.243.104.208.139.208.277 0 .139.104.139.381.208s.485.243.797.624.762.589.693.173 0-.693-.416-.901c-.415-.208-.727-1.213-.901-1.906-.173-.693-.727-1.628-1.039-1.801-.035-.486.035-.728-.277-.971-.312-.242-.416-.554-.416-.797 0-.242-.173-.554-.312-.623-.138-.07-.208-.243-.208-.451s-.242-.173-.277.208z" fill="#5d3100"/><g stroke="#000" stroke-width=".125"><g fill="#ff0"><path d="m373.356 664.193c-.017-1.966-.207-18.422-.207-22.226 0-.91-.468-.728-.468 0v22.122c.215.039.505.078.675.104z"/><path d="m380.587 640.771.812 23.461-.142.188-.471.007-.513-23.656z"/><path d="m387.43 660.581c-.066-2.389-.366-13.448-.482-18.9-.015-.727-.448-.6-.441.026.047 4.391.308 16.672.356 18.887.17 0 .463-.017.567-.013z"/></g><g fill="#fff"><path d="m376.605 644.67-6.913-.104c-.389 1.403 1.352 1.377 2.002 1.013.753.572 1.325.52 1.741.052.598.494 1.351.364 1.663.052.832.624 1.689 0 1.507-1.013z"/><path d="m377.125 648.152-7.069-.026c-1.221 1.169.364 1.741 1.716.935.182.39 1.013.624 1.663.312.598.468 1.351.13 1.741-.26.728.338 1.585.442 1.949-.961z"/><path d="m376.917 652.57-6.809-.052c-.13 1.221 1.248 1.065 1.793.754.52.805 1.664.623 2.106.155.649.442 1.247.338 1.585-.078.754.65 1.377-.181 1.325-.779z"/><path d="m377.255 656.988-7.614-.13c-.416 1.299.753 1.533 1.299 1.221.182.754 1.195.494 1.455-.052.39.39.884.182 1.118-.078.104.702.987.728 1.663.13 1.377.962 2.677-.156 2.079-1.091z"/><path d="m384.012 655.169-6.341-.052c.286 1.299.909 1.637 1.923.883.754.78 2.001.494 2.313.104 1.377 1.118 2.131-.182 2.105-.935z"/><path d="m383.362 650.829-6.133-.182c.104 1.559 1.585 1.507 2.339.831.572.728 1.585.52 1.949 0 .78.78 2.053.312 1.845-.649z"/><path d="m384.168 645.943h-6.601c.078 1.091 1.533 1.715 2.651.676.311 1.247 1.507.857 2.027.363.753.962 2.494-.129 1.923-1.039z"/><path d="m383.778 642.617-5.899.078c-.104.961 1.299 1.377 1.819.597.286.494 1.273.442 1.559-.026.468.728 1.04.234 1.221 0 .676.494 1.404.26 1.3-.649z"/><path d="m390.691 644.774-7.225-.078c-.026.753.754 1.065 1.221.753 0 .728 1.014.962 1.664.39.442.624 1.741.806 2.261-.052 1.065.884 2.209.26 2.079-1.013z"/><path d="m390.587 650.699-7.069-.026c.052.987 1.195 1.325 1.845.805.156.832 1.04.884 1.559.468.624.702 1.664.754 2.235-.026.858.312 1.508-.416 1.43-1.221z"/><path d="m390.223 656.026-5.588-.078c0 .988 1.17 1.118 1.69.598.545.65 1.377.65 1.845.13.753.65 1.897.468 2.053-.65z"/></g><path d="m381.257 664.42c-3.014.052-6.081.052-8.16-.26s-2.734-.604-4.158-1.455c-2.131-1.273-2.651-1.585-5.665-3.352-.462-.271-.963.065-.312.493 3.04 2.001 4.192 2.743 5.639 3.691 1.507.987 2.479 1.864 3.404 2.91 1.196 1.352 2.079 1.378 2.625 1.17s1.404-.494 2.261-.286c.858.208 2.001.234 2.599.13.546.494 1.793.39 2.495.234.701-.156 1.221-.234 1.715-.13s1.247.026 1.741-.052 1.793-.208 2.703-.078c.909.13 1.845.052 2.443-.13.597-.182 1.689-.13 2.053-.026.519-.39.779-.884.909-1.403.611-.078.814-.154.949-.507.247-.65.48-1.287.559-1.572h.246l.078-.585-.506-.585.182-1.117.545-.13c.026-.338-.13-.858-.234-1.066-3.274.13-6.484.234-8.783.286-.26.208-.546.754-.598 1.092-1.403.233-2.235.337-2.599.415s-.567.107-.857.494c-.468.624-.91 1.351-1.274 1.819z"/><path d="m391.779 660.45c.159-.551.584-2.035 1.354-4.84.129-.468-.325-.653-.493-.052-.916 3.275-1.262 4.503-1.378 4.912.176-.003.428-.022.517-.02z"/><path d="m396.85 654.961c-1.105.571-1.638.792-2.144.597-.466-.179-1.151-.28-1.552-.083-.001.042-.007.087-.021.135-.474 1.727-.817 2.952-1.048 3.768.818.289 2.227.328 2.556-.025.337-.364 1.26-.286 1.728-.26.299-.39.416-.871.338-1.105s-.052-.649.065-.974.273-1.378.078-2.053z" fill="#fff"/><g fill="none"><path d="m371.694 645.579c-1.222 3.534-5.458 11.461-8.014 14.014"/><path d="m365.642 660.746c2.901-2.244 10.236-9.528 11.483-12.594"/><path d="m370.108 652.518c-.337 2.677-1.11 7.452-1.526 9.973"/><path d="m371.245 658.485c-.987.962-2.387 2.641-3.427 3.551"/><path d="m380.542 653.142c-.831.805-1.78 1.744-2.611 1.978"/><path d="m381.02 653.272c.731.779 1.77 1.659 2.628 1.893"/><path d="m380.451 648.958c-.753.649-1.871 1.413-2.884 1.699"/><path d="m380.877 649.113c.65.546 1.342 1.342 2.173 1.706"/><path d="m377.723 645.943c.805-.234 2.004-.858 2.628-1.507"/><path d="m380.708 644.306c.705.805 2.056 1.455 2.732 1.637"/><path d="m377.879 642.695c.831-.182 1.861-.624 2.407-1.404"/><path d="m380.598 641.083c.701.598 1.933 1.462 2.738 1.54"/><path d="m386.529 643.409c-.451.468-1.556 1.309-2.257 1.296"/><path d="m386.987 643.37c.325.52 1.144 1.316 1.612 1.381"/><path d="m383.804 650.673c.909-.312 2.183-1.056 2.82-1.823"/><path d="m387.124 648.906c.266.48 1.28 1.565 1.852 1.786"/><path d="m384.882 655.951c.416-.09 1.547-.652 1.858-1.315"/><path d="m387.26 654.272c.429.533 1.481 1.507 2.131 1.741"/><path d="m370.576 656.874c1.273-.403 3.846-1.965 5.12-3.447"/><path d="m373.263 655.299c1.065.753 2.303 1.507 3.251 1.676"/><path d="m370.342 652.521c.702-.299 1.624-.809 2.339-1.549"/><path d="m373.217 650.868c.286.402 2.388 1.686 3.284 1.699"/><path d="m372.681 646.723c-.546.441-1.858 1.234-2.495 1.403"/><path d="m373.178 646.749c.728.506 2.167 1.4 3.154 1.4"/><path d="m372.681 642.656c-.585.662-1.572 1.685-2.391 1.919"/><path d="m373.152 642.811c.455.728 1.673 1.712 2.466 1.842"/><path d="m383.671 647.184c1.822 3.359 5.201 7.465 8.618 9.622"/><path d="m378.204 643.461c2.767 3.976 8.199 12.695 13.367 15.914"/><path d="m392.523 655.974c-.832 1.157-2.326 2.963-4.795 4.607"/><path d="m392.214 657.072c-1.741-2.78-2.641-6.295-3.943-10.924"/><path d="m374.149 658.508 2.144 5.899"/><path d="m373.751 658.37 1.896 6.017"/><path d="m373.343 658.092 1.76 6.262"/><path d="m373.165 658.189 1.359 6.128"/><path d="m374.474 664.095h1.699"/><path d="m375.946 663.455h-1.602"/><path d="m375.77 662.962h-1.546"/><path d="m375.589 662.461h-1.475"/><path d="m375.394 661.916h-1.404"/><path d="m373.886 661.445h1.332"/><path d="m373.789 661.003h1.264"/><path d="m373.682 660.522h1.202"/><path d="m373.587 660.093h1.134"/><path d="m373.487 659.648h1.078"/><path d="m373.399 659.239h1.02"/><path d="m373.298 658.859h.991"/><path d="m373.243 658.537h.923"/><path d="m371.571 658.546-1.208 4.932"/><path d="m371.924 658.463-1.037 5.21"/><path d="m372.202 658.274-.839 5.549"/><path d="m372.555 658.157-.609 5.803"/><path d="m372.681 663.628h-1.923"/><path d="m372.681 663.095h-2.225"/><path d="m372.681 662.549h-2.095"/><path d="m372.681 662.029h-1.965"/><path d="m372.681 661.497h-1.838"/><path d="m372.681 660.912h-1.692"/><path d="m372.681 660.405h-1.569"/><path d="m372.681 659.885h-1.436"/><path d="m372.681 659.379h-1.316"/><path d="m372.681 658.937h-1.212"/><path d="m372.681 658.586h-1.121"/><path d="m372.681 664.089v-5.88"/><path d="m379.147 656.272-4.029 8.08"/><path d="m379.401 656.136-3.43 8.254"/><path d="m379.647 656.053-2.721 8.383"/><path d="m379.824 656.195-2.116 8.238"/><path d="m377.801 664.056h-2.534"/><path d="m377.996 663.316h-2.359"/><path d="m378.113 662.718h-2.17"/><path d="m378.317 662.068h-2.053"/><path d="m378.421 661.549h-1.897"/><path d="m378.603 660.951h-1.787"/><path d="m378.782 660.253h-1.618"/><path d="m378.918 659.72h-1.488"/><path d="m379.074 659.112h-1.348"/><path d="m379.181 658.696h-1.247"/><path d="m379.282 658.307h-1.143"/><path d="m379.383 657.91h-1.053"/><path d="m379.474 657.56h-.968"/><path d="m379.565 657.209h-.887"/><path d="m379.656 656.848h-.8"/><path d="m379.74 656.523h-.721"/><path d="m382.36 656.404 1.763 5.58"/><path d="m382.696 656.519 2.139 5.355"/><path d="m383.001 656.532 2.505 5.237"/><path d="m386.108 661.316-2.763-4.888"/><path d="m386.106 661.312h-2.192"/><path d="m385.731 660.649h-2.019"/><path d="m385.356 659.987h-1.851"/><path d="m384.981 659.324h-1.688"/><path d="m384.606 658.661h-1.529"/><path d="m384.231 657.999h-1.36"/><path d="m383.856 657.336h-1.194"/><path d="m383.481 656.673h-1.032"/><path d="m385.745 656.831-1.725 5.173"/><path d="m386.262 656.597-1.6 5.303"/><path d="m385.403 661.783 1.174-4.992"/><path d="m386.879 656.961-.988 4.75"/><path d="m384.22 661.406h1.731"/><path d="m384.435 660.762h1.65"/><path d="m384.65 660.119h1.572"/><path d="m384.865 659.476h1.491"/><path d="m385.08 658.833h1.41"/><path d="m385.295 658.19h1.329"/><path d="m385.51 657.546h1.248"/><path d="m385.725 656.903h1.027"/><path d="m387.666 657.008.846 3.547"/><path d="m387.981 656.845 1.169 3.697"/><path d="m388.377 656.826 1.275 3.702"/><path d="m388.901 657.034 1.277 3.477"/><path d="m390.064 660.204h-1.638"/><path d="m389.871 659.684h-1.556"/><path d="m389.678 659.164h-1.491"/><path d="m389.486 658.644h-1.43"/><path d="m389.293 658.125h-1.358"/><path d="m389.101 657.605h-1.284"/><path d="m388.908 657.085h-1.218"/></g></g><path d="m386.572 665.148c-4.132.714-13.137.208-15.112-.286-.679-.17-.494-.416.078-.286 2.276.517 7.133.52 9.81.39.52-.689 1.338-1.858 1.585-2.183s.356-.355.871-.442c.922-.156 1.449-.24 2.248-.377.013.104.013.234.013.312-.065.052-.13.143-.182.169 0 .533.104 1.832.208 2.3.104-.013.234-.052.299-.065.182-.052.363.416.182.468z" fill="#cf6200"/><path d="m393.341 665.346c.149-.004.46-.011.546-.013.169-.004.406-.12.51-.38s.426-1.221.543-1.624l-.416-.627c.091-.517.208-1.218.221-1.361.208-.078.428-.156.532-.195.026-.117-.025-.435-.13-.539-1.78.068-7.107.253-8.082.266-.234 0-.339-.01-.428.325-.494 1.845.189 4.434 2.053 5.925.13.104.294.017.077-.182-.311-.286-.792-.871-1.117-1.449.364-.006 1.102-.018 1.323-.027.106.437.438 1.359.503 1.515s.225.178.149-.055c-.179-.546-.273-1.168-.351-1.467.338-.008.975-.002 1.365-.024.019.494.071 1.156.084 1.338s.169.195.172-.013c.004-.208.008-1.087.005-1.346.44-.012 1.002-.031 1.21-.031-.029.281-.083 1.19-.103 1.334-.03.212.081.312.133.013s.156-.998.185-1.352c.176-.005.639-.024.834-.029-.019.277-.279 1.119-.357 1.34s.048.228.136.019c.092-.214.377-1.059.403-1.361z" fill="#cf6200"/><path d="m387.442 665.135c-.143-.286-.585-1.303-.624-2.043.377-.007 1.32-.025 1.775-.035.067.558.239 1.76.33 2.045-.532.013-1.182.03-1.481.033z"/><path d="m388.905 663.051c.049.426.272 1.889.308 2.058.386-.023 1.28-.026 1.435-.039-.016-.39-.079-1.853-.086-2.061-.404.011-1.454.037-1.657.042z"/><path d="m386.89 661.24c-.072.374-.085 1.173-.065 1.514.455.009 1.575-.018 1.73-.031-.038-.388-.099-1.09-.138-1.528-.371.016-1.28.038-1.527.045z"/><path d="m388.748 661.19c.013.364.094 1.254.12 1.526.393-.011 1.355-.031 1.68-.042-.017-.333-.07-1.406-.076-1.536-.522.014-1.393.047-1.724.052z"/><path d="m390.812 661.128c.016.338.059 1.292.046 1.539.417-.011 1.214-.019 1.461-.039.019-.339.074-1.308.048-1.555-.468.018-1.214.043-1.555.055z"/><path d="m392.653 661.063c0 .286-.036 1.291-.049 1.564.413-.016 1.351-.049 1.595-.055.065-.335.195-1.205.234-1.572-.39.013-1.495.055-1.78.063z"/><path d="m394.264 662.906c-.533.017-1.39.04-1.68.051-.045.658-.127 1.795-.166 2.055.469-.01 1.417-.04 1.625-.046.156-.312.494-1.286.572-1.585-.117-.182-.208-.286-.351-.475z"/><path d="m390.867 663.002c0 .234.041 1.909.051 2.052.305-.01 1.097-.021 1.214-.034.059-.652.148-1.901.164-2.057-.54.015-1.07.031-1.429.039z"/><path d="m383.974 662.601-.677.12c-.312.504-1.468 2.063-1.611 2.245.805-.023 2.064-.047 2.367-.076-.022-.418-.078-2.082-.079-2.289z"/><path d="m384.273 662.545c.016.533.067 1.953.08 2.33.399-.023 1.134-.071 1.433-.097-.069-.67-.195-2.27-.221-2.465-.335.061-.993.177-1.292.232z"/><g stroke="#000" stroke-width=".125"><path d="m377.294 656.927c.091.001.103.079-.001.078l-7.678-.095c-.104-.001-.09-.079.001-.078z"/><path d="m383.328 650.784c.091.003.102.081-.002.078l-6.083-.167c-.104-.003-.089-.081.002-.078z"/><path d="m376.911 652.535c.091.001.103.079-.001.078l-6.808-.05c-.104 0-.09-.078 0-.078z"/><path d="m377.112 648.117c.091 0 .104.078 0 .078l-7.121-.037c-.104 0-.09-.078.001-.077z"/><path d="m376.619 644.631c.091.001.102.08-.001.078l-6.919-.104c-.104-.002-.09-.08.001-.078z"/><path d="m383.784 642.587c.091-.001.105.077.001.078l-5.938.057c-.104.001-.092-.077-.001-.078z" fill="#fff"/><path d="m384.148 645.91c.091 0 .104.078 0 .078h-6.562c-.104 0-.091-.078 0-.078z"/><path d="m390.592 650.641c.091 0 .104.078 0 .078h-7.072c-.104 0-.091-.078 0-.078z"/><path d="m390.691 644.728c.091.001.103.079-.001.078l-7.225-.071c-.104-.001-.09-.079.001-.078z"/><path d="m384.012 655.121c.091.001.103.079-.001.078l-6.356-.042c-.104-.001-.09-.079.001-.078z"/><path d="m390.223 655.983c.091.001.103.079-.001.078l-5.587-.074c-.104-.001-.089-.079.002-.078z"/><path d="m395.264 657.053c.157-.349.179-1.151.089-1.455-.242.049-.447.038-.647-.04-.105-.04-.22-.076-.341-.106-.022.402-.168 1.426-.348 1.822-.314.089-.947-.015-1.307-.128-.095.341-.182.654-.262.942.447.103 1.008.094 1.452-.009-.035.601-.114 1.148-.439 1.526.531.012 1.006-.066 1.18-.252.016-.018.034-.033.053-.048.245-.41.252-.944.311-1.304.181.013.415-.039.519-.143s.273-.156.442-.143c.154.012.394-.02.699-.143.008-.184.044-.384.107-.558.034-.095.071-.253.102-.444-.387.185-1.25.494-1.61.483z" fill="#ef072d"/></g><path d="m372.369 666.265c.806-.519 2.183-.415 2.885.104.832-.467 2.339-.338 3.041.286 1.065-.727 1.975-.831 3.014-.13.806-.571 2.053-.623 3.015.052.935-.442 1.975-.805 2.884.156-.545-.39-1.715-.728-2.884.182-.91-.91-2.495-.572-3.015.052-.676-.806-2.105-.936-2.963.052-.935-.78-2.338-.806-3.092-.208-.598-.468-1.481-.857-2.885-.546z" fill="#00b800"/><path d="m368.471 665.538c.39.273 1.079.727 1.975.662.442.351 1.131.65 1.443.715-.598.247-1.248.455-1.417.65-.273-.26-.623-.221-.714-.351-.26.208-.221.338-.052.442s1.481.325 1.806.234.412.178.143.272c-.702.247-2.066.013-2.534-.74-.468-.754-.871-1.04-2.144-.351-.143-.364-.143-.455-.39-.455s-.702-.325-.351-.312 1.391-.143 2.235-.766z" fill="#00d860"/></g><path d="m363.43 673.36c.623-.052 2.313-.546 2.494-.702.416.286 1.144.676 1.456.676-.598.13-.988.052-1.144-.052.078.182.286.468.416.494-.572-.026-1.221-.156-1.429-.364-.494.208-1.326.26-1.793-.052z" fill="#00d860" transform="matrix(4.0180224 0 0 3.3156291 -1326.936087 -1739.500144)"/><g transform="matrix(4.26222093 0 0 3.62283739 -1415.957922 -1944.4712)"><path d="m364.547 674.14c.221.065 1.325.247 1.468.247-.364.311-.052.61.559.558-.299.039-.625.152-.403.195.533.104 1.975-.286 2.261-.442-.494.637-2.897 1.222-3.885-.558z" fill="#00d860"/><path d="m365.535 675.725c.298-.156 1.039-.104 1.39.065-.39.143-1.156.143-1.39-.065z" fill="#00d860"/><path d="m366.652 675.699c.533-.091 2.04.273 2.573-.052-.182.481-1.131.546-1.456.442-.324-.104-.636-.234-.857-.221.117-.065-.078-.078-.26-.169z"/><path d="m367.198 676.44c.403.064 1.845-.117 2.287-.286.467.156 1.39.402 1.598.376-.442.273-1.287.117-1.559 0-.78.26-1.417.338-2.326-.09z" fill="#00d860"/><path d="m367.887 676.683c.577.13 1.069.037 1.637-.153.177.076.594.169.986.15.261.149.612.357.95.383-.351.143-1.638 0-1.897-.143-.65.013-1.768.156-2.04.377-.013-.182.105-.435.364-.614z" fill="#00d860"/><path d="m367.198 673.75c.45.15 2.079.078 2.91-.312.328-.154.531.104.156.234-1.351.468-2.417.65-3.196.234-.308-.164-.338-.312.13-.156z"/><path d="m375.176 671.541c-2.001.935-3.327 1.221-6.107.364-.259-.08-.442 0-.156.182.286.181 1.819.597 2.183.623s.234.195.013.26-.286.221.013.104 1.969-.161 2.651.195c.298.156.376.13.35.013s.13-.195.351-.221.351-.104.182-.169-.195-.104-.065-.169.143-.13-.052-.169-.325-.091-.143-.182c.182-.09.455-.156.663-.181.052-.143-.039-.52.117-.65z" fill="#00d860"/><path d="m371.849 671.775c1.144.081 3.249-.442 4.367-1.533.389.233.935.493 1.221.545s.546.312.104.312-1.066-.182-1.351-.312c-1.482.91-3.216 1.209-4.315 1.118-.311-.026-.389-.156-.026-.13z"/><path d="m368.783 667.214c-.217.054-.832.39-1.052.416-.221.026-.611.338-.208.351.402.013.922-.429 1.208-.468s.312-.364.052-.299z" fill="#00d860"/><path d="m370.043 668.526c-.154.027-.818.182-1 .169s-.364.039-.351.169.065.208-.208.182-.507.078-.572.156-.117.156.156.182.416.052.728-.091.611-.364.949-.377c.337-.013.675-.455.298-.39z" fill="#00d860"/><path d="m369.108 669.332c.284.184 1.689.663 2.196.624s.412.203.026.286c-.793.168-1.761-.177-2.417-.702-.325-.26-.026-.351.195-.208z"/><g fill="#00d860"><path d="m375.761 670.021c-1.075.343-2.17.221-2.612.104s-.845-.143-.546.143c.299.285 1.261.48 1.806.337-1.936.442-2.443.403-2.923.325-.481-.078-1.384-.061-1.767-.026-.286.026-.676-.013-.845-.117s-.221-.299.286-.247c.506.052.572-.052.13-.117s-1.053.117-.455.494 1.91-.026 2.742.208c.831.234 2.598.403 4.275-.949.086-.069.234-.259-.091-.155z"/><path d="m370.485 668.435c.039.13.039.273 0 .364s-.039.208.13.078.273-.286.442-.195.598.078.792.052c.196-.026.26-.065-.025-.182-.286-.117-.572-.156-.728-.143s-.351-.026-.481-.078-.169-.026-.13.104z"/><path d="m373.253 668.942c-.221.013-.611-.13-.819-.221s-.506-.104-.285.195c.22.299 1.182.468 1.52.325s.195-.299.532-.091c.338.208.689.351.936.351s.338 0 .065-.156-.403-.195-.429-.325-.065-.208.182-.13.533.221.728.117.558-.338.883-.338l.078-.195c-.468-.039-.766.104-.896.156s-.364.078-.611.039-.572-.065-.65-.13-.078-.117.13-.156.273-.182-.013-.13-1.052.026-1.455-.104c-.403-.129-.572-.142-.741-.078-.169.065-.143.247.104.26s.806.065 1.001.247.169.195-.052.104-.624-.039-.208.26z"/><path d="m376.644 668.474-.078.195c.481-.013 1.651.104 2.027.338.364-.286.299-.377.559-.325s.585.143.728.065.247-.065.403-.039c.155.026.493-.039.688-.156s.598-.273.832-.273.519-.052.091-.117c-.429-.065-1.079.065-1.3.143-.22.078-.883.13-1.273.13s-.922.195-1.364.078-1.053-.039-1.313-.039z"/></g><path d="m382.66 668.24c-.779.572-1.715.702-2.832.78-.325.023-.225.115.052.143 1.169.117 2.521-.312 2.962-.78.128-.135.114-.359-.182-.143z"/><g fill="#00d860"><path d="m377.346 669.566c.338.013 1.507.312 1.884.442.286-.026.364-.091.312-.195s-.091-.221.429-.195c.519.026 1.715.013 1.936.013.182-.078.584-.39.766-.403-.467.026-2.416.13-2.663.104s-.377 0-.533.091-.247.13-.442.052-.546-.182-.74-.065c-.195.117-.598.013-.949.156z"/><path d="m381.907 669.631c.182-.078.584-.39.766-.403.338-.026.728.117.91.143s.377-.013.247-.156-.013-.39.52-.325c.532.065.805.156 1.325.104s.754.338 1.741-.052c-.078.39.104.416.286.338s.39-.052.702.182 2.209.26 2.651.182c.441-.078.675.156.337.26-.337.104-.416.26-.337.364.077.103.155.233-.26.181-.416-.052-.494.078-.702.234s-.26.208-.832.104c-.571-.104-.675-.026-.987.026s-.39.052-.702-.052-.987-.208-1.403-.078-.728.26-1.092.156-.39-.052-.156-.286.286-.208.728-.26c.442-.051.78-.181.468-.363s-.416-.156-.832.052-.624.337-1.091.078c-.468-.26-.702-.208-1.014-.13s-.831-.104-1.273-.299z"/><path d="m383.466 670.41c-.595.085-.755-.298-1.377-.22-.208.026-.559.285-.078.246.48-.039 1 .221 1.468.182s.26-.247-.013-.208z"/><path d="m382.777 670.865c.313-.114.962.104 1.235.052s.533.117.247.208-.975-.169-1.287-.078-.623-.026-.195-.182z"/><path d="m376.566 672.541c.429.014 1.975-.052 2.586-1.351.047-.1.091-.143.286-.013s.91.559 2.248.676c.375.033.78.221.026.169s-1.949-.26-2.352-.507c-.676 1.065-1.89 1.191-2.794 1.169-.545-.013-.415-.156 0-.143z"/><path d="m379.906 670.774c-.208.286-.923.78-1.248.806-.324.026-1.299-.065-1.546-.156s-.546-.065-.195.182 1.222.416 1.572.338c.351-.078.754-.195 1.027-.026s.78.493 1.078.428c.299-.064.91-.064 1.105.026.195.091.533.364.026.208s-.923-.026-1.157-.13c.26.364.85.949 1.352.949.117 0 .195.208-.052.325.247.117.818.208 1.117-.065-.078.104-.039.169.091.234s.286.156.052.182-.766.091-.922.026c.506.324 1.819.844 3.157.584.255-.049.39-.155-.026-.143-.858.026-.909.013-1.065-.077-.156-.092-.13-.169.117-.247.246-.078.87-.169 1.13-.169s.52-.104-.013-.104-1.182 0-1.442-.091-.455-.208-.182-.39.559-.13.689-.299c-.858-.013-1.911-.468-1.326-.883.136-.097.091-.104-.13-.13s-.87-.208-1.143-.364-.091-.286.13-.325c-.507.091-1.521-.182-2.196-.689z"/><path d="m387.533 670.748c-.468.351-1.351.494-1.728.494s-.429.13-.13.169.624.078.754.039.208-.052.402.039c.195.091.611.143.975.026s.961-.169 1.208-.156.52.026.026-.117c-.493-.143-1.299-.039-1.494.013s-.728.013-.442-.078.533-.234.676-.351c-.104-.026-.169-.052-.247-.078z"/><path d="m387.286 671.762c-.403.299-.987.584-1.585.61.546.195 1.001.754 1.351.728-.169.104-.376.26-.597.286.338.091.909-.013 1.377-.273.78.221 1.793.078 2.131-.208-.507 0-1.117-.182-1.39-.416.247 0 .48-.156.597-.298-.584.103-1.585-.182-1.884-.429z"/><path d="m386.455 673.386c.221-.026.428-.182.597-.286-.428.143-2.3-.156-2.858-.65-.559-.493-.559-.117-.169.234s1.078.884 2.43.702z"/><path d="m387.832 674.581c-.234.13-1.351.208-1.715.13s-.52-.039-.429.104.13.273-.169.234-.832.026-1.052.104c-.221.078-.494.273-.026.195.467-.078.896-.169 1.247-.078s1.598.117 1.845.013.078-.104-.039-.104-.169-.078 0-.156.299-.299.338-.442z"/><path d="m377.021 673.074c-.468.208-2.027.624-2.443.65-.52.234-.935.364-1.195.364.182.156.883.311 1.169.234-.156.155-.519.337-.649.415.415-.052.909.052 1.117.078-.546.312-1.299.416-1.689.364.13.182.312.364.546.364-.494.13-1.092.13-1.404.026.13.26.26.416.442.442-.416.052-.936.13-1.377-.13.337.442 1.091.597 2.209.468 1.117-.13 2.053-.624 2.313-.832-.468.052-1.092.078-1.404.026.624-.156 1.975-.728 2.209-.962-.26 0-.519-.078-.702-.208.364.052 1.638-.103 2.028-.259-.468-.104-.754-.39-.884-.572 1.637.52 3.459.35 4.34.13.208-.052.233-.316-.182-.286-.728.052-2.131-.156-2.495-.338.338.26.754.416 1.04.468-.676.182-1.611.312-2.989-.442z"/><path d="m373.903 674.737c.13-.078.493-.26.649-.415-.286.077-.987-.078-1.169-.234.26 0 .675-.13 1.195-.364-.935-.026-1.585-.026-1.923-.208s-.961-.13-1.195-.078-.156.442.831.338c-.416.286-1.533.39-1.949.286.104.337.182.675.078.857.546.312 1.975.702 2.677.65-.624-.234-.962-.494-.442-.546s.806-.156 1.248-.286z"/></g><path d="m372.291 676.427c1.244-.104 2.91-.126 4.236-1.248.338-.286.565-.19.234.104-.701.624-2.443 1.481-4.106 1.507-.677.011-.987-.312-.364-.363z"/><g fill="#00d860"><path d="m381.608 674.373c-.312.117-1.183.26-1.442.221-.26-.039-.637-.052-.845.078s-.221.208.065.234.65.052.832.039c-.234.13-.39.312-.442.39.416-.104 1.182.078 1.403.208-.169.052-.364-.013-.507-.091.702.741 2.781.741 3.119.611-.156.117-.299.234-.455.273.585.104 1.26.091 1.923-.299-.221.039-.883-.026-1.052-.039.13-.13.324-.247.506-.299-.259-.052-1.078-.026-1.273.078.078-.156.221-.351.377-.416-1.027 0-2.274-.013-2.729-.26.728.078 1.534-.351 1.871-.351-.571-.013-1.195-.143-1.351-.377z"/><path d="m378.996 674.945c-.507.104-1.273.312-1.481.429s-.429.182.026.182 1.689.052 1.962.091c-.689-.104-1.624-.13-1.806-.13s-.39-.013-.052-.117.78-.338 1.351-.455z"/><path d="m377.97 676.154c.181 0 .974 0 1.286-.273.325.247.949.597 1.351.597.403 0 .364.104.013.143-.35.039-1.039-.168-1.39-.428-.468.169-.857.026-1.26-.039z"/><path d="m371.954 679.649c.805.312 1.871.546 2.65.286.442.39 1.352.416 1.845.312.494-.104.936-.156 1.482.026.545.182 1.663.195 1.975.454-.286.014-.897 0-1.04.04-.143.038-.065.129.195.272-.883-.052-2.404.325-2.871.728.168-.403.688-.949 1.507-.949-.468-.168-1.962-.181-2.443.117-.143-.156-.312-.415-.325-.519-.792.454-2.352-.195-2.975-.767z"/><path d="m369.887 678.194c.959-.137 1.612-.442 1.898-.728.169.156.87.312 1.637.078-.156.117-.169.338-.104.455-.507.013-1.469.26-1.793.429-.325.168-1.274.285-1.585.116-.312-.168-.325-.311-.053-.35z"/><path d="m373.318 677.999c-.507.013-1.469.26-1.793.429.065.13.104.337.117.48.935-.338 3.079-.545 3.898-.415-.39.026-1.131.428-1.546.48 1.013-.078 2.001.13 2.26.195.26.065.312.26.117.442s-.285.208.13.221c.416.013 1.274-.039 1.664-.416-.156-.169-.559-.104-.676-.221.273-.091.585-.286.702-.429-.702-.013-.962-.026-1.196-.078-.234-.051-.403-.117-.117-.272.286-.156.416-.286.507-.39-.507.143-1.299.26-1.962-.26.247.065.831.026 1.039-.065-.221-.117-.402-.208-.584-.208.532-.26 1.585-.494 2.884.026.65-.052 1.352-.026 1.845.104.208-.208.65-.702.884-.832-1.533.13-4.288-.156-4.236-.961-.494.649-1.637 1.013-2.131.909-.052.234.156.52.338.676-.52.104-1.404.182-1.819.104.234.234.675.442.935.416-.545 0-.831.104-1.26.065z"/><path d="m376.501 679.831c.416.013 1.274-.039 1.664-.416-.156-.169-.559-.104-.676-.221.273-.091.585-.286.702-.429 1.091-.09 2.066-.038 2.533-.181.468-.143 1.664-.065 1.898-.13-1.04.168-1.248.259-1.3.428s.338.312.585.312c-.468-.026-1.053.468-1.105.663-.623-.364-.922.065-.987.208-.26-.104-1.118-.078-1.56.299-.571-.169-.948-.26-1.52-.169.351-.078.286-.312-.234-.364z"/><path d="m381.491 676.79c.351-.013 1.117.026 1.39-.013-.182.091-.415.26-.467.338.883-.104 2.091-.169 2.442-.117-.428-.065-.87.208-1.091.351s-.091.234.208.273.702.273.156.195-1.624-.078-1.884-.039-.403-.091-.026-.143.636-.182.818-.286c-.312.078-.909.078-1.091.026s-.299-.156-.091-.208.065-.13-.156-.104-.78.26-1.092.559c.338-.351.637-.663.884-.832z"/></g><path d="m377.528 677.375c.429.481.935.754 1.741.78.169.005.484.232.078.247-1.092.039-1.637-.221-2.118-.923-.099-.144.084-.345.299-.104z"/><path d="m384.038 668.292c.574.271 1.728.507 2.625.468.156-.007.47.16.077.195-1.013.091-1.923-.051-2.767-.52-.234-.13-.156-.247.065-.143z"/><g fill="#00d860"><path d="m384.623 668.279c.883-.026 1.546-.013 1.819.247.506-.156 1.416-.247 1.624-.208s.442-.052-.039-.169c-.481-.116-1.598-.155-1.949-.09-.351.064-1.443.103-1.806.064.156.026.259.052.351.156z"/><path d="m388.053 668.63c.416-.221 1.611-.013 1.975-.169-.26.312.832.338 1.78.091-.364.234-1.143.273-1.481.416s-.52.039-.78-.078-.922-.351-1.494-.26z"/><path d="m391.808 668.552c-.948.247-2.04.221-1.78-.091-.364.156-1.559-.052-1.975.169.429-.26.754-.052 1.065-.585.195.04.65.066.806-.142.273.065.754.182.897.324.143.143.363-.039.181-.259.429-.156.157.185 1.157-.065.208-.052.715-.143.884-.156-.338.273-.741.571-1.235.805z"/></g></g><g transform="translate(1.139355 -414.83149)"><path d="m213.98671 762.46351-.10942.0118-.49154.0404-.0387-.0219-1.60257.12457c-.0455.003-.0909.002-.13635.005-.003.00027-.007.002-.0101.002-.40626.009-.81464.039-1.21707.0976l-9.62212.74067c-3.3856.26066-9.25139.57201-15.96335.86526-2.21513.0955-4.5344.18351-6.87654.2727-1.53223.059-2.99891.12372-4.55014.17844-1.00615-.16686-2.46338-.20852-3.76737-.11952-.59223.0248-1.17263.0662-1.6699.1414v-.002c-.39671.06-.61698.11762-.68344.17002-1.34356.0412-2.72459.0908-4.0283.12625-.17814.005-.37328.0121-.55046.0168-.0142.00038-.0261.002-.0404.002-1.36438.0387-2.70807.0817-4.01819.12289-.0135-.00068-.0203.00068-.0337 0-2.07879-.10562-3.78974-.22257-5.02316-.30469-.62072-.0413-1.12672-.0776-1.49988-.0976-.37313-.0201-.57836-.035-.76088-.0118-.0581.008-.10635.0175-.16328.0253-.11627-.003-.30515-.0127-.35183-.007-1.49462.19198-2.59288.46856-3.55022.7794-.83904-.0453-1.99551-.0681-3.75222-.0808-.95606-.007-1.83818.0192-2.65129.0606-2.40487.0898-4.15624.35366-4.15624.68512 0 .0764-.0527.18361-.12793.30302-.34577.39302-.99594.92068-1.93082 1.56721-.0641.002-.12362.003-.18854.005h-.0572l-.002.002c-.15307.003-.28496.01-.44272.0118-6.94877 5.13572-23.06172 12.34412-27.59373 12.34412-1.70481 0-6.17567.96871-9.933539 2.15471-3.552983 1.12133-5.591673 1.61872-8.034697 1.66821-1.567894-.0126-3.361516-.20394-5.890099-.53531-2.120025-.27782-4.082041-.49466-5.545001-.62958-.731489-.0675-1.341323-.11194-1.782685-.1313-.220693-.01-.392604-.0148-.533626-.0101-.0705.002-.135289.00086-.195268.0101-.02508.003-.04956.006-.0774.0118-.270209-.005-.467503.002-.503322.0303-.107434.0869.213626.86585.754147 1.94429.0052.0103.0069.0148.01181.0252.414212.86478 1.023107 2.00889 1.738918 3.23038.664167 1.13332 1.264572 2.20286 1.722076 3.06877.363629.71456.611067 1.25361.611067 1.38372 0 .30031-2.470062 1.54871-5.489453 2.77419-2.490652 1.01089-3.995664 1.87357-4.529936 2.53852l-.451144.19863.296272.0488c-.0043.009-.0078.0183-.01181.027l-.964567.41915 1.089135.17002c.0092.009.0237.0154.0337.0235.01146.14517.05378.28605.138039.40401.175988.24616.450799.39542.794544.51174.687455.23269 1.720189.33667 3.152949.33668h.02189.02189c.72649-.0953 1.371515-.16798 2.03182-.24913l1.392139.22725c2.088343.34568 5.824786.68832 9.122161.96793 1.648652.13981 3.182588.25919 4.339718.35856.578539.0497 1.05884.0951 1.412342.1313.176746.0181.331152.03.435992.0438.10483.0138.188666.0404.161603.032.106528.0331.112096.0308.175065.0539.009.004.01301.008.02189.0118.01008.004.01258.007.02189.0101.058.0256.113855.051.151502.0657.0069.003.01517-.002.02189 0 .01543.006.02844.017.04378.0219.01086.003.02103.005.04378.0101.01129.002.01758.01.05387.0118.009.00046.04353 0 .04378 0 .000138 0 .05387-.0118.05387-.0118.000112-.00003.09753-.042.09763-.0421.000043-.00003.07576-.0554.07576-.0556.000035-.00002.06559-.0858.06568-.0858 0-.00002.0337-.11948.0337-.11951v-.0993c0-.00007-.05542-.11943-.05551-.11952-.000026-.00009-.03189-.0538-.03198-.0539-.000094-.00012-.02637-.0155-.0337-.0219-.0293-.0259-.03189-.0375-.04206-.0438-.02051-.0126-.03344-.0169-.04378-.0219-.01663-.008-.03766-.003-.0555-.0101.000405.00014-.0069.00087-.01008 0-.000862-.00054.0017-.0109 0-.0118-.0017-.00087-.0086.00086-.01008 0-.03198-.0125-.08927-.0304-.163284-.064-.0043-.002-.01741-.01-.02189-.0118-.552906-.25347-1.813039-1.0366-2.652987-2.44593 1.46059-.16729 2.683929-.48908 5.208332-1.54364l.444404-.18518-.314785-.37033c-.382728-.44778-.382469-1.02663.01181-1.80457.394208-.77794 1.204791-1.68104 2.336513-2.54357 2.261399-1.72349 5.796675-3.29422 9.840955-3.71855.004.00073.006-.00073.0101 0 13.15294 2.67106 25.38891-1.41897 40.29471-8.02461l30.20631-.55382 30.09519-.55551 2.38197 2.69675.0875.0976.12962.0219c10.99965 1.47847 16.65518-.14379 22.56214-.20705 5.90699-.0632 12.14407 1.38569 24.5502 9.02451l.15318.0875.1515-.0539c.7412-.27814 1.38842-.49169 1.99648-.68849.12935.36163.20714.69771.20705.9915l-.70365 3.67647.27944-.005-.0505.26598-.0875.4242.436-.0118 10.94861-.17339c.91026-.0258 1.91502-.0886 2.93579-.17507.0216.003.054-.003.0758 0 1.06857.125 2.28865.19029 3.72865.17507h.0438l.0438-.0118 3.61082-.91239c1.67451-.42243 2.79504-.86676 3.45763-1.41402.0117-.01.0308-.0223.0421-.032.007-.004.0151-.008.0219-.0118.0881-.0538.18094-.10553.25083-.18518.0485-.0553.0587-.14931.0875-.22725l.0101.0101c.18848-.28887.24394-.65007.12962-.96793s-.35945-.57434-.69523-.81475c-.67157-.48082-1.74721-.89994-3.26237-1.29451-2.40438-.62615-4.06478-1.16301-5.01137-1.64128-.47332-.23914-.75838-.47302-.87031-.63126-.11189-.15824-.10921-.19476-.0219-.34677l.20706-.23904.0219-.0219c.18475-.16831.44274-.34463.81475-.54372 1.21579-.65069 2.60989-2.37771 3.67478-4.0889.53248-.85558.97341-1.70929 1.22886-2.42404.1277-.35737.20885-.67374.22894-.96794.0201-.29419-.0111-.5969-.22894-.81475-.12158-.12156-.26184-.14047-.38044-.15318-.11865-.0127-.23725-.006-.36866.0118-.0365.005-.0913.0256-.12962.032-.38553-.17409-2.00988.37278-3.75726 1.28104-2.07795 1.08008-5.22268 1.65982-8.77033 1.76248-.45167.007-.9077.009-1.37027 0-4.2962-.0798-9.01035-.82378-13.03598-2.20689-3.5782-1.2294-9.53874-3.21825-13.26491-4.41378l-.0118-.0118c-2.47034-.71986-4.42551-1.27999-6.49105-1.88032-4.28061-1.84852-9.46634-4.32348-12.57979-6.03487l-6.91526-3.8044z" fill="#fa7d80"/><path d="m91.114213 801.04098c-.55-.17076-11.39775-.86806-15.51471-1.54955l-7.48539-1.23908 5.43241-2.39747c2.98782-1.31861 5.60122-2.5663 5.80757-2.77264.20634-.20635-.78232-2.20874-2.19702-4.44978-1.41471-2.24103-2.57219-4.31248-2.57219-4.60321 0-.53646 9.56074.21888 13.83825 1.09328 1.94994.39861 9.16098 1.78133 8.12348 3.03143-.68426.82448-8.5408 3.203-8.86758 6.57432-.56194 5.79737 5.76258 7.03528 3.43518 6.3127zm168.603267-9.69889c.0007-2.21513-4.17846-6.73436-4.99132-7.89488-1.44024-2.05625 6.04889-.72227 11.6308-1.41419 3.15036-.39051 7.24539-1.34112 9.10005-2.11247 1.85467-.77134 3.54216-1.40244 3.75-1.40244 1.17455 0-.009 2.37082-2.7307 5.47087l-3.10856 3.54046 3.85857 1.53347c8.43924 3.3539 8.23679 3.09929 3.49682 4.39768-2.39897.65714-7.23703 1.2764-10.75127 1.37615l-10.95857.18137zm-148.13259-8.99073-2.5-1.03998 2.5-1.07042c10.02544-4.29255 23.39299-11.66442 25-13.78686.275-.36321 11.975-.96665 25.99999-1.34098 14.02501-.37434 31.16532-1.11677 38.0896-1.64986l12.58958-.96925 6.91292 3.79988c3.8021 2.08993 10.65238 5.30726 15.22284 7.14962 8.78981 3.54317 9.36935 4.84505 2.55615 5.74213-3.05789.40263-4.66819-.0341-7.6655-2.07891-2.08692-1.42374-4.16374-2.58862-4.61514-2.58862-.45139 0-2.03011-.9513-3.50824-2.114-4.02613-3.16695-4.48944-1.29972-.5196 2.09409l3.43739 2.93863-5.24999.0406c-4.87874.0378-6.90401-1.12529-4-2.29708.6875-.27741.0254-.53991-1.47142-.58333-2.15672-.0626-2.88295-.70239-3.49999-3.08363-.42822-1.65258-1.22859-3.06138-1.77859-3.13067-4.61925-.58193-66.2627 1.54445-67.20619 2.31826-.66341.54411-1.67591.69898-2.25.34416-.5741-.35481-1.04381-.16855-1.04381.41391s.375 1.05902.83333 1.05902c.45834 0 .83334.675.83334 1.5 0 .84844-.90496 1.50666-2.08334 1.51531-1.65054.0121-1.78256.2056-.63548.93129 1.13767.71976.87868 1.05885-1.20899 1.5828-1.46125.36676-3.18038 1.29768-3.82029 2.06871-1.44325 1.73902-3.31471 1.84746-2.62149.15189.28108-.6875.81248-1.99871 1.18089-2.91379.47936-1.19065-1.41285-.55831-6.65406 2.2237-7.82198 4.15184-8.9327 4.39205-12.82391 2.77334z" fill="#fb1412"/><path d="m129.58489 780.96845c0-.30231.68498-1.87426 1.52217-3.49321.83719-1.61896 1.94287-4.05007 2.45705-5.40248.79197-2.08302.67393-2.37732-.77217-1.92515-.93888.29357-.46955-.2822 1.04295-1.27949 1.5125-.99728 2.75-2.15902 2.75-2.58163s2.8125-.74808 6.25-.72328c6.10266.044 6.17928.0775 3.25 1.41878-1.65.75553-2.56237 1.41023-2.02749 1.4549.53488.0447-.0284.78229-1.25176 1.63915-1.22334.85687-2.67347 1.28031-3.2225.94099-.54904-.33933-.99825-.1404-.99825.44206s.375 1.05902.83333 1.05902c.45834 0 .83334.675.83334 1.5 0 .84843-.90496 1.50665-2.08334 1.51531-1.65054.0121-1.78256.2056-.63548.93129 1.13767.71976.87868 1.05884-1.20899 1.5828-1.46125.36676-3.18038 1.29767-3.82029 2.06871-1.15478 1.39143-2.91857 1.90646-2.91857.85223zm84.99999-4.36701c0-.50416.56251-1.14364 1.25001-1.42105s.0336-.53991-1.45301-.58333c-2.23495-.0653-2.87779-.71204-3.7125-3.7351-.55523-2.01089-.73101-4.10677-.39064-4.65753.37737-.61058-.24537-.77536-1.59571-.42224-1.69796.44403-2.14078.18916-1.89818-1.09247.38856-2.05277 6.53785-2.87828 8.1772-1.09775.85811.93202.76919 1.02002-.37717.37326-.82499-.46546-.26249.7885 1.25001 2.78657 1.5125 1.99808 2.75 3.96762 2.75 4.37676s1.46249 1.99588 3.25 3.52608l3.24999 2.78219-5.24999.0406c-2.8875.0224-5.25001-.37185-5.25001-.87603zm-46.73625-11.80091c1.52006-.22986 3.77007-.22371 5 .0136 1.22994.23736-.0137.42542-2.76375.41792-2.75-.008-3.75631-.20172-2.23625-.43157zm28.48626-1.00582c1.78749-.22182 4.7125-.22182 6.49999 0 1.78751.22183.325.40333-3.24999.40333-3.57501 0-5.0375-.1815-3.25-.40333z" fill="#b20c06"/><path d="m213.97852 762.11523a.34858845.34858845 0 0 0 -.0293.002l-.10547.0117-.37891.0312.0547.0312a.34858845.34858845 0 0 0 -.16797-.0449l.0684.0352a.34858845.34858845 0 0 0 -.18164-.0352l-1.65234.12891c-.44615.005-.89653.0389-1.33985.10352l.0234-.004-9.62109.74023c-3.45261.26582-9.46935.58582-16.3711.88477-.1809.008-.37862.0156-.5664.0234a.34858845.34858845 0 0 0 -.002 0c-3.33382.14293-6.83673.27934-10.375.40429l.0684.006c-.99727-.16278-2.35909-.20205-3.625-.1289h-.01c-.69141.0202-1.3773.0626-1.9707.15234-.20283.0307-.36415.0613-.49415.0937-.0656.0164-.11942.0508-.17382.0703-1.52081.0467-3.08917.10546-4.55274.14453-.85213.0228-1.58074.0521-2.4082.0762-.51955.0163-1.05649.0308-1.56836.0469l.0293.002c-.0429-.002-.0495-.00083-.0332 0a.34858845.34858845 0 0 0 -.002 0c-2.07545-.10545-3.78359-.22252-5.01758-.30468-.61974-.0412-1.12505-.0774-1.5039-.0977-.37075-.02-.58881-.0394-.82227-.01a.34858845.34858845 0 0 0 -.004 0c-.0566.008-.0959.0155-.13476.0215-.0513-.002-.11309-.004-.17383-.006-.0703-.002-.0996-.01-.19922.002a.34858845.34858845 0 0 0 -.004 0c-1.48316.19051-2.57733.46722-3.53711.77539-.84693-.0447-1.98293-.0675-3.71875-.0801-.92319-.007-1.77414.0201-2.5625.0586-.63802.0212-1.1988.0554-1.73047.0996-.0328.003-.0587.006-.0762.008a.34858845.34858845 0 0 0 -.004 0c-.76297.0656-1.41023.14781-1.88672.25196-.23825.0521-.43044.10804-.59375.18359-.0816.0378-.15807.0783-.23242.14844-.0744.0701-.1582.19298-.1582.3457 0-.055-.0243.0233-.0469.0781-.29343.33269-.92443.842-1.79102 1.44727h-.0332a.34858845.34858845 0 0 0 -.0352.002.34858845.34858845 0 0 0 -.004 0c-.14484.003-.27108.0101-.41016.0117a.34858845.34858845 0 0 0 -.20312.0684c-3.43352 2.53765-9.18979 5.62382-14.63672 8.06055-2.72347 1.21836-5.37187 2.27636-7.61328 3.02734-2.24141.75099-4.09612 1.1875-5.13672 1.1875-.91842 0-2.45783.24778-4.26953.64063-1.81171.39284-3.876788.9345-5.767581 1.53125-3.542772 1.1181-5.535672 1.60328-7.933593 1.65234-1.54062-.0127-3.319638-.20267-5.841797-.5332-2.124328-.27839-4.090005-.49542-5.558594-.63086-.735201-.0678-1.348179-.11305-1.798828-.13281-.223052-.0101-.40066-.0149-.558594-.01h-.002c-.06045.002-.135584-.002-.236328.0137-.01328.002-.03306.005-.05078.008-.124075-.002-.238669-.001-.332032.004-.05135.003-.09768.006-.146484.0137-.0488.008-.08924-.0113-.214844.0879a.34858845.34858845 0 0 0 -.0039.002c-.145408.11761-.147327.25323-.148437.33203-.0011.0788.01005.14018.02539.20703.03069.13369.08167.28193.152344.46094.141354.35801.359876.82848.632812 1.37304.000158.00032-.000633-.002.0078.0156a.34858845.34858845 0 0 0 .002.004c.419961.87679 1.031734 2.02685 1.751953 3.25586.662132 1.12985 1.2608 2.19533 1.714844 3.05469.17919.35224.329001.66074.431641.89063.04719.10569.08104.18835.105468.2539-.05394.0443-.126353.10024-.238281.17188-.261055.16709-.657202.3865-1.148437.63476-.982471.49652-2.349395 1.11103-3.851563 1.72071-2.435079.98833-3.928918 1.80332-4.601563 2.57226l.05078-.0488c-.320606.2418-.532484.39309-.683594.52344-.07555.0652-.139512.12175-.199219.22266-.05971.10091-.08415.30625-.01563.43554.06853.1293.147504.17393.212891.2168.06539.0429.130165.0787.203125.1211.14592.0848.325231.19317.539062.375l-.05859-.0625c.237063.33158.590726.51336.966797.64062.757999.25657 1.814049.35351 3.263671.35352h.02148.02344a.34858845.34858845 0 0 0 .04492-.002c.704703-.0924 1.333368-.16515 1.978516-.24414l1.34375.2207c2.117813.35055 5.849263.69095 9.148437.97071 1.650146.13993 3.185172.2602 4.339844.35937.576895.0496 1.055188.0949 1.40625.13086.502991.0518.82558.0723 1.054688.0664.114553-.003.205174-.009.308593-.043.103419-.0337.266832-.14499.302735-.31836.0359-.17337-.02901-.27027-.06445-.33203-.03544-.0618-.0669-.10479-.09375-.14258-.0537-.0756-.07199-.12972-.07031-.11328a.34858845.34858845 0 0 0 -.146484-.25c-1.001844-.70426-1.655503-1.30416-2.203125-2.01367 1.284531-.19217 2.436273-.44788 4.669921-1.38086l.445313-.18555a.34858845.34858845 0 0 0 .130859-.54687l-.314453-.3711c-.143147-.16747-.202292-.32844-.201172-.55078.0011-.22234.07642-.51124.257813-.86914.356291-.70311 1.136034-1.58376 2.238281-2.42383 2.198243-1.67535 5.675565-3.22307 9.640625-3.64453 13.2131 2.65977 25.4999-1.44778 40.36133-8.0293l30.14453-.55273 29.93554-.55078c.78683.891 1.57487 1.78177 2.36329 2.67187a.34858845.34858845 0 0 0 .1914.11133c7.80006 1.55986 16.06647-.0447 22.76367-.17773 5.84738-.0626 11.98482 1.35086 24.36329 8.97265a.34858845.34858845 0 0 0 .01.006l.1543.0859a.34858845.34858845 0 0 0 .28906.0273l.15234-.0547a.34858845.34858845 0 0 0 .004-.002c.57117-.21433 1.05784-.37396 1.54297-.5332.0418.17402.10257.36463.10351.5l-.69531 3.62109a.34858845.34858845 0 0 0 .0312.22071c.13032.26274.30773.43075.44727.53515.13954.10441.2172.15261.25195.19727a.34858845.34858845 0 0 0 .2793.13477l10.94922-.17383a.34858845.34858845 0 0 0 .004 0c.91901-.0261 1.92929-.0889 2.95508-.17578l-.0762-.002c.13136.0183.16276.0119.0762 0a.34858845.34858845 0 0 0 .006 0c1.08507.12694 2.32082.19309 3.77344.17774h.0391a.34858845.34858845 0 0 0 .0918-.0117l.041-.0117 3.60742-.91211c1.69149-.4267 2.84776-.87126 3.5879-1.48047.002-.001.006-.0007.008-.002a.34858845.34858845 0 0 0 .004-.004c.004-.002.00031.00029.008-.004a.34858845.34858845 0 0 0 .0117-.008c.08-.0488.20861-.11351.33008-.25195.10535-.12011.0897-.15955.0996-.21875a.34858845.34858845 0 0 0 .0293-.0391c.007-.0109-.003-.0261.004-.0371.00049-.006.0187-.0389.0195-.041l-.0137.004c.21128-.36251.3002-.79548.15429-1.20117-.14781-.41099-.45442-.71849-.82031-.98047-.73685-.52756-1.84248-.94806-3.37695-1.34766-2.39524-.62376-4.04754-1.1636-4.94141-1.61523-.43167-.21809-.67366-.44083-.72656-.50977l.13867-.16015h.002c.15493-.14114.38852-.30382.74414-.49414 1.34429-.71946 2.72524-2.47516 3.80664-4.2129.54183-.87061.9931-1.73861 1.26172-2.49023.13389-.37469.22476-.7216.24805-1.0625.0229-.33488-.01-.76374-.33008-1.08398-.20358-.20355-.46375-.2404-.58984-.25391-.15599-.0167-.3056-.006-.45313.0137-.11756.0161-.16893.0379-.14062.0332l.20117.0254c-.24243-.10947-.44576-.0712-.70703-.0254-.26128.0458-.56831.12994-.91602.24804-.69542.23621-1.54999.6051-2.4375 1.06641-1.99555 1.03725-5.10541 1.62288-8.62109 1.72461-.44715.007-.89838.009-1.35352 0-4.26071-.0791-8.94486-.82104-12.92773-2.18946-3.56612-1.22524-9.48356-3.19803-13.2168-4.39648a.34858845.34858845 0 0 0 -.0762-.0332c-2.46299-.71772-4.4135-1.27714-6.4707-1.875-4.26687-1.84332-9.43957-4.31337-12.5293-6.01172l-6.9043-3.79688-.0762-.0488a.34858845.34858845 0 0 0 -.19726-.0566zm-.76368.70313a.34858845.34858845 0 0 0 .0625.0293.34858845.34858845 0 0 0 .0117 0l-.008.002a.34858845.34858845 0 0 0 .13281.0137l.48828-.041a.34858845.34858845 0 0 0 .002.002l6.91601 3.80469c3.13231 1.72175 8.31887 4.19604 12.60938 6.04882a.34858845.34858845 0 0 0 .041.0156c2.04953.59569 3.99634 1.15403 6.4375 1.86523.00069.0002.001-.0002.002 0a.34858845.34858845 0 0 0 .0527.0234c3.72206 1.19421 9.6848 3.18383 13.25977 4.41211 4.06838 1.3978 8.81089 2.1461 13.14257 2.22656.46803.009.92659.007 1.38086 0a.34858845.34858845 0 0 0 .006 0c3.57963-.10357 6.75957-.67982 8.91993-1.80273.85987-.44695 1.69181-.80462 2.34179-1.02539.325-.11039.60422-.18649.81055-.22266.20633-.0362.35044-.003.30078-.0254a.34858845.34858845 0 0 0 .20117.0273c.10492-.0175.1637-.0374.11914-.0313.11531-.0156.20385-.0185.28516-.01.11111.0119.13034.0132.16992.0527.11545.11546.14623.29144.12891.54493-.0169.24752-.0875.53495-.20899.875-.24227.67788-.67413 1.5149-1.19726 2.35546-1.04838 1.68465-2.45566 3.38488-3.54297 3.9668-.38838.20786-.67019.39827-.88477.59375a.34858845.34858845 0 0 0 -.0117.01l-.0234.0234a.34858845.34858845 0 0 0 -.0156.0176l-.20703.23828a.34858845.34858845 0 0 0 -.0391.0547c-.0489.0851-.1178.19526-.10938.36328.008.16803.0844.26886.14844.35938.17953.25383.49335.48525.99805.74023.99931.50491 2.66654 1.03944 5.08007 1.66797 1.49584.38954 2.54216.80616 3.14844 1.24024.30567.21885.48949.42565.57032.65039.0704.19584.0288.43042-.0899.6289a.34858845.34858845 0 0 0 -.0488.0898c-.0511.13832-.0881.19091-.0234.11718-.0183.0209-.0737.0604-.16993.11914-.004.002-.003-.0002-.0137.006a.34858845.34858845 0 0 0 -.0547.0371c.0228-.0196-.00031-.001-.0371.0293-.58525.48338-1.66626.92649-3.32032 1.34375l-3.61133.91211a.34858845.34858845 0 0 0 -.006.002c-1.42513.0151-2.62686-.0492-3.67774-.17187-.13019-.0179-.16238-.0122-.0742 0a.34858845.34858845 0 0 0 -.0781-.002c-1.01575.0861-2.01451.14828-2.91602.17383l-10.82422.17188c-.0794-.0645-.16668-.14953-.22265-.19141-.0726-.0543-.12503-.12961-.18164-.2168l.67382-3.52539a.34858845.34858845 0 0 0 .006-.0644c.00011-.34645-.0842-.70755-.21679-1.08398a.34858845.34858845 0 0 0 -.43555-.21485c-.58783.19059-1.21313.39657-1.93164.66602l-.006-.002-.01-.006c-12.42639-7.64985-18.76175-9.13413-24.72656-9.07031a.34858845.34858845 0 0 0 -.002 0c-6.76535.13386-14.92387 1.69145-22.51172.20313-.79457-.89726-1.58921-1.79666-2.38281-2.69532a.34858845.34858845 0 0 0 -.26758-.11718l-30.09375.55468-30.20703.55469a.34858845.34858845 0 0 0 -.13477.0293c-14.88992 6.5986-27.04037 10.65081-40.08398 8.00195a.34858845.34858845 0 0 0 -.008-.002c-.005-.00082-.005.00059-.01 0a.34858845.34858845 0 0 0 -.0996-.004c-4.11209.43145-7.696137 2.0213-10.015625 3.78907-1.161195.88499-2.003422 1.80934-2.435547 2.66211-.212889.42004-.332102.80812-.333984 1.18164-.0019.37351.129552.7275.36914 1.00781h-.002l.0059.006-.0039.002c-2.510717 1.04884-3.681034 1.35354-5.113281 1.51758a.34858845.34858845 0 0 0 -.257812.5293c.622225 1.00887 1.555706 1.68513 2.68164 2.47851-.179032-.006-.357431-.0106-.728515-.0488a.34858845.34858845 0 0 0 -.002-.002c-.355942-.0364-.837785-.081-1.417968-.13086-1.159587-.0996-2.692686-.21969-4.339844-.35937-3.295576-.27946-7.034879-.6221-9.09375-.9629a.34858845.34858845 0 0 0 -.002 0l-1.390625-.22851a.34858845.34858845 0 0 0 -.09961-.002c-.64793.0796-1.287426.15246-2.003906.24609-.0028.00036-.0051-.00036-.0078 0h-.02148c-1.415897-.00001-2.424104-.10955-3.041015-.31836-.31142-.10538-.508134-.22208-.623047-.38281a.34858845.34858845 0 0 0 -.05664-.0645c-.239421-.20358-.442337-.3267-.597656-.41796.120087-.0947.253926-.19572.509766-.38868a.34858845.34858845 0 0 0 .05273-.0488c.476022-.54418 1.941449-1.41132 4.339844-2.38477 1.517222-.61579 2.896888-1.23697 3.904297-1.74609.503704-.25457.912546-.48018 1.208984-.66992.148219-.0949.267946-.17916.365234-.26563.04864-.0432.09297-.087.134766-.14453.04179-.0576.09375-.13326.09375-.27149 0-.143-.03077-.19576-.06445-.28906s-.079-.20127-.134766-.32617c-.111529-.2498-.265829-.56541-.449218-.92578a.34858845.34858845 0 0 0 -.002-.006c-.460966-.87246-1.064266-1.94524-1.730468-3.08203-.711067-1.2134-1.316154-2.34853-1.72461-3.20117v-.002c-.0015-.003-.0068-.0136-.01563-.0312v-.002c-.267122-.53305-.480129-.99205-.607422-1.31445-.02716-.0688-.0318-.0992-.05078-.1543.03373.00017.05255-.00069.08984 0a.34858845.34858845 0 0 0 .07813-.008c.01135-.002.02241-.003.04687-.006a.34858845.34858845 0 0 0 .01172-.002c.01838-.003.07204-.004.152343-.006a.34858845.34858845 0 0 0 .002 0c.1237-.004.288304-.0001.505859.01.432075.019 1.039801.0637 1.767578.13086 1.457331.1344 3.415528.3497 5.53125.62695 2.5325.33189 4.337528.52626 5.931641.53907a.34858845.34858845 0 0 0 .0098 0c2.486379-.0504 4.571547-.56161 8.132813-1.68555 1.867073-.58926 3.915684-1.12566 5.705074-1.51367 1.7894-.38801 3.33667-.625 4.12305-.625 1.2254 0 3.08588-.46353 5.35742-1.22461s4.93592-1.82508 7.67578-3.05078c5.43608-2.43188 11.14128-5.48529 14.66406-8.07032.11943-.003.23388-.008.34766-.01a.34858845.34858845 0 0 0 .22266-.0859l-.082.082c.006-.00017.0135.00015.0195 0a.34858845.34858845 0 0 0 .1914-.0625c.95094-.65746 1.61533-1.18923 2.00196-1.63086a.34858845.34858845 0 0 0 .0332-.0449c.0564-.0905.0839-.2083.11719-.32031-.009.009.005-.006.043-.0234.0795-.0368.24195-.0886.45312-.13476.42144-.0921 1.04941-.17617 1.79297-.24024.0335-.003.062-.004.0801-.006a.34858845.34858845 0 0 0 .002 0c.52323-.0435 1.07219-.0788 1.70117-.0996a.34858845.34858845 0 0 0 .006 0c.77933-.0381 1.61473-.0636 2.52149-.0566 1.75481.0127 2.90821.0354 3.73632.0801a.34858845.34858845 0 0 0 .12696-.0156c.93962-.30508 2.01079-.57631 3.48242-.76562-.0529.006.0347.002.0996.004s.14047.004.20312.006a.34858845.34858845 0 0 0 .0566-.002c.0672-.009.11331-.0189.16016-.0254.13158-.0167.32175-.007.69727.0137.36746.0197.87439.0563 1.49609.0977 1.23285.0821 2.94521.1989 5.02734.30469.0431.002.051.0008.0352 0a.34858845.34858845 0 0 0 .0273 0c.50944-.016 1.04571-.0306 1.56641-.0469.83264-.0243 1.56016-.0555 2.40625-.0781 1.47699-.0394 3.05723-.0958 4.58398-.14258a.34858845.34858845 0 0 0 .19922-.0684c-.0579.0433.00017.00044.0957-.0234.0955-.0239.23854-.0515.42773-.0801.54986-.0831 1.21967-.12691 1.89844-.14648a.34858845.34858845 0 0 0 .01 0c1.22436-.0714 2.56649-.0284 3.48243.12109a.34858845.34858845 0 0 0 .0684.004c3.54009-.12502 7.0453-.26324 10.38085-.40625.1827-.008.37942-.0133.56641-.0215 6.90573-.29913 12.92286-.61944 16.39453-.88672l9.62305-.74024a.34858845.34858845 0 0 0 .0234-.002c.41898-.0611.84708-.0938 1.26953-.0977a.34858845.34858845 0 0 0 .0234-.002l1.55469-.11914-.043-.0234a.34858845.34858845 0 0 0 .10938.0215z"/></g><path d="m174.10607 541.25153c-5.84741-5.29555-17.87486-10.1741-31.3553-12.71826-27.96326-5.27752-39.33147-11.93465-50.000012-29.27961-2.200005-3.57677-4.225005-6.50948-4.500005-6.51713-.275-.008-1.175 1.43885-2 3.21444-1.78248 3.83631-4.57626 4.51596-9.05117 2.2019-3.05096-1.57772-3.16642-1.85729-2.71351-6.57081.57662-6.00094 2.84664-8.73229 7.93339-9.5457 4.39049-.70207 4.46347-1.00654 2.70263-11.27512-1.85813-10.83589-5.39322-16.08191-10.83698-16.08191-2.83381 0-3.59939-2.48871-1.67095-5.43188 2.35637-3.59627 5.11486-4.05368 9.20434-1.52625 1.9456 1.20245 3.85128 1.87227 4.23485 1.4885s.6709-6.1726.63851-12.86407c-.04966-10.25879-.3998-12.92503-2.23325-17.00554-1.29053-2.87221-2.99411-5.05361-4.1911-5.36663-2.40708-.62946-2.63317-3.53486-.44533-5.7227.86428-.86429 1.78663-1.57143 2.04966-1.57143 1.33734 0 6.37891 3.18169 6.37891 4.02568 0 .53588.47757.97432 1.06127.97432.69613 0 .82418-1.6343.37218-4.75-1.2013-8.28076-3.34602-10.21406-6.93345-6.25-5.98963 6.61847-15.04159-4.22787-9.45533-11.32966 2.08926-2.65606 2.61463-2.8089 8.59242-2.49969l6.36711.32935-.0021-6.29545c-.0026-7.76889 2.08163-10.3009 10.491675-12.74576 5.973182-1.73645 7.538512-1.64788 16.506242.93399 7.2323 2.08222 10.56974 1.98527 15.96897-.46388 5.06123-2.29584 13.03103-3.68281 13.03103-2.26777 0 1.42537-7.11942 7.93119-10.5 9.59504-1.65.81209-4.63956 1.77307-6.64346 2.13551-3.21939.58227-3.72262 1.08091-4.32354 4.28411-.78458 4.18218-5.07059 8.91907-8.95144 9.8931-3.68848.92575-4.18158.009-1.69556-3.15109 2.6511-3.37033 2.70016-7.4029.12982-10.67056-2.62024-3.33109-6.19231-4.11816-10.50741-2.31521-3.738392 1.56201-4.451902 3.54006-2.008422 5.56797 1.801832 1.49539 1.962512 5.13749.300002 6.8-.660002.66-2.722502 1.2-4.583332 1.2-1.86084 0-3.21037.3375-2.99896.75 4.76552 9.29858 5.02029 10.44127 4.38201 19.65408-.3466 5.00276-.90219 21.25623-1.23465 36.11884l-.60446 27.02291 3.13708 9.79332c4.248352 13.26247 12.108222 23.50182 21.977352 28.63076 5.00135 2.59917 16.47012 5.96738 22.41866 6.58404 10.8535 1.12513 22.34497 5.34929 31.28466 11.49996l4.63523 3.18912 9.64321-4.53096c12.21467-5.73918 16.71363-7.30497 26.64321-9.27272 18.41334-3.64899 33.09775-14.71511 39.30167-29.61757 1.72426-4.14188 3.65694-10.85868 4.29483-14.92623 1.36105-8.67883.63689-25.71675-1.71692-40.39555-2.45733-15.32437-2.92961-36.09614-.97367-42.82432 2.1258-7.31253 2.06267-7.67568-1.33448-7.67568-2.81938 0-6.07143-2.16844-6.07143-4.04838 0-.49803 1.15415-1.66174 2.56477-2.58602 2.50756-1.64301 2.52296-1.72232.69022-3.55505-1.031-1.03101-3.44754-2.12982-5.37009-2.4418-7.15548-1.16118-12.85004 7.69733-8.22991 12.80251 1.57809 1.74377 1.46194 1.82874-2.5 1.82874-5.98714 0-8.58744-2.8283-7.81066-8.4955l.58341-4.25642-5.12025-.67923c-6.05589-.80334-9.40195-2.3954-12.80749-6.09382l-2.5-2.71501 8.5.64482c4.675.35466 10.85845.90181 13.74099 1.2159 3.55734.38762 6.97575.0254 10.64107-1.12746 5.00296-1.57362 5.80618-1.58047 10.92244-.0931 7.25984 2.1105 10.6955 6.02191 10.6955 12.17659v4.42327h6.57692c5.9359 0 6.86183.2849 9.5 2.92308 2.13683 2.13682 2.92308 3.88138 2.92308 6.48581 0 3.06316-.57491 3.94319-4.1 6.27598-3.81315 2.52343-4.2854 2.61046-6.75 1.24393-1.4575-.80813-3.40055-2.96328-4.31788-4.78921l-1.66788-3.31989-1.5144 2.34015c-.83292 1.28708-1.81865 3.57765-2.19053 5.09015-.64507 2.6237-.50738 2.75 2.99802 2.75 2.02079 0 4.54457.46583 5.60841 1.03518 2.21376 1.18477 2.63195 4.96482.54927 4.96482-.76174 0-2.20383 1.2375-3.20464 2.75-2.33245 3.52496-2.14994 13.32159.40519 21.75l1.81894 6 4.10442-.32833c3.11645-.24929 4.60471.17196 6.18275 1.75 2.78632 2.78632 2.8037 7.07833.0287 7.07833-3.17786 0-7.44562 2.59685-8.66461 5.27224-1.69763 3.72588-2.59161 13.12405-1.829 19.22776.60282 4.82482.9621 5.5 2.92666 5.5 1.23172 0 3.21889.91245 4.41594 2.02768 6.44358 6.0031 2.11309 16.97232-6.70042 16.97232-3.75623 0-4.21457.33959-7.76049 5.75-8.40489 12.82428-21.41463 22.05451-36.33842 25.78163-22.69727 5.66848-36.2766 11.01399-42.6878 16.80405l-3.8122 3.44287-4.6447-4.20635zm-47.40076-193.02674c-1.54723-1.54724-2.45454-3.59709-2.45454-5.54546 0-4.90209 3.81467-8 9.85095-8 4.37219 0 5.28743.39358 7.9396 3.41423 3.20908 3.65494 5.75559 9.89307 4.72153 11.56622-.34656.56075-2.5928 1.01955-4.99164 1.01955-4.03844 0-4.41061-.22347-5.02412-3.01676l-.66259-3.01676-2.81808 3.01676c-1.54994 1.65922-3.10798 3.01676-3.46231 3.01676-.35434 0-1.7488-1.10454-3.0988-2.45454zm78.1338-4.29546c1.37965-7.62005 6.18397-13.25357 11.29652-13.24626 3.0899.004 8.92526 3.33787 9.79059 5.59288.33456.87184-.12327 3.11927-1.0174 4.99427-1.30883 2.74465-2.20252 3.40911-4.58517 3.40911-1.84759 0-3.49763-.76833-4.39189-2.04507-1.25468-1.79129-1.50989-1.84319-2.05671-.41821-.34335.89477-.62428 2.49005-.62428 3.54507 0 1.6096-.73127 1.91821-4.54531 1.91821h-4.54532z" fill="#fecd00" stroke="#000" stroke-width=".697107"/></g></svg>