<svg xmlns="http://www.w3.org/2000/svg" xml:space="preserve" width="1000" height="500" viewBox="0 0 1000 500">
  <g transform="matrix(0.87331852,0,0,0.87331852,-225.68415,-36.93732)">
    <path fill="#BC0000" d="M0 0H1000V500H0z" style="fill:#bc0000;fill-opacity:1" transform="matrix(1.1450576,0,0,1.1450576,258.42135,42.295359)"/>
    <g transform="matrix(1.1450576,0,0,1.1450576,258.42135,42.295359)">
      <path fill="gold" d="M140.439,42.41l-1.98,6.107l-5.09,15.664h-16.455h-6.447l5.203,3.789l13.346,9.67 l-5.09,15.608l-1.979,6.106l5.203-3.788l13.289-9.612l13.289,9.612l5.203,3.788l-1.98-6.106l-5.09-15.665l13.289-9.613 l5.203-3.789h-6.389h-16.457l-5.09-15.664L140.439,42.41L140.439,42.41L140.439,42.41L140.439,42.41z M140.439,55.926l3.563,10.97 l0.453,1.471h1.525h11.48l-9.275,6.729L146.941,76l0.51,1.471l3.563,10.97l-9.332-6.786l-1.244-0.904l-1.244,0.904l-9.33,6.786 l3.561-10.97L133.876,76l-1.188-0.904l-9.275-6.729h11.48h1.527l0.453-1.471l3.563-10.97H140.439L140.439,55.926z"/>
      <path fill="none" stroke="#000" stroke-width=".16" d="M86.066,147.223L86.066,147.223L86.066,147.223 L86.066,147.223"/>
      <path fill="none" stroke="#000" stroke-width=".16" d="M77.074,105.739L77.074,105.739L77.074,105.739 L77.074,105.739"/>
      <path fill="none" stroke="#000" stroke-width=".16" d="M77.074,105.739L77.074,105.739L77.074,105.739 L77.074,105.739"/>
    </g>
    <path d="m 365.00586,190.72471 -34.7207,36.07617 24.72851,24.72851 17.61914,-17.04687 90.78125,88.86328 c 1.47723,1.22051 3.54732,3.12697 5.55664,2.90625 6.06577,-0.66629 12.64557,-8.32735 12.45703,-13.5 -0.0376,-1.03093 -0.76802,-2.34515 -2.42968,-3.97266 l -91.85547,-88.33593 20.03906,-19.38868 -8.46875,-9.14453 z" style="fill:gold;fill-opacity:1;fill-rule:evenodd;stroke:none;stroke-width:1px;stroke-linecap:butt;stroke-linejoin:miter;stroke-opacity:1"/>
    <path d="m 415.98828,168.36339 c 24.04935,17.35911 47.91398,42.45276 45.39453,80.2832 -2.67501,40.42997 -33.20266,43.9581 -45.63086,41.95313 -7.71875,-1.24522 -14.22706,-7.51591 -16.75829,-10.49887 2.98842,-3.21142 1.03282,-6.24073 1.03282,-6.24073 -7.27479,-1.46752 -9.3788,2.74057 -12.27905,7.8212 -9.7296,-1.09089 -17.22797,3.50776 -16.18883,12.9223 -7.34177,5.81809 -13.15632,7.36658 -17.93359,12.38477 -8.03082,8.43581 -5.76558,13.676 -6.25391,19.28125 3.42153,-0.87263 10.1697,2.45733 18.72657,-5.63477 4.96039,-4.69096 8.30013,-11.90256 13.56997,-18.95703 10.3648,2.75996 12.93379,-10.30681 12.17411,-15.43464 0.65853,-0.48439 1.33106,-0.73772 2.0293,-1.19391 11.73724,17.5103 39.97267,28.38752 59.91817,15.63152 50.68966,-38.7046 25.99256,-113.62605 -37.80094,-132.31742 z" style="fill:gold;fill-opacity:1;fill-rule:evenodd;stroke:none;stroke-width:1px;stroke-linecap:butt;stroke-linejoin:miter;stroke-opacity:1"/>
  </g>
</svg>
