<svg height="300" width="600" xmlns="http://www.w3.org/2000/svg"><g fill-rule="evenodd"><path d="m0-.000024h600.00006v300.00003h-600.00006z" fill="#003994"/><path d="m377.95431 188.80889h12.8848s4.70198-5.82012 6.79607-15.53084c2.09409-9.71073 1.5803-23.31206 1.64746-28.37573 4.59973-.57322 4.9446 11.07195 10.83149 15.32586 1.92936-10.16132-4.61324-13.46128-5.30588-18.40573 2.46955.08555 4.18224.24443 7.57874 2.8827 3.3965 2.63828 5.85214 6.56291 6.70567 7.73753 2.52379-10.39783-6.11725-14.46564-13.06829-18.18927 7.54458-3.9708 12.03837 2.27806 15.1179 4.92512.90969-7.11348-6.74811-11.65821-11.65168-12.61264s-7.8592.7275-10.63575 2.48674c1.07323-5.55019 1.11101-11.78125 8.20958-15.16649-1.9685-2.01325-9.68224-6.75185-15.24944 5.85893-9.14631-6.71643-13.28281-.85563-11.91455 3.05903-3.64248-3.48218-12.09407-6.03032-18.41004 1.10355 3.64054 1.54487 5.71146 2.12823 9.03106 3.50107 3.31959 1.37284 6.69484 2.10352 10.79664 5.37464 1.75264 1.51626-1.9502-1.00013-6.39044 4.32792-2.58691 3.10417-2.69825 9.67205-1.98637 12.97874 1.78758-1.2696 3.37729-5.03548 7.92392-5.67838-1.89578 4.84507-3.93653 13.76756.13441 16.63861 4.30956-7.62768 4.1128-8.7799 6.08393-10.78186 1.97116-2.00194 6.11023-4.85364 6.68387-5.38154 1.63129 32.69393-15.8131 43.92204-15.8131 43.92204z" fill="#009410"/><g fill="#ffef00"><path d="m297.65627 77.083315c-37.1058 1.178003-67.32427 30.334925-70.3125 66.970495l13.62847 6.81423c-.00405-.28605 0-.58101 0-.86805 0-32.65929 26.36849-59.027784 59.02778-59.027784 16.37219.000002 31.16198 6.640169 41.84029 17.361114h17.92534c-13.20319-18.867491-35.07115-31.250005-59.76563-31.250005-.62772 0-1.24232-.015895-1.86632 0-.15355.003913-.32409-.004868-.47743 0zm-64.14931 102.821185c11.45075 25.32096 36.96921 43.01216 66.49306 43.01216 24.69448 0 46.56244-12.38251 59.76563-31.25h-17.92534c-10.67831 10.72094-25.46812 17.36111-41.84029 17.36111-15.79808 0-30.13019-6.16529-40.7118-16.23264l-.04341-.0434z"/><path d="m297.56947 24.305533c-57.67421 1.09678-105.96508 41.256607-119.48786 95.052087l12.76042 6.38021c11.07233-50.104065 55.7022-87.543407 109.15799-87.543407 47.06859.000002 87.31469 28.996663 103.81946 70.138897h14.75694c-17.22996-48.878359-63.87372-84.027787-118.5764-84.027787-.27073 0-.55432-.001718-.82465 0-.53855.003423-1.06896-.010211-1.6059 0zm-123.2639 125.911467c.11576 69.20952 56.45835 125.47744 125.69445 125.47744 54.70268.00002 101.34644-35.14943 118.5764-84.02778h-14.75694c-16.50477 41.14224-56.75087 70.13889-103.81946 70.13889-59.34876.00002-107.84652-46.11745-111.58855-104.51389z"/><path d="m297.43926 50.694425c-47.30968 1.200151-86.49049 35.693884-95.00869 80.859385l12.97743 6.51041c5.80311-41.551172 41.42456-73.480905 84.59202-73.480905 32.07892-.000002 59.96299 17.645791 74.56598 43.750005h15.5816c-15.78578-33.998962-50.27491-57.638895-90.14758-57.638895-.64148 0-1.27108-.012185-1.90972 0-.21039.004013-.44097-.00533-.65104 0zm-95.78994 113.237855c6.80429 48.16634 48.34231 85.37327 98.3507 85.37327 39.87267 0 74.3618-23.63993 90.14758-57.63889h-15.5816c-14.60299 26.10421-42.48706 43.75-74.56598 43.75-39.69135 0-72.97728-26.9839-82.59549-63.62848z"/></g><g fill="#fff"><path d="m129 87.5 2.46987 7.600511 7.99175.000302-6.46528 4.697676 2.4693 7.600701-6.46564-4.69719-6.46564 4.69719 2.4693-7.600701-6.46528-4.697676 7.99175-.000302z" transform="matrix(1.388889 0 0 1.388889 0 -.000024)"/><path d="m129 87.5 2.46987 7.600511 7.99175.000302-6.46528 4.697676 2.4693 7.600701-6.46564-4.69719-6.46564 4.69719 2.4693-7.600701-6.46528-4.697676 7.99175-.000302z" transform="matrix(1.388889 0 0 1.388889 29.16614 13.88887)"/><path d="m129 87.5 2.46987 7.600511 7.99175.000302-6.46528 4.697676 2.4693 7.600701-6.46564-4.69719-6.46564 4.69719 2.4693-7.600701-6.46528-4.697676 7.99175-.000302z" transform="matrix(1.388889 0 0 1.388889 58.33281 29.16638)"/></g></g></svg>
