<svg xmlns="http://www.w3.org/2000/svg" xmlns:xlink="http://www.w3.org/1999/xlink" width="1235" height="650"><defs><g id="c"><g id="b"><use xlink:href="#a" x=".054" y=".056"/><use xlink:href="#a" x=".154" y=".056"/><use xlink:href="#a" x=".254" y=".056"/><use xlink:href="#a" x=".354" y=".056"/><use xlink:href="#a" x=".454" y=".056"/><use xlink:href="#a" x=".554" y=".056"/><use xlink:href="#a" x=".654" y=".056"/></g><use xlink:href="#b" x=".05" y=".071"/></g><g id="d"><use xlink:href="#c"/><use xlink:href="#c" y=".142"/><use xlink:href="#c" y=".284"/><use xlink:href="#b" y=".426"/></g><path id="a" transform="scale(.0308)" fill="#fff" d="M0-1 .588.809-.952-.309H.952L-.588.809z"/></defs><path fill="#bf0a30" d="M0 0h1235v650H0z"/><path stroke="#FFF" stroke-width="50" d="M0 75h1235M0 175h1235M0 275h1235M0 375h1235M0 475h1235M0 575h1235"/><path fill="#002868" d="M0 0h494v350H0z"/><use xlink:href="#d" transform="scale(650)"/></svg>