<?xml version="1.0" encoding="UTF-8" standalone="no"?>
<svg
   xmlns:dc="http://purl.org/dc/elements/1.1/"
   xmlns:cc="http://creativecommons.org/ns#"
   xmlns:rdf="http://www.w3.org/1999/02/22-rdf-syntax-ns#"
   xmlns:svg="http://www.w3.org/2000/svg"
   xmlns="http://www.w3.org/2000/svg"
   xmlns:sodipodi="http://sodipodi.sourceforge.net/DTD/sodipodi-0.dtd"
   xmlns:inkscape="http://www.inkscape.org/namespaces/inkscape"
   version="1.1"
   width="600"
   height="300"
   id="svg50"
   sodipodi:docname="Flag of the Mutawakkilite Kingdom of Yemen 1918-1927.svg"
   inkscape:version="0.92.4 (5da689c313, 2019-01-14)">
  <metadata
     id="metadata54">
    <rdf:RDF>
      <cc:Work
         rdf:about="">
        <dc:format>image/svg+xml</dc:format>
        <dc:type
           rdf:resource="http://purl.org/dc/dcmitype/StillImage" />
        <dc:title></dc:title>
      </cc:Work>
    </rdf:RDF>
  </metadata>
  <sodipodi:namedview
     pagecolor="#ffffff"
     bordercolor="#666666"
     borderopacity="1"
     objecttolerance="10"
     gridtolerance="10"
     guidetolerance="10"
     inkscape:pageopacity="0"
     inkscape:pageshadow="2"
     inkscape:window-width="1048"
     inkscape:window-height="773"
     id="namedview52"
     showgrid="true"
     inkscape:zoom="0.70710678"
     inkscape:cx="347.4573"
     inkscape:cy="194.62479"
     inkscape:window-x="866"
     inkscape:window-y="126"
     inkscape:window-maximized="0"
     inkscape:current-layer="layer1">
    <inkscape:grid
       type="xygrid"
       id="grid65"
       spacingx="0.5"
       spacingy="0.5" />
  </sodipodi:namedview>
  <defs
     id="defs34">
    <path
       id="star"
       fill="#fff"
       transform="scale(21)"
       d="M0,-1 L0.58779,0.80902 L-0.95106,-0.30902 L0.95106,-0.30902 L-0.58779,0.80902z" />
  </defs>
  <g
     inkscape:groupmode="layer"
     id="layer1"
     inkscape:label="new"
     style="display:inline;opacity:1">
    <rect
       y="0"
       x="0"
       style="fill:#ce1126"
       width="600"
       height="300"
       id="rect36-1" />
    <path
       style="fill:#ffffff;fill-opacity:1;fill-rule:evenodd;stroke:none;stroke-width:0.25;stroke-linecap:butt;stroke-linejoin:round;stroke-miterlimit:4;stroke-dasharray:none;stroke-opacity:1"
       d="m 117.88754,99.779904 c -1.66883,1.209186 0.009,3.979006 -0.2977,5.682216 1.34055,14.89819 2.24672,29.85921 1.09848,44.80216 -0.74423,9.92841 -1.00561,20.56653 -3.67285,29.85644 -4.63943,-5.39492 -6.16998,-12.70531 -8.35547,-19.32519 -1.94143,-5.95125 -2.58625,-12.2667 -4.48828,-18.19727 -0.30238,-1.39592 -2.252977,-1.50825 -2.306647,0.084 -1.9807,13.75191 -5.232779,27.50751 -11.157399,40.14776 -0.622378,0.82841 -1.36204,3.2458 -2.693184,2.66083 -3.671171,-10.15034 -4.70338,-21.07248 -6.049022,-31.73924 -1.7929,-16.05025 -0.9248,-32.38559 -1.734181,-48.41798 -4.799914,-1.20442 -9.613158,1.34143 -14.118164,2.71484 -7.775929,2.88613 -14.656424,9.33927 -16.864258,17.46484 0.151418,5.27068 5.509762,9.10041 10.341797,9.96387 4.650131,1.0376 8.932646,-2.08274 12.920898,-3.48145 0.414667,16.047 0.655037,32.28697 4.541992,47.97559 1.398789,6.10315 2.714695,12.39458 5.686524,17.94922 2.656819,2.60818 7.321785,1.18302 9.788085,-1.07324 6.097982,-5.67954 8.786437,-13.94534 11.653319,-21.53028 1.62275,-0.44537 1.72703,2.52938 2.24219,3.56641 2.8555,7.65238 7.84541,14.46538 13.89844,19.88379 1.91101,0.80978 2.04684,-2.37501 2.5664,-3.49414 6.18988,-21.36281 6.68839,-43.78128 8.80274,-65.7793 0.97091,-7.07504 -1.79012,-13.87586 -4.41114,-20.2832 -1.83531,-3.42609 -3.61168,-7.62574 -7.25488,-9.433596 l -0.0977,-9.76e-4 z M 68.440271,113.75451 c 2.154938,0.0729 1.317227,3.23639 1.775391,4.61524 -0.0291,2.35037 1.557368,6.52579 -1.850586,7.27929 -3.761776,0.88759 -8.242343,2.91066 -11.890625,0.73047 -2.538056,-2.98976 0.712677,-6.73834 3.055664,-8.66894 2.513494,-2.04924 5.614733,-3.84536 8.910156,-3.95606 z"
       id="path174"
       inkscape:connector-curvature="0" />
    <path
       style="fill:#ffffff;fill-opacity:1;fill-rule:evenodd;stroke:none;stroke-width:0.25;stroke-linecap:butt;stroke-linejoin:round;stroke-miterlimit:4;stroke-dasharray:none;stroke-opacity:1"
       d="m 79.447107,86.379514 c -2.105804,0.947 -1.192777,4.177635 -1.132813,6.020507 0.768321,4.596119 4.657822,8.429819 8.907227,10.019529 3.932211,0.59255 7.705721,-1.16672 10.365234,-3.989255 1.649839,-0.167248 3.180525,1.545928 5.021485,1.261718 3.12468,0.588707 6.319,-0.410275 8.12598,-3.117187 2.00287,-2.140632 3.12587,-5.655173 2.03418,-8.426758 -1.90338,-0.370781 -3.31234,2.208871 -4.80176,3.106445 -1.87138,1.912657 -5.37005,4.028889 -7.50293,1.309571 -1.126517,-1.375576 -2.958228,-3.97778 -4.872072,-2.121094 -2.323472,1.610238 -4.76553,4.482376 -7.830078,4.050781 -3.481921,-1.526705 -5.304607,-5.185694 -7.624024,-7.924804 -0.206675,-0.124276 -0.447134,-0.205237 -0.690429,-0.189453 z"
       id="path176"
       inkscape:connector-curvature="0" />
    <path
       style="fill:#ffffff;fill-opacity:1;fill-rule:evenodd;stroke:none;stroke-width:0.25;stroke-linecap:butt;stroke-linejoin:round;stroke-miterlimit:4;stroke-dasharray:none;stroke-opacity:1"
       d="m 131.53154,101.04748 c 0,32.20801 0,64.41602 0,96.62403 2.22341,-0.1122 6.60178,0.73682 7.42675,-2.417 1.60529,-8.95658 1.14597,-18.17429 1.90678,-27.23013 1.07239,-17.41155 1.87332,-34.91585 -0.10581,-52.29822 -0.61316,-4.16378 -0.13348,-8.74564 -1.65155,-12.67672 -1.51949,-1.0715 -3.42042,-1.23273 -5.00879,-2.12403 -0.8185,-0.0509 -1.90232,-0.30009 -2.56738,0.12207 z"
       id="path178"
       inkscape:connector-curvature="0" />
    <path
       style="fill:#ffffff;fill-opacity:1;fill-rule:evenodd;stroke:none;stroke-width:0.25;stroke-linecap:butt;stroke-linejoin:round;stroke-miterlimit:4;stroke-dasharray:none;stroke-opacity:1"
       d="m 272.9622,94.909787 c -6.89463,0.167322 -13.92768,3.071392 -17.74609,9.061523 -1.4203,2.21236 -1.5544,5.11309 -3.94727,6.70703 -8.28492,6.02899 -19.08127,6.55209 -28.50976,9.75195 -0.84974,1.83967 1.98443,3.12761 3.12011,4.11231 6.01481,4.02168 13.31076,5.46907 20.3916,5.99805 2.86901,1.19064 1.65049,5.22005 0.88477,7.4248 -2.44774,4.18749 -6.84155,8.10657 -12.06836,7.25879 -9.86701,-0.21965 -21.21883,-3.97401 -25.4181,-13.74885 -1.79345,-4.46543 -3.96037,-9.20563 -3.70397,-14.11443 2.05812,-5.69713 1.96621,-12.28763 -0.57422,-17.796876 -2.08514,-0.828509 -2.80033,2.440936 -3.21289,3.859376 -1.2558,4.26759 -3.7582,9.52095 -8.93262,9.59375 -2.57072,-0.11009 -4.51112,1.72711 -5.27929,4.00586 -1.7946,1.76241 -4.93008,1.75149 -7.13477,1.05273 -0.79122,-4.96793 -0.10464,-10.16604 -1.82501,-15.02547 -0.43178,-1.56052 -1.1081,-4.741009 -3.16718,-4.546793 -1.32756,5.065643 -0.85082,10.586513 -2.0224,15.752733 -0.86416,2.76612 -0.55157,6.99348 -3.58502,8.41035 -4.13447,0.8917 -7.61394,-3.24163 -7.20801,-7.19433 -0.54764,-4.1817 0.57757,-8.26578 1.31348,-12.33887 -0.45123,-1.77519 -2.98924,-0.14764 -3.89648,0.45996 -5.18071,3.40688 -5.94329,10.26131 -5.45411,15.92578 1.16631,7.13457 8.55145,11.86332 15.45508,11.88086 2.54238,1.45234 1.919,5.19231 2.69922,7.66699 1.0744,10.25017 1.63534,20.82692 -0.37961,30.9785 -1.82826,8.53864 -6.77516,18.15236 -16.07644,20.11916 -4.8602,0.6797 -9.69568,-0.29868 -14.39942,-1.45703 -0.82871,-0.19546 -1.85611,1.38285 -1.74804,-0.23047 -0.25367,-21.95354 3.49391,-43.90354 1.12601,-65.84964 -0.85472,-6.3675 -0.2538,-13.07705 -2.26469,-19.2236 -1.3483,-1.90831 -4.00154,-2.27369 -6.02441,-3.13965 -2.20811,0.69025 -1.45201,4.00974 -1.87127,5.77824 -0.61521,26.61173 -0.27698,53.24238 -0.35232,79.86138 0.2532,3.94513 -0.37811,8.15252 0.36324,11.97659 2.48926,0.74619 5.88218,0.0855 7.65234,-1.96973 1.25327,-1.40628 0.0967,-4.08516 1.42481,-5.10644 3.6213,2.74144 6.71466,7.18834 11.78906,7.08203 5.5098,0.15666 12.11198,0.90878 16.19238,-3.68457 10.24017,-10.38053 14.4938,-25.45293 14.10927,-39.78027 0.10526,-8.26843 -1.02785,-16.52731 -2.12489,-24.65918 1.34039,-1.97449 4.49012,-0.35363 6.40039,-1.48145 3.53674,-0.77377 4.83109,-5.54344 8.76777,-5.10024 3.16592,-0.98224 4.33923,0.53215 4.22441,3.64439 0.44238,2.98045 1.1053,5.99551 2.57325,8.59745 1.30758,4.04073 4.60253,7.27999 7.59668,10.19629 6.8936,5.51748 16.03503,7.13702 24.59765,7.83399 2.9779,0.25577 5.92283,-1.00642 8.80469,-1.01075 2.76185,5.32481 8.68569,9.36946 14.88281,8.42676 4.95911,-0.16525 10.84291,-3.32736 10.50684,-8.98926 0.60539,-3.53072 -0.78801,-7.19134 -3.90918,-9.05957 -2.63489,-2.04473 -6.23588,-1.58932 -9.06543,-2.98535 -2.36474,-2.63786 0.19496,-7.17165 3.54785,-7.04004 6.7891,-1.77226 14.57656,-2.89313 19.62207,-8.21875 1.2822,-1.10194 1.03174,-3.9701 -1.12207,-3.49023 -5.21633,0.15445 -10.07358,2.30902 -15.31933,2.31933 -5.63461,0.2764 -11.50221,1.19837 -17.04102,0.002 -0.8814,-0.50272 -0.77734,-1.49758 0.38574,-1.20703 5.05127,-1.20648 10.11276,-3.22137 14.15332,-6.49903 4.4514,-0.93921 9.3392,-0.30469 13.42823,-2.78993 3.21798,-1.63923 6.75598,-4.45001 7.17334,-8.26573 -0.25289,-3.80733 -2.14102,-8.759389 -6.26368,-9.66797 -0.51067,-0.05828 -1.02534,-0.0758 -1.53906,-0.06738 z m -2.91308,6.866213 c 1.83091,-0.45438 3.47191,1.06336 2.87402,2.94531 0.10222,2.56498 -1.99221,4.6266 -4.53418,4.41211 -2.36046,0.45509 -7.06911,-0.3597 -6.06836,-3.62891 1.51852,-2.92113 4.73695,-3.61458 7.72852,-3.72851 z m -135.03809,1.47168 c 3.49003,-0.0673 1.91691,4.66712 3.61523,6.45605 1.0266,6.19886 -0.3336,12.67513 0.97559,18.83008 1.4324,3.24905 0.66855,7.15437 0.98881,10.64744 -0.13155,4.34746 0.24324,8.88841 -1.2603,13.01272 -0.82053,8.66995 0.37343,17.51152 -0.8457,26.11132 -1.45299,4.93303 -0.58384,10.3581 -1.01775,15.46337 0.0791,3.31448 -5.57692,1.90085 -3.53498,-1.66454 0,-29.61881 0,-59.23763 0,-88.85644 0.3597,0 0.7194,0 1.0791,0 z m 118.39746,44 c 2.98309,0.26324 7.16405,0.29998 8.88574,3.22265 0.10447,2.86335 -3.04849,5.00488 -5.7373,4.33399 -3.40146,0.31295 -7.36552,-2.8731 -6.76856,-6.41211 0.50865,-1.47778 2.4355,-1.02293 3.62012,-1.14453 z"
       id="path180"
       inkscape:connector-curvature="0" />
    <path
       style="fill:#ffffff;fill-opacity:1;fill-rule:evenodd;stroke:none;stroke-width:0.25;stroke-linecap:butt;stroke-linejoin:round;stroke-miterlimit:4;stroke-dasharray:none;stroke-opacity:1"
       d="m 204.42411,158.73303 c -4.4438,-0.28646 -8.65166,3.1321 -10.17538,7.1192 -0.92441,2.77525 -1.71045,5.93051 0.29062,8.48138 3.28259,6.72242 10.30215,11.4275 17.87207,11.27051 1.13714,-0.0508 2.81488,-0.18362 1.9541,1.49512 -2.29165,8.25472 -6.48699,16.26819 -12.7683,22.19611 -6.81748,6.29081 -16.08377,9.4374 -25.28932,9.02166 -3.87316,0.25619 -7.90485,-0.47438 -11.70605,0.085 -1.36574,1.63142 1.25173,3.53806 2.38867,4.47364 5.91334,4.03341 13.51484,2.67608 20.22949,2.41797 5.10879,-0.47252 10.43233,-1.25273 14.44434,-4.75489 8.51751,-6.59226 16.30961,-14.65143 20.39416,-24.7556 1.50112,-3.10585 2.21573,-6.4776 2.77283,-9.81764 1.66541,-2.70209 5.65739,-1.5199 7.98828,-3.31738 2.71755,-1.49022 3.63436,2.94684 6.29883,2.79687 4.462,0.98387 8.40249,-1.8134 12.12988,-3.67968 3.95627,3.16733 8.09063,6.69045 13.36036,7.39843 3.75281,0.72053 8.04717,1.18464 11.02148,-1.78125 4.00657,-3.09142 8.22815,-7.37342 7.51446,-12.89841 -0.23546,-3.75881 0.48404,-8.20887 -1.82501,-11.43166 -1.86112,-0.78692 -2.0387,2.53197 -2.49218,3.6455 -0.76516,5.6336 -3.32233,12.23774 -9.52735,13.70899 -4.19248,1.11213 -10.19644,0.5056 -11.71387,-4.33594 -1.37575,-2.71542 -0.32714,-6.2683 -2.0332,-8.81543 -1.96615,-0.15882 -2.30666,2.84809 -3.67208,3.85848 -2.58279,2.7128 -5.62016,6.98431 -9.86112,6.11808 -1.44286,-1.93884 0.92356,-4.30255 0.72985,-6.48549 -3.9e-4,-1.9951 0.9178,-4.86411 -0.67028,-6.39341 -3.4311,1.69386 -5.42805,5.49011 -8.37598,7.89941 -2.37098,1.90427 -4.87703,5.5162 -8.29199,4.66406 -1.78548,-1.74929 -0.77745,-4.80396 -2.1582,-6.86816 -3.13864,-7.00093 -11.06665,-12.18393 -18.82911,-11.31543 z m 1.69922,6.58887 c 5.26259,-0.46027 8.62531,4.76582 10.62403,8.88574 0.79921,2.30772 -2.26656,4.37139 -4.35254,4.12988 -6.3469,0.95272 -11.60703,-5.42171 -11.30762,-11.41699 0.91749,-1.64291 3.45903,-1.43306 5.03613,-1.59863 z"
       id="path182"
       inkscape:connector-curvature="0" />
    <path
       style="fill:#ffffff;fill-opacity:1;fill-rule:evenodd;stroke:none;stroke-width:0.25;stroke-linecap:butt;stroke-linejoin:round;stroke-miterlimit:4;stroke-dasharray:none;stroke-opacity:1"
       d="m 288.57939,168.99084 c -1.73005,5.23726 -1.96696,10.8245 -4.15322,15.94662 -4.38343,12.79726 -14.44771,23.23237 -26.85398,28.54947 -7.78836,3.33541 -16.08989,5.58055 -24.50355,6.52051 -1.55083,-0.20876 -2.14375,2.26004 -0.3916,2.24024 9.89762,0.52612 19.87489,-0.72405 29.58008,-2.63867 7.02823,-1.97678 14.00154,-5.34633 18.55176,-11.25977 9.03766,-10.72886 12.5804,-24.67838 16.55469,-37.79102 -0.17155,-2.37173 -3.54168,-1.48487 -5.09668,-1.71093 -1.20245,0.10244 -2.569,-0.20022 -3.6875,0.14355 z"
       id="path184"
       inkscape:connector-curvature="0" />
    <path
       style="fill:#ffffff;fill-opacity:1;fill-rule:evenodd;stroke:none;stroke-width:0.25;stroke-linecap:butt;stroke-linejoin:round;stroke-miterlimit:4;stroke-dasharray:none;stroke-opacity:1"
       d="m 345.94755,105.8551 c -1.67712,-0.29794 -3.86433,0.45043 -3.20814,2.57708 0.0945,23.64536 2.1405,47.45771 -0.93727,70.98468 -0.64942,2.7924 -0.80361,6.2616 -2.82041,8.37769 -1.93186,-3.57913 -1.36322,-8.109 -2.33496,-12.03222 -2.6171,-13.81789 -3.66292,-28.21462 -9.23633,-41.28028 -0.32311,-1.43425 -2.15958,-1.39985 -2.05176,0.18457 -1.20337,13.53212 -0.8665,27.2198 -3.48306,40.61693 -0.80673,3.28517 -1.05886,7.18638 -2.7767,10.03444 -1.30087,-2.96284 -0.39128,-6.50794 -1.07813,-9.67578 -1.74453,-19.56275 -4.66949,-39.07665 -10.24438,-57.94492 -0.88294,-1.82048 -0.52724,-6.09223 -3.45679,-6.00332 -6.14314,2.04007 -11.71227,5.75884 -16.77441,9.74121 -4.89244,4.69279 -11.39776,9.91822 -10.6875,17.47558 0.35563,3.99773 3.46079,8.41884 7.9375,7.83008 6.1694,0.411 12.0675,-2.19246 16.63574,-6.20508 1.05775,-1.18967 1.98086,-0.399 2.07617,0.94922 5.04613,18.26971 6.63605,37.27051 6.68773,56.16633 0.0786,1.83814 -0.36552,5.94535 2.66481,5.40691 6.95152,-1.5128 11.95293,-7.34641 14.92774,-13.49804 3.20581,6.25414 7.17694,12.91904 13.91406,15.85449 2.23735,1.18114 2.91529,-1.86602 3.31641,-3.38086 8.17732,-20.46974 6.99652,-42.94813 7.86041,-64.55361 0.008,-9.66356 0.71098,-19.39758 -0.26276,-29.02354 -0.43251,-3.27912 -4.36221,-2.50096 -6.66797,-2.60156 z m -45.95312,15.90137 c 2.85631,0.15745 4.52122,3.91195 2.96972,6.30468 -2.4269,5.37776 -7.64551,10.11407 -13.76758,10.21582 -1.90148,-0.4063 -4.41954,-2.2033 -2.62988,-4.2539 2.65891,-5.51277 6.67756,-11.75451 13.42774,-12.2666 z"
       id="path186"
       inkscape:connector-curvature="0" />
    <path
       style="fill:#ffffff;fill-opacity:1;fill-rule:evenodd;stroke:none;stroke-width:0.25;stroke-linecap:butt;stroke-linejoin:round;stroke-miterlimit:4;stroke-dasharray:none;stroke-opacity:1"
       d="m 327.64189,98.522092 c -1.93829,0.666912 -2.25464,2.934838 -3.03125,4.495118 -2.37208,1.73476 -4.75674,-0.7459 -5.47754,-2.92188 -1.09606,-2.30431 -3.91717,-0.812853 -4.40625,1.11817 -1.65381,3.05719 -0.35485,7.17851 3.07226,8.30273 2.65232,1.61358 5.97428,1.47016 8.47461,-0.33008 1.98163,0.66087 3.81698,2.39063 6.16309,1.98536 4.56317,0.12377 9.16048,-4.76316 7.48535,-9.27539 -1.4305,-2.29024 -3.48164,0.56873 -4.62891,1.55957 -1.56216,1.37452 -5.07118,1.48436 -4.97102,-1.32338 -0.18244,-1.73353 -0.69815,-3.328598 -2.68034,-3.610218 z"
       id="path188"
       inkscape:connector-curvature="0" />
    <path
       style="fill:#ffffff;fill-opacity:1;fill-rule:evenodd;stroke:none;stroke-width:0.25;stroke-linecap:butt;stroke-linejoin:round;stroke-miterlimit:4;stroke-dasharray:none;stroke-opacity:1"
       d="m 360.32793,100.86584 c -1.54275,0.2112 -4.70509,-0.46147 -4.2832,2.10352 -0.51123,25.76769 0.13502,51.55192 0.31249,77.32382 0.3589,6.43833 -0.32349,13.02719 0.71973,19.38516 1.3832,1.61153 4.13097,1.79567 6.15039,1.57617 2.2519,-1.70092 1.22574,-5.25355 1.65738,-7.70046 0.56484,-29.27949 0.98285,-58.56747 1.07212,-87.85129 -0.13475,-1.68139 0.48396,-4.84532 -2.12696,-4.76465 -1.16352,-0.10422 -2.33498,-0.0858 -3.50195,-0.0723 z"
       id="path190"
       inkscape:connector-curvature="0" />
    <path
       style="fill:#ffffff;fill-opacity:1;fill-rule:evenodd;stroke:none;stroke-width:0.25;stroke-linecap:butt;stroke-linejoin:round;stroke-miterlimit:4;stroke-dasharray:none;stroke-opacity:1"
       d="m 492.08574,99.094357 c -1.68532,1.113283 -0.22,3.658773 -0.0547,5.252933 0.76136,11.68595 0.48227,23.50786 -1.98666,34.99775 -2.12933,13.196 -5.91391,26.52353 -13.29494,37.78836 -4.17832,6.04946 -11.03164,12.36913 -18.96938,10.3633 -5.50899,-1.89639 -9.73189,-6.69466 -11.0625,-12.32617 -1.37481,-2.02325 -2.94053,-4.62115 -5.09649,-5.55641 -7.98582,-0.26633 -15.586,3.0401 -22.13691,7.30641 -0.69892,-0.37373 0.80103,-2.35938 0.89619,-3.1444 7.18653,-14.87148 14.69377,-30.4154 14.92217,-47.30091 0.40158,-9.02063 -1.48409,-17.95785 -3.95117,-26.553714 -1.64392,-1.294294 -2.13841,1.660524 -2.10156,2.776364 -1.56062,20.55397 -3.72428,41.66337 -12.66407,60.5 -5.16542,10.39584 -13.24797,20.57397 -24.71582,24.12598 -0.0224,-3.1261 2.56462,-5.9003 3.38086,-8.93457 6.86007,-17.06516 10.02239,-36.15955 5.5791,-54.25293 -2.10538,-8.22691 -5.60403,-16.4011 -11.25488,-22.80859 -1.64168,-0.36632 -1.15944,2.4472 -0.91797,3.37207 4.8918,16.29633 6.51577,33.67893 4.2908,50.55282 -2.52097,14.38955 -9.0025,28.22395 -19.62843,38.42091 -1.2038,1.69454 -3.73024,3.20366 -4.07155,5.21572 6.64437,0.44285 13.46784,0.76115 20.08804,-0.21532 6.6041,-1.86617 13.32744,-4.57222 18.32602,-9.34913 2.07994,1.01659 1.45479,4.42518 3.44922,5.76757 2.27852,2.46706 5.72555,3.00698 8.83794,1.99859 8.18067,-0.99005 15.91689,-4.60849 22.22359,-9.81304 4.41681,4.27936 9.35525,8.39909 15.57231,9.66309 3.15215,1.3123 6.54158,0.78454 9.45206,-0.86621 7.27272,-3.28189 12.67822,-9.68467 17.0385,-16.18253 9.8769,-16.47868 14.68557,-35.72696 15.50438,-54.82898 -0.028,-7.86778 0.44948,-16.61226 -4.16002,-23.43088 -0.94966,-0.99382 -2.02339,-2.397629 -3.49415,-2.538083 z m -56.91699,77.807613 c 2.71539,0.0884 1.34277,3.57751 0.58496,5.01661 -2.75226,6.26634 -10.542,7.13817 -16.55566,6.87597 -1.83758,0.35009 -1.69588,-1.70463 -0.53711,-2.52832 3.96112,-5.31987 9.98505,-8.53772 16.50781,-9.36426 z"
       id="path192"
       inkscape:connector-curvature="0" />
    <path
       style="fill:#ffffff;fill-opacity:1;fill-rule:evenodd;stroke:none;stroke-width:0.25;stroke-linecap:butt;stroke-linejoin:round;stroke-miterlimit:4;stroke-dasharray:none;stroke-opacity:1"
       d="m 464.91875,100.84729 c -1.58429,0.195 -5.48962,-0.6955 -4.98145,2.09375 2.23143,22.12048 2.59549,44.46802 1.09647,66.66428 0.0593,5.20617 -1.41434,10.41965 -0.91189,15.5906 0.85608,1.61233 3.29253,0.16562 4.47851,-0.48926 1.81015,-2.35778 1.22437,-5.83659 1.91658,-8.61902 2.16735,-18.51491 3.96629,-37.08322 4.37932,-55.73471 -0.17533,-5.95795 1.05099,-12.10325 -0.24219,-17.96365 -0.96675,-2.16087 -3.90626,-1.36571 -5.73535,-1.54199 z"
       id="path194"
       inkscape:connector-curvature="0" />
    <path
       style="fill:#ffffff;fill-opacity:1;fill-rule:evenodd;stroke:none;stroke-width:0.25;stroke-linecap:butt;stroke-linejoin:round;stroke-miterlimit:4;stroke-dasharray:none;stroke-opacity:1"
       d="m 501.75566,102.21154 c -1.62066,1.41316 -0.25686,4.30316 -0.49213,6.19601 1.84886,19.80203 2.06621,39.78096 0.75124,59.61336 -0.20248,5.7002 -1.48572,11.52651 -0.847,17.18087 2.0649,1.26273 4.90575,0.10551 7.18653,-0.10742 2.31852,-0.415 0.94542,-3.70267 1.45554,-5.28203 0.0387,-15.50317 0.76864,-31.08589 -0.85356,-46.53207 -1.45371,-10.06765 -2.3742,-20.42147 -6.00823,-29.98766 -0.26134,-0.44076 -0.58441,-1.11749 -1.19239,-1.08106 z"
       id="path196"
       inkscape:connector-curvature="0" />
    <path
       style="fill:#ffffff;fill-opacity:1;fill-rule:evenodd;stroke:none;stroke-width:0.25;stroke-linecap:butt;stroke-linejoin:round;stroke-miterlimit:4;stroke-dasharray:none;stroke-opacity:1"
       d="m 539.20391,103.43811 c -0.98314,-0.0231 -2.59188,-0.0139 -1.96582,1.56054 -0.21391,19.50907 -0.48832,39.43663 -6.50766,58.1853 -1.69231,4.25824 -3.17117,9.53435 -7.34391,11.96412 -1.12138,-1.85878 0.40166,-4.62982 0.46387,-6.75684 1.27731,-15.30874 1.89252,-30.8689 -0.49512,-46.09765 -0.42612,-4.27468 -4.66579,-6.62822 -8.01855,-8.4834 -2.04985,0.2306 -0.49953,3.37442 -0.60909,4.62382 2.76609,18.22901 3.1197,36.83007 1.71553,55.17794 -0.97385,7.06785 -5.52373,13.25249 -10.71232,17.92902 -4.22945,3.46493 -9.12864,5.94611 -14.10994,7.99187 -1.46094,0.87524 -0.45674,2.83239 1.10449,2.51563 8.11196,0.65812 16.73483,0.16108 23.78809,-4.33008 12.62206,-7.64894 19.39083,-21.85061 23.46484,-35.52148 5.03476,-18.05764 6.51953,-36.94657 5.99414,-55.62989 0.39386,-3.14798 -2.05703,-3.40312 -4.60059,-3.11621 -0.72238,-0.0236 -1.44538,-0.0359 -2.16796,-0.0127 z"
       id="path198"
       inkscape:connector-curvature="0" />
  </g>
</svg>
